<svg width="26" height="50" viewBox="0 0 26 50" fill="none" xmlns="http://www.w3.org/2000/svg">
<path d="M5.8696 10.1675C5.8696 10.1675 5.84836 10.1954 5.80775 10.2483C5.76573 10.3016 5.72087 10.381 5.67034 10.4867C5.56883 10.6983 5.50934 11.0212 5.52067 11.415C5.52869 11.8083 5.61133 12.2753 5.66516 12.7999C5.72465 13.3235 5.75204 13.8807 5.77092 14.4397C5.77517 14.9993 5.77187 15.5583 5.73457 16.082C5.70293 16.6051 5.6491 17.0924 5.58442 17.5079C5.46448 18.3403 5.30016 18.8843 5.30016 18.8843C5.30016 18.8843 5.22697 18.3219 5.17834 17.49C5.15095 17.074 5.12876 16.5905 5.11082 16.0735C5.10515 15.8147 5.08579 15.5475 5.08485 15.2764C5.07777 15.0054 5.07069 14.7301 5.06313 14.4549C5.05935 13.9043 5.04329 13.3519 5.04424 12.8367C5.04188 12.323 5.03055 11.8182 5.11695 11.3805C5.19156 10.9438 5.37287 10.592 5.55466 10.4079C5.64013 10.3125 5.72843 10.253 5.78226 10.2195C5.83939 10.1855 5.8696 10.1675 5.8696 10.1675Z" fill="#1E009F"/>
<path d="M20.3459 10.4087C20.344 10.413 20.4158 10.4503 20.5201 10.5551C20.6231 10.6585 20.7581 10.8261 20.8639 11.0565C20.9758 11.2846 21.0556 11.5707 21.1051 11.8729C21.1528 12.1798 21.1679 12.49 21.1679 12.8092C21.1675 13.4429 21.0622 14.0723 20.9262 14.5317C20.7959 14.9926 20.632 15.2825 20.632 15.2825C20.632 15.2825 20.5603 14.9581 20.5216 14.4916C20.4781 14.0241 20.454 13.4131 20.4597 12.8045C20.463 12.1874 20.5083 11.6028 20.4739 11.1642C20.4573 10.9451 20.4271 10.7577 20.3983 10.6245C20.3714 10.4909 20.3459 10.4087 20.3459 10.4087Z" fill="#1E009F"/>
<path d="M2.38737 19.8636C2.38737 19.8636 2.30144 19.9949 2.22164 20.2404C2.13901 20.4855 2.07432 20.8467 2.06534 21.2797C2.05779 21.7169 2.11162 22.2165 2.1815 22.775C2.258 23.3317 2.30569 23.9446 2.33875 24.5509C2.35811 25.1586 2.36849 25.7653 2.34582 26.3338C2.32788 26.9018 2.29011 27.4311 2.24336 27.8839C2.15553 28.7896 2.02993 29.3911 2.02993 29.3911C2.02993 29.3911 1.91707 28.7863 1.83633 27.8825C1.79194 27.4307 1.7537 26.9042 1.72206 26.3414C1.70931 26.0604 1.68287 25.77 1.67484 25.4749C1.66067 25.1808 1.64603 24.8814 1.63186 24.582C1.60778 23.9833 1.5837 23.3841 1.56103 22.8223C1.54073 22.2542 1.55963 21.6938 1.66351 21.2315C1.76031 20.7655 1.93643 20.4 2.0965 20.1767C2.17442 20.0634 2.2528 19.9873 2.30474 19.9363C2.35857 19.8887 2.38737 19.8636 2.38737 19.8636Z" fill="#1E009F"/>
<path d="M23.4226 19.8851C23.4145 19.8899 23.5685 19.9361 23.7129 20.1666C23.8607 20.3923 23.9325 20.779 23.9873 21.1897C24.051 21.6095 24.1077 22.102 24.1492 22.6294C24.196 23.1568 24.2158 23.7206 24.2328 24.2843C24.2333 24.5662 24.2333 24.8486 24.2333 25.1262C24.2366 25.4034 24.2172 25.6768 24.2092 25.9412C24.1875 26.47 24.1473 26.9634 24.0987 27.3856C24.0085 28.2298 23.8773 28.7898 23.8773 28.7898C23.8773 28.7898 23.7701 28.2251 23.6922 27.3823C23.6492 26.9611 23.6133 26.47 23.5855 25.944C23.5534 25.4185 23.5425 24.8576 23.5255 24.2971C23.5231 23.7362 23.5142 23.1752 23.5274 22.6488C23.5364 22.1218 23.5557 21.6308 23.5826 21.2077C23.61 20.778 23.644 20.4503 23.584 20.2213C23.5321 19.9933 23.4226 19.8851 23.4226 19.8851Z" fill="#1E009F"/>
<path d="M8.59265 1.05845C8.59265 1.05845 8.50623 1.14627 8.42596 1.31389C8.34096 1.48292 8.28808 1.73789 8.28808 2.0533C8.28619 2.36824 8.34048 2.7422 8.37212 3.16905C8.40942 3.58975 8.42265 4.03878 8.43776 4.48782C8.43823 4.93732 8.44107 5.38636 8.41841 5.808C8.40093 6.22965 8.36976 6.62345 8.32963 6.96105C8.25691 7.63626 8.14547 8.08765 8.14547 8.08765C8.14547 8.08765 8.01892 7.6405 7.92306 6.96813C7.87159 6.63195 7.82672 6.23957 7.79461 5.81886C7.75731 5.39816 7.74504 4.94913 7.72993 4.50009C7.72993 4.05059 7.72756 3.60108 7.75023 3.17991C7.76959 2.76487 7.78801 2.34983 7.88718 1.99617C7.97501 1.64204 8.15207 1.36488 8.31498 1.22795C8.39243 1.15665 8.47081 1.11511 8.51756 1.09291C8.56667 1.07025 8.59265 1.05845 8.59265 1.05845Z" fill="#1E009F"/>
<path d="M17.2154 0.980317C17.2092 0.986455 17.3603 0.992122 17.5483 1.17013C17.7348 1.34483 17.8944 1.68905 17.9926 2.08331C18.104 2.46435 18.207 2.93274 18.2872 3.42805C18.3727 3.92572 18.4176 4.46305 18.4473 5.00038C18.4553 5.26951 18.4577 5.53865 18.4549 5.80354C18.4582 6.06843 18.4327 6.32859 18.419 6.58026C18.3822 7.08312 18.3142 7.55009 18.2372 7.94624C18.0851 8.73949 17.8878 9.24707 17.8878 9.24707C17.8878 9.24707 17.8755 9.11108 17.8651 8.87688C17.8547 8.64222 17.8396 8.30887 17.8316 7.91272C17.8212 7.51798 17.8089 7.05809 17.7957 6.56467C17.7768 6.07361 17.7688 5.55139 17.74 5.02965C17.7343 4.76854 17.7215 4.50743 17.7074 4.25057C17.6942 3.99323 17.6814 3.74015 17.6687 3.49509C17.6408 3.00215 17.6148 2.54225 17.5931 2.14799C17.578 1.75656 17.536 1.45107 17.4359 1.25418C17.3395 1.05681 17.2154 0.980317 17.2154 0.980317Z" fill="#1E009F"/>
<path d="M20.3284 17.7915C20.3284 17.7915 20.2808 17.7759 20.1915 17.7466C20.1013 17.724 19.9691 17.697 19.8006 17.6923C19.4705 17.6834 18.9738 17.7976 18.5913 18.1711C18.5451 18.2131 18.4969 18.2736 18.4638 18.3142C18.4147 18.3793 18.3727 18.4426 18.3458 18.495C18.2802 18.614 18.2202 18.749 18.1829 18.8921C18.1055 19.1787 18.1045 19.5012 18.1777 19.8091C18.2202 19.9724 18.267 20.0933 18.3609 20.2571C18.4365 20.3832 18.5432 20.5239 18.657 20.6424C18.8893 20.8828 19.1896 21.0721 19.5149 21.1779C19.8398 21.2936 20.1882 21.3313 20.4351 21.2322C20.6731 21.133 20.9933 20.8544 21.2294 20.6217C21.4678 20.3747 21.6623 20.1198 21.77 19.8393C21.8705 19.5753 21.8984 19.2793 21.8436 19.0328C21.7893 18.7812 21.6581 18.5876 21.4838 18.4369C21.3101 18.2877 21.1316 18.1579 20.9966 18.0483C20.7236 17.8264 20.5678 17.6994 20.5678 17.6994C20.5678 17.6994 20.751 17.783 21.0712 17.9289C21.2293 18.0077 21.4215 18.0856 21.6439 18.2179C21.8668 18.3425 22.118 18.5843 22.2322 18.9124C22.3555 19.2373 22.3791 19.6183 22.2714 20.0074C22.1713 20.3818 21.9551 20.743 21.6878 21.0438C21.557 21.1954 21.4088 21.3422 21.2629 21.4763C21.1141 21.6123 20.9357 21.7643 20.6944 21.8649C20.2024 22.0627 19.7066 21.9834 19.2849 21.8474C18.8553 21.6963 18.4657 21.4409 18.1598 21.1108C18.0039 20.9437 17.8802 20.7666 17.774 20.5537C17.6857 20.379 17.6021 20.1386 17.5691 19.9361C17.4893 19.5111 17.5441 19.0885 17.6833 18.7259C17.7542 18.5441 17.8425 18.3774 17.9562 18.2287C18.0186 18.1466 18.0752 18.0861 18.1286 18.0337C18.2027 17.9619 18.2599 17.9114 18.3311 17.8609C18.6017 17.6593 18.8959 17.562 19.1542 17.5252C19.4138 17.485 19.6424 17.5096 19.8194 17.5535C19.9979 17.5955 20.124 17.6678 20.208 17.7122C20.2864 17.7641 20.3284 17.7915 20.3284 17.7915Z" fill="#1E009F"/>
<path d="M20.6159 17.8659C20.6159 17.8659 20.5413 17.888 20.4237 17.9334C20.3114 17.9754 20.1541 18.0481 19.9922 18.1501C19.8312 18.2578 19.6593 18.3895 19.5035 18.5566C19.4242 18.6383 19.351 18.7294 19.2787 18.8215C19.2122 18.9131 19.1399 19.0231 19.0922 19.1091C19.0171 19.2441 18.9822 19.3253 18.9288 19.4429C18.8845 19.5557 18.8406 19.6681 18.8037 19.7814C18.7277 20.0076 18.6758 20.2328 18.6286 20.4326C18.5412 20.8518 18.4826 21.1318 18.4826 21.1318C18.4826 21.1318 18.3084 20.8769 18.222 20.4326C18.1753 20.2111 18.1592 19.9434 18.1885 19.6535C18.2059 19.509 18.2357 19.3593 18.2825 19.2106C18.3249 19.0689 18.4047 18.8933 18.4642 18.7819C18.5563 18.6237 18.6432 18.5019 18.7532 18.3805C18.8618 18.2639 18.9794 18.1591 19.1045 18.0741C19.3543 17.9046 19.6229 17.8026 19.8581 17.7686C20.0942 17.7294 20.2896 17.7573 20.4223 17.7931C20.5503 17.829 20.6159 17.8659 20.6159 17.8659Z" fill="#1E009F"/>
<path d="M18.6414 19.2949C18.6414 19.2949 18.8628 19.3978 19.131 19.5579C19.4063 19.716 19.7415 19.9257 20.0725 20.1344C20.2387 20.2406 20.4044 20.3468 20.5603 20.446C20.7104 20.5489 20.878 20.6509 20.9833 20.7317C21.0934 20.802 21.1958 20.8492 21.2713 20.8502C21.3502 20.8535 21.4012 20.8001 21.3993 20.8025C21.3927 20.7982 21.4258 20.8691 21.3427 20.972C21.2577 21.0702 21.0787 21.134 20.8818 21.1255C20.6835 21.1141 20.5055 21.0801 20.2959 21.0159C20.0928 20.9503 19.8855 20.8535 19.6934 20.7321C19.3048 20.4918 19.0007 20.1372 18.8383 19.8374C18.6688 19.5361 18.6414 19.2949 18.6414 19.2949Z" fill="#1E009F"/>
<path d="M19.9677 20.2786C19.9677 20.2786 20.0149 20.2475 20.0767 20.1941C20.1405 20.1417 20.2212 20.0666 20.3043 19.9779C20.4663 19.8027 20.6622 19.5473 20.8638 19.3093C20.9621 19.1922 21.0485 19.0803 21.1226 18.9712C21.1575 18.9169 21.1962 18.8612 21.225 18.8093C21.252 18.7545 21.2812 18.7002 21.3048 18.6464C21.3983 18.4358 21.4149 18.2191 21.4149 18.2191C21.4149 18.2191 21.463 18.2431 21.5287 18.3102C21.5924 18.3763 21.6727 18.4929 21.7114 18.653C21.7327 18.7328 21.7468 18.823 21.7426 18.9174C21.7402 19.0151 21.7312 19.1143 21.7019 19.2139C21.6472 19.4127 21.5395 19.603 21.4101 19.7597C21.1566 20.0671 20.8039 20.2857 20.4823 20.3414C20.327 20.3726 20.19 20.3556 20.1013 20.332C20.0102 20.3079 19.97 20.2753 19.9677 20.2786Z" fill="#1E009F"/>
<path d="M20.5441 19.8923C20.5441 19.8923 20.4629 19.72 20.3553 19.5547C20.2434 19.3843 20.1018 19.2157 19.9606 19.0844L19.8487 18.9857C19.8071 18.9536 19.7665 18.9225 19.7269 18.8923C19.6433 18.828 19.5531 18.7747 19.4658 18.7218C19.2934 18.6245 19.1173 18.5542 19.1173 18.5542C19.1173 18.5542 19.1433 18.5155 19.2033 18.4635C19.2628 18.4125 19.36 18.3497 19.4913 18.3157C19.6216 18.2775 19.7854 18.2718 19.9568 18.3077C20.0418 18.3275 20.1287 18.3582 20.2113 18.4021C20.292 18.4427 20.3855 18.5145 20.445 18.5679C20.7382 18.8361 20.8175 19.2426 20.7566 19.5037C20.7311 19.6374 20.6754 19.736 20.6282 19.8017C20.5805 19.864 20.5418 19.8904 20.5441 19.8923Z" fill="#1E009F"/>
<path d="M20.3917 19.364C20.3917 19.364 20.3483 19.3074 20.2619 19.254C20.1783 19.1992 20.0404 19.1572 19.9224 19.1818C19.8062 19.2077 19.7127 19.2984 19.6797 19.399L19.6731 19.4325C19.675 19.4311 19.6664 19.458 19.6759 19.4325L19.6679 19.4759C19.6764 19.4736 19.6768 19.4972 19.683 19.518C19.6948 19.56 19.7226 19.6072 19.7514 19.6332C19.7647 19.6473 19.7774 19.6558 19.7878 19.6615C19.7873 19.6643 19.8109 19.6676 19.7897 19.6667L19.8289 19.6742C19.8246 19.6728 19.8204 19.6728 19.8161 19.6747C19.8345 19.6785 19.887 19.6747 19.9276 19.6497C19.9691 19.6266 20.0036 19.5987 20.0239 19.5694C20.0286 19.5656 20.0319 19.5439 20.0371 19.5538L20.0366 19.5156C20.0366 19.5156 20.0385 19.5156 20.0414 19.5142C20.0503 19.5043 20.0466 19.4712 20.0385 19.4485C20.0041 19.3418 19.895 19.2512 19.8053 19.2261C19.7127 19.1955 19.6409 19.2139 19.6409 19.2139C19.6438 19.2195 19.666 19.1449 19.7878 19.0864C19.9049 19.0316 20.1325 19.009 20.345 19.1808C20.3984 19.2257 20.4456 19.2753 20.489 19.3579C20.4999 19.3796 20.5103 19.4042 20.5178 19.4268L20.531 19.4632C20.5457 19.5231 20.5485 19.5538 20.5513 19.6025C20.5579 19.7824 20.4885 19.967 20.3643 20.1011C20.2425 20.237 20.0683 20.3419 19.8464 20.3608C19.8124 20.3622 19.7779 20.3622 19.7434 20.3608L19.6929 20.3565C19.6126 20.3442 19.5767 20.3334 19.5205 20.3107C19.419 20.2701 19.3279 20.2097 19.2547 20.1379C19.1116 19.9911 19.0228 19.8093 19.0035 19.6129C18.9931 19.5146 18.9978 19.4174 19.0309 19.3003L19.046 19.2587C19.0639 19.2049 19.0677 19.2054 19.08 19.1766C19.1012 19.1336 19.1272 19.0944 19.1546 19.0576C19.3742 18.7696 19.7458 18.6888 19.9885 18.7823C20.2369 18.8706 20.3417 19.0566 20.3766 19.1737C20.4111 19.2979 20.3884 19.3654 20.3917 19.364Z" fill="#1E009F"/>
<path d="M15.6341 19.9457C15.6341 19.9457 15.601 19.9716 15.5382 20.0198C15.4806 20.0722 15.4004 20.1515 15.3182 20.2648C15.1577 20.4882 15.0066 20.882 15.0812 21.3112C15.0883 21.3612 15.1067 21.4231 15.1185 21.4613C15.1402 21.5269 15.1633 21.5855 15.1855 21.6256C15.2356 21.7234 15.2974 21.8263 15.3758 21.9174C15.5316 22.1016 15.747 22.2508 15.984 22.3452C16.1138 22.3934 16.2092 22.417 16.366 22.4321C16.4816 22.4396 16.6261 22.4349 16.7565 22.4156C17.0242 22.3745 17.2905 22.2645 17.5129 22.0992C17.7433 21.9391 17.9288 21.7286 17.976 21.5326C18.0214 21.3447 17.9931 20.9858 17.9506 20.7181C17.901 20.44 17.8278 20.1902 17.6956 19.9839C17.5723 19.7936 17.392 19.6317 17.206 19.5481C17.0161 19.4621 16.8296 19.4522 16.6422 19.4928C16.4576 19.5353 16.2796 19.5901 16.1384 19.626C15.8537 19.7011 15.6879 19.7379 15.6879 19.7379C15.6879 19.7379 15.8305 19.6458 16.0841 19.4957C16.2139 19.423 16.3579 19.3266 16.5572 19.2355C16.7508 19.1401 17.0468 19.0802 17.3339 19.1618C17.6234 19.235 17.9024 19.4045 18.1234 19.6732C18.3363 19.9277 18.4832 20.2568 18.5611 20.5897C18.6021 20.7545 18.6309 20.9296 18.6527 21.0954C18.6744 21.2644 18.6928 21.4656 18.6418 21.6894C18.5323 22.1417 18.2277 22.4486 17.9246 22.6752C17.6045 22.8995 17.2329 23.0435 16.8495 23.0922C16.6545 23.1177 16.4703 23.1153 16.2663 23.0818C16.1044 23.0563 15.89 22.993 15.7337 22.9151C15.3975 22.7574 15.1322 22.5067 14.9504 22.2276C14.8597 22.0869 14.7885 21.942 14.7427 21.788C14.7172 21.7016 14.7044 21.6327 14.695 21.5713C14.6827 21.4816 14.677 21.4179 14.6775 21.3428C14.6808 20.7587 14.9825 20.3593 15.2162 20.169C15.3348 20.0689 15.4476 20.0202 15.5198 19.9863C15.5944 19.9598 15.6341 19.9457 15.6341 19.9457Z" fill="#1E009F"/>
<path d="M15.8249 19.7861C15.8249 19.7861 15.8112 19.848 15.7867 19.9561C15.7668 20.0557 15.7484 20.2007 15.747 20.3584C15.7503 20.5189 15.763 20.6951 15.8055 20.8764C15.8249 20.9666 15.8523 21.0572 15.8801 21.1479C15.9104 21.2333 15.95 21.3344 15.9826 21.4024C16.0393 21.5214 16.0733 21.5775 16.1257 21.6706C16.1781 21.7537 16.2305 21.8372 16.2867 21.9175C16.3977 22.0795 16.5195 22.2268 16.6271 22.3609C16.8476 22.6211 17.0134 22.8274 17.0134 22.8274C17.0134 22.8274 16.7466 22.8397 16.3906 22.6919C16.2116 22.6211 16.0152 22.5049 15.8254 22.3439C15.7324 22.2613 15.6417 22.1678 15.5609 22.0615C15.4826 21.9633 15.3976 21.816 15.3518 21.7235C15.2857 21.5775 15.2451 21.4576 15.2158 21.3193C15.1893 21.1852 15.1761 21.0506 15.1813 20.9208C15.1912 20.662 15.2588 20.4245 15.3584 20.246C15.4542 20.0642 15.5765 19.9467 15.6719 19.8763C15.7645 19.8093 15.8263 19.789 15.8249 19.7861Z" fill="#1E009F"/>
<path d="M15.839 21.8261C15.839 21.8261 16.0165 21.7057 16.2512 21.5877C16.4887 21.463 16.7866 21.3275 17.0846 21.2057C17.2366 21.1472 17.3882 21.0886 17.5308 21.0338C17.6734 20.9871 17.8287 20.9262 17.935 20.903C18.0365 20.8714 18.1219 20.8346 18.1654 20.7892C18.2131 20.742 18.2064 20.6769 18.2064 20.6797C18.2003 20.6825 18.2692 20.6896 18.3061 20.8015C18.3377 20.913 18.298 21.0759 18.1965 21.2147C18.0927 21.354 17.9869 21.4626 17.841 21.5797C17.6979 21.6911 17.5293 21.7884 17.3513 21.8615C16.9939 22.0117 16.5963 22.0377 16.3088 21.9881C16.0165 21.9442 15.839 21.8261 15.839 21.8261Z" fill="#1E009F"/>
<path d="M17.154 21.4001C17.1526 21.4024 17.1516 21.3495 17.1389 21.2797C17.1276 21.2093 17.1073 21.1172 17.0799 21.0195C17.0237 20.8288 16.9354 20.5794 16.8731 20.333C16.8424 20.2135 16.8122 20.1049 16.7805 20.0048C16.764 19.9562 16.7494 19.9028 16.7319 19.8584C16.7107 19.8103 16.6904 19.7645 16.6715 19.7225C16.5898 19.5501 16.4538 19.4127 16.4538 19.4127C16.4538 19.4127 16.4939 19.3872 16.5742 19.3688C16.6535 19.3513 16.7777 19.3466 16.9132 19.3952C16.9817 19.4179 17.0544 19.4505 17.1205 19.4996C17.1904 19.5496 17.2579 19.6039 17.3145 19.6738C17.4307 19.8108 17.5119 19.9821 17.5572 20.1502C17.6455 20.4793 17.6129 20.8344 17.4793 21.0851C17.4179 21.2088 17.3306 21.2929 17.2654 21.3401C17.1984 21.3887 17.1526 21.3968 17.154 21.4001Z" fill="#1E009F"/>
<path d="M17.1705 20.8201C17.1705 20.8201 16.9986 20.8045 16.8334 20.8135C16.661 20.8224 16.4896 20.8526 16.348 20.8815L16.2366 20.9046C16.1969 20.9145 16.1577 20.9244 16.1195 20.9339C16.0378 20.9523 15.957 20.9797 15.8744 21.0066C15.7181 21.0628 15.5651 21.1421 15.5651 21.1421C15.5651 21.1421 15.5467 21.1038 15.5349 21.0344C15.5236 20.9655 15.5217 20.863 15.559 20.7502C15.5921 20.6354 15.6671 20.5136 15.7776 20.4069C15.8338 20.355 15.899 20.3078 15.9722 20.2709C16.0411 20.2332 16.1426 20.2025 16.2087 20.1874C16.5506 20.1142 16.8787 20.2728 17.0251 20.457C17.103 20.5472 17.1393 20.6406 17.1578 20.7105C17.1729 20.7781 17.1705 20.8201 17.1705 20.8201Z" fill="#1E009F"/>
<path d="M16.7366 20.6674C16.7366 20.6674 16.6743 20.6741 16.5983 20.7137C16.5223 20.7505 16.4349 20.8327 16.4075 20.9219C16.383 21.0107 16.4132 21.1009 16.4618 21.1509L16.4788 21.1632C16.4774 21.159 16.4935 21.1793 16.4765 21.1547L16.5024 21.1812C16.4996 21.1661 16.5109 21.1727 16.5227 21.176C16.5468 21.1812 16.5803 21.1826 16.5987 21.1779L16.6153 21.175C16.6129 21.1797 16.6257 21.1656 16.6091 21.1859L16.6327 21.1637C16.6276 21.1679 16.6238 21.1736 16.6214 21.1802C16.6252 21.184 16.6488 21.1594 16.6549 21.1302C16.663 21.1014 16.6696 21.0745 16.6705 21.0513C16.6738 21.048 16.6615 21.0353 16.6762 21.0386L16.6502 21.0192C16.6502 21.0192 16.6554 21.0187 16.6578 21.0159C16.6625 21.0055 16.6417 20.9899 16.6257 20.9819C16.5492 20.9451 16.4325 20.9626 16.3674 21.0055C16.297 21.0475 16.2692 21.1061 16.2692 21.1061C16.2753 21.107 16.229 21.056 16.2437 20.9385C16.2593 20.8261 16.3523 20.6471 16.586 20.5773C16.646 20.5607 16.7059 20.5503 16.7905 20.5612C16.8126 20.5645 16.8367 20.5697 16.858 20.5758L16.8891 20.5834C16.9425 20.6047 16.9656 20.6179 17.0039 20.641C17.1413 20.7293 17.2419 20.8761 17.2763 21.0367C17.3132 21.1963 17.3009 21.379 17.1979 21.5542C17.1809 21.5806 17.1621 21.6066 17.1422 21.6316L17.1144 21.6651C17.0615 21.7199 17.0351 21.7397 16.9888 21.7695C16.9047 21.8233 16.8127 21.8587 16.7211 21.8752C16.5383 21.9031 16.3594 21.8729 16.2054 21.7836C16.128 21.7397 16.0595 21.6854 15.9896 21.5976L15.9693 21.5664C15.9377 21.523 15.9415 21.5221 15.9264 21.4975C15.9061 21.4593 15.8914 21.4191 15.8791 21.3799C15.7857 21.0693 15.9249 20.7586 16.1209 20.6358C16.3154 20.5064 16.501 20.5343 16.5997 20.574C16.7036 20.6174 16.7357 20.6707 16.7366 20.6674Z" fill="#1E009F"/>
<path d="M6.10565 7.16047C6.10565 7.16047 6.0726 7.18643 6.00981 7.2346C5.9522 7.28701 5.87193 7.36634 5.78977 7.47966C5.62923 7.703 5.47814 8.09679 5.55274 8.52599C5.55982 8.57604 5.57824 8.63836 5.59051 8.67614C5.61176 8.74177 5.63489 8.80032 5.65709 8.84045C5.70714 8.93819 5.76899 9.04113 5.84737 9.13226C6.00319 9.31641 6.2185 9.46561 6.45553 9.56051C6.58538 9.6082 6.68075 9.63182 6.83798 9.64693C6.95319 9.65495 7.09767 9.64975 7.22799 9.63039C7.49571 9.58979 7.76201 9.4793 7.9844 9.31451C8.21529 9.15398 8.40039 8.94339 8.4476 8.74744C8.49293 8.55951 8.4646 8.20113 8.4221 7.93294C8.37253 7.65483 8.29934 7.40505 8.16714 7.19871C8.0439 7.00842 7.86353 6.84647 7.67749 6.7629C7.48768 6.67696 7.30118 6.66705 7.11373 6.70766C6.92911 6.75015 6.75111 6.80493 6.60993 6.84081C6.32521 6.91589 6.15948 6.95271 6.15948 6.95271C6.15948 6.95271 6.30207 6.86064 6.55562 6.71049C6.68547 6.63825 6.82948 6.54193 7.02874 6.45033C7.2228 6.35495 7.51837 6.29545 7.80545 6.37666C8.09489 6.44985 8.37395 6.61936 8.59492 6.88803C8.80787 7.143 8.95519 7.47163 9.03262 7.80451C9.0737 7.9693 9.1025 8.14447 9.12422 8.3102C9.14594 8.47924 9.16436 8.68039 9.11336 8.9042C9.00429 9.35654 8.69926 9.66345 8.39613 9.89009C8.076 10.1144 7.70442 10.2584 7.32102 10.307C7.12601 10.3325 6.94233 10.3302 6.73788 10.2966C6.57593 10.2711 6.36157 10.2079 6.20528 10.13C5.86909 9.97272 5.60373 9.72152 5.42195 9.44247C5.33129 9.30176 5.26 9.15729 5.2142 9.00289C5.1887 8.91648 5.17595 8.84754 5.16651 8.78663C5.15423 8.69692 5.14857 8.63317 5.14904 8.55762C5.15235 7.97402 5.45406 7.57409 5.68778 7.38381C5.8063 7.28371 5.91914 7.23554 5.99138 7.20155C6.06599 7.17463 6.10565 7.16047 6.10565 7.16047Z" fill="#1E009F"/>
<path d="M6.29642 7.00068C6.29642 7.00068 6.28273 7.06254 6.25818 7.17067C6.23835 7.2703 6.21993 7.41526 6.21851 7.57296C6.22181 7.7335 6.23456 7.9101 6.27753 8.09094C6.29642 8.1816 6.32381 8.27178 6.35167 8.36244C6.38189 8.4479 6.42155 8.54942 6.45413 8.61694C6.5108 8.73593 6.54527 8.79211 6.59721 8.88513C6.64962 8.96823 6.70203 9.05182 6.75822 9.13209C6.86919 9.29405 6.99101 9.44136 7.09867 9.57546C7.31919 9.83563 7.48494 10.042 7.48494 10.042C7.48494 10.042 7.21861 10.0547 6.8621 9.90645C6.68314 9.8361 6.48671 9.71947 6.29689 9.55845C6.20387 9.47582 6.11321 9.38233 6.03247 9.27657C5.95408 9.17788 5.86908 9.03057 5.82328 8.93802C5.75764 8.79259 5.71657 8.67218 5.68729 8.53383C5.66085 8.39974 5.6481 8.26517 5.65282 8.13579C5.66274 7.87657 5.73026 7.63906 5.82989 7.46058C5.92575 7.27879 6.04804 7.16122 6.14343 7.09086C6.23598 7.02381 6.29783 7.00351 6.29642 7.00068Z" fill="#1E009F"/>
<path d="M6.31055 9.04128C6.31055 9.04128 6.48808 8.92087 6.72275 8.80282C6.96072 8.67817 7.25819 8.54266 7.55613 8.42083C7.70816 8.36228 7.85973 8.30372 8.00232 8.24895C8.14491 8.20268 8.30026 8.14129 8.4065 8.11815C8.50801 8.08652 8.59347 8.05016 8.63738 8.00436C8.6846 7.95762 8.67799 7.89198 8.67799 7.89481C8.67185 7.89765 8.74126 7.90473 8.77761 8.01664C8.80925 8.12808 8.76958 8.29145 8.66807 8.4298C8.56419 8.5691 8.45891 8.6777 8.31254 8.79527C8.16947 8.90624 8.00137 9.0035 7.8229 9.07669C7.46547 9.22685 7.0679 9.25283 6.78035 9.20372C6.48808 9.15933 6.31055 9.04128 6.31055 9.04128Z" fill="#1E009F"/>
<path d="M7.62555 8.6154C7.62413 8.61776 7.62318 8.56536 7.61044 8.49548C7.59958 8.42466 7.5788 8.33258 7.55142 8.23484C7.49523 8.04409 7.40694 7.79478 7.34462 7.54878C7.31393 7.42885 7.2837 7.32072 7.25207 7.22015C7.23554 7.17152 7.2209 7.11816 7.20391 7.07377C7.18219 7.02561 7.16189 6.97981 7.14301 6.93778C7.0618 6.76544 6.92581 6.62852 6.92581 6.62852C6.92581 6.62852 6.96547 6.60254 7.04574 6.58413C7.12506 6.56666 7.24924 6.56194 7.38474 6.61057C7.45321 6.63324 7.52592 6.66582 7.59203 6.71539C7.6619 6.76497 7.72942 6.81928 7.78607 6.88963C7.90222 7.02609 7.98344 7.19748 8.02877 7.36557C8.11706 7.69467 8.08448 8.04975 7.95086 8.30047C7.88948 8.42418 7.80213 8.50822 7.73697 8.55544C7.66992 8.60407 7.62413 8.6121 7.62555 8.6154Z" fill="#1E009F"/>
<path d="M7.64212 8.03541C7.64212 8.03541 7.47026 8.01982 7.305 8.02926C7.13265 8.03823 6.96126 8.06798 6.8196 8.09678L6.70817 8.12039C6.6685 8.12983 6.62931 8.13975 6.59154 8.1492C6.50938 8.16761 6.42864 8.195 6.34649 8.22191C6.18973 8.2781 6.03674 8.35742 6.03674 8.35742C6.03674 8.35742 6.01833 8.31917 6.00652 8.24976C5.99519 8.18083 5.9933 8.07836 6.03061 7.96552C6.06366 7.85078 6.13873 7.72897 6.24922 7.62226C6.3054 7.57079 6.37057 7.52309 6.44376 7.48626C6.51269 7.44849 6.61421 7.4178 6.68032 7.40269C7.02217 7.3295 7.35033 7.48815 7.4967 7.6723C7.57461 7.76248 7.61096 7.85598 7.62937 7.92586C7.64448 7.99338 7.64212 8.03541 7.64212 8.03541Z" fill="#1E009F"/>
<path d="M7.20866 7.88196C7.20866 7.88196 7.14587 7.88858 7.06984 7.92824C6.99382 7.96507 6.90647 8.0477 6.87955 8.13647C6.85452 8.22571 6.88474 8.31543 6.93338 8.36548L6.95038 8.37774C6.94896 8.37349 6.96501 8.3938 6.94802 8.36924L6.97446 8.39569C6.97116 8.38058 6.98248 8.38766 6.99429 8.39049C7.01837 8.39568 7.0519 8.3971 7.07032 8.39238L7.08684 8.38955C7.08447 8.39427 7.09723 8.38011 7.0807 8.40042L7.10431 8.37821C7.09912 8.38294 7.09534 8.38813 7.09298 8.39474C7.09676 8.39852 7.12037 8.37397 7.1265 8.34469C7.13453 8.31589 7.14115 8.28898 7.14209 8.26584C7.14539 8.26254 7.13311 8.24979 7.14775 8.25309L7.12178 8.23374C7.12178 8.23374 7.12698 8.23326 7.12934 8.2309C7.13406 8.22004 7.11328 8.20446 7.09722 8.19643C7.02073 8.1596 6.9041 8.17707 6.83894 8.22004C6.76858 8.26207 6.74073 8.32061 6.74073 8.32061C6.74687 8.32155 6.70059 8.27104 6.71523 8.153C6.73081 8.04109 6.82431 7.86166 7.05757 7.79178C7.11753 7.77525 7.17751 7.76533 7.26203 7.77572C7.28422 7.77903 7.3083 7.78422 7.32955 7.79036L7.36071 7.79792C7.41406 7.81917 7.43767 7.83239 7.47544 7.85553C7.61285 7.94382 7.71343 8.09066 7.7479 8.2512C7.78473 8.4108 7.77245 8.59353 7.66952 8.7687C7.65252 8.79514 7.63364 8.82112 7.6138 8.84614L7.58641 8.87967C7.53306 8.93444 7.50709 8.95427 7.46034 8.98402C7.37629 9.03832 7.28421 9.07326 7.19261 9.08978C7.00987 9.11764 6.83091 9.0879 6.67698 8.99818C6.60001 8.95427 6.53107 8.89997 6.46119 8.81215L6.44089 8.78145C6.40925 8.73754 6.41303 8.7366 6.39792 8.71204C6.37762 8.6738 6.36298 8.63414 6.3507 8.59495C6.25721 8.28378 6.3965 7.97356 6.59246 7.8508C6.787 7.72142 6.97257 7.74881 7.07126 7.78847C7.17514 7.83191 7.20725 7.88526 7.20866 7.88196Z" fill="#1E009F"/>
<path d="M18.3132 23.3499C18.3132 23.3499 18.3944 23.4533 18.571 23.5501C18.7433 23.646 19.0333 23.7177 19.3189 23.6356C19.351 23.6271 19.3949 23.6091 19.4152 23.5997C19.462 23.5794 19.5021 23.5586 19.5233 23.5416C19.5847 23.501 19.6508 23.4533 19.7066 23.3948C19.8204 23.2782 19.9053 23.1238 19.9559 22.9618C19.9809 22.8693 19.9894 22.8164 19.9918 22.7026C19.9899 22.6308 19.979 22.5321 19.9606 22.4471C19.9214 22.271 19.8354 22.0973 19.715 21.9561C19.5989 21.8055 19.4521 21.6959 19.3439 21.677C19.2434 21.6553 18.9757 21.6822 18.7939 21.7209C18.6017 21.7653 18.4341 21.8182 18.2967 21.9117C18.1744 21.9953 18.0648 22.119 18.0105 22.2436C17.9553 22.3716 17.9459 22.4929 17.9761 22.6261C18.0077 22.7564 18.0497 22.8877 18.0771 22.9901C18.1343 23.1984 18.1607 23.3202 18.1607 23.3202C18.1607 23.3202 18.0804 23.2248 17.9506 23.0525C17.8873 22.9632 17.8061 22.8683 17.7244 22.7267C17.639 22.5897 17.5724 22.364 17.6173 22.1393C17.6555 21.9122 17.766 21.6893 17.961 21.5033C18.1418 21.3262 18.384 21.1949 18.6286 21.1199C18.7495 21.0802 18.8793 21.049 18.9997 21.0245C19.1234 20.9985 19.2783 20.9735 19.4601 21.0028C19.8279 21.0684 20.0781 21.2913 20.2651 21.5103C20.4502 21.7455 20.5763 22.0222 20.6306 22.3135C20.6589 22.4622 20.6646 22.6011 20.6466 22.7625C20.6339 22.882 20.5928 23.0567 20.5394 23.1771C20.4323 23.4415 20.2486 23.6526 20.0418 23.8008C19.9374 23.8745 19.8303 23.934 19.7127 23.9737C19.6452 23.9973 19.5942 24.0081 19.5507 24.0157C19.479 24.0294 19.4332 24.0346 19.3751 24.0365C18.9303 24.0506 18.6253 23.8292 18.4813 23.6578C18.4048 23.5714 18.3689 23.4864 18.3434 23.4335C18.3241 23.3792 18.3132 23.3499 18.3132 23.3499Z" fill="#1E009F"/>
<path d="M18.1895 23.2192C18.1895 23.2192 18.4005 23.2377 18.6196 23.1961C18.732 23.1725 18.8505 23.1451 18.9685 23.0998C19.0275 23.079 19.0856 23.0535 19.1442 23.0299C19.1975 23.0044 19.2665 22.9714 19.3038 22.9501C19.3911 22.9024 19.418 22.8826 19.4827 22.8443C19.5399 22.8061 19.5961 22.7679 19.6504 22.7315C19.7637 22.6545 19.8694 22.57 19.9714 22.4954C20.1664 22.342 20.3397 22.2248 20.3397 22.2248C20.3397 22.2248 20.3912 22.4293 20.3161 22.7112C20.2821 22.8533 20.2113 23.011 20.1036 23.1659C20.0484 23.2419 19.9832 23.317 19.9072 23.3845C19.8387 23.4492 19.724 23.5247 19.6626 23.5606C19.5493 23.6196 19.4615 23.6546 19.3557 23.6824C19.2533 23.7079 19.1503 23.7212 19.0507 23.7207C18.8514 23.7179 18.6678 23.6688 18.5308 23.5908C18.3911 23.5167 18.3032 23.4185 18.2513 23.3425C18.2036 23.2679 18.1923 23.2178 18.1895 23.2192Z" fill="#1E009F"/>
<path d="M19.6664 23.1189C19.6664 23.1189 19.5384 22.9975 19.4208 22.8422C19.2966 22.6835 19.1715 22.489 19.0747 22.286C19.0266 22.184 18.9827 22.0796 18.9458 21.9758C18.9156 21.8742 18.8708 21.7576 18.8656 21.6802C18.8528 21.6075 18.8391 21.5395 18.8127 21.4989C18.7848 21.4545 18.7291 21.454 18.7319 21.4545C18.7353 21.4602 18.7291 21.4016 18.8165 21.3582C18.9043 21.3194 19.0412 21.3336 19.1607 21.4002C19.282 21.4677 19.3713 21.5324 19.4723 21.633C19.5672 21.7307 19.6503 21.8506 19.7131 21.9805C19.842 22.2402 19.8637 22.5414 19.8174 22.7605C19.7764 22.9834 19.6664 23.1189 19.6664 23.1189Z" fill="#1E009F"/>
<path d="M19.3 22.1859C19.3029 22.1868 19.2589 22.1963 19.2065 22.2199C19.1532 22.2416 19.0876 22.2756 19.0219 22.3115C18.8963 22.3861 18.7353 22.4767 18.571 22.5282C18.4921 22.5537 18.4227 22.5726 18.3557 22.5882C18.3241 22.5962 18.2858 22.6023 18.2547 22.6094C18.2188 22.6198 18.1848 22.6297 18.1531 22.6392C18.0205 22.6788 17.892 22.7799 17.892 22.7799C17.8968 22.7855 17.765 22.6533 17.8122 22.4177C17.8222 22.3611 17.8406 22.2997 17.8731 22.2435C17.9067 22.1835 17.9425 22.1245 17.9935 22.0749C18.0918 21.9729 18.2202 21.8993 18.3467 21.8568C18.5922 21.7742 18.8661 21.7978 19.0635 21.9087C19.1603 21.9602 19.2245 22.0343 19.259 22.09C19.2948 22.1476 19.2972 22.1873 19.3 22.1859Z" fill="#1E009F"/>
<path d="M18.8794 22.1992C18.8794 22.1992 18.8997 22.3479 18.9399 22.4669C18.9809 22.593 19.0343 22.6926 19.0537 22.7672C19.0631 22.8035 19.0631 22.8031 19.0664 22.83C19.0721 22.8517 19.073 22.8772 19.0773 22.9037C19.082 22.9589 19.0924 23.0179 19.1037 23.0836C19.1283 23.2073 19.183 23.3475 19.183 23.3475C19.183 23.3475 19.0607 23.4457 18.8671 23.4145C18.7708 23.4027 18.6664 23.3555 18.572 23.2771C18.5262 23.237 18.4832 23.1884 18.4492 23.1322C18.4148 23.0807 18.3841 22.9971 18.3694 22.948C18.2934 22.6765 18.419 22.4093 18.5725 22.2969C18.6471 22.2365 18.7264 22.2119 18.7854 22.2011C18.8431 22.193 18.8794 22.1992 18.8794 22.1992Z" fill="#1E009F"/>
<path d="M18.7878 22.5202C18.7878 22.5202 18.8033 22.5684 18.8463 22.6175C18.8864 22.6671 18.9644 22.7124 19.0229 22.7058C19.0824 22.6968 19.1145 22.6492 19.1136 22.6203C19.1122 22.617 19.1098 22.6133 19.1074 22.6123C19.1004 22.6161 19.1173 22.6005 19.0914 22.6213L19.1084 22.6005C19.0843 22.6142 19.0829 22.6137 19.0791 22.6142C19.0716 22.6156 19.0682 22.6109 19.0687 22.6203C19.0706 22.6246 19.0744 22.6326 19.0819 22.6421C19.0909 22.6501 19.0805 22.643 19.1074 22.6633L19.0914 22.6473C19.0994 22.6539 19.1079 22.6595 19.1174 22.6633C19.1457 22.6728 19.148 22.6534 19.1443 22.6435C19.1405 22.6322 19.1362 22.6128 19.1277 22.5939C19.1273 22.5854 19.1188 22.5934 19.123 22.5731L19.1084 22.592C19.1093 22.5882 19.1088 22.5816 19.107 22.5764C19.098 22.5613 19.0838 22.5722 19.0753 22.5783C19.0361 22.6147 19.0319 22.703 19.0569 22.7554C19.0805 22.8125 19.1258 22.8394 19.1258 22.8394C19.1258 22.8342 19.0933 22.88 18.9969 22.8829C18.9063 22.8838 18.7505 22.829 18.674 22.6425C18.6555 22.5934 18.6414 22.5458 18.6447 22.4716L18.656 22.388C18.6716 22.3389 18.6801 22.3201 18.6976 22.2856C18.7632 22.1628 18.8808 22.0679 19.0135 22.0292C19.1447 21.9881 19.2991 21.9862 19.4559 22.0656C19.4805 22.0788 19.5046 22.0944 19.5277 22.1109L19.5546 22.1298C19.608 22.1746 19.624 22.1945 19.6528 22.2332C19.7038 22.3026 19.7387 22.3795 19.7576 22.456C19.7902 22.6095 19.7737 22.7606 19.7052 22.8947C19.6717 22.9617 19.6292 23.0222 19.5551 23.0873L19.5329 23.1024C19.4937 23.1345 19.4956 23.1293 19.4743 23.1435C19.4432 23.1624 19.4101 23.1761 19.3775 23.1879C19.1211 23.2776 18.8586 23.1685 18.7552 23.0089C18.6461 22.8512 18.6721 22.7016 18.7065 22.6246C18.7448 22.5429 18.7906 22.5212 18.7878 22.5202Z" fill="#1E009F"/>
<path d="M8.94149 10.5418C8.94149 10.5418 9.02223 10.6452 9.19882 10.742C9.37163 10.8379 9.66107 10.9096 9.9472 10.8275C9.97931 10.819 10.0232 10.801 10.0431 10.7916C10.0903 10.7713 10.1299 10.7505 10.1517 10.7335C10.2126 10.6929 10.2791 10.6452 10.3348 10.5867C10.4486 10.4701 10.5336 10.3157 10.5837 10.1537C10.6092 10.0612 10.6177 10.0083 10.62 9.89448C10.6181 9.82271 10.6073 9.72403 10.5889 9.63904C10.5497 9.46292 10.4637 9.28916 10.3433 9.14798C10.2267 8.99736 10.0804 8.88829 9.97223 8.86893C9.87166 8.84721 9.60395 8.87413 9.42169 8.91284C9.22999 8.95723 9.06237 9.01058 8.92497 9.1036C8.80268 9.18717 8.69314 9.31088 8.63884 9.43554C8.5836 9.56349 8.57416 9.68483 8.6039 9.81799C8.63601 9.9483 8.67803 10.0796 8.70541 10.182C8.76207 10.3903 8.78851 10.5121 8.78851 10.5121C8.78851 10.5121 8.70872 10.4167 8.57888 10.2444C8.51561 10.1551 8.43392 10.0607 8.35224 9.91856C8.26725 9.78163 8.20067 9.55594 8.24553 9.33119C8.2833 9.10408 8.39426 8.88121 8.58926 8.69518C8.7701 8.51812 9.01233 8.38685 9.25691 8.31177C9.37778 8.27211 9.50762 8.24095 9.62802 8.21639C9.75173 8.19043 9.90612 8.1654 10.0879 8.19468C10.4562 8.26078 10.706 8.48317 10.8929 8.70226C11.0785 8.9374 11.2046 9.21409 11.2589 9.50542C11.2872 9.65415 11.2929 9.79297 11.2749 9.95445C11.2622 10.0739 11.2211 10.2486 11.1673 10.369C11.0606 10.6334 10.8769 10.8445 10.6701 10.9927C10.5653 11.0664 10.4581 11.1259 10.341 11.1656C10.273 11.1892 10.222 11.2 10.1786 11.2076C10.1073 11.2213 10.061 11.2265 10.0029 11.2284C9.55814 11.2425 9.2536 11.0211 9.10959 10.8497C9.0331 10.7633 8.99721 10.6788 8.97172 10.6259C8.95189 10.5711 8.94149 10.5418 8.94149 10.5418Z" fill="#1E009F"/>
<path d="M8.81781 10.4111C8.81781 10.4111 9.02839 10.4295 9.24794 10.388C9.36031 10.3644 9.47836 10.337 9.5964 10.2917C9.65589 10.2709 9.71396 10.2454 9.77204 10.2218C9.82539 10.1963 9.8948 10.1632 9.9321 10.142C10.0194 10.0943 10.0459 10.0744 10.1106 10.0362C10.1677 9.99796 10.2244 9.95971 10.2787 9.92335C10.3915 9.84639 10.4977 9.76187 10.5997 9.68726C10.7947 9.5338 10.9675 9.41669 10.9675 9.41669C10.9675 9.41669 11.0195 9.62115 10.9444 9.90304C10.9104 10.0452 10.8396 10.2029 10.7319 10.3578C10.6762 10.4338 10.6115 10.5093 10.5355 10.5764C10.4671 10.6411 10.3523 10.7166 10.2905 10.7525C10.1776 10.8115 10.0898 10.8465 9.98357 10.8743C9.88158 10.8998 9.77865 10.9131 9.67903 10.9126C9.47978 10.9098 9.29611 10.8606 9.15918 10.7827C9.01942 10.7086 8.93159 10.6104 8.87965 10.5344C8.83197 10.4598 8.82017 10.4097 8.81781 10.4111Z" fill="#1E009F"/>
<path d="M10.2943 10.3113C10.2943 10.3113 10.1668 10.1899 10.0492 10.0346C9.92506 9.87594 9.79994 9.68141 9.70267 9.47838C9.65498 9.37639 9.61059 9.27205 9.57423 9.16818C9.54401 9.06666 9.49915 8.95004 9.49348 8.87261C9.48073 8.79989 9.46752 8.7319 9.4406 8.69129C9.41322 8.64691 9.3575 8.64644 9.36033 8.64738C9.36364 8.65258 9.35703 8.59403 9.44486 8.55059C9.53221 8.51187 9.66913 8.52603 9.7886 8.59261C9.90995 8.66012 9.9992 8.72482 10.1007 8.82539C10.1952 8.92313 10.2783 9.04305 10.3415 9.17289C10.4704 9.43258 10.4922 9.73382 10.4459 9.9529C10.4048 10.1758 10.2943 10.3113 10.2943 10.3113Z" fill="#1E009F"/>
<path d="M9.92843 9.37728C9.93079 9.37823 9.88735 9.38767 9.83494 9.41128C9.78158 9.433 9.71547 9.46699 9.65031 9.50287C9.5247 9.57748 9.36368 9.66814 9.19889 9.7196C9.12003 9.7451 9.0511 9.76399 8.98405 9.77957C8.95242 9.78807 8.91416 9.79373 8.883 9.80081C8.84711 9.8112 8.81312 9.82111 8.78148 9.83056C8.6488 9.87022 8.52036 9.97126 8.52036 9.97126C8.52508 9.97693 8.39335 9.84472 8.44056 9.60911C8.45048 9.55245 8.46843 9.49107 8.50148 9.43488C8.53453 9.37492 8.57088 9.31637 8.62188 9.26632C8.72009 9.16433 8.84853 9.09068 8.9746 9.04818C9.22014 8.96555 9.49449 8.98915 9.69186 9.10011C9.78819 9.15158 9.85287 9.22571 9.88734 9.28143C9.92323 9.33903 9.92513 9.3787 9.92843 9.37728Z" fill="#1E009F"/>
<path d="M9.50718 9.3911C9.50718 9.3911 9.52749 9.53983 9.56809 9.65882C9.6087 9.78488 9.66253 9.88451 9.68189 9.95911C9.69133 9.99547 9.69132 9.99499 9.69463 10.0219C9.69982 10.0436 9.70125 10.0691 9.70502 10.0956C9.70975 10.1508 9.7206 10.2098 9.73193 10.2755C9.75648 10.3996 9.81079 10.5394 9.81079 10.5394C9.81079 10.5394 9.68896 10.6376 9.49538 10.6064C9.39906 10.5946 9.29424 10.5474 9.20029 10.469C9.15449 10.4289 9.11153 10.3803 9.07753 10.3246C9.04307 10.2726 9.0119 10.189 8.99773 10.1399C8.92172 9.86845 9.04684 9.60121 9.20076 9.48883C9.27489 9.4284 9.35421 9.40384 9.4137 9.39298C9.4713 9.38543 9.50718 9.3911 9.50718 9.3911Z" fill="#1E009F"/>
<path d="M9.41554 9.71179C9.41554 9.71179 9.43112 9.76042 9.47456 9.80906C9.51469 9.85864 9.5926 9.90397 9.65115 9.89736C9.71064 9.88839 9.74274 9.84117 9.74133 9.81189C9.74038 9.80859 9.73803 9.80482 9.73567 9.80387C9.72858 9.80765 9.7451 9.79206 9.71914 9.81284L9.73661 9.79207C9.71206 9.80576 9.71064 9.80529 9.70733 9.80576C9.6993 9.80718 9.69647 9.80245 9.69694 9.81189C9.69836 9.81614 9.70214 9.82417 9.71017 9.83361C9.71867 9.84164 9.70875 9.83456 9.73519 9.85486L9.71961 9.83881C9.72716 9.84542 9.73614 9.85108 9.74558 9.85486C9.77344 9.8643 9.77627 9.84495 9.7725 9.83503C9.76872 9.8237 9.76446 9.80434 9.75549 9.78545C9.75549 9.77695 9.74653 9.78498 9.75125 9.76468L9.73661 9.78356C9.73708 9.78025 9.73708 9.77318 9.73519 9.76798C9.72622 9.75287 9.71206 9.76374 9.70356 9.76987C9.6639 9.80623 9.65964 9.89453 9.68514 9.94694C9.70828 10.0041 9.75407 10.031 9.75407 10.031C9.75407 10.0263 9.72102 10.0716 9.62517 10.0744C9.53452 10.0754 9.37871 10.0206 9.30175 9.83409C9.28381 9.78498 9.26964 9.73729 9.27294 9.66316L9.28427 9.57958C9.29985 9.53048 9.30836 9.51158 9.32583 9.47758C9.39146 9.35482 9.50903 9.25944 9.64123 9.22072C9.77297 9.18011 9.92736 9.17775 10.0836 9.25708C10.1087 9.2703 10.1328 9.28588 10.1559 9.3024L10.1828 9.3213C10.2362 9.36616 10.2522 9.38599 10.281 9.4247C10.332 9.49412 10.3669 9.57108 10.3854 9.64757C10.4184 9.80103 10.4014 9.95214 10.3334 10.0862C10.2999 10.1533 10.2574 10.2137 10.1833 10.2789L10.1611 10.294C10.1219 10.3261 10.1238 10.3209 10.1025 10.3351C10.0714 10.354 10.0378 10.3677 10.0057 10.3795C9.74888 10.4692 9.48684 10.3606 9.38296 10.201C9.27389 10.0433 9.30033 9.89311 9.3348 9.81615C9.37304 9.73446 9.41884 9.71273 9.41554 9.71179Z" fill="#1E009F"/>
<path d="M19.376 17.6255C19.2537 17.5353 19.1721 17.3847 19.1286 17.2331C19.0823 17.0806 19.0687 16.9257 19.0474 16.7808C19.0153 16.488 18.9893 16.1901 18.9964 15.887C18.9992 15.2859 19.1229 14.6291 19.4983 14.0686C19.5663 13.9671 19.6787 13.9128 19.7925 13.9138H19.8114C19.9903 13.9171 20.1447 14.0639 20.1839 14.1522C20.2349 14.2457 20.2477 14.3146 20.258 14.3803C20.268 14.4553 20.2656 14.4945 20.267 14.5262L20.2703 14.6357C20.2689 14.7943 20.2618 14.9577 20.2453 15.1098C20.2094 15.42 20.1447 15.7264 20.038 16.0173C19.8359 16.6004 19.5026 17.1373 19.0455 17.5311C19.2585 16.9692 19.4148 16.4271 19.5021 15.8803C19.5399 15.606 19.5696 15.3345 19.5753 15.063C19.5772 14.9242 19.5781 14.7958 19.571 14.6631L19.5611 14.4818C19.5611 14.4752 19.5554 14.4723 19.5706 14.5021C19.5748 14.5266 19.6674 14.6206 19.7712 14.6206L20.0843 14.4662C19.8048 14.8779 19.6546 15.3917 19.5441 15.9427L19.3925 16.7912C19.3633 16.9371 19.3368 17.074 19.3222 17.2114C19.3109 17.3469 19.3137 17.4876 19.376 17.6255Z" fill="#1E009F"/>
<path d="M19.5125 17.3828C19.5125 17.3828 19.7103 16.8743 20.0853 16.1641C20.1783 15.9856 20.2779 15.7939 20.3941 15.5942C20.5102 15.3921 20.6363 15.1721 20.8105 14.961C20.9814 14.7514 21.1906 14.5304 21.4753 14.3765C21.6227 14.2995 21.7643 14.2438 21.9508 14.2051C22.0589 14.1904 22.1775 14.1763 22.3474 14.2461C22.431 14.2825 22.5231 14.3562 22.5779 14.4487C22.6355 14.5446 22.6506 14.639 22.6548 14.7056C22.6539 15.0913 22.4933 15.4157 22.3167 15.6579C22.1383 15.9087 21.9192 16.0886 21.7204 16.2543C21.5098 16.4266 21.32 16.5499 21.1292 16.6863C20.9432 16.8204 20.7619 16.9404 20.5938 17.0504C20.2604 17.2799 19.9483 17.4456 19.7103 17.5145C19.5932 17.5514 19.496 17.5603 19.4322 17.5651C19.368 17.5669 19.334 17.5684 19.334 17.5684C19.334 17.5684 19.4653 17.5221 19.6485 17.3875C19.8326 17.2567 20.0607 17.0249 20.3346 16.7369C20.4738 16.5924 20.6259 16.4366 20.7921 16.2793C20.9555 16.123 21.1273 15.9587 21.3054 15.7887C21.4782 15.6225 21.6326 15.4412 21.7577 15.2637C21.8833 15.0814 21.9456 14.8944 21.948 14.7443C21.9348 14.741 21.9966 14.8755 22.0556 14.884C22.1024 14.9001 22.0821 14.8864 22.0603 14.8921C21.9872 14.9058 21.8776 14.9384 21.7922 14.9818C21.6132 15.0758 21.4338 15.2061 21.2775 15.3723C20.963 15.6967 20.6858 16.0881 20.4214 16.3898C19.9072 17.006 19.5125 17.3828 19.5125 17.3828Z" fill="#1E009F"/>
<path d="M20.548 17.7224C20.548 17.7224 20.5669 17.6001 20.6273 17.3905C20.6892 17.1827 20.793 16.8843 20.9937 16.5576C21.1878 16.2308 21.4904 15.8706 21.9135 15.5939C22.1255 15.4598 22.3611 15.3337 22.6241 15.2629C22.7606 15.2256 22.8777 15.1977 23.0415 15.1817C23.1261 15.1751 23.2351 15.1746 23.3579 15.2157C23.4693 15.2492 23.6067 15.3488 23.6709 15.4456C23.8131 15.6515 23.8329 15.8658 23.7909 16.0722C23.7805 16.1218 23.7574 16.1855 23.7465 16.2096C23.7229 16.2653 23.703 16.3026 23.6794 16.3413C23.6327 16.4183 23.5798 16.4825 23.5265 16.5392C23.3093 16.7611 23.1185 16.8621 22.9121 17.0024C22.5065 17.2554 22.0929 17.4273 21.7298 17.5288C21.3672 17.6355 21.0579 17.6733 20.8374 17.6865C20.7118 17.6917 20.6183 17.6511 20.5735 17.5992C20.5319 17.5435 20.5518 17.5076 20.548 17.5095C20.5494 17.5071 20.5522 17.5477 20.5985 17.5699C20.6415 17.5921 20.725 17.5822 20.8067 17.5487C20.9961 17.4618 21.2676 17.3267 21.5731 17.1539C21.8781 16.9769 22.2185 16.7564 22.5557 16.4905C22.7148 16.3663 22.9098 16.1968 23.0231 16.0764C23.1416 15.9485 23.1086 15.872 23.0996 15.8625C23.1067 15.8791 23.169 15.88 23.0878 15.8753C23.0113 15.8795 22.8928 15.8994 22.7998 15.923C22.6029 15.973 22.4069 16.0372 22.2275 16.1307C21.8663 16.3116 21.5603 16.5604 21.3134 16.8059C21.0697 17.0515 20.8823 17.2861 20.7519 17.4538C20.6221 17.6247 20.548 17.7224 20.548 17.7224Z" fill="#1E009F"/>
<path d="M17.7985 19.5215C17.7985 19.5215 17.7107 19.4299 17.5567 19.2689C17.4042 19.1107 17.1842 18.8907 16.9155 18.6362C16.6417 18.3869 16.3225 18.0955 15.9802 17.7834C15.813 17.6286 15.6185 17.4623 15.4551 17.3051C15.3838 17.2366 15.3201 17.2121 15.3239 17.2192C15.3191 17.2187 15.3154 17.2239 15.3328 17.2178C15.3413 17.2145 15.3546 17.2069 15.3678 17.1937L15.3772 17.1833L15.3857 17.1705L15.3796 17.1805C15.3928 17.1602 15.3909 17.162 15.3938 17.1564C15.3985 17.1384 15.3886 17.1658 15.3919 17.1998C15.3947 17.2834 15.3952 17.2636 15.4051 17.3179C15.4221 17.3953 15.4556 17.4765 15.5047 17.5577C15.6057 17.7178 15.7441 17.8859 15.9046 18.0346C16.2323 18.3448 16.5543 18.6192 16.8461 18.8364C17.1389 19.0517 17.4005 19.2141 17.5922 19.3199C17.7839 19.4256 17.9005 19.4818 17.9005 19.4818C17.9005 19.4818 17.7721 19.4847 17.5478 19.4535C17.3244 19.4209 17.0038 19.3468 16.6445 19.19C16.2833 19.038 15.8872 18.8052 15.499 18.5087C15.3045 18.3529 15.0911 18.1791 14.9263 17.9232C14.8437 17.7962 14.7719 17.6493 14.7294 17.4845C14.7082 17.4189 14.6907 17.2744 14.6902 17.2333C14.6855 17.1432 14.6836 17.0421 14.7313 16.9071C14.7455 16.8721 14.7568 16.8452 14.7861 16.798L14.8153 16.7569C14.8276 16.7409 14.8404 16.7248 14.855 16.7107C14.9107 16.6521 14.9768 16.6082 15.042 16.5794C15.1737 16.5218 15.2988 16.5138 15.4169 16.5298C15.6719 16.5723 15.8154 16.7083 15.9216 16.8056C16.111 16.9921 16.2592 17.1687 16.4226 17.3462C16.738 17.6999 17.0157 18.0535 17.2258 18.3765C17.4411 18.6961 17.5841 18.986 17.6738 19.1919C17.7636 19.3992 17.7985 19.5215 17.7985 19.5215Z" fill="#1E009F"/>
<path d="M17.2678 19.3616C16.4731 19.4646 15.7049 19.6454 14.8635 19.6166C14.7578 19.6119 14.6614 19.6057 14.5467 19.5935C14.4409 19.5821 14.3352 19.5651 14.2303 19.5425C14.0202 19.4971 13.811 19.4343 13.6071 19.3489C13.1982 19.1822 12.8143 18.8932 12.5437 18.5051C12.4332 18.3469 12.472 18.1297 12.6301 18.0197C12.6887 17.9786 12.7553 17.9583 12.8214 17.9569H12.8308C13.2766 17.9465 13.7213 17.9866 14.1614 18.0461C14.5996 18.1193 15.034 18.2161 15.4533 18.3592C15.8735 18.498 16.2796 18.6751 16.6658 18.8843C16.857 18.9933 17.045 19.1057 17.2263 19.228C17.4066 19.3522 17.5799 19.4858 17.7447 19.6279C16.9297 19.3215 16.1242 19.0731 15.3064 18.9055L14.6921 18.7955C14.4867 18.7643 14.2809 18.7421 14.0755 18.7199C13.8696 18.6977 13.6637 18.6817 13.4574 18.6713L12.8384 18.6595L13.1255 18.1113C13.2992 18.3838 13.5731 18.5892 13.8828 18.7525C14.0386 18.8333 14.2063 18.8994 14.3805 18.9518L14.6454 19.0245C14.7261 19.0453 14.8262 19.0656 14.9174 19.0816C15.289 19.1425 15.678 19.1761 16.0742 19.2039C16.4699 19.2384 16.8745 19.2686 17.2678 19.3616Z" fill="#1E009F"/>
<path d="M16.6578 22.7199C16.6578 22.7199 16.407 23.1132 15.9674 23.6345C15.7517 23.9003 15.4754 24.1869 15.2469 24.4971C15.1298 24.6506 15.0391 24.8187 14.9669 24.983C14.931 25.0604 14.9046 25.1615 14.8904 25.2247C14.8852 25.2417 14.8998 25.2536 14.8795 25.1893C14.8715 25.161 14.8281 25.1095 14.8049 25.0958C14.7497 25.0604 14.7157 25.0595 14.6916 25.0576C14.6463 25.0628 14.6859 25.0581 14.6911 25.0548L14.8422 24.9802C14.9329 24.9296 15.0004 24.8928 15.0845 24.8319C15.2422 24.7176 15.4027 24.6039 15.5378 24.465C15.8149 24.1959 16.0449 23.8975 16.2319 23.6274C16.416 23.3559 16.5624 23.1151 16.6644 22.9442C16.714 22.8545 16.7659 22.795 16.7437 22.769C16.7121 22.7341 16.6809 22.7681 16.6866 22.7685C16.6819 22.7761 16.6889 22.7138 16.7645 22.7369C16.8452 22.7888 16.8056 22.9022 16.7975 22.9905C16.7692 23.1911 16.7159 23.4791 16.5945 23.8115C16.4774 24.1449 16.2904 24.5255 15.9995 24.8843C15.8536 25.0623 15.686 25.2403 15.4849 25.3867C15.3919 25.4599 15.2662 25.5373 15.1619 25.5987L15.0136 25.679C14.9173 25.7229 14.8488 25.7592 14.6892 25.7654C14.6094 25.763 14.5183 25.7503 14.4154 25.6837C14.3441 25.6403 14.2629 25.5435 14.2336 25.4632C14.1698 25.2937 14.193 25.187 14.2071 25.0954C14.2449 24.94 14.2851 24.8262 14.3436 24.7025C14.4541 24.4617 14.6156 24.2672 14.77 24.0977C15.0887 23.7615 15.4173 23.5353 15.6926 23.337C16.2465 22.9395 16.6578 22.7199 16.6578 22.7199Z" fill="#1E009F"/>
<path d="M15.6767 19.5819C15.6767 19.5819 15.5449 19.5824 15.314 19.5838C15.0874 19.5852 14.7635 19.5952 14.3857 19.6292C14.0071 19.6655 13.5731 19.7274 13.1203 19.8336C12.8932 19.8851 12.6647 19.9554 12.4333 20.0272C12.3181 20.065 12.2019 20.1018 12.0881 20.1476L12.0027 20.1807C11.9767 20.1873 11.921 20.2194 11.9984 20.1745C12.0149 20.1627 12.0376 20.1429 12.0574 20.1155C12.0461 20.1334 12.0815 20.0777 12.0763 20.0858L12.0749 20.0881L12.0721 20.0938C12.0749 20.0905 12.0962 20.0494 12.1004 20.0267C12.1217 19.9512 12.108 19.8898 12.0962 19.8577C12.0697 19.794 12.0589 19.7954 12.0555 19.7883C12.1958 19.8926 12.4021 20.0012 12.6118 20.064C12.8233 20.1249 13.0429 20.1755 13.2629 20.1882C13.7053 20.2222 14.1341 20.1641 14.5057 20.0985C14.8787 20.0267 15.1969 19.9512 15.4212 19.9025C15.6465 19.8534 15.7777 19.8303 15.7777 19.8303C15.7777 19.8303 15.6701 19.9087 15.4751 20.0329C15.2791 20.1552 14.9967 20.3285 14.6251 20.4871C14.4382 20.5674 14.2356 20.6448 13.9981 20.7033C13.7757 20.7605 13.5165 20.8096 13.2511 20.8115C12.9853 20.8162 12.702 20.8011 12.422 20.7208C12.1415 20.6415 11.869 20.5291 11.5919 20.3233C11.5399 20.2742 11.4847 20.2255 11.4346 20.1009C11.412 20.0385 11.3936 19.9432 11.4238 19.8364C11.4313 19.8062 11.4545 19.7566 11.4611 19.7467L11.488 19.7038C11.5173 19.6636 11.5517 19.632 11.581 19.6108C11.7123 19.5281 11.7208 19.5442 11.7548 19.5272L11.8516 19.4937C11.9795 19.4474 12.1099 19.4101 12.2388 19.3723C12.497 19.2958 12.76 19.258 13.0117 19.2212C13.5179 19.1565 13.9952 19.1693 14.3947 19.2245C14.7956 19.2746 15.1176 19.3685 15.3386 19.446C15.5582 19.5234 15.6767 19.5819 15.6767 19.5819Z" fill="#1E009F"/>
<path d="M14.9301 20.4331C14.9301 20.4331 14.8272 20.4841 14.6468 20.5733C14.4692 20.6602 14.218 20.7863 13.9272 20.9425C13.6373 21.1026 13.3072 21.2924 12.9696 21.5153C12.7991 21.6239 12.6329 21.7499 12.4611 21.8722C12.3751 21.9331 12.2911 21.9983 12.2075 22.0639L12.0838 22.164C12.0446 22.19 12.0744 22.1994 12.1069 22.0998C12.1206 22.0007 12.1055 22.1428 12.1126 22.0465C12.1084 21.9931 12.1008 21.9804 12.0904 21.9549C12.0687 21.91 12.0427 21.8911 12.0337 21.884C12.0134 21.8722 12.029 21.8845 12.0465 21.8878C12.0517 21.8902 12.0744 21.8916 12.0621 21.8921L12.1457 21.8939C12.2004 21.8944 12.2618 21.8977 12.301 21.893C12.4729 21.885 12.6787 21.867 12.8563 21.8198C13.2218 21.7339 13.5537 21.5823 13.8205 21.4142C14.0873 21.2447 14.2936 21.0644 14.4301 20.9246C14.5693 20.7867 14.643 20.6956 14.643 20.6956C14.643 20.6956 14.6355 20.7235 14.6218 20.7754C14.6071 20.8278 14.5901 20.9081 14.5486 21.0016C14.4735 21.1914 14.3323 21.4605 14.0825 21.7254C13.8384 21.9941 13.481 22.2547 13.0404 22.4157C12.8166 22.4941 12.5923 22.5625 12.3222 22.5767C12.2514 22.5838 12.2014 22.5824 12.1447 22.5838L12.0611 22.5852C11.9931 22.5838 11.9606 22.5791 11.9105 22.5706C11.8189 22.5517 11.7264 22.5262 11.6149 22.4483C11.5602 22.4086 11.4955 22.3468 11.4497 22.2509C11.4279 22.1999 11.4119 22.1603 11.4062 22.0786C11.4086 21.9544 11.3991 22.0682 11.4171 21.9416C11.4761 21.7301 11.5974 21.6602 11.6437 21.6173L11.7854 21.511C11.8803 21.4421 11.9752 21.3741 12.072 21.3108C12.2623 21.1791 12.4667 21.0762 12.6613 20.9751C13.0541 20.7787 13.4437 20.6456 13.7827 20.5643C14.1212 20.4793 14.4098 20.4491 14.6128 20.4373C14.8144 20.4265 14.9301 20.4331 14.9301 20.4331Z" fill="#1E009F"/>
<path d="M22.1335 18.9827C22.1335 18.9827 22.1973 18.8986 22.3347 18.7673C22.4716 18.6394 22.685 18.4675 22.9782 18.3183C23.2691 18.1639 23.6421 18.0397 24.0595 17.9845C24.2668 17.9604 24.4873 17.9439 24.7357 17.9826C24.858 18.0029 24.9878 18.0345 25.1134 18.0926C25.1672 18.1219 25.255 18.1464 25.3674 18.2753C25.3939 18.3079 25.4198 18.349 25.4387 18.3948C25.4713 18.4973 25.45 18.4094 25.4718 18.5232C25.4845 18.6573 25.4496 18.7428 25.4085 18.8188C25.3216 18.9572 25.2329 19.0063 25.1559 19.0506C25.087 19.0903 24.9784 19.1238 24.9359 19.1333C24.8391 19.1602 24.7248 19.1838 24.6237 19.2046C24.415 19.2475 24.2073 19.274 24.0062 19.291C23.5982 19.3179 23.2346 19.3146 22.897 19.2546C22.5656 19.2003 22.2964 19.0648 22.1533 18.9293C22.0065 18.7952 21.9739 18.6861 21.9697 18.6909C21.9697 18.6909 22.058 18.7584 22.2246 18.808C22.3899 18.8618 22.6284 18.8783 22.9164 18.8486C23.1973 18.8136 23.5566 18.7499 23.9145 18.6696C24.0959 18.63 24.2814 18.5837 24.4689 18.535L24.7508 18.4557C24.8084 18.4401 24.798 18.4411 24.8197 18.4307C24.8329 18.4264 24.8306 18.4118 24.7975 18.4614C24.7824 18.493 24.7616 18.527 24.7701 18.6092C24.7914 18.697 24.7612 18.5846 24.7857 18.663C24.7952 18.6852 24.807 18.7036 24.8178 18.7164C24.8636 18.7645 24.8551 18.7433 24.8169 18.7286C24.756 18.7003 24.688 18.6739 24.611 18.6573C24.459 18.6224 24.2762 18.6125 24.0978 18.6096C23.7422 18.6026 23.4051 18.6441 23.1142 18.6998C22.8243 18.7589 22.5793 18.8301 22.4069 18.8878C22.2327 18.9482 22.1335 18.9827 22.1335 18.9827Z" fill="#1E009F"/>
<path d="M22.2506 19.1262C22.9065 19.0907 23.5619 19.1691 24.2012 19.3131C24.5246 19.3844 24.8698 19.4926 25.1852 19.715C25.5039 19.935 25.7688 20.2886 25.8236 20.7396C25.8439 20.9086 25.7367 21.0635 25.578 21.1079L25.562 21.1121C25.3202 21.1796 25.0752 21.1622 24.8665 21.1126C24.6559 21.064 24.4703 20.9893 24.2975 20.9147C24.1875 20.8671 24.1289 20.8312 24.043 20.7868L23.8036 20.6607C23.645 20.5753 23.4835 20.4955 23.3277 20.4034L23.0925 20.2693C23.016 20.2273 22.9192 20.1678 22.8479 20.1206C22.6926 20.0129 22.5358 19.8944 22.3965 19.7518C22.2605 19.6082 22.143 19.4354 22.0783 19.2475C22.0127 19.0605 22.0013 18.8542 22.0618 18.6785C22.0825 18.8627 22.16 19.0209 22.2615 19.1521C22.3621 19.2848 22.4877 19.3877 22.6284 19.4732C22.7658 19.5615 22.9183 19.6309 23.0793 19.6956C23.1662 19.7338 23.228 19.7593 23.3159 19.791L23.5699 19.8854C23.7403 19.9459 23.9051 20.0181 24.0728 20.0851L24.5586 20.2853C24.8769 20.418 25.1748 20.4837 25.3878 20.4341L25.1262 20.8062C25.1177 20.6111 24.976 20.3996 24.7905 20.2329C24.5945 20.0639 24.3287 19.9411 24.0425 19.8207C23.458 19.5809 22.8616 19.3646 22.2506 19.1262Z" fill="#1E009F"/>
<path d="M22.1259 19.3773C22.1259 19.3773 22.2237 19.4222 22.3871 19.5128C22.5495 19.6044 22.7789 19.7395 23.033 19.9406C23.2884 20.138 23.5707 20.4053 23.8092 20.7651C23.9263 20.945 24.0325 21.148 24.1029 21.3718C24.1359 21.4936 24.1709 21.5772 24.1883 21.7377C24.1992 21.8775 24.2053 22.0782 24.0547 22.2836C23.9834 22.3794 23.8715 22.4517 23.7719 22.4866C23.6713 22.5225 23.5797 22.5315 23.498 22.531C23.4504 22.53 23.4315 22.5305 23.3654 22.5211L23.2894 22.5069C23.2157 22.4899 23.1302 22.4644 23.0717 22.438C22.8106 22.3294 22.6179 22.1419 22.4824 21.9493C22.2095 21.5574 22.1529 21.1154 22.1675 20.792C22.176 20.4605 22.2331 20.2027 22.2671 20.0204C22.3058 19.8382 22.3276 19.7343 22.3276 19.7343C22.3276 19.7343 22.3635 19.8358 22.4078 20.0176C22.4475 20.1942 22.5037 20.4463 22.5717 20.7485C22.6472 21.0384 22.7596 21.3369 22.9763 21.5607C23.0802 21.6731 23.2025 21.7576 23.3238 21.7987C23.3592 21.8119 23.3734 21.8119 23.3994 21.819L23.4758 21.8293C23.4607 21.8275 23.4933 21.8303 23.4976 21.8289C23.5514 21.8251 23.5231 21.8171 23.4952 21.8496C23.4744 21.8874 23.4966 21.8643 23.4895 21.8015C23.4876 21.7561 23.4622 21.6414 23.4452 21.5654C23.4031 21.3964 23.3385 21.232 23.2648 21.0739C23.1184 20.7556 22.9182 20.4704 22.7421 20.2221C22.557 19.9723 22.4026 19.7636 22.2945 19.6177C22.1859 19.4675 22.1259 19.3773 22.1259 19.3773Z" fill="#1E009F"/>
<path d="M9.6918 18.468C9.6918 18.468 9.74563 18.4741 9.83204 18.4944C9.92081 18.5166 10.0327 18.5402 10.164 18.5794C10.426 18.6554 10.7443 18.7584 11.0521 18.8769C11.3614 18.9902 11.6683 19.1234 11.9153 19.24C12.1599 19.3528 12.3431 19.469 12.3431 19.469C12.3431 19.469 12.1632 19.5922 11.8685 19.6437C11.5753 19.7032 11.1707 19.681 10.8019 19.5389C10.4317 19.401 10.1139 19.1498 9.93308 18.9118C9.74232 18.6762 9.6918 18.468 9.6918 18.468Z" fill="#1E009F"/>
<path d="M21.6633 18.6727C21.6633 18.6727 21.7511 18.6656 21.8734 18.6146C21.9985 18.5674 22.1482 18.4668 22.3206 18.3266C22.4882 18.1821 22.7087 18.0003 22.9349 17.8223C23.1587 17.6471 23.3971 17.4611 23.636 17.2746C23.7531 17.183 23.8641 17.0867 23.9737 16.9932C24.0818 16.8968 24.1876 16.8019 24.2834 16.708C24.4812 16.5191 24.6489 16.3255 24.79 16.1503C24.9284 15.9738 25.0356 15.8123 25.1097 15.6933C25.1834 15.571 25.2259 15.5006 25.2259 15.5006C25.2259 15.5006 25.2438 15.5833 25.2457 15.7301C25.2467 15.876 25.2315 16.0913 25.1527 16.3345C25.0809 16.5805 24.9463 16.852 24.7631 17.1136C24.6682 17.2448 24.5643 17.3718 24.4487 17.4899C24.3344 17.6103 24.2079 17.7208 24.0794 17.8265C23.8197 18.0343 23.5411 18.2076 23.2739 18.3488C23.0019 18.4862 22.7578 18.6014 22.5113 18.684C22.2686 18.7685 22.0354 18.7865 21.8843 18.7543C21.7308 18.7251 21.6642 18.6684 21.6633 18.6727Z" fill="#1E009F"/>
<path d="M17.8953 22.3615C17.8953 22.3615 17.6346 22.5848 17.3986 22.9743C17.3391 23.0711 17.2753 23.183 17.2139 23.294C17.1393 23.4191 17.0869 23.5405 17.0246 23.6604C16.9004 23.9135 16.7862 24.1892 16.6917 24.4692C16.5 25.0292 16.3928 25.6129 16.3692 26.0765C16.3584 26.307 16.3593 26.5072 16.3636 26.6512C16.3716 26.7938 16.3716 26.8816 16.3716 26.8816C16.3716 26.8816 16.3168 26.8179 16.2295 26.6946C16.1483 26.57 16.042 26.3797 15.9665 26.1304C15.9268 26.0062 15.8914 25.8683 15.8735 25.7196C15.8541 25.5718 15.8352 25.4122 15.8428 25.2483C15.848 24.9202 15.9093 24.5712 16.0217 24.2407C16.1355 23.9102 16.2979 23.5986 16.4892 23.3356C16.5878 23.1991 16.695 23.0759 16.7904 22.981C16.8914 22.8672 16.9977 22.7793 17.1025 22.6986C17.3093 22.5362 17.5157 22.4436 17.6616 22.4025C17.8098 22.361 17.8953 22.3615 17.8953 22.3615Z" fill="#1E009F"/>
<path d="M8.18972 6.84009C8.18972 6.84009 8.03768 6.73196 7.78271 6.5294C7.52963 6.32542 7.16938 6.02937 6.78032 5.61952C6.58532 5.41554 6.38088 5.18419 6.18777 4.91883C5.99371 4.65158 5.80153 4.36261 5.64525 4.02973C5.48802 3.70157 5.34543 3.34555 5.2647 2.96262C5.22126 2.77233 5.19387 2.57544 5.1764 2.37666C5.16743 2.27703 5.16365 2.17692 5.16223 2.07635C5.16034 2.02583 5.16365 1.97531 5.16412 1.92479C5.16979 1.8634 5.1561 1.85774 5.18349 1.71373C5.19246 1.67879 5.20709 1.63535 5.23494 1.58908C5.25714 1.55697 5.2458 1.5631 5.30388 1.50078L5.32182 1.48425C5.46347 1.36668 5.56971 1.37188 5.66556 1.37613C5.84026 1.40446 5.90682 1.46772 5.97765 1.52249C6.01117 1.55177 6.04092 1.58246 6.07114 1.62071L6.11316 1.67548L6.19721 1.78408C6.30675 1.92951 6.43282 2.11035 6.52583 2.26947C6.72839 2.5948 6.87759 2.93901 7.01216 3.26858C7.27137 3.93387 7.43143 4.56659 7.55891 5.10533C7.68875 5.64219 7.78508 6.09595 7.86204 6.4038C7.90406 6.55348 7.95505 6.66491 8.00982 6.7296C8.06318 6.79523 8.10473 6.81932 8.10473 6.81932C8.10473 6.81932 8.05845 6.80893 7.98385 6.75793C7.90972 6.70741 7.81199 6.60683 7.7322 6.4581C7.57591 6.16582 7.38232 5.74465 7.17221 5.23093C6.95785 4.72004 6.72744 4.1218 6.44037 3.51789C6.29777 3.2157 6.12591 2.92059 5.94507 2.63068C5.85064 2.48006 5.76471 2.36154 5.65139 2.21611L5.56451 2.10941L5.52155 2.05558C5.52296 2.05794 5.51918 2.05463 5.51918 2.05463C5.5206 2.05085 5.50596 2.06171 5.58906 2.07777C5.63911 2.07682 5.69719 2.09147 5.80248 2.0027C5.80815 1.99703 5.79682 2.00836 5.79493 2.00978C5.84592 1.95595 5.82751 1.97153 5.84404 1.94934C5.86009 1.9229 5.86669 1.90118 5.86952 1.88843C5.8766 1.8346 5.86859 1.92196 5.86859 1.95217C5.86717 1.99373 5.86292 2.03527 5.86386 2.07682C5.86292 2.1604 5.86433 2.2435 5.87 2.32708C5.88133 2.49375 5.89975 2.66043 5.93327 2.82427C5.99984 3.15149 6.08813 3.47492 6.21326 3.77617C6.33554 4.07552 6.47814 4.36685 6.62829 4.62985C6.78363 4.89285 6.93992 5.1398 7.09384 5.36361C7.40499 5.80934 7.68734 6.17385 7.88281 6.43165C8.07829 6.69135 8.18972 6.84009 8.18972 6.84009Z" fill="#1E009F"/>
<path d="M8.68992 7.1951C8.69795 7.19227 8.56338 7.21398 8.41417 7.06053C8.27204 6.90754 8.1436 6.68042 7.99581 6.39476C7.84896 6.11003 7.71014 5.76063 7.59681 5.37439C7.54157 5.1808 7.49341 4.97823 7.45657 4.76953C7.44713 4.7124 7.43816 4.6784 7.42871 4.59577C7.42021 4.52211 7.41691 4.37527 7.50001 4.23928C7.49671 4.24258 7.53023 4.18829 7.56989 4.14626C7.60909 4.10471 7.63648 4.08771 7.67331 4.06269C7.74272 4.02114 7.81874 3.99705 7.88154 3.98997C8.01186 3.97392 8.11197 3.99611 8.20026 4.02633C8.28809 4.05844 8.36506 4.10235 8.43825 4.16279C8.47413 4.19207 8.51238 4.22937 8.54213 4.26761L8.59312 4.3323C8.69653 4.47253 8.73856 4.58539 8.78153 4.71571C8.85849 4.96832 8.86085 5.20629 8.84621 5.4183C8.83299 5.63125 8.79191 5.82295 8.75933 5.99671C8.72817 6.17236 8.6904 6.33762 8.65451 6.49061C8.51569 7.1016 8.3608 7.50391 8.3608 7.50391C8.3608 7.50391 8.27818 7.08083 8.24937 6.45472C8.22529 6.14639 8.23852 5.76252 8.21821 5.41169C8.2083 5.23652 8.18043 5.06842 8.12991 4.9329C8.10819 4.87058 8.06191 4.79456 8.04302 4.76859L7.99722 4.71287C7.99533 4.71004 7.99581 4.71192 7.99156 4.70862C7.98495 4.70343 7.97031 4.69588 7.96134 4.69257C7.95237 4.68785 7.94717 4.69162 7.97456 4.68879C7.98589 4.68596 8.01281 4.68171 8.03689 4.66424C8.05389 4.65479 8.05814 4.65054 8.08033 4.62882C8.10299 4.60616 8.11857 4.57028 8.10394 4.59719C8.12943 4.5495 8.12236 4.51173 8.12189 4.53912C8.12141 4.55847 8.13039 4.62552 8.13511 4.66896C8.16013 4.86397 8.18515 5.05614 8.20876 5.24171C8.25928 5.61425 8.32445 5.96178 8.37875 6.26397C8.44155 6.56144 8.47933 6.82917 8.53127 6.98357C8.58273 7.14505 8.68992 7.1951 8.68992 7.1951Z" fill="#1E009F"/>
<path d="M8.8442 8.66772C8.8442 8.66772 8.80407 8.56904 8.77952 8.38111C8.75402 8.19508 8.75591 7.91886 8.81115 7.60534C8.86356 7.2989 8.9292 6.92683 9.14781 6.53162C9.26113 6.33567 9.42025 6.14397 9.63367 5.99901C9.73991 5.92677 9.85936 5.86255 9.99251 5.82242C10.0581 5.80117 10.128 5.78701 10.1984 5.77615L10.3065 5.76671C10.357 5.76529 10.4071 5.76623 10.4779 5.78181C10.5454 5.79692 10.6389 5.83611 10.7149 5.91496C10.7857 5.98484 10.8315 6.09581 10.8405 6.15767C10.8542 6.23085 10.8537 6.27098 10.8509 6.32764L10.841 6.4268C10.8193 6.5812 10.7669 6.70585 10.7083 6.82058C10.5907 7.04534 10.4387 7.20966 10.3089 7.35037C10.0246 7.64878 9.72999 7.88156 9.4533 8.04682C9.18039 8.21539 8.93298 8.31691 8.75828 8.37734C8.58216 8.43589 8.47781 8.45667 8.47781 8.45667C8.47781 8.45667 8.55335 8.38395 8.68462 8.25694C8.81493 8.13134 8.99389 7.95049 9.19597 7.73188C9.39381 7.5109 9.61761 7.24696 9.82112 6.95469C9.93208 6.79934 10.0308 6.65391 10.0921 6.51698C10.1214 6.45135 10.1384 6.38288 10.1445 6.33566C10.1445 6.33566 10.1474 6.31112 10.1488 6.28279C10.1483 6.28892 10.1469 6.27759 10.1502 6.30072C10.1493 6.31253 10.1738 6.37533 10.2088 6.40838C10.2489 6.44993 10.2947 6.46646 10.3126 6.47024C10.3334 6.47449 10.332 6.4726 10.332 6.4726L10.2876 6.47544C10.2569 6.48016 10.2262 6.4844 10.1951 6.49432C10.1332 6.51226 10.0685 6.53728 10.0067 6.57458C9.88155 6.64777 9.76728 6.75354 9.67049 6.87678C9.47124 7.12703 9.33432 7.45188 9.19786 7.7248C9.06896 7.99583 8.97216 8.22294 8.91881 8.39292C8.86404 8.56195 8.8442 8.66772 8.8442 8.66772Z" fill="#1E009F"/>
<path d="M7.9434 6.58013C7.9434 6.58013 7.87399 6.5976 7.74178 6.59147C7.61288 6.58674 7.42495 6.54849 7.22711 6.4687C7.12701 6.43092 7.02219 6.38796 6.9202 6.3398C6.81301 6.29022 6.71906 6.25717 6.60385 6.21042C6.39515 6.13063 6.14113 6.04705 5.88096 5.92618C5.75159 5.86338 5.61796 5.79255 5.4933 5.70284C5.42956 5.65893 5.37055 5.61265 5.31152 5.55694C5.27139 5.51916 5.19867 5.44976 5.15476 5.39404C4.96448 5.16457 4.85021 4.91054 4.80347 4.68721C4.75153 4.46481 4.76286 4.27501 4.78458 4.14894C4.80724 4.02192 4.83652 3.9544 4.83652 3.9544C4.83652 3.9544 4.86816 4.01768 4.92388 4.12817C4.97912 4.2344 5.06505 4.37605 5.17601 4.52384C5.29074 4.66974 5.42909 4.82319 5.59812 4.94926L5.72797 5.04181L5.86585 5.12538C5.96359 5.17921 6.06888 5.23445 6.18315 5.28591C6.40979 5.39404 6.65956 5.50406 6.89848 5.65751C7.00755 5.72645 7.12229 5.82089 7.20823 5.89833C7.29983 5.97671 7.37537 6.05697 7.44573 6.12827C7.58596 6.26897 7.69929 6.38418 7.79136 6.46067C7.88013 6.53717 7.9434 6.58013 7.9434 6.58013Z" fill="#1E009F"/>
<path d="M11.0224 9.79928C11.0224 9.79928 11.0786 9.7228 11.1985 9.60286C11.318 9.48435 11.5021 9.32617 11.7543 9.17838C12.0041 9.02682 12.3237 8.89224 12.684 8.80395C12.8516 8.77089 13.0726 8.69393 13.3842 8.79592C13.4621 8.8252 13.5533 8.87336 13.6326 8.96024C13.6718 9.00462 13.7048 9.05514 13.7294 9.10991C13.7426 9.14627 13.7454 9.14344 13.7629 9.2138L13.7719 9.26243C13.7964 9.55093 13.668 9.69163 13.5811 9.79928C13.4834 9.90458 13.3804 9.96973 13.3091 10.0193C13.2166 10.0826 13.1297 10.1289 13.0386 10.1761C12.8577 10.2686 12.6684 10.3361 12.4824 10.3824C12.1018 10.4688 11.7614 10.4816 11.4393 10.4107C11.2802 10.3772 11.1277 10.2993 11.0323 10.2039C10.9199 10.0977 10.8817 9.98626 10.8637 9.89183C10.8368 9.69635 10.9275 9.61749 10.9185 9.61891C10.9185 9.61891 10.9053 9.72705 10.995 9.84084C11.0351 9.89514 11.1107 9.95227 11.1806 9.97729C11.2694 10.0103 11.3643 10.0137 11.4795 10.0061C11.7066 9.97824 12.0149 9.90316 12.2907 9.78417C12.4328 9.72515 12.5726 9.65338 12.7095 9.57311C12.7765 9.53298 12.846 9.48529 12.9045 9.44516C12.9824 9.38991 13.0334 9.35167 13.0594 9.32004C13.0948 9.29501 13.0716 9.26385 13.0778 9.36536C13.0825 9.38378 13.0754 9.35119 13.0749 9.34647C13.0853 9.3951 13.0806 9.37102 13.0863 9.38566C13.0919 9.39888 13.1009 9.41069 13.1108 9.42013C13.1293 9.43854 13.1401 9.43855 13.1344 9.43477C13.1 9.40786 12.9536 9.40455 12.785 9.42202C12.4658 9.44421 12.1665 9.49851 11.9058 9.55376C11.6476 9.61419 11.4266 9.67464 11.2708 9.7228C11.1126 9.77143 11.0224 9.79928 11.0224 9.79928Z" fill="#1E009F"/>
<path d="M10.9861 9.74976C10.9861 9.74976 11.0847 9.7899 11.2533 9.84703C11.4219 9.90558 11.6613 9.9764 11.9455 10.0326C12.0933 10.0614 12.2316 10.0756 12.4087 10.0973C12.5617 10.1105 12.7383 10.1129 12.9125 10.1119C13.2652 10.1077 13.6401 10.0675 14.0141 9.99528C14.3857 9.92776 14.7643 9.82625 15.1133 9.72379C15.4707 9.61424 15.8045 9.51274 16.0907 9.42539C16.6695 9.24077 17.085 9.15766 17.085 9.15766C17.085 9.15766 16.7824 9.45088 16.2649 9.79273C16.0071 9.96602 15.6917 10.1478 15.3328 10.3121C14.9697 10.4755 14.5698 10.611 14.1439 10.6913C13.7213 10.7706 13.2813 10.7885 12.8747 10.7371C12.6698 10.713 12.4814 10.6677 12.2925 10.611C12.1287 10.5619 11.9488 10.4878 11.8105 10.4141C11.5205 10.2673 11.3119 10.0954 11.1796 9.96602C11.047 9.83617 10.9861 9.74976 10.9861 9.74976Z" fill="#1E009F"/>
<path d="M17.0855 1.98826C17.0855 1.98826 16.9765 2.0638 16.7635 2.16956C16.5525 2.27297 16.2394 2.40093 15.8518 2.50764C15.4651 2.6186 15.0052 2.71444 14.5094 2.7763C14.261 2.80368 14.0042 2.83863 13.7421 2.84901C13.4796 2.86271 13.2166 2.87073 12.946 2.87451C12.6877 2.86979 12.4153 2.86129 12.1542 2.84618C11.8921 2.83673 11.6353 2.79848 11.3874 2.77063C10.8911 2.70641 10.4317 2.60915 10.0455 2.49489C9.65875 2.38535 9.34617 2.25361 9.13605 2.1469C8.92641 2.03783 8.81781 1.95898 8.81781 1.95898C8.81781 1.95898 8.95048 1.98306 9.17807 2.01234C9.40566 2.04161 9.7291 2.06947 10.1163 2.09449C10.5039 2.11574 10.9544 2.13557 11.4369 2.14926C11.9238 2.15682 12.428 2.17288 12.9517 2.16674C13.4626 2.17571 13.9801 2.16154 14.4622 2.15588C14.9457 2.14549 15.3961 2.12708 15.7842 2.10819C16.5586 2.07136 17.0855 1.98826 17.0855 1.98826Z" fill="#1E009F"/>
<path d="M8.59259 1.02222C8.59259 1.02222 8.69458 0.928722 8.91272 0.804069C9.12756 0.681305 9.45289 0.53635 9.85706 0.415474C10.2598 0.290821 10.741 0.184578 11.2599 0.115169C11.5196 0.084006 11.7882 0.0448159 12.0621 0.0325395C12.3364 0.0150692 12.615 0.00562859 12.8936 -3.74317e-05C13.1745 0.00137901 13.4446 0.0108229 13.7246 0.0240437C13.9989 0.0349036 14.2676 0.0684317 14.5273 0.0991228C15.0467 0.162394 15.5283 0.261547 15.9325 0.380061C16.3381 0.493382 16.6653 0.628891 16.8848 0.741739C17.1044 0.855532 17.2163 0.94006 17.2163 0.94006C17.2163 0.94006 17.0784 0.909836 16.8419 0.87584C16.6048 0.840899 16.2663 0.808791 15.8616 0.78046C15.4565 0.754963 14.9853 0.733715 14.4796 0.720967C14.227 0.716717 13.9659 0.711994 13.701 0.707744C13.4413 0.703023 13.1637 0.702551 12.8964 0.707744C12.3572 0.702551 11.8189 0.720968 11.3142 0.734661C10.809 0.752132 10.3387 0.78093 9.93497 0.813037C9.53173 0.848922 9.19555 0.889533 8.96136 0.935333C8.72952 0.978301 8.59259 1.02222 8.59259 1.02222Z" fill="#1E009F"/>
<path d="M19.9224 11.2069C19.9224 11.2069 19.8766 11.239 19.7911 11.2999C19.7075 11.3618 19.572 11.4444 19.3945 11.5336C19.0408 11.7145 18.5082 11.9203 17.8509 12.0917C17.1946 12.2688 16.4146 12.4109 15.5746 12.5063C14.7327 12.6069 13.8351 12.6498 12.9286 12.655C12.4861 12.6494 12.0314 12.6366 11.5871 12.6125C11.1438 12.5927 10.7089 12.545 10.2887 12.4973C9.44819 12.3991 8.66864 12.2523 8.01374 12.07C7.35742 11.8939 6.82622 11.6809 6.47635 11.4916C6.30023 11.3991 6.16991 11.3108 6.0868 11.2451C6.0037 11.18 5.95932 11.1455 5.95932 11.1455C5.95932 11.1455 6.15952 11.2527 6.53018 11.3613C6.7148 11.4175 6.94285 11.4718 7.20585 11.5251C7.4679 11.5799 7.76868 11.6238 8.09495 11.6715C8.74985 11.7603 9.51854 11.8287 10.3434 11.8764C10.7556 11.9052 11.1834 11.9104 11.6169 11.9293C12.0494 11.9449 12.4861 11.9477 12.9352 11.9468C13.371 11.951 13.8162 11.9477 14.2488 11.9345C14.6822 11.9175 15.11 11.9142 15.5222 11.8868C16.348 11.8429 17.1172 11.7782 17.7726 11.6942C18.428 11.6087 18.9705 11.5067 19.3435 11.4033C19.7146 11.3032 19.9224 11.2069 19.9224 11.2069Z" fill="#1E009F"/>
<path d="M5.88 10.1405C5.88 10.1405 5.92439 10.1028 6.00654 10.0319C6.0887 9.96535 6.22327 9.86195 6.40505 9.76799C6.76485 9.56637 7.31492 9.34445 7.99485 9.16172C8.33434 9.07201 8.70548 8.98182 9.10116 8.91289C9.49683 8.84065 9.91518 8.77077 10.351 8.72591C11.2221 8.62062 12.1523 8.57671 13.0905 8.57387C13.5485 8.57954 14.0198 8.59418 14.4797 8.61967C14.9386 8.64186 15.3891 8.69192 15.8239 8.74339C16.2597 8.79013 16.6781 8.86426 17.0728 8.94075C17.4685 9.01346 17.8387 9.1079 18.1777 9.20281C18.8553 9.39309 19.403 9.63106 19.7538 9.85204C19.9318 9.95733 20.0541 10.0707 20.1311 10.1476C20.2028 10.2298 20.2415 10.2737 20.2415 10.2737C20.2415 10.2737 20.1943 10.2402 20.1065 10.1769C20.0163 10.1193 19.8766 10.0475 19.6901 9.9781C19.3194 9.83598 18.7646 9.70472 18.0899 9.5999C17.4142 9.49885 16.6195 9.41906 15.7658 9.36428C15.3395 9.3317 14.8971 9.32415 14.448 9.3029C14.0004 9.2859 13.5481 9.28071 13.083 9.28165C11.2613 9.26985 9.43073 9.37183 8.07607 9.55834C7.39945 9.65561 6.84086 9.77271 6.46124 9.89595C6.26954 9.95638 6.12742 10.0135 6.02826 10.0631C5.93194 10.1136 5.88 10.1405 5.88 10.1405Z" fill="#1E009F"/>
<path d="M23.1502 21.1417C23.1502 21.1417 23.0817 21.1885 22.9538 21.2753C22.8282 21.3622 22.6275 21.4817 22.3636 21.6035C21.8352 21.8476 21.0504 22.1418 20.0792 22.3741C19.5943 22.4926 19.065 22.6036 18.5012 22.6947C17.9374 22.7854 17.3415 22.8774 16.7216 22.9341C15.4826 23.0677 14.1582 23.1272 12.8266 23.1277C12.1717 23.1206 11.5027 23.1022 10.8497 23.0672C10.1967 23.0366 9.55591 22.9756 8.93737 22.9067C8.31788 22.8439 7.72199 22.7485 7.15916 22.6513C6.59633 22.554 6.06798 22.4364 5.58448 22.3108C5.1005 22.1857 4.66232 22.0497 4.2827 21.9029C3.90165 21.7612 3.57586 21.6186 3.319 21.4779C3.18821 21.4142 3.0763 21.3462 2.98375 21.2791C2.88979 21.2158 2.80858 21.1648 2.75145 21.1101C2.63388 21.0086 2.57108 20.9547 2.57108 20.9547C2.57108 20.9547 2.64143 20.9977 2.77364 21.0784C2.90585 21.1559 3.10935 21.2536 3.3766 21.3528C3.64055 21.4585 3.97389 21.5586 4.3606 21.6507C4.74589 21.7466 5.18832 21.8264 5.66946 21.9132C6.63458 22.0752 7.77252 22.1975 8.9945 22.2858C9.60455 22.3358 10.2382 22.3543 10.8808 22.384C11.523 22.4104 12.1713 22.4194 12.8337 22.4199C13.483 22.4265 14.1402 22.418 14.7824 22.3986C15.425 22.3727 16.0587 22.3585 16.6701 22.3141C17.8926 22.2362 19.0324 22.1252 20.0008 21.977C20.4834 21.8977 20.9282 21.8273 21.3163 21.74C21.7063 21.6587 22.0411 21.5653 22.3126 21.476C22.5827 21.3839 22.7951 21.3122 22.9349 21.2423C23.0751 21.1767 23.1502 21.1417 23.1502 21.1417Z" fill="#1E009F"/>
<path d="M2.38834 19.8643C2.38834 19.8643 2.44641 19.7987 2.55501 19.675C2.67117 19.5631 2.86381 19.3959 3.13484 19.2458C3.40398 19.0876 3.74866 18.9327 4.15095 18.7717C4.55607 18.622 5.01927 18.4648 5.53488 18.3373C6.04908 18.2046 6.61049 18.0771 7.20967 17.9789C7.80838 17.8727 8.44251 17.783 9.10071 17.7136C9.75939 17.647 10.4407 17.5851 11.1348 17.5554C11.8289 17.5261 12.5343 17.5096 13.2402 17.5077C13.9423 17.5148 14.6525 17.5384 15.3447 17.5776C16.0383 17.6125 16.7192 17.6843 17.3774 17.7598C18.6919 17.9171 19.912 18.1503 20.9342 18.4478C21.9574 18.7372 22.7818 19.115 23.2814 19.5003C23.5335 19.6901 23.6823 19.9054 23.7356 20.0655C23.7875 20.2284 23.764 20.319 23.7715 20.3181C23.7649 20.32 23.7724 20.2255 23.7002 20.0811C23.6284 19.9361 23.457 19.7685 23.2021 19.6131C22.6921 19.2949 21.8531 19.0489 20.8374 18.8425C19.8185 18.6404 18.6126 18.486 17.3146 18.3803C16.0161 18.2792 14.627 18.2155 13.236 18.2155C12.5414 18.2094 11.8454 18.2174 11.1617 18.2382C10.478 18.2646 9.80519 18.2863 9.15501 18.3335C7.8556 18.4228 6.64638 18.5588 5.62035 18.733C5.10757 18.8222 4.64201 18.9214 4.23122 19.0215C3.82468 19.1329 3.47292 19.2453 3.19717 19.3681C2.91859 19.4894 2.71603 19.6046 2.58193 19.7019C2.45586 19.8077 2.38834 19.8643 2.38834 19.8643Z" fill="#1E009F"/>
<path d="M2.02997 29.7611C2.02997 29.7611 2.05735 29.8541 2.1447 30.0047C2.23111 30.1568 2.39731 30.3527 2.65039 30.5529C2.90253 30.7545 3.24722 30.9514 3.64479 31.1818C4.04094 31.4071 4.49044 31.6559 4.99991 31.8367C5.50891 32.0181 6.09158 32.0837 6.7309 32.1252C7.37447 32.1569 8.05297 32.1899 8.75508 32.2244C10.1598 32.2754 11.6585 32.3122 13.1567 32.2915C14.6549 32.2905 16.1526 32.2263 17.5563 32.1569C18.258 32.1106 18.9365 32.0662 19.5796 32.0237C20.2236 31.9732 20.828 31.9345 21.3634 31.8287C21.897 31.722 22.373 31.553 22.7384 31.314C23.1062 31.0737 23.3706 30.7772 23.5316 30.5019C23.6964 30.2271 23.7668 29.9778 23.7942 29.8055C23.8093 29.7191 23.8135 29.6515 23.8145 29.6062C23.8169 29.5604 23.8178 29.5368 23.8178 29.5368C23.8178 29.5368 23.8202 29.5604 23.8244 29.6057C23.8301 29.6515 23.8353 29.7195 23.8324 29.8088C23.8268 29.9854 23.8017 30.2578 23.6539 30.5661C23.5137 30.8754 23.2672 31.222 22.8947 31.5265C22.5212 31.8344 22.0217 32.0719 21.4579 32.2244C20.8936 32.383 20.2765 32.4685 19.6339 32.5497C18.9899 32.6366 18.3085 32.7155 17.6021 32.7787C16.8953 32.8359 16.1644 32.9048 15.4198 32.9327C14.6756 32.9676 13.9187 32.9912 13.1619 32.9992C11.6481 33.0054 10.1338 32.9572 8.7192 32.8458C8.00764 32.7962 7.3315 32.7235 6.68273 32.6498C6.03539 32.5781 5.39418 32.4562 4.85213 32.214C4.30913 31.9789 3.87615 31.671 3.50219 31.4019C3.13154 31.1308 2.80055 30.8933 2.55974 30.6558C2.31421 30.4226 2.17823 30.186 2.11071 30.0217C2.04272 29.8546 2.02997 29.7611 2.02997 29.7611Z" fill="#1E009F"/>
<path d="M1.9156 28.8064C1.9156 28.8064 1.78245 28.8097 1.53786 28.8452C1.30225 28.8829 0.920744 28.9523 0.589752 29.2427C0.246012 29.5307 0.166689 30.12 0.378693 30.6984C0.579838 31.2792 0.983066 31.8859 1.5407 32.394C1.82825 32.6494 2.13563 32.8529 2.52942 32.9814C2.93502 33.1381 3.33307 33.2656 3.76699 33.3789C4.62918 33.6084 5.56218 33.76 6.53296 33.8705C8.47878 34.0796 10.5814 34.057 12.6868 33.9691C13.744 33.9323 14.7988 33.8988 15.8347 33.8469C16.8707 33.7921 17.8892 33.7434 18.8694 33.6523C19.8496 33.5593 20.7958 33.4616 21.6816 33.3095C22.5726 33.1698 23.3772 32.9483 24.0784 32.6249C24.7517 32.3005 25.3759 31.8548 25.4297 31.2471C25.552 30.6437 25.4793 30.0733 25.29 29.6743C25.095 29.272 24.7659 29.0727 24.526 29.034C24.2875 28.984 24.1497 29.0043 24.1511 28.9958C24.1506 29.0048 24.2833 28.9698 24.5326 28.9963C24.7786 29.0114 25.1681 29.1809 25.4118 29.6091C25.6493 30.0298 25.7721 30.6219 25.6894 31.2915C25.6701 31.4591 25.629 31.63 25.553 31.8222L25.4939 31.9369C25.4623 31.9993 25.4373 32.0205 25.4085 32.0644C25.3546 32.1447 25.2885 32.2136 25.2238 32.2868C24.9552 32.5677 24.6171 32.7859 24.2564 32.9814C23.5335 33.3591 22.6756 33.6339 21.7794 33.8166C20.8808 34.0135 19.9247 34.1637 18.9322 34.2728C16.9486 34.5055 14.8257 34.5901 12.7132 34.6765C11.6537 34.7128 10.5894 34.7336 9.53976 34.7138C8.49012 34.6977 7.45512 34.6184 6.45837 34.4881C5.46162 34.3606 4.50594 34.1505 3.62345 33.8728C3.18339 33.7368 2.74521 33.5725 2.36087 33.403C1.94488 33.2477 1.5577 32.9724 1.26967 32.6844C0.675683 32.1017 0.298893 31.4237 0.127023 30.7721C0.0406152 30.4472 0.0207863 30.12 0.0821686 29.8268C0.137885 29.5312 0.309276 29.289 0.500033 29.1388C0.896657 28.8385 1.29282 28.8267 1.53504 28.8069C1.78387 28.7965 1.9156 28.8064 1.9156 28.8064Z" fill="#1E009F"/>
<path d="M0.0217456 30.4001C0.0217456 30.4001 0.0146562 30.5233 0.0382646 30.749C0.0590401 30.9747 0.128449 31.3029 0.286626 31.6901C0.447636 32.0749 0.715366 32.5164 1.12285 32.9243C1.53222 33.3337 2.07191 33.7025 2.71311 34.0117C3.35054 34.3182 4.10554 34.5599 4.89926 34.7426C5.70053 34.9277 6.56319 35.0429 7.46031 35.1308C8.35885 35.2181 9.29515 35.2479 10.2508 35.289C11.1848 35.3234 12.1763 35.3244 13.1448 35.3437C13.6268 35.3546 14.1094 35.3659 14.5901 35.3768C15.0769 35.3645 15.5528 35.3517 16.0288 35.3267C16.9788 35.2781 17.9108 35.2139 18.8065 35.1001C19.7013 34.9839 20.5611 34.8385 21.3681 34.6548C22.1651 34.4645 22.9479 34.2634 23.5873 33.9933C24.2337 33.702 24.8073 33.363 25.2587 33.0046C25.7082 32.6726 25.7951 32.1235 25.8494 31.7212C25.8914 31.3038 25.8702 30.9691 25.8419 30.7438C25.8121 30.5186 25.78 30.4001 25.78 30.4001C25.78 30.4001 25.8249 30.5134 25.8796 30.7367C25.9297 30.9601 25.9996 31.2948 25.9868 31.7297C25.9807 31.9469 25.959 32.1891 25.8872 32.4484C25.8249 32.7033 25.6695 32.9966 25.4335 33.2019C24.9882 33.6217 24.4282 34.0193 23.7558 34.3545C23.0627 34.6865 22.3143 34.9145 21.496 35.1553C20.6806 35.3848 19.8066 35.5845 18.8925 35.7177C17.9788 35.8522 17.0302 35.9599 16.0651 36.0095C15.5835 36.0392 15.0934 36.0562 14.6108 36.0728C14.1217 36.0657 13.6301 36.0586 13.1386 36.0515C12.1598 36.0237 11.2032 36.0152 10.2211 35.9717C9.26116 35.9273 8.31257 35.8575 7.39467 35.7493C6.4763 35.645 5.5924 35.4726 4.77177 35.2408C3.94594 35.0061 3.19708 34.7247 2.53274 34.3654C1.87029 34.015 1.3221 33.5679 0.929727 33.1014C0.533104 32.6335 0.292294 32.15 0.158198 31.7378C0.0217405 31.3237 -0.000916685 30.9799 2.76548e-05 30.7509C0.00144416 30.52 0.0217456 30.4001 0.0217456 30.4001Z" fill="#1E009F"/>
<path d="M9.2782 35.7333C9.2782 35.7333 9.27915 35.7763 9.28056 35.8566C9.28765 35.935 9.30889 36.0483 9.3613 36.1791C9.46471 36.4383 9.73714 36.7631 10.1569 36.9393C10.3713 37.0257 10.6111 37.07 10.8822 37.0918C11.1518 37.1111 11.4445 37.0918 11.7571 37.0752C12.3898 37.0266 13.0726 36.9997 13.7511 36.9714C14.4315 36.9577 15.1114 36.9416 15.7498 36.952C16.3919 36.9407 17.0025 37.0427 17.3363 36.8359C17.6975 36.6272 17.8122 36.1819 17.8557 35.9066C17.8986 35.6176 17.8882 35.4425 17.8882 35.4425C17.8882 35.4425 17.901 35.4836 17.9256 35.5605C17.9463 35.6389 17.9813 35.755 17.9969 35.909C18.0129 36.0624 18.0214 36.2551 17.9747 36.4779C17.927 36.6961 17.8198 36.9648 17.5771 37.1635C17.3368 37.3732 17.0029 37.4615 16.696 37.4955C16.3867 37.5299 16.0912 37.555 15.7691 37.5753C15.1327 37.6248 14.4527 37.6508 13.7728 37.6787C13.0919 37.6924 12.4148 37.7084 11.7722 37.6971C11.4478 37.6971 11.122 37.6735 10.8113 37.614C10.5035 37.5583 10.2046 37.4468 9.96615 37.2967C9.47698 36.9855 9.26214 36.5266 9.22578 36.214C9.19037 35.8924 9.28812 35.7324 9.2782 35.7333Z" fill="#1E009F"/>
<path d="M10.7972 37.3525C10.7972 37.3525 10.9506 37.8039 11.1159 38.4763C11.2013 38.8129 11.2906 39.2067 11.3751 39.6298C11.4634 40.0528 11.5361 40.5071 11.6116 40.9613C11.6423 41.1898 11.6735 41.4179 11.7037 41.6426C11.7377 41.8669 11.7514 42.0912 11.7755 42.306C11.817 42.7376 11.8416 43.1427 11.8477 43.4921C11.869 44.1905 11.8133 44.6641 11.8133 44.6641C11.8133 44.6641 11.6329 44.2235 11.4459 43.5531C11.3491 43.2183 11.25 42.8254 11.1593 42.4014C11.063 41.9788 10.9884 41.5227 10.9119 41.0666C10.851 40.6086 10.7882 40.1496 10.7589 39.7152C10.724 39.2818 10.7093 38.8748 10.7136 38.5239C10.714 37.8218 10.7972 37.3525 10.7972 37.3525Z" fill="#1E009F"/>
<path d="M16.3674 37.2755C16.3674 37.2755 16.4246 37.7553 16.4076 38.465C16.4029 38.82 16.3788 39.2322 16.3363 39.6718C16.2976 40.1119 16.2267 40.577 16.1554 41.0416C16.1106 41.2725 16.0662 41.5034 16.0223 41.7309C15.9821 41.9585 15.9198 42.179 15.8711 42.3939C15.7658 42.8226 15.6516 43.2197 15.5373 43.5559C15.3177 44.2306 15.1033 44.6641 15.1033 44.6641C15.1033 44.6641 15.0845 44.181 15.1383 43.4766C15.1624 43.1238 15.2016 42.7149 15.2578 42.2801C15.3078 41.8443 15.3857 41.3839 15.4575 40.9221C15.5434 40.4632 15.6237 40.0033 15.7215 39.5755C15.8135 39.1468 15.9122 38.7478 16.0067 38.4073C16.1894 37.7255 16.3674 37.2755 16.3674 37.2755Z" fill="#1E009F"/>
<path d="M13.5083 39.4202C13.5083 39.4202 13.6018 39.754 13.6571 40.2441C13.717 40.7352 13.751 41.384 13.7303 42.0304C13.7142 42.6772 13.6434 43.3232 13.5551 43.81C13.4715 44.2963 13.3577 44.6235 13.3577 44.6235C13.3577 44.6235 13.2331 44.3001 13.1485 43.81C13.0579 43.3203 13.0012 42.6645 13.0225 42.0101C13.0399 41.3552 13.1348 40.7036 13.2529 40.2201C13.3657 39.7356 13.5083 39.4202 13.5083 39.4202Z" fill="#1E009F"/>
<path d="M11.5409 42.7696C11.5409 42.7696 11.4356 42.7791 11.2387 42.798C11.0427 42.8244 10.7613 42.8787 10.4081 42.9741C10.0554 43.0676 9.63755 43.221 9.18474 43.4415C8.73618 43.6658 8.247 43.9666 7.82441 44.3892C7.60438 44.5932 7.43911 44.8524 7.2984 45.1229C7.19452 45.4058 7.10151 45.7065 7.1492 46.0234C7.15109 46.0503 7.15204 46.1296 7.1544 46.1135L7.18934 46.2458L7.25969 46.5135C7.29274 46.5876 7.33523 46.6414 7.36923 46.7071C7.4037 46.7703 7.43156 46.8364 7.49531 46.895L7.65726 47.0787C7.71533 47.1372 7.78993 47.184 7.85462 47.2378C7.97928 47.353 8.14878 47.4248 8.30177 47.5145C8.95337 47.837 9.74568 47.9663 10.5427 48.0598C11.3463 48.1467 12.176 48.1599 13.0164 48.1581C13.8701 48.1628 14.7021 48.21 15.5119 48.1717C16.3193 48.1344 17.113 48.0532 17.8066 47.8067C18.1475 47.6783 18.4558 47.5088 18.7028 47.2926C18.809 47.1717 18.928 47.0603 18.9951 46.9177L19.056 46.8171L19.0635 46.8043C19.0735 46.7793 19.0546 46.8322 19.0574 46.8232L19.0602 46.8152L19.0716 46.7826L19.0938 46.7175L19.182 46.4587C19.3204 45.8864 19.1145 45.2226 18.7807 44.7428C18.4388 44.2537 18.0097 43.8736 17.5946 43.5973C17.1767 43.3211 16.7721 43.1436 16.4274 43.0298C16.0794 42.9321 15.7952 42.8844 15.5992 42.8782C15.4018 42.8806 15.2965 42.882 15.2965 42.882C15.2965 42.882 15.4014 42.8674 15.5983 42.8395C15.7961 42.8239 16.0926 42.8239 16.4619 42.8962C16.8278 42.9793 17.265 43.1233 17.7311 43.3716C18.1947 43.6195 18.6919 43.976 19.1079 44.5015C19.5112 45.0242 19.8596 45.75 19.6868 46.6164L19.6113 46.8789L19.5924 46.945L19.5824 46.9786L19.5801 46.9866C19.582 46.9838 19.5598 47.0414 19.5669 47.0215L19.5579 47.039L19.4843 47.1816C19.3969 47.3808 19.2515 47.5423 19.1108 47.7099C18.8015 48.0173 18.42 48.226 18.0285 48.3894C16.4354 48.9957 14.67 48.8668 13.0126 48.8658C12.1689 48.8597 11.3109 48.8384 10.4662 48.7388C9.62386 48.6349 8.78055 48.465 8.01847 48.0683C7.83385 47.955 7.64168 47.8639 7.47972 47.7123C7.39803 47.6405 7.3088 47.5796 7.23561 47.4989L7.02974 47.243C6.89281 47.081 6.80593 46.835 6.72141 46.6433L6.66428 46.3723L6.63548 46.2382C6.61376 46.1338 6.6284 46.1206 6.62368 46.0573C6.58779 45.6461 6.71716 45.2518 6.87581 44.9138C7.06751 44.5917 7.28754 44.3061 7.54629 44.095C8.04727 43.6512 8.59264 43.3896 9.07992 43.2012C9.57004 43.017 10.0106 42.9018 10.3784 42.8404C10.7443 42.7725 11.0399 42.7644 11.2377 42.7597C11.4351 42.7658 11.5409 42.7696 11.5409 42.7696Z" fill="#1E009F"/>
<path d="M6.90744 46.8419C6.90744 46.8419 6.97307 47.068 7.18554 47.3962C7.39661 47.7225 7.78095 48.1361 8.35086 48.4501C8.64078 48.6116 8.95949 48.7348 9.32118 48.8453C9.6805 48.9525 10.0729 49.0247 10.4837 49.0913C10.8968 49.1555 11.3307 49.198 11.7647 49.2372C12.2019 49.275 12.6476 49.2939 13.0929 49.2925C13.9844 49.3061 14.8749 49.2358 15.7054 49.1281C16.5388 49.012 17.3047 48.8774 17.8878 48.6012C18.4771 48.3297 18.8558 47.9175 19.0437 47.5785C19.1367 47.4094 19.1929 47.2635 19.2193 47.1606C19.2472 47.0581 19.2566 47.001 19.2566 47.001C19.2566 47.001 19.2609 47.0581 19.2571 47.1667C19.2533 47.2748 19.2391 47.4378 19.173 47.6347C19.0531 48.0247 18.7075 48.5729 18.0852 48.9567C17.469 49.3553 16.654 49.5753 15.8074 49.7434C15.3792 49.8232 14.9339 49.9002 14.4768 49.937C14.0198 49.9776 13.5542 49.9998 13.0877 50.0002C12.6217 49.9932 12.1561 49.9653 11.7 49.9171C11.2406 49.8723 10.8 49.7892 10.3713 49.7033C9.94208 49.6159 9.52894 49.4941 9.14837 49.343C8.77063 49.1966 8.41461 49.0011 8.13131 48.7901C7.54298 48.3642 7.21058 47.8401 7.06137 47.4604C6.98299 47.2701 6.9523 47.111 6.93105 47.0052C6.91547 46.8985 6.90744 46.8419 6.90744 46.8419Z" fill="#1E009F"/>
</svg>
