<svg width="73" height="51" viewBox="0 0 73 51" fill="none" xmlns="http://www.w3.org/2000/svg">
<path d="M27.0685 13.8756C26.2833 15.2272 25.8873 16.8109 26.5906 18.3013C26.8919 18.9399 26.9326 18.4383 26.7245 18.8261C26.3358 19.5516 25.112 20.0244 24.4101 20.2296C22.0524 20.9163 19.0412 20.4898 17.1546 18.838C17.0048 18.7066 16.7131 18.5115 16.6435 18.3282C16.4761 17.886 16.5995 18.4327 16.7139 17.9217C16.8221 17.4376 17.1285 17.128 17.1905 16.5963C17.4466 14.406 15.7393 13.015 14.9543 11.1768C14.4524 10.0015 14.579 10.0072 13.4468 9.39735C12.8038 9.05084 12.161 8.70498 11.5179 8.35848C10.6875 7.91128 10.3887 7.96819 10.8446 6.98123C11.289 6.0199 12.2446 4.49505 13.3242 4.82404C14.0092 5.03294 14.7046 5.88355 15.1285 6.44896C15.1605 6.49212 15.2584 6.48773 15.2997 6.47147C17.5198 5.62774 20.7668 5.47326 21.3625 8.41977C21.4355 8.78128 21.8453 8.35972 21.8926 8.19397C22.728 5.27123 25.6439 5.42823 27.8836 6.6391C27.9312 6.66475 28.0368 6.6316 28.0753 6.60533C28.5901 6.2632 29.1076 5.92483 29.6328 5.59897C30.4215 5.10924 30.3033 4.98164 30.9192 5.52079C31.618 6.13185 32.0731 7.02875 32.5886 7.7843C33.0521 8.46229 33.1759 8.26466 32.3735 8.68872C31.3526 9.22911 29.8694 9.7007 29.0071 10.4694C28.1083 11.2712 27.7086 12.873 27.0685 13.8756C26.831 14.2477 27.2918 14.2934 27.4765 14.0044C28.0311 13.1357 28.4477 12.2269 28.9378 11.3275C29.2405 10.7727 29.0392 10.9541 29.7975 10.5532C30.9322 9.95337 32.0665 9.35295 33.2009 8.75314C33.3185 8.6906 33.4799 8.51358 33.4499 8.3666C33.1521 6.88803 31.8825 5.56082 30.8806 4.49129C30.8208 4.42749 30.7039 4.46253 30.6407 4.49755C29.9869 4.86344 29.3653 5.38507 28.6893 5.69592C28.5259 5.77097 28.2789 6.08244 28.1007 6.08182C27.8914 6.08182 26.9239 5.45575 26.6646 5.37381C25.6722 5.05921 24.6095 5.01667 23.6556 5.47388C22.5274 6.01489 21.706 7.16573 21.3664 8.35347C21.5433 8.27841 21.7202 8.20335 21.8966 8.1283C21.3231 5.28999 18.6078 5.12926 16.266 5.62024C15.4768 5.78598 15.7559 5.85979 15.1678 5.46888C14.6381 5.11675 14.3102 4.53757 13.6834 4.28614C12.9616 3.99781 13.2509 4.07724 12.7344 4.23735C11.2763 4.69081 10.3205 6.84488 10.043 8.15333C10.024 8.24277 10.0552 8.30655 10.1324 8.34783C11.2338 8.94076 13.0679 9.49492 13.9215 10.3881C14.3906 10.8784 14.5878 11.9561 14.9787 12.6241C15.9696 14.3184 17.6293 16.0828 16.0373 18.1362C15.9809 18.2094 15.8675 18.372 15.9345 18.4739C18.0503 21.6982 25.2608 22.3555 27.3172 18.6922C27.3548 18.6247 27.4162 18.504 27.3666 18.4251C26.4893 17.0348 26.6613 15.4073 27.4765 14.0044C27.6976 13.6242 27.2427 13.5766 27.0685 13.8756Z" fill="#1E009F"/>
<path d="M16.0779 18.0854C8.4625 25.4733 2.44884 35.5818 0.0125077 45.8918C-0.00406677 45.9612 -0.0170136 46.0838 0.0618561 46.1276C3.86542 48.221 8.32715 49.4025 12.5633 50.1643C22.5576 51.9606 32.7744 50.724 42.1918 46.9945C42.3607 46.9275 42.4764 46.7211 42.4583 46.5448C41.3793 35.8996 34.9341 25.507 27.3043 18.3562C27.1103 18.1742 26.714 18.704 26.9219 18.8991C33.3954 24.966 38.2264 32.6578 40.7245 41.1834C41.0635 42.3398 41.3593 43.5101 41.5983 44.6922C41.6964 45.18 42.0617 46.1401 41.9291 46.6336C41.8222 47.0289 38.7362 47.7312 37.9031 47.9908C35.0241 48.8883 32.0694 49.5451 29.0807 49.9441C21.0571 51.018 12.748 50.2306 5.09944 47.5561C4.0909 47.2034 3.09286 46.8181 2.11534 46.3878C1.77578 46.2377 0.754295 45.965 0.540014 45.6366C0.17844 45.0812 1.61917 41.7813 1.88887 41.0126C2.74155 38.5846 3.79606 36.2285 4.99243 33.9506C7.93137 28.3572 11.7427 22.8758 16.298 18.4569C16.5457 18.2161 16.3947 17.7783 16.0779 18.0854Z" fill="#1E009F"/>
<path d="M57.0232 9.70917C56.5666 8.88295 56.0725 8.07611 55.5571 7.28554C54.9248 6.31609 53.5945 3.7092 52.4399 3.33706C51.7975 3.12941 50.434 3.76612 49.8874 4.01067C48.8229 4.48602 48.0004 5.2103 47.4156 6.21853C46.0727 8.53521 45.0777 11.1527 43.9862 13.5932C42.8754 16.0769 41.6539 18.6 40.914 21.2263C40.9015 21.2713 40.8871 21.3539 40.9303 21.392C41.7671 22.1263 42.7203 22.6292 43.798 22.8969C43.9349 22.9306 44.122 22.7768 44.1795 22.6686C46.2698 18.7113 48.3044 14.7091 50.5354 10.8287C50.3665 10.855 50.1976 10.8813 50.0287 10.9069C48.811 16.668 47.5213 22.5404 47.0785 28.4196C47.0728 28.4978 47.1241 28.5647 47.2048 28.5697C49.4708 28.7267 51.795 28.4884 53.4093 26.8416C54.4169 25.8134 56.4653 24.4355 56.8193 23.032C57.0219 22.2257 56.8524 21.1193 56.8674 20.2925C56.8931 18.8446 56.9187 17.3954 56.9444 15.9468C56.98 13.9016 57.0163 11.857 57.0526 9.81175C57.0582 9.48277 56.5066 9.77485 56.5022 10.0175C56.4634 12.1941 56.4253 14.3707 56.3865 16.5473C56.3596 18.079 56.3327 19.6101 56.3052 21.1418C56.2939 21.781 56.4872 22.8481 56.2645 23.4579C56.384 23.1308 55.7992 23.8475 55.6597 23.9902C55.1156 24.5449 54.5714 25.1003 54.0273 25.6551C52.6187 27.0918 52.0658 27.7135 49.9099 27.9805C49.4027 28.0437 47.8078 28.3064 47.6076 27.9712C47.4037 27.6303 47.8584 25.9472 47.9153 25.5144C48.1743 23.5398 48.5033 21.5759 48.8504 19.6157C49.3789 16.6355 49.9537 13.6633 50.5791 10.7018C50.6448 10.3909 50.1376 10.6661 50.0725 10.78C48.4388 13.6208 46.9396 16.5429 45.4029 19.4356C45.1302 19.9491 44.3165 22.3033 43.7686 22.5197C43.8155 22.5009 41.6108 21.4446 41.4825 21.033C41.3562 20.6296 42.0373 19.3668 42.173 19.0147C43.7292 14.9805 45.5186 10.9488 47.4706 7.08978C48.2681 5.51301 49.2845 4.59046 51.0019 4.06758C51.9902 3.76674 51.9964 3.7411 52.6475 4.46162C53.0103 4.86254 53.3505 5.28535 53.6795 5.71441C54.7397 7.10104 55.6866 8.59337 56.5316 10.1207C56.651 10.3365 57.1558 9.94809 57.0232 9.70917Z" fill="#1E009F"/>
<path d="M51.9439 3.7864C51.6537 5.25246 51.401 6.8605 51.5655 8.35721C51.7707 10.2223 52.7539 9.95086 54.4795 9.85516C54.4607 9.72319 54.442 9.59122 54.4232 9.45925C53.6007 10.5281 53.066 11.4401 53.4763 12.7103C54.123 14.7105 54.9136 16.9084 56.449 18.4045C56.6298 18.5802 57.037 18.0861 56.8449 17.8985C55.6341 16.7195 54.9473 15.0639 54.3638 13.5066C53.7746 11.9348 53.6145 11.1386 54.7247 9.69504C54.8085 9.58621 54.9073 9.28538 54.6684 9.29914C54.1905 9.32604 52.727 9.57497 52.3517 9.22159C51.8726 8.77126 52.0246 7.15071 52.0502 6.62533C52.099 5.61085 52.2397 4.5926 52.4368 3.59626C52.5093 3.23162 51.9908 3.55185 51.9439 3.7864Z" fill="#1E009F"/>
<path d="M56.8493 10.0677C57.8369 8.44526 58.9371 6.85474 60.188 5.42495C61.1087 4.37357 61.275 3.91637 62.5841 4.37045C64.2334 4.94399 65.2761 5.7627 66.0235 7.36761C67.8185 11.2217 69.3703 15.2771 70.7788 19.2856C71.0121 19.9486 71.5981 21.0144 71.5556 21.7293C71.7883 21.5591 71.7877 21.561 71.5531 21.7374C71.3492 21.8869 71.1378 22.027 70.9202 22.1564C70.9764 22.1233 69.3684 22.9927 69.1964 22.9289C68.7361 22.7581 68.0256 20.479 67.8135 20.0368C66.3437 16.9689 64.9139 13.8717 63.3403 10.8539C63.1814 10.5499 62.8893 11.0397 62.92 11.2217C63.7162 15.9457 64.4423 20.6992 64.9089 25.4682C64.9708 26.1024 64.9902 26.7466 65.0722 27.379C65.064 27.3152 65.1985 28.3772 65.2504 28.2634C65.1566 28.4679 65.3561 28.2496 64.9665 28.3841C63.8087 28.7825 61.2031 27.9838 60.3206 27.2683C58.9208 26.1337 57.7731 24.4456 56.5622 23.1034C56.3671 22.8889 56.0475 23.4386 56.2201 23.63C57.3941 24.931 58.5062 26.3426 59.7658 27.5585C61.1062 28.8538 63.4791 29.0439 65.2917 28.9926C65.4574 28.9883 65.5919 28.7544 65.5869 28.6074C65.3861 22.6887 64.341 16.7475 63.3578 10.9164C63.2177 11.0384 63.0776 11.1616 62.9369 11.2836C65.0059 15.2527 66.8747 19.335 68.8005 23.3748C68.8399 23.4574 68.9018 23.4711 68.985 23.4543C70.052 23.2347 71.0215 22.7663 71.8708 22.0808C71.9834 21.9907 72.086 21.8156 72.0503 21.6642C71.4731 19.2362 70.4786 16.8864 69.5648 14.5716C68.5234 11.934 67.544 9.20833 66.3068 6.65523C65.5663 5.12537 63.0138 2.8237 61.2738 3.68182C60.1111 4.25474 59.024 6.15611 58.2754 7.19374C57.6743 8.02621 57.0983 8.88183 56.5647 9.75934C56.3927 10.042 56.6273 10.433 56.8493 10.0677Z" fill="#1E009F"/>
<path d="M61.2862 4.34962C61.4226 5.16146 61.5139 5.98894 61.5408 6.81079C61.5614 7.41998 61.7303 8.56832 61.3575 9.09495C60.8991 9.74167 59.9765 9.48397 59.0846 9.39703C58.9095 9.38077 58.5405 9.66598 58.6831 9.868C59.468 10.9807 59.7939 11.7081 59.3229 12.9377C58.6468 14.7053 57.8487 16.6742 56.4127 17.9632C56.17 18.1803 56.2651 18.62 56.5847 18.3335C58.0695 17.0013 58.9314 15.0686 59.6551 13.2448C60.278 11.6731 60.2411 10.9932 59.1622 9.46396C59.0284 9.62095 58.8945 9.77794 58.7613 9.93493C60.0591 10.0613 61.3788 10.4634 61.846 9.03865C62.347 7.51192 62.0543 5.60178 61.7935 4.05379C61.7384 3.7298 61.2456 4.11133 61.2862 4.34962Z" fill="#1E009F"/>
<path d="M59.9803 13.3834H59.984H59.9803ZM60.1542 13.4685C60.1129 13.6136 60.0503 13.9107 60.1567 14.1139C60.4725 14.1402 61.6678 14.2909 62.7786 14.1571C62.7973 14.0189 62.8086 13.7762 62.7148 13.5154C62.5428 13.5054 61.8948 13.4291 60.1542 13.4685ZM61.5746 14.5905C60.8828 14.5761 60.3005 14.5011 60.0754 14.4692C59.964 14.4529 59.8677 14.3866 59.8183 14.2903C59.6451 13.9601 59.7307 13.546 59.7977 13.3284C59.8402 13.1876 59.9703 13.0901 60.1223 13.0876C61.8491 13.045 62.5465 13.1176 62.808 13.1645C62.9305 13.1864 63.0325 13.2714 63.0744 13.3859C63.2039 13.748 63.1782 14.0808 63.1513 14.2478C63.1269 14.396 63.005 14.5136 62.8543 14.5324C62.4233 14.5861 61.9799 14.5993 61.5746 14.5905Z" fill="#1E009F"/>
<path d="M62.7473 13.5758C62.6579 13.5739 62.5797 13.5088 62.5628 13.4175C62.4677 12.8709 62.1262 12.3824 61.9436 12.1528C61.3357 12.632 60.2911 13.4357 60.2911 13.4357L60.0585 13.1329C60.0585 13.1329 61.1668 12.2804 61.7622 11.8095C61.8967 11.7031 62.0856 11.7238 62.1938 11.8551C62.3783 12.0759 62.8199 12.667 62.9393 13.3518C62.9581 13.4557 62.888 13.5551 62.7842 13.5726C62.7717 13.5751 62.7592 13.5764 62.7473 13.5758Z" fill="#1E009F"/>
<path d="M48.3582 28.5705C48.9061 35.3779 49.2257 42.2998 50.2927 49.0491C50.3027 49.0835 50.324 49.1085 50.3571 49.1241C51.8226 49.5063 53.3118 49.5338 54.7997 49.2861C54.958 49.2592 55.1437 49.096 55.1581 48.929C55.6628 42.9547 56.1682 36.9803 56.673 31.0054C56.4922 31.0773 56.3108 31.1499 56.1301 31.2224C56.4728 37.2362 56.8162 43.2493 57.1589 49.2624C57.1614 49.3099 57.1714 49.3762 57.2277 49.3924C58.8057 49.854 60.4663 49.9435 62.0537 49.4982C62.2126 49.4538 62.3958 49.323 62.4121 49.1423C63.0426 42.2366 63.673 35.3304 64.3029 28.4248C64.3316 28.1108 63.7812 28.4098 63.7593 28.6418C63.2171 34.5886 62.6742 40.5348 62.1313 46.4816C62.08 47.0445 62.2332 48.7745 61.8798 49.2386C61.6115 49.592 57.9145 49.2574 57.6899 48.8227C57.3072 48.084 57.5486 46.3527 57.5023 45.5359C57.3935 43.6333 57.2853 41.7313 57.1764 39.8293C57.0088 36.8878 56.8406 33.9463 56.673 31.0054C56.6536 30.6683 56.1482 31.0048 56.1301 31.2224C55.686 36.4725 55.2419 41.7231 54.7985 46.9732C54.7703 47.3066 54.8679 48.8614 54.6171 49.1185C54.6258 49.1097 51.4241 49.0209 51.012 48.707C50.6298 48.4149 50.6755 47.6462 50.6192 47.1733C50.1958 43.6389 49.9012 40.0882 49.5909 36.5431C49.3495 33.7774 49.1156 31.011 48.8929 28.2434C48.8729 27.9938 48.3388 28.3272 48.3582 28.5705Z" fill="#1E009F"/>
<path d="M20.5381 9.25441C20.4834 9.25316 20.4304 9.24878 20.3798 9.24127C19.7925 9.16059 19.2838 8.70776 19.1128 8.14423C18.7053 8.45883 18.1267 8.53388 17.6554 8.31622C17.2149 8.1117 16.9107 7.66951 16.8536 7.19416C16.5494 7.41495 16.1245 7.46624 15.7813 7.29612C15.3315 7.07033 15.1047 6.50242 15.2765 6.02958C15.3012 5.9614 15.3767 5.92387 15.4451 5.95077C15.5137 5.97516 15.5489 6.05146 15.5237 6.11964C15.3989 6.46551 15.5706 6.89583 15.8993 7.06032C16.2281 7.22482 16.6752 7.10285 16.8765 6.79576C16.911 6.74447 16.9765 6.72383 17.0331 6.74447C17.0908 6.76573 17.126 6.82515 17.1175 6.88582C17.0512 7.36179 17.33 7.87466 17.7664 8.07669C18.2022 8.27996 18.7737 8.16237 19.0952 7.80336C19.1297 7.7652 19.1841 7.75083 19.2325 7.76584C19.2818 7.78085 19.3177 7.82463 19.3239 7.87529C19.393 8.42882 19.8624 8.90478 20.415 8.98046C20.9129 9.04989 21.265 8.80033 21.5081 8.22241C21.5274 8.17675 21.5711 8.14549 21.6205 8.14236C21.6684 8.13986 21.7177 8.16424 21.7426 8.20677C21.9674 8.5858 22.4702 8.82723 22.9307 8.77469C23.381 8.7259 23.7942 8.39066 23.9354 7.95972C23.9473 7.92407 23.9745 7.89467 24.0096 7.87966C24.0446 7.86465 24.0846 7.8659 24.1186 7.88279C24.4775 8.05979 24.9779 7.99287 25.3255 7.87279C25.6913 7.74457 26.0081 7.45936 26.1738 7.10848C26.1897 7.07534 26.218 7.05031 26.2524 7.03968C26.2872 7.02779 26.3248 7.03217 26.3573 7.04968C26.6559 7.21668 27.0734 7.1535 27.3553 7.01778C27.6536 6.87393 27.8726 6.58059 27.9258 6.25348C27.9373 6.18155 28.0001 6.13277 28.0768 6.14465C28.1486 6.15653 28.1972 6.22409 28.1858 6.29539C28.1188 6.70632 27.8447 7.07407 27.4695 7.25483C27.1831 7.39368 26.736 7.48688 26.3512 7.33739C26.1445 7.70078 25.8088 7.98224 25.4128 8.12109C25.2346 8.18301 24.6507 8.3575 24.1345 8.17487C23.9266 8.64146 23.4707 8.98108 22.9593 9.03675C22.4705 9.08741 21.9635 8.88665 21.6532 8.53014C21.3371 9.11744 20.9019 9.26129 20.5381 9.25441Z" fill="#1E009F"/>
<path d="M37.7798 41.5255C37.6335 41.5223 37.509 41.5861 37.4371 41.633C37.2194 41.7763 37.0731 42.0239 37.0637 42.2654C37.0506 42.6313 37.2588 43.0172 37.6278 43.323C37.8999 43.111 38.1338 42.8796 38.2571 42.5825C38.3471 42.3636 38.3471 42.0946 38.2564 41.8807C38.2095 41.7713 38.1182 41.6268 37.9443 41.5586C37.888 41.5367 37.8324 41.5267 37.7798 41.5255ZM30.5695 42.3511C30.5253 42.3498 30.4787 42.3561 30.4305 42.3698C30.2654 42.4174 30.1161 42.545 30.0506 42.6957C29.9004 43.0422 30.0525 43.4468 30.1569 43.6564C30.1908 43.7245 30.2277 43.7902 30.2666 43.8546C30.3311 43.7915 30.3959 43.7277 30.4603 43.662C30.7054 43.4137 30.9563 43.0034 30.9272 42.6913C30.916 42.5706 30.8629 42.4799 30.7658 42.4117C30.709 42.373 30.6424 42.3523 30.5695 42.3511ZM6.86782 42.2166C6.81478 42.2153 6.76593 42.2253 6.72659 42.2372C6.57929 42.2816 6.44588 42.393 6.3794 42.5274C6.23648 42.8126 6.30784 43.161 6.39284 43.4031C6.42487 43.495 6.46296 43.5851 6.50693 43.6745C6.602 43.6045 6.69362 43.5294 6.78156 43.4512C7.05595 43.2073 7.24115 42.8183 7.213 42.5456C7.1998 42.4161 7.14095 42.3235 7.03343 42.2616C6.9782 42.2297 6.92079 42.2178 6.86782 42.2166ZM22.3321 42.7551C22.3053 42.7545 22.2764 42.7576 22.2469 42.7651C22.1467 42.7895 22.0661 42.8508 22.0074 42.949C21.8965 43.1348 21.8709 43.4481 21.9442 43.7296C22.0192 44.0179 22.1389 44.2837 22.2928 44.5239C22.3922 44.3925 22.4839 44.2556 22.5672 44.113C22.7756 43.7571 22.8525 43.475 22.81 43.2254C22.7832 43.0685 22.683 42.9165 22.5486 42.8276C22.4958 42.7939 22.4203 42.757 22.3321 42.7551ZM15.3385 42.9834C15.2603 42.9815 15.1888 42.9971 15.137 43.0128C14.8513 43.0985 14.6166 43.3418 14.5665 43.6057C14.4693 44.1148 14.7869 44.5902 15.0588 44.8904C15.329 44.6608 15.5415 44.3919 15.6823 44.0942C15.8216 43.8009 15.898 43.3693 15.6562 43.1179C15.5587 43.0178 15.4424 42.9853 15.3385 42.9834ZM18.6948 46.5428C17.458 46.5172 15.9112 46.0775 15.0354 45.2438C14.6779 45.5027 14.2482 45.7028 13.7681 45.8292C12.8824 46.0631 11.9655 46.0325 11.0774 46.0037C10.0178 45.9687 9.46463 45.9361 8.47441 45.594C7.56338 45.2788 6.84142 44.7328 6.41655 44.0542C5.64086 44.5439 4.69555 44.7797 3.75399 44.7096C2.61811 44.6265 1.61157 44.1261 0.92013 43.2999C0.873471 43.2436 0.880288 43.1616 0.936266 43.1141C0.992182 43.0672 1.07505 43.0747 1.12171 43.131C1.76718 43.9016 2.7088 44.3688 3.77301 44.4463C4.66672 44.512 5.55655 44.2887 6.28683 43.8246C6.23185 43.7158 6.18419 43.6045 6.14391 43.49C6.04247 43.1998 5.95966 42.777 6.14341 42.4092C6.24311 42.2097 6.43244 42.0508 6.65009 41.9852C6.83191 41.9301 7.01461 41.9476 7.16465 42.0333C7.34566 42.1372 7.45268 42.3048 7.47519 42.5181C7.51697 42.9202 7.24602 43.3912 6.95719 43.6482C6.85462 43.7389 6.7476 43.8252 6.63646 43.9053C7.03174 44.5339 7.71705 45.0536 8.56067 45.3451C9.51692 45.676 10.0259 45.7054 11.0854 45.741C11.9553 45.7679 12.8521 45.7979 13.7016 45.5753C14.1363 45.4602 14.525 45.2813 14.8502 45.0524C14.544 44.709 14.1919 44.1642 14.3075 43.5557C14.3764 43.1942 14.6793 42.8746 15.0618 42.7607C15.3657 42.6688 15.6503 42.7345 15.8455 42.9352C16.1807 43.283 16.0957 43.8378 15.9205 44.2061C15.7661 44.5333 15.5357 44.8278 15.2443 45.078C16.2496 46.0093 18.1555 46.4102 19.3712 46.2451C20.4211 46.1025 21.4189 45.5465 22.1152 44.7422C21.9263 44.4601 21.7797 44.1442 21.6889 43.7952C21.598 43.445 21.6344 43.0597 21.7814 42.8133C21.8762 42.6557 22.0157 42.55 22.1848 42.5093C22.3532 42.468 22.5342 42.503 22.693 42.6081C22.8867 42.7351 23.0309 42.9552 23.0692 43.181C23.1401 43.5932 22.9466 43.9866 22.7944 44.2462C22.6923 44.4207 22.5774 44.5889 22.4519 44.7484C23.2603 45.7842 24.7443 46.2889 25.9835 46.1626C27.3387 46.025 28.7127 45.3113 30.0721 44.0404C30.0176 43.9553 29.967 43.8659 29.9209 43.7733C29.7061 43.3405 29.6663 42.9202 29.8092 42.5906C29.9058 42.3673 30.1163 42.1853 30.3585 42.1171C30.5612 42.0596 30.7589 42.0871 30.9155 42.196C31.0762 42.3067 31.171 42.4699 31.1891 42.6669C31.2265 43.0647 30.9438 43.5463 30.6475 43.8471C30.5712 43.9241 30.4948 43.9998 30.4183 44.0748C31.1679 45.0486 32.5423 45.3732 33.6162 45.245C35.0166 45.0774 36.29 44.2831 37.3514 43.5282C37.3714 43.5132 37.3914 43.4994 37.4114 43.485C37.0093 43.1322 36.7847 42.6869 36.801 42.2554C36.8123 41.9314 37.0055 41.6011 37.2926 41.4135C37.5309 41.2571 37.803 41.2202 38.0406 41.3134C38.2452 41.3941 38.404 41.5542 38.4985 41.7775C38.6167 42.054 38.6173 42.4011 38.5004 42.6832C38.3653 43.0084 38.1213 43.263 37.8474 43.4844C38.486 43.9022 39.2359 44.0673 39.9133 43.9372C40.5087 43.8221 41.0034 43.4944 41.3405 42.9865C41.3812 42.9265 41.4631 42.9102 41.5232 42.9509C41.5838 42.9909 41.6001 43.0722 41.5601 43.1335C41.1823 43.7002 40.63 44.0679 39.9627 44.1949C39.1902 44.3425 38.3421 44.1474 37.6335 43.6582C37.6316 43.6564 37.6291 43.6551 37.6278 43.6533C37.5859 43.6839 37.5453 43.7127 37.504 43.7421C36.4157 44.5164 35.106 45.3313 33.6475 45.5065C32.5066 45.6434 31.0433 45.2957 30.2263 44.2568C28.832 45.5527 27.4154 46.2814 26.0103 46.4246C24.6783 46.561 23.1423 46.0462 22.2745 44.9604C21.5386 45.7867 20.4998 46.3571 19.4069 46.5059C19.188 46.536 18.9478 46.5478 18.6948 46.5428Z" fill="#1E009F"/>
<path d="M1.2871 38.2817C1.88303 36.6055 2.60743 34.9775 3.38337 33.3757C4.16225 31.7752 5.033 30.219 5.94453 28.6886C6.89516 27.1812 7.90201 25.707 9.00825 24.3085C10.138 22.9281 11.3584 21.6191 12.718 20.4714C12.1141 21.1262 11.4725 21.7373 10.9191 22.4322C10.3222 23.0864 9.7977 23.8019 9.24892 24.4949C8.20104 25.9215 7.19982 27.3813 6.28171 28.8956C5.34741 30.3998 4.48717 31.949 3.65356 33.5133C3.23532 34.2945 2.83172 35.0844 2.44175 35.8813C2.03739 36.6718 1.66287 37.4762 1.2871 38.2817Z" fill="#1E009F"/>
<path d="M65.0208 30.9729C64.9789 32.3364 64.8939 33.6955 64.8019 35.0546C64.7144 36.4137 64.5962 37.7691 64.4779 39.1257C64.3497 40.481 64.2215 41.8358 64.062 43.1892L63.8218 45.2176C63.7274 45.8925 63.6467 46.5686 63.5398 47.2422C63.5573 46.5604 63.5992 45.8806 63.6286 45.1995L63.7587 43.1617C63.8462 41.8026 63.9644 40.446 64.0833 39.09C64.2115 37.7347 64.3403 36.3793 64.4998 35.0271C64.6543 33.6742 64.8163 32.322 65.0208 30.9729Z" fill="#1E009F"/>
<path d="M67.9424 6.58318C68.3001 7.4019 68.616 8.23375 68.9262 9.06811C69.2402 9.90059 69.5248 10.7437 69.8093 11.5856C70.0845 12.4312 70.3597 13.2768 70.6049 14.1324L70.972 15.4158C71.0809 15.8487 71.2022 16.2765 71.2998 16.7124C71.1172 16.3046 70.9589 15.8887 70.7882 15.4771L70.3159 14.2281C70.002 13.3956 69.7174 12.5531 69.4334 11.71C69.1582 10.8644 68.8837 10.0188 68.6379 9.16318C68.3883 8.30943 68.145 7.45319 67.9424 6.58318Z" fill="#1E009F"/>
<path d="M29.219 18.7039C30.3126 19.6715 31.3314 20.7191 32.3184 21.7943C33.3066 22.8701 34.2398 23.9965 35.1311 25.1555C36.0067 26.3263 36.8429 27.5285 37.586 28.79C38.3178 30.0565 38.9789 31.3687 39.4673 32.7454C39.1271 32.098 38.8281 31.4363 38.4472 30.8152C38.1088 30.1735 37.7067 29.5662 37.3264 28.9501C36.529 27.7367 35.6921 26.5521 34.8158 25.3944C33.939 24.2379 33.0195 23.1128 32.0902 21.9951C31.626 21.4353 31.1511 20.8843 30.6685 20.3395C30.197 19.7847 29.7059 19.2468 29.219 18.7039Z" fill="#1E009F"/>
<path d="M41.6427 16.655C41.9341 15.7982 42.2656 14.9588 42.6027 14.1219C42.9355 13.2832 43.297 12.4576 43.6585 11.6314C44.0288 10.8095 44.3997 9.98833 44.7981 9.17899L45.3979 7.96562C45.6112 7.56658 45.8119 7.16316 46.0358 6.76912C45.8939 7.19944 45.7287 7.61912 45.5755 8.04443L45.077 9.30283C44.7437 10.1409 44.3821 10.9665 44.02 11.7921C43.6491 12.6146 43.2788 13.4358 42.8798 14.2452C42.4845 15.0557 42.0836 15.8638 41.6427 16.655Z" fill="#1E009F"/>
<path d="M17.6413 19.875C16.7962 21.1172 16.0337 22.4081 15.3274 23.7259C14.6237 25.0457 13.955 26.3847 13.3911 27.7689C13.2362 28.1091 13.0935 28.4544 12.959 28.8027C12.8234 29.1505 12.6757 29.4945 12.5502 29.8466C12.3005 30.5509 12.0489 31.2545 11.8265 31.9675C11.3501 33.3873 11.0048 34.844 10.6457 36.3044C10.6968 35.9323 10.7515 35.5601 10.8106 35.1893C10.8681 34.8177 10.9213 34.4437 11.0046 34.0772C11.1634 33.341 11.3245 32.6049 11.5345 31.8806C11.9247 30.4239 12.4522 29.0073 13.0273 27.6138C13.6266 26.2296 14.2965 24.8755 15.063 23.5777C15.4466 22.9291 15.8519 22.2937 16.2712 21.6682C16.7097 21.0565 17.1468 20.4423 17.6413 19.875Z" fill="#1E009F"/>
<path d="M18.9588 20.3993L18.0703 22.7278C17.7842 23.5053 17.491 24.2789 17.2188 25.0595C16.9349 25.8363 16.6862 26.6244 16.427 27.41C16.3017 27.804 16.1778 28.1993 16.0706 28.599C15.9378 28.9936 15.8523 29.3989 15.7266 29.7986C15.7949 28.9667 15.9393 28.1411 16.1331 27.3287C16.3259 26.5156 16.5675 25.7144 16.8455 24.9275C17.1299 24.1426 17.4353 23.3651 17.7906 22.6102C18.1424 21.854 18.5174 21.1085 18.9588 20.3993Z" fill="#1E009F"/>
<path d="M21.155 21.0107C20.7128 22.1534 20.2611 23.273 19.8525 24.41C19.6403 24.9755 19.4502 25.5484 19.2586 26.1219C19.0671 26.6967 18.8951 27.2771 18.7084 27.8625C18.7434 27.2509 18.8167 26.6373 18.9606 26.0406C19.0937 25.4408 19.2715 24.8516 19.4807 24.2749C19.9066 23.1254 20.4367 22.0083 21.155 21.0107Z" fill="#1E009F"/>
<path d="M22.4719 21.0957C22.8828 21.9595 23.1455 22.8726 23.3515 23.7964C23.544 24.7221 23.6764 25.6697 23.6227 26.6248C23.3644 25.706 23.1665 24.7959 22.9644 23.879C22.7732 22.9615 22.5823 22.0439 22.4719 21.0957Z" fill="#1E009F"/>
<path d="M24.1401 21.0056C24.6549 21.5554 25.0661 22.1996 25.413 22.8694C25.7631 23.5399 26.0385 24.2467 26.2708 24.9666C26.4794 25.6927 26.6617 26.4283 26.7555 27.1769C26.8203 27.5485 26.8325 27.9269 26.8667 28.3015C26.8782 28.6774 26.885 29.0539 26.8757 29.4292C26.7397 28.6887 26.6116 27.9563 26.4508 27.2314C26.2974 26.5058 26.103 25.7916 25.8924 25.0829C25.673 24.3774 25.4206 23.6831 25.1345 23.0002C24.8406 22.3222 24.531 21.646 24.1401 21.0056Z" fill="#1E009F"/>
<path d="M25.6315 20.3007C26.425 21.4453 27.0573 22.6974 27.6024 23.9815C28.154 25.2643 28.5845 26.599 28.9119 27.9581C29.0898 28.6348 29.1977 29.3266 29.326 30.0133C29.4066 30.7076 29.5273 31.3981 29.5457 32.098C29.5615 32.447 29.5955 32.7941 29.596 33.1437L29.5916 34.1901C29.5938 34.5385 29.5605 34.8862 29.5298 35.2333C29.5022 35.5805 29.4697 35.927 29.4335 36.2722C29.4223 34.8806 29.4179 33.4965 29.2419 32.1242C29.0971 30.752 28.8572 29.3904 28.5271 28.0513C28.2139 26.7084 27.7993 25.3893 27.3204 24.0928C27.0827 23.4442 26.8191 22.805 26.5381 22.172C26.262 21.5366 25.9586 20.9136 25.6315 20.3007Z" fill="#1E009F"/>
<path d="M14.5971 10.2368C15.2506 10.7391 15.8394 11.3245 16.3674 11.9624C16.8954 12.5998 17.351 13.3091 17.6569 14.0934C17.8142 14.4837 17.8917 14.9046 17.9364 15.3261C17.9545 15.7408 17.9711 16.1574 17.9288 16.572C17.8499 17.3914 17.6784 18.2457 17.1846 18.9175C17.3882 18.5603 17.5101 18.1669 17.5875 17.7679C17.6713 17.3701 17.7133 16.9654 17.7263 16.5595C17.736 16.1542 17.727 15.7483 17.6974 15.343C17.6467 14.9496 17.568 14.5568 17.4106 14.1859C17.1392 13.4291 16.6935 12.7393 16.2088 12.0869C15.7221 11.4333 15.1776 10.8191 14.5971 10.2368Z" fill="#1E009F"/>
<path d="M29.067 10.5351C28.4633 11.0924 27.8941 11.6834 27.3808 12.317C26.8694 12.9487 26.3959 13.6192 26.0935 14.3648C25.9212 14.7288 25.8261 15.1184 25.7592 15.5093C25.7128 15.9121 25.6871 16.318 25.68 16.7233C25.6764 17.1293 25.7018 17.5358 25.7697 17.9367C25.8301 18.3376 25.9361 18.7361 26.1247 19.1013C25.6588 18.4096 25.5229 17.5496 25.4778 16.7271C25.4524 16.3112 25.4863 15.8959 25.521 15.4824C25.5833 15.0634 25.6778 14.6456 25.8511 14.2622C26.1892 13.4904 26.6734 12.8017 27.2273 12.1857C27.7809 11.5702 28.3937 11.0092 29.067 10.5351Z" fill="#1E009F"/>
<path d="M49.5803 28.4055C49.8249 30.1205 50.025 31.8392 50.2195 33.5586C50.4147 35.2779 50.5742 37.0011 50.753 38.7217C50.9007 40.4461 51.0645 42.1679 51.1959 43.8936L51.3848 46.4823C51.4336 47.3467 51.4955 48.2098 51.5324 49.0754C51.406 48.2186 51.306 47.3592 51.1915 46.5004L50.8925 43.9217C50.6986 42.2023 50.5379 40.4798 50.3596 38.7592C50.2133 37.0348 50.0475 35.313 49.9174 33.5873C49.7867 31.8617 49.6622 30.1355 49.5803 28.4055Z" fill="#1E009F"/>
<path d="M62.8167 28.7624C62.7711 30.4924 62.6816 32.2187 62.5859 33.9443C62.4909 35.6706 62.3608 37.3943 62.2495 39.1187C62.1062 40.8412 61.9805 42.5643 61.8216 44.2856L61.5752 46.8674C61.4789 47.7262 61.3963 48.5868 61.2875 49.4456C61.3063 48.5806 61.3507 47.7174 61.382 46.8531L61.5177 44.2637C61.614 42.538 61.7428 40.8143 61.8548 39.0899C61.9986 37.3674 62.1231 35.6437 62.2832 33.9224C62.4421 32.2012 62.6078 30.4799 62.8167 28.7624Z" fill="#1E009F"/>
<path d="M55.2513 1.12597C55.0743 1.04404 54.8854 0.975873 54.6903 0.977124C54.4951 0.977749 54.2918 1.05717 54.1818 1.21854C54.0285 1.4437 54.0948 1.74705 54.0492 2.01537C54.006 2.2718 53.8578 2.50386 53.8309 2.76217C53.799 3.0749 53.966 3.39887 54.2393 3.55399C54.4526 3.67595 54.7121 3.6941 54.9542 3.65532C55.1956 3.61591 56.6229 3.03549 56.7248 2.99421C56.93 2.9104 56.9888 2.92166 56.8925 2.71276C56.8274 2.57078 56.7399 2.43506 56.6517 2.30746C56.3002 1.7996 55.8129 1.38491 55.2513 1.12597Z" fill="#1E009F"/>
<path d="M58.7056 1.19622C58.8858 1.12179 59.0772 1.06237 59.2723 1.07113C59.4674 1.07926 59.667 1.16744 59.7702 1.33319C59.914 1.56523 59.8358 1.8642 59.8702 2.13502C59.9028 2.3927 60.041 2.63036 60.0572 2.88992C60.0766 3.20327 59.8965 3.52101 59.6169 3.66424C59.3986 3.77682 59.1391 3.78557 58.8989 3.73553C58.6587 3.68675 57.2565 3.04817 57.1564 3.00251C56.955 2.91057 56.8962 2.91871 57.0006 2.71418C57.0713 2.57533 57.1639 2.44336 57.2577 2.31952C57.6299 1.82667 58.134 1.43201 58.7056 1.19622Z" fill="#1E009F"/>
<path d="M56.4934 2.12205C56.4934 2.12205 56.267 2.59426 56.4878 3.09087C56.4878 3.09087 56.9581 3.4186 57.4416 3.12463C57.4416 3.12463 57.6674 2.69558 57.4622 2.09827C57.4622 2.09827 57.0344 1.81495 56.4934 2.12205Z" fill="#1E009F"/>
<path d="M10.5929 37.322C10.9753 37.3295 10.9882 36.7353 10.6051 36.7272C10.2227 36.7196 10.2098 37.3138 10.5929 37.322Z" fill="#1E009F"/>
<path d="M15.666 30.8395C16.0478 30.8476 16.0607 30.2541 15.6782 30.246C15.2958 30.2378 15.2829 30.832 15.666 30.8395Z" fill="#1E009F"/>
<path d="M15.6442 31.8937C16.0263 31.9018 16.039 31.3071 15.6564 31.2996C15.2741 31.2914 15.2611 31.8856 15.6442 31.8937Z" fill="#1E009F"/>
<path d="M23.7004 27.6466C24.0827 27.6548 24.0954 27.06 23.7125 27.0531C23.3305 27.045 23.3178 27.6385 23.7004 27.6466Z" fill="#1E009F"/>
<path d="M40.0753 41.6166C40.4568 41.6247 40.4699 41.0299 40.0872 41.0224C39.705 41.0143 39.6919 41.6085 40.0753 41.6166Z" fill="#1E009F"/>
<path d="M39.4342 40.747C39.817 40.7551 39.8295 40.1616 39.4467 40.1534C39.0639 40.1453 39.0514 40.7395 39.4342 40.747Z" fill="#1E009F"/>
<path d="M29.3602 37.4443C29.7423 37.4524 29.755 36.8576 29.3724 36.8501C28.9901 36.8426 28.9774 37.4361 29.3602 37.4443Z" fill="#1E009F"/>
<path d="M13.9234 6.70037C14.3056 6.70787 14.3185 6.11371 13.936 6.10558C13.5533 6.09808 13.5406 6.69224 13.9234 6.70037Z" fill="#1E009F"/>
<path d="M31.8024 8.38517C32.1845 8.3933 32.1972 7.79909 31.8146 7.79096C31.4322 7.78283 31.4195 8.37704 31.8024 8.38517Z" fill="#1E009F"/>
<path d="M31.2918 7.58489C31.6741 7.5924 31.6871 6.99823 31.3045 6.99072C30.9221 6.98259 30.9092 7.57676 31.2918 7.58489Z" fill="#1E009F"/>
<path d="M5.07599 35.3002C5.45839 35.3083 5.47109 34.7142 5.08825 34.706C4.70609 34.6979 4.69314 35.2927 5.07599 35.3002Z" fill="#1E009F"/>
<path d="M2.1166 45.9724C2.49893 45.9792 2.51188 45.3857 2.12879 45.3782C1.74646 45.3701 1.73376 45.9642 2.1166 45.9724Z" fill="#1E009F"/>
<path d="M41.0941 46.5107C41.4763 46.5188 41.4888 45.9246 41.106 45.9165C40.7239 45.909 40.7107 46.5025 41.0941 46.5107Z" fill="#1E009F"/>
<path d="M57.598 18.9928C57.9808 19.0004 57.9933 18.4062 57.6105 18.3987C57.2283 18.3906 57.2152 18.9847 57.598 18.9928Z" fill="#1E009F"/>
<path d="M57.6311 20.5734C58.0139 20.5815 58.0264 19.988 57.6436 19.9798C57.2615 19.9717 57.2484 20.5665 57.6311 20.5734Z" fill="#1E009F"/>
<path d="M57.7281 22.2885C58.1102 22.296 58.1234 21.7018 57.74 21.6943C57.3578 21.6868 57.3447 22.2804 57.7281 22.2885Z" fill="#1E009F"/>
<path d="M62.4227 27.7853C62.8042 27.7928 62.8174 27.1987 62.4346 27.1905C62.0524 27.1836 62.0393 27.7772 62.4227 27.7853Z" fill="#1E009F"/>
<path d="M69.3208 22.1979C69.703 22.206 69.7161 21.6119 69.3327 21.6037C68.9512 21.5956 68.9381 22.1898 69.3208 22.1979Z" fill="#1E009F"/>
<path d="M43.7773 21.738C44.1595 21.7449 44.172 21.1513 43.7892 21.1432C43.4071 21.1357 43.3946 21.7298 43.7773 21.738Z" fill="#1E009F"/>
<path d="M50.5335 29.4504C50.9156 29.4579 50.9287 28.8637 50.546 28.8562C50.1638 28.8487 50.1507 29.4422 50.5335 29.4504Z" fill="#1E009F"/>
<path d="M60.5388 48.8871C60.9216 48.8953 60.9341 48.3011 60.5514 48.2936C60.1692 48.2854 60.1561 48.879 60.5388 48.8871Z" fill="#1E009F"/>
<path d="M13.3853 20.058C13.7671 20.0662 13.7801 19.472 13.3975 19.4638C13.0151 19.4563 13.0022 20.0499 13.3853 20.058Z" fill="#1E009F"/>
<path d="M39.7757 33.7734C40.1578 33.7815 40.1703 33.1873 39.7876 33.1798C39.4054 33.1717 39.3923 33.7658 39.7757 33.7734Z" fill="#1E009F"/>
<path d="M46.0721 6.24186C46.4543 6.24999 46.4668 5.65643 46.084 5.6483C45.7019 5.64017 45.6893 6.23436 46.0721 6.24186Z" fill="#1E009F"/>
<path d="M71.5869 17.7004C71.969 17.7079 71.9822 17.1143 71.5994 17.1062C71.2166 17.0987 71.2041 17.6922 71.5869 17.7004Z" fill="#1E009F"/>
<path d="M65.3254 30.7426C65.7076 30.7507 65.7201 30.1565 65.3373 30.149C64.9552 30.1409 64.942 30.7345 65.3254 30.7426Z" fill="#1E009F"/>
<path d="M41.3568 17.7363C41.7389 17.7438 41.7521 17.1502 41.3687 17.1421C40.9872 17.134 40.974 17.7288 41.3568 17.7363Z" fill="#1E009F"/>
<path d="M18.521 18.5L18.4895 20.0305L18.521 18.5Z" fill="#1E009F"/>
<path d="M19.0962 18.8303L19.0722 19.9824L19.0962 18.8303Z" fill="#1E009F"/>
<path d="M19.6713 19.1608L19.6473 20.3123L19.6713 19.1608Z" fill="#1E009F"/>
<path d="M20.2459 19.4907L20.2224 20.6428L20.2459 19.4907Z" fill="#1E009F"/>
<path d="M20.8213 19.8039L20.7979 20.9565L20.8213 19.8039Z" fill="#1E009F"/>
<path d="M21.4428 20.0092L21.4237 20.9224L21.4428 20.0092Z" fill="#1E009F"/>
<path d="M25.0932 18.6357L25.0556 20.4626L25.0932 18.6357Z" fill="#1E009F"/>
<path d="M24.5054 18.9417L24.4722 20.5491L24.5054 18.9417Z" fill="#1E009F"/>
<path d="M23.9171 19.2474L23.8936 20.4001L23.9171 19.2474Z" fill="#1E009F"/>
<path d="M23.3292 19.5542L23.3053 20.7063L23.3292 19.5542Z" fill="#1E009F"/>
<path d="M22.7414 19.8435L22.718 20.9956L22.7414 19.8435Z" fill="#1E009F"/>
<path d="M22.1123 20.0223L22.0932 20.936L22.1123 20.0223Z" fill="#1E009F"/>
<path d="M3.61938 45.486L3.33918 47.3687L3.61938 45.486Z" fill="#1E009F"/>
<path d="M4.68532 45.9697L4.40511 47.8523L4.68532 45.9697Z" fill="#1E009F"/>
<path d="M5.75077 46.4522L5.50822 47.9871L5.75077 46.4522Z" fill="#1E009F"/>
<path d="M6.8167 46.9348L6.61056 48.4233L6.8167 46.9348Z" fill="#1E009F"/>
<path d="M7.88516 47.2869L7.69978 48.8418L7.88516 47.2869Z" fill="#1E009F"/>
<path d="M8.95086 47.7696L8.7469 49.1487L8.95086 47.7696Z" fill="#1E009F"/>
<path d="M10.0166 48.2523L9.83823 49.4563L10.0166 48.2523Z" fill="#1E009F"/>
<path d="M11.3418 48.659L11.2528 49.5916L11.3418 48.659Z" fill="#1E009F"/>
<path d="M12.6868 48.9164L12.5495 49.9946L12.6868 48.9164Z" fill="#1E009F"/>
<path d="M13.7351 49.1799L13.6217 49.9873L13.7351 49.1799Z" fill="#1E009F"/>
<path d="M39.1146 45.8884L39.3172 47.7798L39.1146 45.8884Z" fill="#1E009F"/>
<path d="M38.03 46.3264L38.2321 48.219L38.03 46.3264Z" fill="#1E009F"/>
<path d="M36.9449 46.765L37.145 48.5256L36.9449 46.765Z" fill="#1E009F"/>
<path d="M35.8603 47.2036L36.0048 48.6997L35.8603 47.2036Z" fill="#1E009F"/>
<path d="M34.7783 47.5111L34.8996 49.0723L34.7783 47.5111Z" fill="#1E009F"/>
<path d="M33.6938 47.9497L33.8408 49.3357L33.6938 47.9497Z" fill="#1E009F"/>
<path d="M32.6086 48.3881L32.7375 49.5984L32.6086 48.3881Z" fill="#1E009F"/>
<path d="M31.2681 48.7394L31.389 49.7896L31.2681 48.7394Z" fill="#1E009F"/>
<path d="M29.9136 48.942L30.0067 50.0247L29.9136 48.942Z" fill="#1E009F"/>
<path d="M28.8555 49.1618L28.9486 50.2451L28.8555 49.1618Z" fill="#1E009F"/>
<path d="M56.4046 23.6547L56.3721 25.2346L56.4046 23.6547Z" fill="#1E009F"/>
<path d="M55.8242 24.1033L55.7923 25.6826L55.8242 24.1033Z" fill="#1E009F"/>
<path d="M55.24 24.7651L55.2118 26.1323L55.24 24.7651Z" fill="#1E009F"/>
<path d="M54.6602 25.206L54.632 26.5813L54.6602 25.206Z" fill="#1E009F"/>
<path d="M54.0748 25.9253L54.0517 27.0305L54.0748 25.9253Z" fill="#1E009F"/>
<path d="M53.4918 26.4961L53.4718 27.4792L53.4918 26.4961Z" fill="#1E009F"/>
<path d="M52.9083 27.1352L52.8921 27.929L52.9083 27.1352Z" fill="#1E009F"/>
<path d="M52.3279 27.5871L52.3123 28.3777L52.3279 27.5871Z" fill="#1E009F"/>
<path d="M51.7525 27.8391L51.7318 28.8267L51.7525 27.8391Z" fill="#1E009F"/>
<path d="M51.1764 28.0908L51.1521 29.2754L51.1764 28.0908Z" fill="#1E009F"/>
<path d="M56.9438 23.8409L56.915 25.2456L56.9438 23.8409Z" fill="#1E009F"/>
<path d="M57.5017 24.4669L57.476 25.7178L57.5017 24.4669Z" fill="#1E009F"/>
<path d="M58.0577 25.2029L58.037 26.1904L58.0577 25.2029Z" fill="#1E009F"/>
<path d="M58.6306 25.8953L58.5981 26.6633L58.6306 25.8953Z" fill="#1E009F"/>
<path d="M59.1722 26.4988L59.1591 27.1355L59.1722 26.4988Z" fill="#1E009F"/>
<path d="M59.7314 27.0709L59.7201 27.6082L59.7314 27.0709Z" fill="#1E009F"/>
<path d="M60.2918 27.5648L60.2812 28.0808L60.2918 27.5648Z" fill="#1E009F"/>
<path d="M60.8591 27.7631L60.8422 28.553L60.8591 27.7631Z" fill="#1E009F"/>
<path d="M61.4239 28.0385L61.4032 29.0261L61.4239 28.0385Z" fill="#1E009F"/>
<path d="M61.9886 28.3133L61.9642 29.4985L61.9886 28.3133Z" fill="#1E009F"/>
</svg>
