<svg width="200" height="238" viewBox="0 0 200 238" fill="none" xmlns="http://www.w3.org/2000/svg">
<g clip-path="url(#clip0)">
<path d="M6.25813 2.97122C6.36955 6.61096 6.59239 7.65088 7.79945 10.1207C9.6936 14.0019 12.4048 17.7345 16.156 21.6342C17.6416 23.1755 19.2386 25.0139 19.7029 25.7196C22.2656 29.5822 23.8626 34.3733 24.1411 38.9972L24.2711 41.3185L24.2897 38.9972C24.3454 35.1532 23.5655 31.662 21.8385 27.948C20.5943 25.2739 19.87 24.3083 16.6388 20.9842C13.8347 18.1059 12.1634 16.1374 10.8635 14.1504C10.3993 13.4448 10.3436 13.2219 10.3807 11.922C10.4178 10.3064 9.99072 7.8923 9.48933 6.87094C9.30363 6.51811 9.04365 5.79387 8.93223 5.29248C8.67225 4.27113 7.98515 3.24977 7.44662 3.06407C7.05665 2.95265 6.75953 2.32126 6.57382 1.20706C6.2767 -0.538532 6.16528 0.111422 6.25813 2.97122ZM7.59518 5.44104C8.11514 7.00093 9.00651 8.72795 9.28506 8.72795C9.34077 8.72795 9.35934 8.37512 9.34077 7.92944C9.28506 7.22377 9.30363 7.2052 9.48933 7.61374C9.82359 8.39369 10.2136 10.7335 10.2136 11.9406C10.195 13.0176 10.1764 13.0734 9.91644 12.7205C9.74931 12.5163 9.48933 12.1077 9.34077 11.8106L9.04365 11.2535L9.54504 11.5692C10.1207 11.9591 10.1393 11.8663 9.82359 10.4178C9.6936 9.74931 9.34077 9.13649 8.61654 8.22656C7.53947 6.87094 6.87095 5.4039 6.87095 4.36398C6.87095 4.01114 6.90809 3.71402 6.94523 3.71402C6.98237 3.71402 7.27949 4.49397 7.59518 5.44104Z" fill="#1E009F"/>
<path d="M17.9016 8.48653C17.7159 9.21077 17.1588 10.3064 16.3045 11.5692C15.3018 13.0548 15.0232 13.779 15.0232 15.0418C15.0046 16.3045 15.3203 16.9916 16.4345 18.2358C16.8802 18.7372 17.3259 19.4429 17.4188 19.8143C17.623 20.5014 17.623 20.52 17.5859 19.9257C17.5673 19.4615 17.7159 19.1643 18.2358 18.6258C19.5915 17.2331 19.7772 16.0446 19.0344 13.4819C18.2915 10.9006 18.143 10.1764 18.1801 9.04364C18.2173 7.91086 18.0873 7.66945 17.9016 8.48653ZM18.4958 12.6834C19.3686 15.5246 19.2943 16.7874 18.1058 18.1987L17.493 18.9229L16.546 17.3073C15.4875 15.506 15.2832 14.7447 15.5617 13.8719C15.7474 13.2776 15.7474 13.2776 15.766 14.1318C15.7846 15.0418 16.7874 17.2888 17.2331 17.4188C17.6602 17.5487 17.5116 15.3946 17.0102 14.3918L16.546 13.5005L16.8988 12.8319L17.2516 12.1634L17.2702 12.9062C17.2702 13.3148 17.4002 14.1876 17.5487 14.8561C17.6973 15.5246 17.8087 16.3788 17.8273 16.7502C17.8273 17.1216 17.9016 17.4745 17.9944 17.5487C18.3844 17.7716 18.4215 16.2488 18.1058 14.4104C17.9201 13.3705 17.7344 12.182 17.6973 11.7363C17.6416 11.3092 17.5302 10.9564 17.4373 10.9564C17.363 10.9564 17.4373 10.7149 17.6045 10.3993L17.9201 9.84215L17.9759 10.5478C18.013 10.9192 18.2358 11.8849 18.4958 12.6834Z" fill="#1E009F"/>
<path d="M4.04828 19.0715C2.46982 19.1458 2.41411 19.1458 2.41411 19.5915C2.41411 20.5014 5.75673 22.4884 7.87372 22.8412C9.2479 23.0641 10.5478 22.8227 11.8291 22.0984C12.8876 21.5042 13.1848 21.5042 15.5989 22.0242C16.6202 22.247 15.636 21.7456 14.4847 21.4485C13.8161 21.2813 12.6462 20.7985 11.8849 20.39C11.1235 19.9629 10.2507 19.4986 9.935 19.3315C9.35932 19.0158 7.33518 18.9229 4.04828 19.0715ZM10.8264 20.5385C11.6063 20.9285 12.2563 21.2999 12.2563 21.3556C12.2563 21.5785 10.1207 22.1356 9.02506 22.2099L7.89229 22.2656L8.8765 22.0984C9.87929 21.9127 10.8449 21.5042 11.0492 21.1885C11.2906 20.78 10.1578 20.3714 8.39368 20.2043C5.97957 19.9629 5.49674 19.6472 7.70659 19.74C9.21076 19.7957 9.52645 19.8886 10.8264 20.5385ZM5.47817 20.0557C5.55245 20.1671 5.34818 20.2414 5.01392 20.2414C4.67966 20.2414 4.47539 20.1671 4.54967 20.0557C4.60538 19.9443 4.82822 19.87 5.01392 19.87C5.19962 19.87 5.42246 19.9443 5.47817 20.0557ZM4.23398 20.4271C4.45682 20.7985 4.45682 20.8171 3.99257 20.5014C3.4726 20.1671 3.41689 20.0557 3.76973 20.0557C3.89972 20.0557 4.10399 20.2229 4.23398 20.4271Z" fill="#1E009F"/>
<path d="M28.468 31.5692C26.741 31.922 25.1068 33.2776 24.7168 34.6704C24.4011 35.7846 24.4754 35.8217 24.9582 34.8189C25.4782 33.7047 25.9981 33.2033 27.1681 32.6834C30.715 31.1049 33.8533 33.1848 33.5748 36.8988C33.4262 38.8487 32.4605 40.1114 31.1049 40.1114C29.805 40.1114 28.6537 38.7558 28.9137 37.5116C29.0436 36.8059 29.7307 36.3045 30.3436 36.4717C30.9749 36.6202 31.1606 36.0817 30.5664 35.8031C29.5265 35.3389 28.8208 36.0074 28.6537 37.6045C28.4494 39.4986 29.2293 40.6685 30.7707 40.7985C32.5905 40.9471 33.5933 39.5915 33.7419 36.7688C33.8162 35.4503 33.7605 35.0046 33.4262 34.1318C32.9248 32.7762 31.9034 31.8477 30.6035 31.5877C29.6007 31.3649 29.5636 31.3649 28.468 31.5692Z" fill="#1E009F"/>
<path d="M3.58403 37.103C2.15413 37.623 1.18849 38.3287 0.612813 39.3129C0.16713 40.0928 0.0928497 40.39 0.0928497 41.6899C0.0928497 43.0083 0.16713 43.324 0.705663 44.4011C1.48561 45.961 2.80408 47.2795 4.47539 48.208C5.2182 48.5979 6.09099 49.2665 6.44382 49.675C7.0195 50.325 7.05664 50.3435 6.81523 49.8607C6.44382 49.1365 5.55246 48.3194 4.27112 47.5023C2.52553 46.3881 1.00278 44.6239 0.464252 43.064C-0.315693 40.8913 0.631383 39.0715 3.15692 37.9016C4.56824 37.2516 6.75952 37.233 8.69081 37.8644C9.41504 38.1058 10.0279 38.3658 10.0279 38.4401C10.0279 38.5144 9.86072 38.7186 9.65645 38.9043C9.45218 39.09 9.15506 39.6843 8.98793 40.2414C8.72795 41.1328 8.72795 41.3185 9.0065 42.2841C9.21077 43.0083 9.54503 43.5654 10.0093 44.0297C10.6778 44.7168 11.8663 45.1996 12.3677 44.9953C12.7762 44.8468 12.6834 44.5682 12.2191 44.5682C11.402 44.5682 10.195 43.7883 9.63788 42.9341C8.78366 41.597 8.95079 40.4642 10.195 39.2943L10.7521 38.7558L11.5506 39.2757C12.7948 40.0928 14.5218 41.9498 15.1718 43.194C16.2674 45.2739 16.6017 46.8895 16.6202 50.2321V53.2033L15.9331 54.7075C15.5432 55.5432 15.2275 56.3602 15.2275 56.5459C15.2275 56.7316 14.4104 58.2173 13.4262 59.87C10.7149 64.4011 9.39647 67.4095 8.57939 71.0306C7.92943 73.8904 7.948 74.6889 8.61653 72.1448C9.7493 67.7623 11.4206 63.9554 14.0576 59.7957C15.5803 57.4002 16.1188 56.286 16.5274 54.7261C16.7131 53.9833 17.0845 52.9991 17.363 52.4977C17.6416 52.0148 17.8087 51.6249 17.753 51.6249C17.6973 51.6249 17.5116 51.9034 17.3259 52.2191L16.9916 52.8319L16.8802 49.8607C16.7688 46.4252 16.4717 45.0139 15.3946 42.7484C14.8375 41.6156 14.299 40.8542 13.2776 39.7957C12.5162 38.9972 11.9406 38.3101 11.9963 38.2544C12.2191 38.0501 15.3203 38.0315 16.0446 38.2544C17.6787 38.7186 19.0715 40.0928 19.5357 41.6713C19.6472 42.0984 19.8143 43.1755 19.8886 44.104L20.0186 45.7753L19.9629 43.7326C19.9257 42.1727 19.8143 41.4299 19.4986 40.5942C18.9415 39.1272 17.6973 37.8644 16.4345 37.493C15.2461 37.1588 12.7577 37.1959 11.7549 37.5673C11.0306 37.8458 10.9378 37.8273 9.80501 37.3816C8.20798 36.7131 5.05107 36.5831 3.58403 37.103Z" fill="#1E009F"/>
<path d="M24.1411 42.247C24.1411 43.2498 23.6026 45.6453 23.1012 46.8895C22.247 48.9879 19.4429 53.6676 14.7075 60.9099C12.1077 64.8839 10.455 68.0409 9.95357 69.9164C9.60074 71.2906 9.0622 74.3175 9.17362 74.4104C9.21076 74.4661 9.4336 73.6676 9.65645 72.6648C10.6407 68.3565 11.2906 66.9266 14.6704 61.9127C17.363 57.883 21.1885 51.6249 22.4698 49.0993C22.9526 48.1523 23.5283 46.7409 23.7512 45.9239C24.1411 44.4382 24.4754 41.597 24.2525 41.597C24.1968 41.597 24.1411 41.8941 24.1411 42.247Z" fill="#1E009F"/>
<path d="M28.4308 42.3584C28.4123 42.8784 29.1551 43.6212 29.8979 43.8254C30.6778 44.0297 31.3278 43.8812 31.7363 43.3798C31.9777 43.1012 31.9034 43.0826 30.9564 43.1941C29.7493 43.3426 28.9322 43.0826 28.6351 42.4698C28.4865 42.1727 28.4308 42.1356 28.4308 42.3584Z" fill="#1E009F"/>
<path d="M27.6137 45.2182C27.7437 45.5896 28.6351 46.0538 29.2293 46.0538C29.6193 46.0538 30.2693 45.6453 30.2693 45.3853C30.2693 45.3482 29.805 45.3296 29.2293 45.3296C28.6722 45.3482 28.1151 45.2739 27.9851 45.1439C27.688 44.8468 27.4837 44.8839 27.6137 45.2182Z" fill="#1E009F"/>
<path d="M19.7215 46.3324C19.7215 46.6295 19.7586 46.7409 19.8143 46.5552C19.8514 46.3881 19.8514 46.1281 19.8143 45.9981C19.7586 45.8867 19.7215 46.0167 19.7215 46.3324Z" fill="#1E009F"/>
<path d="M26.4067 46.8338C26.4995 47.1124 26.9267 47.2609 26.9267 47.0195C26.9267 46.9267 26.7967 46.7781 26.6295 46.7224C26.4438 46.6481 26.3695 46.7038 26.4067 46.8338Z" fill="#1E009F"/>
<path d="M19.5172 47.2795C19.5172 47.4838 19.5729 47.5395 19.6286 47.3909C19.6843 47.2609 19.6657 47.0938 19.61 47.0381C19.5543 46.9638 19.4986 47.0752 19.5172 47.2795Z" fill="#1E009F"/>
<path d="M6.75952 57.1774C5.32962 57.8459 4.54967 59.7029 5.36676 60.52C5.5896 60.7428 5.99814 60.9099 6.31383 60.9099C6.98236 60.9099 7.03807 60.6871 6.42525 60.3714C4.95821 59.5729 5.79387 57.9202 7.68802 57.9016C9.41504 57.8644 10.585 59.2572 10.585 61.3185C10.585 63.3055 9.65645 64.9582 6.68523 68.2451C4.84679 70.2878 3.15691 72.7577 2.59981 74.2061C1.07706 78.2916 1.93129 83.4912 4.7168 87.3352C6.16527 89.3222 7.5766 90.6778 11.662 94.039C14.0761 96.026 13.4448 95.3203 10.6778 92.9434C6.88951 89.6936 4.60538 86.9452 3.47261 84.234C2.63695 82.247 2.41411 81.2628 2.28412 79.0158C2.06128 74.9118 2.71123 73.519 7.07521 68.6537C9.97214 65.441 10.8449 63.714 10.8449 61.2813C10.8264 58.0501 8.95079 56.1374 6.75952 57.1774Z" fill="#1E009F"/>
<path d="M25.8124 60.2414C24.5311 60.6128 23.6955 61.0028 22.2841 61.9127C20.9099 62.8041 18.8115 64.8097 18.2544 65.7568C18.0501 66.1096 17.493 66.5367 16.7502 66.9081C15.1161 67.7252 12.8505 69.5636 11.6249 71.0864C9.89786 73.2219 8.83937 75.4132 8.18941 78.2173C7.81801 79.8329 8.00371 79.9629 8.46796 78.403C9.82358 73.779 13.0919 69.8979 17.363 67.8552C19.5543 66.7967 20.8542 66.4624 23.2498 66.351C24.9397 66.2581 25.4225 66.3139 26.5924 66.6667C28.4123 67.2052 30.0464 68.1337 31.3463 69.3779L32.4048 70.3807L31.6806 71.0307C31.2906 71.3835 30.5478 71.8106 30.0093 71.9777C27.6323 72.7948 24.2897 71.922 25.3296 70.7707C25.701 70.3621 25.701 70.195 25.3482 70.195C25.1996 70.195 24.9397 70.3993 24.7725 70.6593C24.5125 71.0678 24.5125 71.2164 24.7168 71.8849C25.0325 72.8134 25.6639 73.3333 26.7595 73.5376C28.468 73.8533 30.6035 73.1476 31.9963 71.8292C32.8877 70.9749 33.0362 71.0492 33.6119 72.6091C33.8347 73.2776 33.9647 73.4633 33.9647 73.1662C33.9647 72.9062 33.779 72.2006 33.5562 71.5878L33.1476 70.4736L33.5562 69.4336C33.7976 68.858 34.0576 67.7995 34.169 67.0938C34.7818 62.767 32.4048 59.9443 28.1708 60C27.3352 60 26.2767 60.1114 25.8124 60.2414ZM30.9564 61.1328C32.2006 61.5971 33.4633 62.9341 33.8162 64.1969C34.169 65.4225 34.0761 67.1309 33.6119 68.3751C33.0734 69.8236 32.8134 69.9907 32.3491 69.2294C31.8477 68.4123 30.3621 67.0195 29.3965 66.4253C27.3909 65.1811 24.494 64.754 21.5785 65.2554C20.6314 65.4225 19.5543 65.6825 19.1829 65.831C18.8115 65.9796 18.4773 66.091 18.4401 66.0539C18.3287 65.9425 20.8728 63.5283 21.8199 62.8413C24.7725 60.7428 28.1894 60.0929 30.9564 61.1328Z" fill="#1E009F"/>
<path d="M18.4215 72.052C17.2702 72.7576 16.9545 74.4475 17.6416 76.0631C18.1801 77.3073 18.0873 78.6629 17.4373 79.1458C17.1773 79.35 16.6202 79.5543 16.1931 79.61C14.9861 79.7771 15.2461 80.4085 16.5088 80.4085C17.2331 80.4085 17.9387 79.6471 18.1987 78.5515C18.403 77.7344 18.3658 77.4744 17.9202 75.9331C17.5302 74.6332 17.4559 74.0947 17.5859 73.649C18.013 72.1448 20.8171 71.6806 21.3556 73.0362L21.5228 73.4447V73.0362C21.5413 72.8134 21.2999 72.4419 20.9656 72.1634C20.26 71.5692 19.2943 71.532 18.4215 72.052Z" fill="#1E009F"/>
<path d="M13.8347 73.7604C11.4949 76.3974 10.2878 79.4801 10.0836 83.2869C10.0093 84.8282 10.0464 85.7382 10.2878 86.9081C11.2163 91.5692 15.2646 96.6574 19.9072 98.9973C21.857 99.9815 22.1356 99.9072 20.39 98.8858C17.5488 97.2145 13.649 92.8877 12.0891 89.6379C11.1235 87.688 10.715 85.9425 10.715 83.844C10.715 81.7827 11.1235 80.0557 12.0891 78.0873C12.7762 76.676 14.1133 74.8189 13.8347 75.6732C13.5933 76.416 13.3333 88.3937 13.5376 89.5451C13.7976 91.0307 14.4661 92.4606 15.5989 93.8533C16.7131 95.2647 17.0845 95.6175 17.0845 95.2275C17.0845 95.079 16.4903 94.1876 15.7846 93.2405C14.3176 91.3092 13.9647 90.6036 13.8162 89.2479C13.779 88.728 13.7976 85.3111 13.8904 81.6713C14.039 75.1346 14.039 75.0232 14.4661 74.5775C14.7818 74.2433 14.8747 73.9647 14.8189 73.4262L14.7632 72.7205L13.8347 73.7604Z" fill="#1E009F"/>
<path d="M23.3241 73.5747C23.6955 74.7446 24.7725 75.4689 26.1467 75.4875C26.8152 75.4875 27.0381 75.3946 27.4095 74.9675C27.9294 74.3547 27.9851 74.0018 27.5395 74.1875C27.3538 74.2618 26.741 74.3732 26.1653 74.4104C25.0325 74.5218 24.1411 74.1875 23.714 73.5376C23.4169 73.0362 23.1569 73.0733 23.3241 73.5747Z" fill="#1E009F"/>
<path d="M33.9462 76.0446C33.7976 77.2331 32.9434 78.8858 31.9406 79.8514C30.3064 81.4485 26.6295 82.8226 24.7911 82.5441C23.6397 82.377 22.6555 81.727 22.1356 80.7799L21.6899 79.9443L21.8013 80.5942C22.0984 82.247 23.4726 83.5097 25.1625 83.714C27.8737 84.0111 32.0706 81.4485 33.4262 78.663C33.909 77.6787 34.4104 75.2089 34.1319 75.2089C34.0761 75.2089 33.9833 75.5803 33.9462 76.0446Z" fill="#1E009F"/>
<path d="M26.3695 76.0446C25.831 76.3603 24.5497 76.3974 23.8811 76.1374C23.1569 75.8774 23.3055 76.1188 24.0483 76.4345C24.9954 76.8245 26.2396 76.7688 26.6481 76.3231C27.0752 75.8403 26.9638 75.7289 26.3695 76.0446Z" fill="#1E009F"/>
<path d="M27.1866 77.1773C26.7781 77.6044 26.3695 77.8273 25.831 77.9201C24.8468 78.0687 24.8468 78.3658 25.831 78.3658C26.4438 78.3658 26.7038 78.2544 27.2238 77.7344C27.5766 77.3816 27.8552 76.973 27.8552 76.8059C27.8552 76.4345 27.8923 76.4159 27.1866 77.1773Z" fill="#1E009F"/>
<path d="M27.9851 79.1086C27.818 79.35 27.7252 79.5914 27.7623 79.6472C27.9294 79.7957 28.468 79.1643 28.3751 78.9044C28.3194 78.7558 28.1894 78.8115 27.9851 79.1086Z" fill="#1E009F"/>
<path d="M52.9248 80.39C52.9248 80.5014 53.0176 80.6314 53.1105 80.6871C53.5747 80.9656 53.8533 82.0241 54.039 84.0668C54.169 85.3482 54.3918 86.5738 54.5775 87.0195C54.7632 87.428 55.4875 88.3937 56.1746 89.1551C58.3101 91.4949 58.8487 93.3519 58.2358 96.3417C57.8273 98.403 57.1031 100.353 55.0418 105.162C53.0548 109.805 52.2934 111.941 51.3463 115.599C50.8264 117.549 50.455 118.552 49.8607 119.591C48.0223 122.748 45.3853 128.802 44.4568 131.996C44.0669 133.352 43.9926 133.983 44.0111 135.933C44.0111 137.214 44.0854 138.496 44.1783 138.812C44.3083 139.22 44.364 138.607 44.364 136.676C44.4011 133.445 44.6611 131.811 45.5896 129.341C46.5924 126.592 49.0065 121.82 50.5107 119.536C54.429 113.63 60.2786 109.749 65.2925 109.749C67.6323 109.749 69.675 110.826 70.3993 112.423C70.8264 113.37 70.8635 112.813 70.4736 111.476C69.5265 108.301 64.7168 107.707 59.6286 110.121C56.8431 111.458 54.429 113.408 52.3491 116.026C51.7363 116.769 51.2535 117.289 51.2535 117.177C51.2535 117.066 51.4578 116.137 51.7177 115.116C52.2934 112.851 53.3148 109.991 54.5961 107.057C55.1346 105.831 55.9889 103.863 56.4903 102.693C58.2916 98.5701 58.9972 95.6732 58.8301 93.2776C58.7744 92.572 58.5887 91.7363 58.403 91.3835C58.2358 91.0306 58.0687 90.4921 58.0316 90.1764C58.013 89.8607 57.9387 89.2293 57.883 88.7651L57.753 87.9294L57.9944 88.8579C58.2544 89.8236 58.8301 91.0863 58.9787 90.9564C59.0158 90.9006 58.8858 90.1764 58.6815 89.3036C57.5859 84.6797 57.1588 83.7883 55.2275 82.247C54.5775 81.7084 54.039 81.207 54.039 81.1142C54.039 80.9099 53.3333 80.2228 53.1105 80.2228C53.0176 80.2228 52.9248 80.2971 52.9248 80.39ZM54.8004 82.3955C55.0418 82.6555 55.1532 82.8226 55.0232 82.7484C54.5404 82.4884 54.5775 83.1012 55.1161 84.2711C55.7103 85.5525 56.3417 87.7066 56.2303 88.0408C56.1374 88.338 54.9304 86.7409 54.6518 85.9424C54.4104 85.2368 54.0761 81.8941 54.2618 81.8941C54.299 81.8941 54.5404 82.117 54.8004 82.3955ZM57.2702 85.4039C57.4188 85.7939 57.5859 86.5367 57.6416 87.0381C57.7345 87.7809 57.6973 87.7066 57.3816 86.5552C57.1774 85.7939 56.8431 84.9025 56.6388 84.5497C56.156 83.7326 56.156 83.5655 56.6388 84.1783C56.8431 84.4382 57.1402 84.9953 57.2702 85.4039ZM56.9545 87.1309C56.8988 87.2609 56.8617 87.1681 56.8617 86.9081C56.8617 86.6481 56.8988 86.5552 56.9545 86.6667C56.9917 86.7966 56.9917 87.0195 56.9545 87.1309Z" fill="#1E009F"/>
<path d="M36.9731 82.2284C36.8059 82.6927 35.9517 83.6769 34.2618 85.3296C31.4206 88.1337 30.8264 89.0808 30.6778 90.9935C30.6407 91.662 30.6778 92.4977 30.7892 92.8505C30.9564 93.4447 30.9749 93.3705 30.9935 92.0891C31.0121 90.2507 31.4206 89.1551 32.442 88.0594L33.259 87.1866L32.7948 88.0223C32.0149 89.4336 31.6806 91.0492 31.6806 93.4076C31.6806 95.2646 31.7363 95.6546 32.1077 96.4345C32.3491 96.9173 32.6091 97.363 32.7019 97.4187C33.0362 97.623 33.4633 96.1374 33.5562 94.4475C33.6119 93.4262 33.7604 92.6462 33.909 92.4605C34.0576 92.2934 34.1318 92.1263 34.0761 92.0891C34.039 92.0334 34.1133 90.8078 34.2618 89.3408C34.4104 87.8923 34.5218 86.6295 34.4847 86.5552C34.4475 86.3881 36.7874 83.3798 36.9731 83.3798C37.0288 83.3798 37.1959 83.8626 37.3259 84.4383C37.4559 85.0325 37.8273 86.4253 38.1616 87.558C38.9786 90.2693 39.0715 91.0492 38.7372 92.6091C38.4215 94.169 37.883 95.2832 36.6017 97.0288C36.0817 97.7344 35.6546 98.4029 35.6546 98.4958C35.6546 98.8486 37.0659 97.3073 37.6973 96.2488C39.3872 93.4819 39.5914 91.142 38.5144 87.428C37.6602 84.494 37.5487 84.0669 37.4373 82.767C37.4002 82.1727 37.3259 81.6527 37.2888 81.597C37.2516 81.5599 37.1031 81.8385 36.9731 82.2284Z" fill="#1E009F"/>
<path d="M8.078 86.2767C8.33798 88.4123 9.78645 91.3092 10.9378 92.0892C11.3092 92.3306 11.2535 92.2006 10.6964 91.4764C9.76788 90.2507 8.93222 88.598 8.41226 86.9081C8.09657 85.8867 8.00372 85.7196 8.078 86.2767Z" fill="#1E009F"/>
<path d="M17.2702 90.195C17.2702 91.4578 19.7215 95.5061 21.5599 97.3074C22.3584 98.0687 23.2498 98.7001 24.2897 99.2201C25.7196 99.9257 25.9982 100 27.5952 100.056C29.1365 100.13 29.3408 100.186 29.3408 100.483C29.3408 100.687 29.5636 100.891 29.9722 101.04C30.5478 101.244 30.5664 101.3 30.3993 101.764C30.1021 102.526 30.3807 103.213 31.0864 103.565L31.7177 103.863L31.2721 104.903C30.2321 107.261 28.598 109.118 26.8338 109.954C26.0539 110.325 25.1625 110.548 23.8997 110.696C22.9155 110.826 22.0613 110.882 22.0056 110.845C21.9684 110.789 22.117 110.251 22.377 109.656C22.6184 109.044 22.9898 107.669 23.2126 106.592C23.4355 105.515 23.7326 104.383 23.844 104.085C24.1411 103.38 24.9954 102.377 25.5153 102.098C25.8496 101.931 25.831 101.987 25.4039 102.433C24.6797 103.213 24.3454 104.345 24.1226 106.685C23.9554 108.412 23.844 108.858 23.3983 109.601L22.8598 110.492H23.4726C24.2711 110.492 24.624 110.176 24.8654 109.248C24.9954 108.784 25.3111 108.282 25.701 107.948C26.1653 107.521 26.2767 107.317 26.1653 107.038C25.9982 106.555 27.6509 104.345 28.7651 103.547C29.1922 103.231 29.5265 102.878 29.5265 102.748C29.5265 102.303 28.3937 103.046 27.2052 104.253C26.611 104.865 26.1839 105.274 26.2581 105.144C26.4438 104.847 26.5181 104.29 26.6295 102.693L26.7038 101.486L27.558 101.207C28.0223 101.059 28.4123 100.854 28.4123 100.761C28.4123 100.687 27.8923 100.631 27.2423 100.687C25.3111 100.799 23.8626 102.061 23.4169 103.993C23.3055 104.457 23.0641 105.571 22.8598 106.5C22.637 107.447 22.1541 108.802 21.727 109.656C21.3185 110.474 20.9842 111.383 20.9842 111.662C20.9842 112.145 21.0214 112.182 21.597 112.089C21.9127 112.033 22.9712 111.848 23.9369 111.699C26.6481 111.235 28.0966 110.529 29.4336 108.969C30.2136 108.041 31.4949 105.571 31.6806 104.624C31.7735 104.16 31.9406 103.918 32.2563 103.788C32.4977 103.695 32.7391 103.621 32.7577 103.621C32.7948 103.621 32.8691 104.197 32.9062 104.884C32.9805 105.961 33.1662 106.481 34.039 108.189C35.2832 110.678 35.8032 112.293 35.9889 114.485C36.1003 115.673 36.1931 116.045 36.3046 115.785C36.3974 115.58 36.8617 114.689 37.3631 113.816C39.1086 110.678 39.6286 108.524 39.0901 106.537C38.663 104.884 38.1244 104.011 36.7874 102.748C36.1189 102.098 35.6732 101.578 35.8032 101.578C36.2488 101.578 36.7688 100.836 36.7688 100.186C36.7688 99.3686 36.1003 98.8301 35.4875 99.1644C35.1346 99.3501 35.1161 99.3129 35.2089 98.8115C35.4689 97.5116 34.7818 96.7131 33.779 97.1402C33.4076 97.2888 33.1848 97.5302 33.1105 97.883C33.0176 98.3844 32.9991 98.3844 32.572 98.1244C32.2934 97.9387 32.0334 97.4559 31.8477 96.7874C31.4392 95.3761 30.8449 94.3733 29.8422 93.4634C28.2451 91.9963 26.6667 91.4206 22.377 90.715C20.8542 90.4736 19.1829 90.1393 18.663 89.9722C17.4002 89.6008 17.2702 89.6193 17.2702 90.195ZM22.4698 91.922C27.948 92.9434 29.8793 93.9276 31.1606 96.3417C31.4949 96.9545 31.7549 97.5302 31.7549 97.6416C31.7549 97.753 31.5692 98.1244 31.3463 98.4959C31.0121 99.0158 30.7892 99.1458 30.325 99.1644C29.9722 99.1644 29.6565 99.2944 29.5636 99.4615C29.415 99.74 29.2108 99.7215 27.4652 99.2572C24.0854 98.3659 22.3027 97.2145 20.3714 94.6518C19.4615 93.4262 18.1987 91.4021 18.1987 91.1235C18.1987 91.0678 18.4773 91.105 18.8115 91.1978C19.1272 91.2721 20.78 91.6063 22.4698 91.922ZM34.9675 98.5701C34.9489 99.3129 34.3918 100.52 34.1504 100.371C34.0576 100.297 34.0019 100.446 34.039 100.687C34.0761 101.059 34.0019 101.114 33.4262 101.114C32.9062 101.114 32.7762 101.04 32.7762 100.743C32.7762 100.52 32.9434 100.353 33.2405 100.26C33.6305 100.167 33.649 100.13 33.389 100C32.8691 99.7958 32.4977 100.037 32.3863 100.65C32.2748 101.189 31.7549 101.448 31.7549 100.947C31.7549 100.799 31.402 100.65 30.7892 100.539C29.5822 100.334 29.5822 100 30.7892 99.9815C32.0149 99.9629 32.0334 99.9443 31.662 99.5358C31.3463 99.1829 31.3463 99.1644 31.8663 98.9601C32.2006 98.8487 32.5163 98.8301 32.6834 98.9415C32.8319 99.0344 33.1476 99.2201 33.3705 99.3686C33.9647 99.7215 34.1133 99.4244 33.6119 98.8858C32.9991 98.2173 33.2219 97.8273 34.2061 97.9016C34.9861 97.9573 35.0046 97.9759 34.9675 98.5701ZM36.1746 99.9443C36.5274 100.297 36.4531 100.446 35.7289 100.743C35.2461 100.947 35.0789 101.096 35.1718 101.319C35.2646 101.541 35.2089 101.597 34.9861 101.504C34.8375 101.448 34.5961 101.393 34.4661 101.393C34.0204 101.393 34.3547 100.576 34.9675 100.13C35.636 99.6658 35.8589 99.6286 36.1746 99.9443ZM32.7948 101.783C32.8691 101.913 33.1848 101.95 33.5933 101.876C34.039 101.82 34.5218 101.894 35.0232 102.117C35.9703 102.544 36.1189 102.767 35.7289 103.138C35.0975 103.788 33.649 103.733 33.4819 103.064C33.389 102.73 33.2776 102.711 32.3863 102.804C31.6249 102.897 31.2906 102.86 30.9192 102.618C30.2693 102.191 30.4921 101.95 31.4949 101.95C31.9406 101.95 32.312 101.857 32.312 101.764C32.312 101.523 32.6277 101.523 32.7948 101.783ZM36.7688 103.825C36.8988 104.048 36.8431 104.104 36.546 104.104C35.7846 104.067 35.4689 104.847 35.4318 106.871C35.3946 108.747 35.5989 109.526 36.2674 110.084C36.4717 110.269 36.5645 109.898 36.7502 107.744C36.8802 106.351 36.9916 105.014 37.0102 104.791C37.0288 104.383 37.0474 104.383 37.5673 104.884C38.8301 106.072 39.2758 108.022 38.7372 110.084C38.403 111.383 37.3073 113.723 36.7688 114.28C36.3788 114.689 36.4345 114.875 36.0446 111.792C35.8774 110.418 35.6917 109.898 34.559 107.614C33.8533 106.184 33.2033 104.68 33.1476 104.271L33.0176 103.528L33.5005 104.048C33.7976 104.364 34.1504 104.55 34.5033 104.55C35.1346 104.55 35.9517 103.974 36.1374 103.398C36.2488 103.008 36.3046 103.046 36.7688 103.825Z" fill="#1E009F"/>
<path d="M20.0557 92.3677C20.6314 93.0176 21.5042 93.519 23.7697 94.5775L25.5339 95.3946L25.5896 94.2618C25.6267 93.649 25.7382 93.0733 25.8496 93.0176C25.961 92.9434 25.3853 92.8319 24.5868 92.7577C23.2312 92.6462 21.1699 92.312 20.0557 91.9963L19.5915 91.8663L20.0557 92.3677Z" fill="#1E009F"/>
<path d="M23.0269 94.6147C23.0269 94.6704 23.6583 95.1346 24.4197 95.636C26.2396 96.8059 29.7122 98.1801 29.7122 97.7158C29.7122 97.5301 28.0409 96.7502 26.3881 96.1745C25.831 95.9703 24.8468 95.5246 24.1968 95.1718C23.5469 94.8189 23.0269 94.5775 23.0269 94.6147Z" fill="#1E009F"/>
<path d="M35.3203 92.5163C35.0046 93.1662 34.7075 94.0576 34.6332 94.5218C34.5404 95.2646 34.5775 95.1904 35.0046 93.9833C35.2646 93.2405 35.6174 92.3677 35.766 92.0706C35.9331 91.7735 36.0074 91.4763 35.9703 91.4206C35.9146 91.3835 35.6174 91.8663 35.3203 92.5163Z" fill="#1E009F"/>
<path d="M7.42804 94.4847C7.42804 94.5961 7.83658 95.8217 8.33797 97.1773C8.8208 98.5144 9.3779 100.13 9.5636 100.743C10.6035 104.345 12.6834 106.072 16.0074 106.072C17.1959 106.091 17.623 105.998 18.4773 105.571C19.4243 105.125 19.87 104.68 19.6472 104.457C19.61 104.401 19.1643 104.531 18.6444 104.717C17.5116 105.144 16.0631 105.404 16.2303 105.144C16.3603 104.94 17.7716 104.55 18.5144 104.531C19.1086 104.531 19.1086 104.531 17.2145 103.807C16.0446 103.343 15.5989 102.99 16.5645 103.268C17.6973 103.584 18.7929 103.454 20.39 102.804C21.2256 102.451 22.1727 102.117 22.4698 102.043C22.9155 101.95 23.0269 101.82 23.0269 101.448C23.0269 100.984 23.0084 100.984 22.0984 101.096C21.597 101.17 20.8357 101.337 20.4085 101.486C19.3315 101.876 19.2386 101.838 18.8858 101.133C18.4958 100.279 17.4002 99.6657 15.2275 99.0715C14.2618 98.7929 13.1476 98.4587 12.7762 98.3101C12.3863 98.1801 12.0706 98.0873 12.0706 98.143C12.0706 98.3287 13.5747 98.9786 15.506 99.61C17.5673 100.279 18.9415 101.114 18.9415 101.708C18.9415 102.191 15.7474 101.968 14.6704 101.411C13.9276 101.021 8.78366 96.0074 7.78087 94.7075C7.59517 94.4475 7.42804 94.3547 7.42804 94.4847ZM13.0176 101.17C13.8347 102.043 13.9833 102.266 13.5747 102.061C13.2962 101.913 12.5905 101.207 12.0149 100.52C10.0093 98.0873 9.86072 97.9387 9.69359 98.1987C9.48932 98.5144 9.24791 98.2173 8.93222 97.3073C8.70938 96.6388 9.11792 97.0102 13.0176 101.17ZM10.1021 99.9628C10.2507 100.501 10.4178 101.226 10.4921 101.578C10.6035 102.228 10.6035 102.228 10.325 101.764C10.1021 101.356 9.47075 99.2572 9.47075 98.8858C9.47075 98.8301 9.54503 98.8301 9.65645 98.8858C9.7493 98.9415 9.95357 99.4243 10.1021 99.9628ZM12.2563 103.993C12.3677 104.197 12.4234 104.364 12.3863 104.364C12.3491 104.364 12.1634 104.197 11.9777 103.993C11.792 103.788 11.7363 103.621 11.8477 103.621C11.9591 103.621 12.1448 103.788 12.2563 103.993Z" fill="#1E009F"/>
<path d="M40.6685 95.766C38.6815 96.1003 36.9545 97.4745 36.9545 98.7001C36.9545 98.9972 37.0288 98.9601 37.3445 98.4772C37.6973 97.9201 38.5887 97.1959 38.7372 97.3445C38.7744 97.4002 38.6258 97.7901 38.403 98.2544C37.8087 99.4986 37.7716 100.427 38.2915 101.188L38.7187 101.82L40.9471 101.876C42.1541 101.913 43.3055 101.913 43.4726 101.857C43.8069 101.746 43.844 101.207 43.5469 100.984C43.4355 100.891 43.4355 100.836 43.5655 100.836C43.6769 100.836 43.7697 100.613 43.7883 100.316C43.8069 100.037 43.8811 99.2572 43.974 98.5701C44.0854 97.7159 44.0668 97.2888 43.9369 97.233C43.8254 97.1773 43.9926 97.1773 44.2897 97.2516C44.6054 97.3073 45.7567 97.8087 46.8524 98.3473C48.0223 98.9229 49.2479 99.3872 49.7864 99.4615C50.8449 99.61 50.8078 99.74 49.4522 100.687C48.0037 101.671 45.1068 102.47 41.7456 102.786C40.2414 102.934 38.5515 102.618 38.0316 102.098C37.6602 101.727 37.6602 101.727 37.7344 102.154C37.7716 102.377 38.0316 102.73 38.3101 102.953C38.7929 103.305 39.0901 103.343 41.1885 103.343C43.6769 103.343 44.7725 103.138 47.2238 102.21C49.5265 101.318 51.4949 99.6843 51.1792 98.8672C51.1235 98.7187 50.8264 98.6072 50.4364 98.6072C49.6379 98.6072 47.9851 97.9944 45.9424 96.9731C43.7326 95.8589 42.2284 95.506 40.6685 95.766Z" fill="#1E009F"/>
<path d="M40.5014 104.735C43.8626 106.462 45.0511 110.938 43.4355 115.766C42.7484 117.827 41.9127 119.201 40.6314 120.464C37.4745 123.528 34.0947 124.717 28.9694 124.568C26.3881 124.494 26.2024 124.475 25.3296 123.955C24.494 123.473 22.5441 121.69 22.6927 121.523C22.9155 121.318 23.584 121.727 23.584 122.08C23.6026 122.451 23.6026 122.451 23.8069 122.117C24.0854 121.634 23.8997 118.756 23.5097 117.864C23.1755 117.047 23.4355 117.01 24.0297 117.79C24.3268 118.18 24.4011 118.7 24.5125 120.557C24.5682 121.82 24.7168 122.99 24.8097 123.157C25.0511 123.603 25.1068 118.904 24.8468 118.106C24.5868 117.27 23.9183 116.546 22.7484 115.877C22.247 115.58 21.1885 114.8 20.39 114.132C19.61 113.463 18.9415 112.906 18.8858 112.906C18.8301 112.906 18.7372 113.036 18.6815 113.203C18.6258 113.37 18.8672 113.909 19.3129 114.54C19.87 115.339 20.2043 116.175 20.7057 117.902C21.5413 120.854 21.9313 121.671 23.2312 122.99L24.2897 124.085L23.4355 123.955C22.0984 123.751 19.3315 122.786 18.0501 122.08C15.1718 120.464 13.1848 117.474 13.1848 114.763C13.1848 112.906 14.1504 111.031 15.6174 110.009C16.8802 109.137 16.4531 108.747 15.0418 109.471C12.0891 110.994 11.8106 116.955 14.5218 120.539C15.6174 121.987 16.8988 123.008 18.8115 123.955L20.4642 124.754L19.61 125.125C18.4215 125.664 18.013 126.388 18.013 128.041C18.013 130.993 20.1671 133.445 22.9341 133.668C24.364 133.779 25.0325 133.538 25.8124 132.646C26.5738 131.792 26.611 130.474 25.8867 129.619C24.9211 128.487 22.9341 127.818 22.2841 128.412C22.0798 128.598 21.9127 128.932 21.9127 129.136C21.9313 129.489 21.9499 129.489 22.117 129.192C22.377 128.746 23.1569 128.802 24.2897 129.359C26.0538 130.232 26.6852 131.513 25.701 132.163C24.9768 132.628 22.9526 132.572 21.8941 132.071C19.9814 131.142 18.5701 129.415 18.5701 128.022C18.5701 127.335 18.6629 127.149 19.3315 126.592C19.8143 126.165 20.5014 125.831 21.2442 125.627C22.3213 125.33 22.5441 125.33 24.2711 125.608C26.6852 125.998 30.585 125.998 32.442 125.608C38.1801 124.42 42.3584 121.003 43.9554 116.156C44.3826 114.893 44.4568 114.336 44.4568 112.442C44.4568 110.121 44.1968 108.802 43.4169 107.28C42.8784 106.221 41.6899 105.014 40.7614 104.568C39.5172 103.993 39.3129 104.123 40.5014 104.735ZM20.8914 115.487C20.9471 115.58 20.9099 115.71 20.7985 115.785C20.7057 115.84 20.6128 115.766 20.6128 115.617C20.6128 115.283 20.7242 115.227 20.8914 115.487ZM21.1328 117.103C21.0771 117.363 21.0399 117.326 20.9471 116.936C20.8914 116.583 20.9099 116.472 21.0213 116.583C21.1328 116.695 21.1699 116.917 21.1328 117.103Z" fill="#1E009F"/>
<path d="M44.2526 106.76C45.7382 108.394 46.2581 109.396 46.611 111.291L46.7781 112.256L46.7224 111.031C46.6295 109.396 46.0539 108.338 44.234 106.574L42.8227 105.2L44.2526 106.76Z" fill="#1E009F"/>
<path d="M32.2191 111.476C30.9564 115.376 31.2164 117.4 33.2219 119.276C34.4661 120.446 35.506 120.929 36.9545 121.021C37.9016 121.077 38.3101 121.021 38.8115 120.743C39.5915 120.316 40.2971 119.183 40.2971 118.329C40.2971 116.397 38.4215 114.986 37.3631 116.119C36.8617 116.657 36.8431 116.88 37.3073 116.62C38.4587 116.007 40 116.899 40 118.199C40 120.056 37.2516 120.761 34.9304 119.499C31.8292 117.809 31.1421 115.933 32.2934 112.312C32.8319 110.641 33.1662 109.192 33.0362 109.192C32.9991 109.192 32.6277 110.214 32.2191 111.476Z" fill="#1E009F"/>
<path d="M63.3241 113.686C62.8227 114.02 62.6184 114.336 62.4513 114.986C62.0799 116.546 62.6184 117.846 63.9554 118.533C66.5367 119.87 69.545 118.217 70.4735 114.949C70.585 114.578 70.4921 114.652 70.065 115.227C68.8951 116.806 67.2795 117.734 65.701 117.734C64.5683 117.734 63.1012 116.825 62.7484 115.896C62.247 114.596 64.7725 113.445 66.0167 114.41C66.4438 114.763 66.4995 114.93 66.4438 115.617C66.3696 116.602 66.5924 116.695 66.7781 115.747C67.0195 114.429 66.2581 113.5 64.7911 113.333C64.1411 113.259 63.844 113.333 63.3241 113.686Z" fill="#1E009F"/>
<path d="M29.8422 116.397C29.7864 116.713 29.675 117.196 29.6193 117.474L29.5265 118.013L29.7864 117.456C30.0279 116.955 30.065 116.936 30.195 117.252C30.3064 117.549 30.0279 117.92 29.7122 117.864C29.3965 117.827 28.7651 118.366 28.8579 118.607C28.9322 118.793 28.5051 119.369 27.5952 120.316C26.221 121.746 25.8124 122.303 25.8124 122.823C25.8124 123.138 26.7224 124.253 26.7409 123.937C26.7409 123.825 26.611 123.621 26.4624 123.491C26.3138 123.361 26.1838 123.138 26.1838 122.99C26.1838 122.748 26.481 122.73 28.1894 122.841C30.1393 122.971 30.1764 122.953 30.6035 122.507C31.0678 122.006 31.3835 121.096 31.3835 120.204C31.3835 119.721 30.2321 116.156 30.0093 115.933C29.9721 115.896 29.8979 116.1 29.8422 116.397ZM29.0622 120.019C28.5608 120.817 28.2266 120.761 28.6722 119.963C28.8765 119.554 29.1365 119.313 29.2108 119.387C29.3036 119.48 29.2293 119.759 29.0622 120.019ZM30.8264 121.393C30.6407 121.69 30.6221 121.671 30.7149 121.263C30.7707 121.003 30.8449 120.539 30.8635 120.241C30.8821 119.759 30.9006 119.777 30.9564 120.371C30.9935 120.761 30.9378 121.226 30.8264 121.393ZM29.5265 120.149C29.5265 120.241 29.4336 120.334 29.3222 120.334C29.2293 120.334 29.1922 120.241 29.2479 120.149C29.3036 120.037 29.3965 119.963 29.4522 119.963C29.4893 119.963 29.5265 120.037 29.5265 120.149ZM27.4837 121.356C27.3723 121.504 27.3166 121.708 27.3909 121.82C27.4466 121.913 27.4466 122.006 27.3538 122.006C27.2795 122.006 27.0009 122.061 26.7409 122.117C26.3138 122.21 26.3138 122.173 26.9266 121.653C27.6137 121.04 27.8552 120.91 27.4837 121.356Z" fill="#1E009F"/>
<path d="M45.9982 118.236C45.1996 121.263 43.2498 123.937 40.7057 125.552C40.0372 125.98 38.1987 126.945 36.6203 127.688C33.2405 129.304 31.5506 130.381 30.325 131.736C29.3036 132.85 28.3194 134.577 28.1337 135.617C27.9666 136.453 28.4494 137.883 28.9694 138.162C29.3779 138.384 30.0464 138.162 30.4736 137.679C30.9007 137.177 31.4392 136.1 31.3092 135.97C31.2535 135.915 31.1978 135.952 31.1978 136.063C31.1978 136.175 30.9749 136.472 30.715 136.75C29.8979 137.549 28.9137 137.326 28.5423 136.249C28.3194 135.636 28.8022 134.336 29.6193 133.296C30.7892 131.792 32.572 130.566 36.3046 128.654C38.143 127.725 40.2414 126.574 40.9471 126.091C42.7113 124.902 44.234 123.213 45.0139 121.578C45.6639 120.241 46.4996 117.512 46.3881 117.159C46.351 117.047 46.1653 117.53 45.9982 118.236Z" fill="#1E009F"/>
<path d="M84.9582 117.419C83.974 117.66 82.1541 119.499 81.467 120.929C80.5571 122.823 80.0371 125.645 80.0371 128.598C80.0371 130.585 80.7242 139.461 80.9842 140.836C81.2071 142.098 81.8941 144.364 81.987 144.253C82.0241 144.215 81.9499 143.77 81.7827 143.268C81.1513 141.17 80.7799 137.92 80.4085 131.606C80.13 127.019 80.3528 124.995 81.2813 123.12C82.0427 121.634 82.507 121.281 83.454 121.523C84.4568 121.764 84.7354 123.38 84.1968 125.72C83.8069 127.484 83.9369 127.929 84.4568 126.555C85.1068 124.865 85.6639 124.234 86.5181 124.234C87.5023 124.234 87.818 124.661 88.1337 126.481C88.2823 127.335 88.5051 128.097 88.6537 128.171C88.7837 128.245 89.0065 128.561 89.1365 128.858C89.3408 129.378 89.3036 129.452 88.338 130.604C86.3324 132.962 84.8839 135.487 84.1597 137.827C83.7326 139.183 83.2869 141.987 83.0826 144.513L82.9712 146.147L82.4884 145.775C81.8941 145.292 81.4299 145.311 81.0771 145.812C80.4828 146.667 80.7614 147.224 82.4698 148.691C83.2683 149.359 85.1439 151.866 86.4438 154.002C87.8366 156.286 88.4123 156.973 88.6722 156.694C88.7465 156.639 88.6351 156.267 88.4308 155.859C88.2266 155.469 88.0037 154.856 87.9294 154.503C87.8552 154.15 87.6323 153.333 87.428 152.683C87.0938 151.606 87.0009 151.458 85.7939 150.585C85.0882 150.065 84.2897 149.378 84.0111 149.062C83.6954 148.672 83.5097 148.542 83.4355 148.709C83.324 149.025 82.8227 148.635 82.8227 148.245C82.8227 148.097 82.4327 147.614 81.9684 147.168L81.1142 146.388L81.727 146.481C82.5441 146.592 82.8227 146.834 82.8227 147.409C82.8227 148.115 83.0455 147.762 83.1012 146.945C83.1198 146.555 83.2869 145.404 83.4355 144.383C84.3454 138.663 85.0882 136.806 87.9109 133.259C91.2163 129.099 95.0232 125.738 98.4215 123.974C99.9071 123.194 100.037 123.175 100.501 123.417C101.616 124.011 101.263 125.46 99.6472 126.982C99.1272 127.465 97.7344 128.394 96.5645 129.044C94.0947 130.399 93.8904 130.604 94.3175 131.253C94.429 131.458 94.8004 131.346 96.026 130.734C97.363 130.046 97.6787 129.972 98.3844 130.065C99.3129 130.195 99.8143 130.492 100.316 131.235L100.687 131.755L100.557 131.198C100.409 130.492 99.9071 129.768 99.3872 129.526C99.1643 129.434 98.9786 129.304 98.9786 129.229C98.9786 129.174 99.2943 128.858 99.6843 128.542L100.409 127.985L100.223 128.784C100.056 129.545 100.074 129.675 100.557 130.381C101.021 131.049 101.096 131.291 101.077 132.368C101.058 133.166 100.873 134.095 100.576 134.949C100.316 135.692 100.093 136.472 100.093 136.676C100.093 136.973 99.9629 137.047 99.4429 137.047H98.7929L99.4615 136.175C100.186 135.227 100.446 134.689 100.576 133.798C100.65 133.315 100.631 133.333 100.409 133.946C100.019 134.967 99.4243 135.747 98.403 136.583C97.7159 137.14 97.493 137.456 97.493 137.827C97.493 138.403 97.4745 138.403 98.5887 138.143C99.5357 137.939 100.557 138.18 100.836 138.719C101.356 139.684 100.873 141.467 99.7957 142.618C99.1643 143.305 98.9786 143.64 98.9786 144.123C98.9786 144.661 99.0715 144.791 99.5357 144.977C100.26 145.237 100.279 145.905 99.61 146.704C98.7187 147.744 98.2544 147.874 96.546 147.539C94.2618 147.112 91.6435 147.187 89.2479 147.725C88.1337 147.967 87.1866 148.227 87.1309 148.282C86.8895 148.524 87.298 148.505 88.4865 148.245C89.2108 148.097 90.7149 147.948 91.8292 147.948C93.6862 147.929 93.9833 147.967 95.0789 148.449C99.3872 150.325 99.0529 150.232 101.523 150.214C102.804 150.214 103.937 150.288 104.141 150.399C104.605 150.641 104.791 151.161 104.791 152.163C104.791 153.036 104.234 153.612 103.064 153.965C102.377 154.169 101.987 154.67 102.21 155.042C102.266 155.116 102.674 155.246 103.101 155.32C104.568 155.562 105.664 156.639 105.664 157.846C105.664 159.87 103.64 161.95 101.913 161.671C101.04 161.523 100.854 161.82 101.207 162.841C101.634 164.16 100.65 164.865 98.6258 164.661C97.753 164.568 97.5116 164.457 97.0659 163.937C95.9331 162.618 93.5005 159.146 92.0891 156.824C91.2906 155.506 90.4735 154.243 90.3064 154.039C89.805 153.482 88.5794 152.572 88.468 152.702C88.4123 152.758 88.5794 152.943 88.8579 153.129C89.5265 153.575 90.5478 155.097 91.8849 157.753C92.9991 159.944 95.1161 163.361 96.2488 164.791C96.8988 165.608 98.9415 167.187 99.1643 167.038C99.2386 166.982 99.4058 167.075 99.5357 167.224C99.74 167.465 99.6843 167.502 99.2015 167.502C98.8115 167.502 98.403 167.298 97.9573 166.927C97.5302 166.537 97.3073 166.444 97.3073 166.629C97.3073 167.465 99.3872 168.802 100.706 168.802C101.3 168.802 101.578 168.654 102.377 167.892C102.916 167.409 104.067 166.518 104.958 165.942C106.834 164.717 107.577 163.937 108.245 162.488C108.932 161.003 108.895 159.591 108.115 158.199C107.781 157.623 107.521 157.047 107.521 156.899C107.521 156.75 107.818 156.323 108.189 155.97C109.118 155.097 109.564 154.076 109.564 152.776C109.564 150.808 108.171 149.081 106.407 148.839C105.905 148.765 105.404 148.765 105.292 148.839C105.014 149.006 105.051 148.876 105.608 147.911C105.98 147.224 106.128 146.685 106.184 145.571C106.295 143.547 105.831 142.173 104.011 139.109C101.356 134.689 101.226 133.482 103.045 129.378C104.123 126.927 104.345 126.072 104.364 124.364C104.364 121.578 102.897 120.854 99.74 122.098C97.5116 122.971 93.6305 125.46 91.4949 127.391L90.2507 128.542L89.5636 127.112C88.8951 125.701 88.8951 125.627 88.7651 122.73C88.6537 120.13 88.5794 119.703 88.1894 118.904C87.5023 117.586 86.351 117.047 84.9582 117.419ZM87.558 120.743C87.9109 121.653 88.1708 124.513 87.8552 124.048C87.7437 123.9 87.6509 123.491 87.6509 123.175C87.6509 122.841 87.4838 122.136 87.2795 121.597C87.0752 121.058 86.9081 120.464 86.9081 120.279C86.9081 119.703 87.2238 119.944 87.558 120.743ZM83.6212 120.409C83.6954 120.594 83.6397 120.65 83.4726 120.576C83.324 120.52 83.2498 120.409 83.3055 120.316C83.4355 120.093 83.5097 120.111 83.6212 120.409ZM84.7354 121.411C84.9025 121.578 85.1996 122.098 85.4039 122.544L85.7567 123.361L85.3668 123.918L84.9582 124.457L84.8282 123.213C84.7725 122.544 84.5682 121.783 84.4197 121.523C84.0669 121.003 84.2897 120.929 84.7354 121.411ZM103.491 123.064C103.64 123.25 103.825 123.621 103.9 123.881C104.067 124.568 103.435 127.057 102.34 129.898L101.43 132.312L101.3 131.383C101.244 130.864 101.151 130.306 101.114 130.121C101.077 129.935 101.318 129.415 101.653 128.988C102.581 127.781 103.138 126.332 103.138 125.125C103.157 124.197 103.083 123.993 102.656 123.547C102.08 122.971 101.764 123.083 102.21 123.714C102.693 124.383 102.581 125.107 101.838 126.11C101.467 126.611 101.151 127.019 101.114 127.019C101.077 127.019 101.151 126.667 101.3 126.258C101.69 125.162 101.653 124.011 101.207 123.435C100.761 122.878 100.891 122.786 102.247 122.767C102.934 122.748 103.268 122.841 103.491 123.064ZM101.393 135.079C101.393 135.32 101.448 135.803 101.504 136.137L101.616 136.769L101.226 136.397C100.929 136.1 100.873 135.877 100.966 135.32C101.077 134.559 101.393 134.373 101.393 135.079ZM101.95 139.499C101.95 139.87 101.783 140.706 101.578 141.356C101.17 142.637 101.096 143.918 101.411 144.234C101.541 144.364 101.541 144.68 101.393 145.274C101.263 145.738 101.207 146.574 101.244 147.149L101.3 148.189H100.613C100.223 148.189 99.9071 148.152 99.9071 148.115C99.9071 148.078 100.111 147.669 100.371 147.242C100.947 146.24 101.003 144.735 100.501 144.104C100.186 143.714 100.186 143.658 100.836 142.377C101.411 141.188 101.486 140.91 101.486 139.536C101.486 138.236 101.523 138.069 101.708 138.403C101.838 138.626 101.931 139.109 101.95 139.499ZM103.863 141.003C105.868 144.364 105.961 146.24 104.178 147.428C103.751 147.707 103.751 147.707 103.863 147.261C104.067 146.518 104.234 144.011 104.123 143.51C104.048 143.231 103.714 142.934 103.138 142.656C102.414 142.303 102.303 142.173 102.396 141.82C102.451 141.597 102.563 140.928 102.637 140.334C102.693 139.759 102.767 139.276 102.786 139.276C102.804 139.276 103.287 140.056 103.863 141.003ZM105.348 149.526C105.274 149.656 105.237 149.916 105.255 150.102C105.311 150.418 105.292 150.418 104.754 150.158C104.457 149.991 104.048 149.861 103.863 149.861C103.305 149.842 104.383 149.322 104.977 149.304C105.348 149.304 105.46 149.378 105.348 149.526ZM108.449 150.826C108.895 151.551 108.951 153.11 108.561 154.002C108.431 154.336 108.078 154.8 107.799 155.06C107.354 155.469 107.298 155.487 107.409 155.153C107.688 154.225 107.892 152.683 107.892 151.513C107.892 150.808 107.929 150.232 107.985 150.232C108.041 150.232 108.245 150.511 108.449 150.826ZM105.924 152.312C105.868 152.405 105.757 153.24 105.682 154.132L105.571 155.803L104.958 155.32L104.364 154.837L104.81 154.299C105.311 153.705 105.645 152.72 105.682 151.811C105.682 151.272 105.701 151.272 105.868 151.681C105.961 151.922 105.98 152.201 105.924 152.312ZM87.1866 153.148C87.3538 153.853 87.1866 153.853 86.7781 153.148C86.5738 152.795 86.2396 152.275 86.0539 151.978C85.7196 151.439 85.7382 151.439 86.3881 152.071C86.7595 152.405 87.1123 152.906 87.1866 153.148ZM106.778 157.92C106.778 158.83 106.202 160.149 105.627 160.631C105.032 161.114 105.014 160.966 105.552 160.167C106.128 159.331 106.295 158.477 106.165 157.233L106.054 156.267L106.407 156.713C106.648 156.992 106.778 157.419 106.778 157.92ZM107.892 160.483C107.892 161.3 107.391 162.396 106.778 162.953L106.351 163.324L106.685 162.674C106.908 162.266 107.057 161.467 107.112 160.464C107.205 158.886 107.205 158.886 107.539 159.313C107.744 159.573 107.892 160.037 107.892 160.483ZM102.321 162.953C102.191 163.101 102.024 163.175 101.931 163.12C101.69 162.971 101.913 162.674 102.266 162.674C102.507 162.674 102.507 162.73 102.321 162.953ZM103.807 164.624C103.807 164.772 100.966 167.131 100.873 167.057C100.836 167.001 101.058 166.592 101.374 166.128C101.968 165.274 102.358 164.977 103.231 164.698C103.491 164.624 103.733 164.55 103.77 164.55C103.788 164.531 103.807 164.568 103.807 164.624Z" fill="#1E009F"/>
<path d="M82.507 124.085C82.1913 124.475 81.9127 125.682 81.6899 127.762C81.5042 129.526 81.5227 130.065 82.0056 133.928C82.2841 136.249 82.5627 138.124 82.5998 138.069C82.637 138.032 82.5255 136.342 82.3398 134.299C82.0241 130.771 82.0241 130.529 82.3398 128.672C82.9341 125.144 83.0455 124.197 82.8598 124.011C82.767 123.918 82.6184 123.937 82.507 124.085Z" fill="#1E009F"/>
<path d="M86.2024 127.521C85.9053 128.115 85.5153 129.007 85.3668 129.526C84.8654 131.068 83.584 135.822 83.6583 135.896C83.6769 135.933 83.8069 135.655 83.9369 135.283C84.0483 134.93 84.7168 133.426 85.4225 131.978C86.7967 129.081 87.3352 127.614 87.2423 127.001C87.1309 126.24 86.7409 126.425 86.2024 127.521Z" fill="#1E009F"/>
<path d="M76.4531 126.945C76.2489 127.15 76.3046 128.487 76.5089 128.895C76.6203 129.081 76.8988 129.248 77.1402 129.248C77.5488 129.248 77.5859 129.322 77.6045 130.344C77.6231 132.349 79.0344 138.273 80.1857 141.226C80.5943 142.247 80.9657 143.25 81.0214 143.454C81.0957 143.807 81.1142 143.807 81.1328 143.435C81.1699 142.86 80.3714 139.907 79.4986 137.382C78.273 133.816 77.9759 132.479 77.8645 130.121C77.8088 128.932 77.6973 127.948 77.6416 127.948C77.5673 127.948 77.4002 128.059 77.2702 128.171C77.0474 128.375 77.0288 128.338 77.1588 128.041C77.4374 127.335 77.3631 126.927 76.9731 126.871C76.7503 126.834 76.5274 126.871 76.4531 126.945Z" fill="#1E009F"/>
<path d="M70.5664 131.105C70.2879 131.606 70.585 132.609 71.2349 133.482C71.532 133.853 72.4791 134.912 73.3519 135.84C74.2247 136.75 75.4689 138.199 76.1003 139.034C76.7502 139.889 77.3073 140.576 77.3445 140.576C77.5302 140.576 73.5562 135.19 72.2934 133.742C71.0678 132.331 70.6778 131.662 71.0864 131.662C71.1792 131.662 71.3463 131.848 71.4578 132.071C71.6435 132.479 71.662 132.479 71.662 131.978C71.6992 130.901 70.9749 130.344 70.5664 131.105Z" fill="#1E009F"/>
<path d="M96.9359 133.222C94.0947 134.28 90.2692 137.215 88.4679 139.759C87.6694 140.891 84.8096 146.537 84.9768 146.685C85.0882 146.815 85.1067 146.797 86.4067 144.067C88.0037 140.78 89.0436 139.647 93.3519 136.546C96.4902 134.28 98.1244 132.981 97.7716 132.981C97.6787 132.981 97.2887 133.092 96.9359 133.222Z" fill="#1E009F"/>
<path d="M39.6657 136.787C38.6629 138.719 37.2702 140.297 35.1718 141.894C31.6434 144.605 31.2906 145.2 31.2906 148.468C31.2906 150.399 31.3463 150.826 31.7177 151.643C32.1634 152.628 33.4262 154.058 33.4262 153.575C33.4262 153.389 33.4819 153.37 33.6304 153.519C33.8161 153.705 33.7047 153.983 33.1291 154.838C33.0919 154.875 32.5348 154.689 31.8663 154.429C30.9378 154.058 30.5664 153.983 30.195 154.132C29.675 154.318 29.415 154.986 29.6007 155.692C29.7493 156.267 29.3222 156.639 27.9294 157.122C26.2395 157.716 23.8254 157.79 21.9684 157.326C18.8301 156.527 17.1773 155.395 15.1903 152.683C14.4661 151.699 13.5005 150.492 13.0176 149.991L12.182 149.118H12.8319C13.2033 149.118 15.1532 148.802 17.1959 148.431C20.39 147.837 21.2628 147.744 23.6769 147.725C26.221 147.725 26.5552 147.762 27.4466 148.171C28.0223 148.431 28.7279 148.969 29.155 149.434C29.8607 150.251 30.6407 151.922 30.6407 152.646C30.6407 152.851 30.7149 153.018 30.8078 153.018C31.0863 153.018 30.4921 150.789 29.8793 149.545C28.7094 147.149 26.5367 145.664 23.8811 145.46C22.117 145.33 20.9285 145.552 17.0845 146.797C13.9833 147.799 11.6992 148.264 10.4364 148.152C9.84215 148.097 9.7493 148.152 9.69359 148.524C9.65645 148.747 9.7493 148.969 9.87929 149.006C10.0093 149.044 10.4735 149.174 10.9006 149.285C11.9777 149.582 13.5005 151.012 15.0789 153.259C16.8245 155.71 17.623 156.472 19.4057 157.307C22.3213 158.682 25.6453 158.942 27.7809 157.957L28.7465 157.512L29.0251 158.236C29.1736 158.626 29.2665 159.109 29.2108 159.313C29.0993 159.759 29.5265 160.576 30.2693 161.281L30.8635 161.838L30.7335 164.067C30.5478 167.837 30.0464 169.248 28.4122 170.715C27.1123 171.885 25.7567 172.293 22.3955 172.516C20.9471 172.609 19.4615 172.702 19.0715 172.702H18.3473L18.9415 172.219C19.2572 171.941 19.9071 171.049 20.39 170.214C21.0585 169.099 21.5227 168.561 22.1727 168.097C22.6741 167.781 22.9712 167.502 22.8598 167.502C22.7298 167.502 22.6741 167.447 22.7112 167.354C22.8598 167.131 23.2683 161.913 23.1569 161.801C23.0826 161.746 22.6741 161.913 22.2098 162.191C21.1142 162.841 20.5014 163.9 19.8329 166.332C19.2386 168.505 18.8301 169.396 17.8459 170.752C16.8431 172.108 16.8245 172.126 17.1959 172.535C17.5116 172.888 17.493 172.888 16.6574 172.888H15.8031L16.1374 172.089C16.3231 171.662 16.8245 170.251 17.2516 168.951C17.7901 167.317 18.3287 166.147 18.9229 165.237C19.9814 163.621 21.8941 161.783 23.1383 161.17C24.3083 160.613 26.0353 160.483 27.0009 160.891C27.8366 161.244 27.8551 161.244 27.8551 161.021C27.8551 160.78 26.3881 160.13 25.5339 160C24.6239 159.851 22.8598 160.297 21.7827 160.929C19.7957 162.08 18.6258 163.77 17.233 167.502C16.8245 168.579 16.286 169.898 16.026 170.455C15.5989 171.328 14.3361 172.795 13.3148 173.593C12.9805 173.853 12.8691 175.116 13.1848 175.116C13.2776 175.116 13.779 174.949 14.3175 174.745C16.7131 173.798 17.8087 173.593 21.6342 173.445C26.0353 173.278 26.8709 173.055 28.5051 171.569C30.2693 169.954 30.9935 167.707 31.0121 163.825V161.931H31.662C32.1263 161.931 32.4791 161.783 32.7762 161.486C33.1476 161.114 33.259 161.077 33.4447 161.3C33.5562 161.43 33.9461 161.597 34.299 161.671C34.8561 161.783 34.9304 161.857 34.8189 162.191C34.5589 163.008 34.4847 166.332 34.7075 167.001C34.9861 167.855 35.896 168.635 37.4745 169.434L38.7372 170.065L38.7744 169.489C38.7929 169.155 38.9044 167.874 39.0158 166.611C39.1829 164.865 39.1829 164.271 39.0158 164.104C38.9044 163.993 38.2358 163.547 37.5487 163.138C36.6017 162.563 36.286 162.284 36.2488 161.913C36.1745 161.337 36.6574 160.854 37.0102 161.151C37.1216 161.263 37.7716 161.486 38.4401 161.653C41.0771 162.303 42.0056 162.711 42.8041 163.491C44.2525 164.958 44.4568 167.298 43.454 171.235C42.5627 174.819 42.5255 174.93 42.3212 174.93C42.2284 174.93 41.9313 174.466 41.6713 173.909C41.0771 172.665 40 171.718 37.4187 170.102C33.4633 167.651 32.5719 166.035 33.909 163.621C34.5775 162.396 34.429 161.857 33.6304 162.656C32.8691 163.417 32.6277 165.887 33.1476 167.614C33.519 168.858 34.299 169.619 37.1402 171.476C39.7586 173.203 41.0956 174.448 41.8384 175.877C42.117 176.416 42.3398 176.825 42.3398 176.787C42.3584 176.732 42.7855 175.06 43.2869 173.073C44.0111 170.306 44.2525 169.007 44.3268 167.558C44.4568 165.255 44.234 164.364 43.2498 162.953L42.5441 161.931H43.714C46.6109 161.931 48.5979 161.096 50.6964 158.979C51.5134 158.162 52.3305 157.122 52.6462 156.509C52.9619 155.915 53.3147 155.432 53.4262 155.432C53.8533 155.432 57.1773 156.565 58.4401 157.122C59.9257 157.79 62.8226 159.499 63.6026 160.167L64.1597 160.65L63.4726 160.539C61.5227 160.223 54.0018 159.907 54.2433 160.149C54.2804 160.204 56.0446 160.409 58.1244 160.631C60.2228 160.854 62.6927 161.151 63.6026 161.281L65.2739 161.523L66.351 162.693C67.818 164.29 68.7651 166.24 68.7651 167.669C68.7651 170.826 65.6267 173.203 59.0529 175.023C52.7391 176.787 49.5079 178.087 46.2395 180.186C44.7539 181.133 44.5497 181.207 42.8969 181.411C40.3528 181.746 35.9888 182.637 34.2618 183.194C29.6564 184.68 23.844 188.561 21.2999 191.829C19.6843 193.872 18.7558 196.082 18.7558 197.883C18.7558 199.982 20.0928 201.95 22.2284 203.008C23.3055 203.528 23.6954 203.621 25.2739 203.677C27.818 203.788 29.2108 203.324 30.6778 201.857C31.8477 200.687 32.312 199.554 32.312 197.902C32.312 194.225 29.3222 192.869 26.9452 195.45C25.9796 196.509 25.7939 197.159 26.3695 197.623C27.1123 198.217 27.6694 197.92 27.0195 197.27C26.8524 197.122 26.7409 196.843 26.7781 196.676C26.8709 196.212 28.3008 195.525 29.4336 195.413C30.3992 195.32 30.4735 195.339 31.0863 195.952C31.8663 196.732 32.0706 197.642 31.7734 198.942C31.4763 200.223 30.9749 200.984 29.935 201.671C27.1309 203.528 22.5627 202.99 20.3528 200.539C17.4559 197.307 19.8886 192.368 26.6481 187.855C31.0863 184.865 34.8189 183.603 42.0241 182.637L42.9341 182.526L41.9127 183.714C39.5729 186.462 38.4215 189.675 37.9758 194.708C37.5116 199.87 39.9814 202.86 44.4382 202.544C47.8737 202.303 50.7892 199.554 51.1978 196.156C51.2535 195.71 51.3835 195.413 51.4763 195.469C51.5692 195.525 51.5877 195.729 51.532 195.933C51.3835 196.379 51.662 196.397 52.052 195.952C52.9248 194.986 53.2033 193.092 53.0176 189.489L52.8876 186.964L52.2748 187.558C51.4206 188.375 50.7706 189.675 50.5292 190.975C50.2321 192.628 50.2693 195.525 50.6035 196.175C50.8635 196.657 50.8449 196.769 50.4735 197.53C49.9164 198.626 48.338 200.093 47.0381 200.706C46.1095 201.133 45.7196 201.207 44.1968 201.207C42.2655 201.207 41.5227 200.947 40.2228 199.796C38.5515 198.347 38.013 195.339 38.7929 191.978C39.2386 190.046 39.5543 189.341 39.5543 190.251C39.5729 192.702 43.1569 195.432 45.5153 194.8C46.6852 194.485 46.4252 194.113 44.9396 194.02C41.9313 193.798 39.3686 191.365 39.8514 189.174C40.2414 187.391 42.9341 184.958 46.6109 183.083L48.1894 182.284L51.9034 182.154C55.9517 182.006 57.6044 181.82 59.8886 181.226C64.8096 179.981 69.415 176.695 71.272 173.129C72.2377 171.272 72.2934 170.696 71.3649 172.331C70.4735 173.872 68.1151 176.249 66.221 177.512C63.4726 179.369 60.9842 180.279 57.5487 180.669C55.6546 180.891 51.9963 181.021 51.9963 180.873C51.9963 180.817 52.5534 180.576 53.259 180.334C59.7586 178.087 64.0297 175.729 66.6481 172.981C68.3937 171.124 68.9508 169.972 69.0436 167.967C69.1365 166.165 68.6722 164.624 67.5766 162.971L66.8524 161.894L67.3723 162.006C68.9693 162.396 70.5107 163.454 71.5506 164.903L71.8663 165.367L71.6063 164.81C71.0121 163.547 68.9136 161.987 66.9452 161.374C66.5367 161.244 65.5339 160.594 64.7168 159.944C62.3027 158.013 59.48 156.49 56.5645 155.543C55.8217 155.302 53.7047 154.782 51.8849 154.429C50.0464 154.058 47.3537 153.389 45.8867 152.925C44.4011 152.461 43.1569 152.145 43.1012 152.182C43.0641 152.238 43.0641 152.293 43.1012 152.331C43.4169 152.535 50.6964 154.875 51.0306 154.875C51.2535 154.875 51.4392 154.968 51.4392 155.079C51.4392 155.376 49.3036 155.116 46.5181 154.466C43.3426 153.723 40.7985 153.649 39.5914 154.28C38.8115 154.689 38.0687 155.617 38.0687 156.175C38.0687 156.323 38.2358 156.175 38.4401 155.84C38.6815 155.45 39.1458 155.079 39.6843 154.838C40.8914 154.299 43.3055 154.466 46.4252 155.283C48.3008 155.766 49.1179 155.877 50.6592 155.896C51.6992 155.896 52.5534 155.952 52.5534 156.026C52.5534 156.212 51.3278 157.604 50.6221 158.217C49.5265 159.183 48.338 159.889 46.8895 160.464C45.6267 160.966 45.1439 161.059 43.7326 161.077C41.9684 161.096 40.9842 160.836 39.87 160.037C39.3872 159.684 39.3686 159.629 39.6472 159.461C39.8329 159.369 40.8542 159.257 41.9498 159.201C44.3454 159.09 45.1253 158.904 44.9953 158.422C44.9582 158.236 44.9953 157.66 45.0882 157.122C45.2553 156.193 45.2368 156.156 44.7168 155.71C44.1225 155.209 43.2683 154.986 41.8384 154.986C40.0557 154.968 39.1458 156.156 39.1272 158.477C39.1086 159.201 39.1829 159.944 39.2572 160.111C39.3872 160.409 39.2943 160.446 38.3658 160.39C37.3259 160.353 37.3259 160.353 37.3259 159.777C37.3259 159.461 37.1959 159.09 37.0473 158.96C36.8431 158.793 36.8245 158.663 36.9545 158.496C37.6787 157.623 37.4187 155.952 36.546 155.747C36.2488 155.673 36.026 155.413 35.8589 154.968C35.7289 154.596 35.506 154.243 35.3575 154.188C34.9861 154.039 35.0418 153.816 35.4875 153.705C35.7103 153.649 35.8403 153.538 35.7846 153.445C35.7289 153.37 35.8031 152.312 35.9146 151.105L36.1374 148.895L35.5989 148.449L35.0789 148.004L35.4503 147.484C35.6546 147.187 35.9517 146.852 36.1003 146.722C36.2674 146.574 36.416 145.924 36.4902 144.698C36.5645 143.714 36.6945 142.711 36.7874 142.47C36.8988 142.191 36.8802 142.08 36.7688 142.154C36.3788 142.396 36.6202 142.043 37.5673 140.984C38.0873 140.39 38.8672 139.294 39.2572 138.57C39.6657 137.827 40.0371 137.233 40.0928 137.233C40.2785 137.233 42.3212 144.884 42.4512 146.054C42.5812 147.428 42.2655 149.266 41.6899 150.418C40.9285 151.903 39.2386 153.222 37.6044 153.556C37.2888 153.63 37.0473 153.798 37.0473 153.946C37.0473 154.169 37.3259 154.225 38.2915 154.225C39.3872 154.225 39.5914 154.169 40.2228 153.649C41.6899 152.479 42.8969 149.489 42.8969 147.094C42.8969 145.46 42.6184 144.141 41.5784 140.966C41.1699 139.703 40.7242 137.939 40.5942 137.066L40.3714 135.469L39.6657 136.787ZM33.8719 144.513C33.0733 146.091 32.8505 147.057 32.7391 149.489C32.6648 151.365 32.6834 151.941 32.9248 152.516C33.3148 153.408 32.9805 153.222 32.2934 152.126C31.6806 151.142 31.6434 150.604 32.0148 147.317C32.1448 146.11 32.3491 145.125 32.5162 144.921C32.7576 144.624 34.1504 143.547 34.299 143.547C34.3361 143.547 34.1504 143.974 33.8719 144.513ZM35.3203 155.06C35.9146 155.58 35.9146 155.599 35.506 155.617C34.7632 155.617 35.0789 156.249 35.8774 156.379C37.4745 156.639 37.6044 157.79 36.0817 158.199C35.2832 158.422 35.3203 158.886 36.2117 159.331C36.6388 159.554 36.9545 159.814 36.8988 159.944C36.7874 160.316 35.8589 160.669 34.6889 160.761C33.6862 160.854 33.5747 160.836 33.4819 160.464C33.3519 159.963 33.2776 159.981 32.8319 160.539C32.3491 161.151 31.3092 161.17 30.455 160.576C29.675 160.056 29.5636 159.74 30.1207 159.666C30.7521 159.573 30.6407 159.053 29.8979 158.552C29.3965 158.217 29.2479 157.976 29.2479 157.567C29.2479 157.047 29.3036 157.01 29.8979 157.029C30.2507 157.029 30.7149 157.103 30.9006 157.196C31.1978 157.326 31.2349 157.289 31.1606 156.955C31.0678 156.657 31.1421 156.546 31.4577 156.49C31.8106 156.435 31.792 156.397 31.2906 156.212C30.2135 155.766 29.8979 155.543 29.8979 155.227C29.8979 154.466 31.8663 154.633 32.5905 155.432C32.9619 155.84 33.2405 155.915 33.2405 155.58C33.2405 155.227 34.0204 154.503 34.3918 154.503C34.5775 154.503 34.9861 154.745 35.3203 155.06ZM52.7205 190.288C52.7019 192.665 52.4791 192.535 52.2563 190.028C52.1263 188.654 52.2191 188.115 52.5534 188.115C52.6648 188.115 52.7391 188.914 52.7205 190.288ZM51.0863 190.362C50.9935 190.604 50.9006 190.715 50.9006 190.585C50.8821 190.306 51.0863 189.749 51.1792 189.842C51.2349 189.879 51.1792 190.121 51.0863 190.362ZM51.6249 193.259C51.5134 193.798 51.3278 194.243 51.2349 194.243C50.9749 194.243 51.0306 193.036 51.402 191.681L51.7177 190.436L51.7734 191.365C51.8106 191.866 51.7363 192.739 51.6249 193.259Z" fill="#1E009F"/>
<path d="M32.5348 157.326C32.2191 157.642 32.2563 158.682 32.6091 158.979C32.9991 159.294 33.4633 158.997 33.649 158.31C33.7419 157.92 33.7233 157.846 33.5747 157.994C33.2962 158.273 32.6834 158.292 32.6834 158.032C32.6834 157.92 32.8876 157.753 33.1476 157.623C33.389 157.512 33.5562 157.344 33.5004 157.27C33.3519 157.029 32.7948 157.066 32.5348 157.326Z" fill="#1E009F"/>
<path d="M45.9053 137.01C45.6082 137.289 45.1625 137.902 44.9211 138.347C44.5311 139.071 44.4754 139.424 44.4754 141.151C44.4754 143.083 44.494 143.138 45.2553 144.698C45.8682 145.924 46.4438 146.704 47.8552 148.208C48.8579 149.266 49.8793 150.381 50.1021 150.696C50.5107 151.216 50.5107 151.179 50.0464 150.325C49.7864 149.805 48.9508 148.691 48.1708 147.818C45.9239 145.274 45.441 144.475 45.2739 143.027C45.1996 142.34 45.1439 141.058 45.1439 140.186L45.1254 138.57L45.7753 137.994C47.0381 136.899 48.6537 137.419 48.6537 138.941C48.6537 139.666 48.1151 140.483 47.5395 140.669C47.3352 140.743 47.1681 140.947 47.1681 141.151C47.1681 142.006 48.9137 140.799 49.1365 139.796C49.3036 138.997 48.8765 137.66 48.2451 137.029C47.5209 136.305 46.6667 136.305 45.9053 137.01Z" fill="#1E009F"/>
<path d="M96.0446 139.74C94.4104 140.297 92.0706 141.449 90.3993 142.544C89.2293 143.306 86.0724 146.11 86.221 146.277C86.2767 146.314 87.2052 145.701 88.3194 144.921C91.0678 143.008 93.5376 141.838 96.1189 141.244C98.3473 140.743 99.9072 140.13 99.9072 139.74C99.9072 139.109 97.883 139.127 96.0446 139.74Z" fill="#1E009F"/>
<path d="M52.0149 142.656C49.2851 143.435 48.7094 146.592 50.585 150.548C51.3278 152.108 51.6435 152.386 50.9749 150.919C49.7307 148.078 49.4336 145.775 50.195 144.661C50.8449 143.677 51.6806 143.287 53.0919 143.287C55.0789 143.287 56.7317 144.401 56.6017 145.664C56.546 146.165 56.3788 146.314 55.3389 146.852C54.0947 147.484 53.8719 147.688 54.2247 147.911C54.6147 148.152 55.6918 147.799 56.2489 147.242C57.7716 145.72 56.6388 143.157 54.1876 142.637C53.1291 142.396 52.8691 142.396 52.0149 142.656Z" fill="#1E009F"/>
<path d="M20.3343 148.282C19.8329 148.431 18.3287 148.691 16.9916 148.839C13.909 149.211 13.3705 149.304 13.3705 149.508C13.3705 149.805 15.246 150.622 16.5088 150.901C17.7159 151.161 22.4698 151.253 21.8941 151.012C21.6527 150.901 21.6342 150.696 21.8199 149.434C22.0427 147.781 22.0613 147.799 20.3343 148.282Z" fill="#1E009F"/>
<path d="M71.3835 149.582C69.4708 149.991 68.0966 150.938 67.3538 152.349C66.7967 153.408 66.7967 155.413 67.3538 156.472C68.3009 158.254 69.7865 159.072 71.792 158.904C72.7762 158.83 73.1476 158.719 73.6862 158.273C75.3204 156.955 75.0232 154.503 73.1291 153.612C72.3306 153.222 71.1792 153.092 69.6379 153.203C69.0065 153.241 69.2108 153.296 70.3993 153.389C72.4977 153.556 73.4633 154.058 74.0762 155.32C74.5033 156.175 74.5218 156.267 74.2619 156.992C73.9276 157.957 73.3333 158.254 71.6992 158.254C69.6008 158.273 67.7995 157.215 67.3909 155.747C67.1681 154.893 67.4281 153.389 67.948 152.516C68.7651 151.179 70.4921 150.418 72.9805 150.269C74.9489 150.176 76.3231 150.436 77.9759 151.272C80.13 152.349 81.8385 154.392 82.5255 156.713C82.9155 158.013 82.9155 160.464 82.5255 161.764C81.7827 164.29 80.65 165.942 77.4002 169.304C73.9276 172.906 72.5905 174.875 71.9592 177.289C71.6249 178.552 71.6063 180.204 71.8849 181.077C72.6834 183.436 75.5989 184.55 77.9016 183.38C78.403 183.138 78.8115 182.953 78.8301 182.971C78.8487 182.99 78.9972 183.473 79.1644 184.048C79.5172 185.2 80.5571 186.537 81.6342 187.205C82.3584 187.651 82.2656 188.134 81.5228 187.744C81.2999 187.632 81.0771 187.577 81.0214 187.632C80.9657 187.688 80.6871 187.41 80.4086 187.02C79.7772 186.147 79.0529 185.701 77.2888 185.07C75.1904 184.327 73.8905 184.271 70.845 184.828C69.4151 185.088 67.7252 185.367 67.0938 185.441C66.0167 185.553 65.9239 185.59 65.9239 186.017C65.9239 186.258 66.1281 186.741 66.3696 187.057C66.611 187.391 67.2052 188.449 67.7066 189.415C68.2266 190.436 68.9694 191.532 69.4708 192.033C71.792 194.373 76.1746 194.373 78.7187 192.015C79.0529 191.699 79.3501 191.458 79.3686 191.495C79.4429 191.625 79.8515 192.591 79.8515 192.646C79.8515 192.683 79.6472 192.758 79.4243 192.832C78.3101 193.111 77.5116 194.243 76.6945 196.75C76.1189 198.533 75.6546 199.406 74.8561 200.186L74.169 200.873L73.4633 200.26C71.9777 198.979 70.1022 198.44 67.1309 198.44C62.767 198.422 59.9814 200.204 59.9814 202.971C60 205.423 62.7298 207.744 65.831 207.948C67.4281 208.041 68.2637 207.744 68.9879 206.797C69.6565 205.905 69.8422 204.438 69.3593 203.9C68.9322 203.436 68.7094 203.436 68.7094 203.9C68.7094 204.085 68.8765 204.345 69.0808 204.457C69.6379 204.754 69.5265 205.348 68.7465 206.147C67.7995 207.075 67.2609 207.187 65.3668 206.797C62.3213 206.165 60.9471 205.125 60.7614 203.343C60.6871 202.563 60.7614 202.284 61.1699 201.671C62.767 199.239 68.4866 198.459 71.8849 200.186C73.649 201.096 75.0232 202.934 75.4132 204.884C75.5432 205.478 75.6732 205.924 75.7103 205.868C75.896 205.701 75.3761 203.101 75.0232 202.414C74.819 202.006 74.6518 201.634 74.6518 201.597C74.6518 201.541 75.766 201.504 77.1217 201.523C79.2572 201.56 79.6843 201.504 80.4457 201.17C81.4299 200.724 82.377 199.573 82.5627 198.589C82.6741 197.976 83.0084 197.697 83.0084 198.199C83.0084 198.663 84.2897 199.944 85.5525 200.743C86.2396 201.189 87.5209 202.006 88.3751 202.544C89.2294 203.101 89.9536 203.51 89.9907 203.473C90.0464 203.436 90.0093 202.618 89.9165 201.653C89.7679 200.167 89.7493 200.074 89.7122 200.966C89.7122 201.56 89.6565 202.043 89.6008 202.043C89.5451 202.043 88.7651 201.541 87.8737 200.947L86.2581 199.851L86.4253 197.697C86.5367 196.267 86.6667 195.599 86.7967 195.673C86.9081 195.747 86.481 195.246 85.8496 194.559C85.1996 193.872 84.6611 193.092 84.5868 192.776C84.4383 192.033 84.2154 192.052 83.8069 192.795C83.584 193.241 83.4726 194.02 83.4169 195.599C83.3612 197.159 83.2684 197.734 83.1384 197.605C83.0084 197.475 82.9527 196.695 82.9898 195.599C83.0084 194.596 82.9898 193.835 82.9341 193.872C82.8784 193.928 82.7484 194.875 82.637 195.989C82.3213 199.034 81.7642 199.963 79.8329 200.631C79.0344 200.91 75.766 201.059 75.5246 200.817C75.4689 200.761 75.5803 200.446 75.766 200.13C75.9517 199.796 76.3417 198.774 76.6017 197.864C76.8802 196.936 77.2702 195.896 77.4373 195.543C77.883 194.67 78.9787 193.686 80.2414 192.981L81.2814 192.423L81.8199 192.776C82.5627 193.259 82.7855 193.222 83.1569 192.572C83.584 191.829 84.5126 191.773 84.8282 192.479C85.0511 192.962 86.4438 194.058 86.8524 194.058C86.9824 194.058 87.0938 194.169 87.0938 194.318C87.0938 194.466 87.5209 194.819 88.0594 195.116C89.4336 195.859 89.7493 196.379 89.8793 198.106L90.0093 199.536L90.0279 198.032C90.065 196.769 89.9907 196.397 89.6008 195.618C89.3408 195.116 89.1365 194.689 89.1365 194.652C89.1365 194.633 89.4893 194.615 89.935 194.615C90.3621 194.615 91.0492 194.448 91.4763 194.262C92.1449 193.965 92.3491 193.705 93.0548 192.275C93.9833 190.436 94.4847 189.991 96.156 189.508C97.623 189.081 98.2359 188.728 98.2359 188.319C98.2359 188.041 98.0502 187.929 97.5116 187.837C97.1217 187.781 95.6918 187.187 94.3547 186.537C93.0177 185.868 91.5506 185.237 91.0864 185.125C88.858 184.568 86.351 185.794 85.5153 187.837C85.0511 188.932 85.0511 189.304 85.4968 188.468C85.7382 188.004 86.2767 187.335 86.6853 186.964C88.4308 185.385 90.6593 185.274 93.2591 186.63C94.1133 187.075 95.2832 187.688 95.896 188.004C96.4903 188.319 96.8617 188.598 96.7317 188.635C94.299 189.397 93.6119 189.935 92.7762 191.736C92.0149 193.408 91.6249 193.686 90.1579 193.686H89.0437L89.7122 193.259C90.0836 193.036 90.3621 192.758 90.325 192.665C90.2879 192.553 90.3621 191.309 90.5107 189.879C90.6593 188.449 90.7335 187.224 90.6964 187.15C90.6593 187.094 90.7335 186.982 90.845 186.945C91.0307 186.871 91.0307 186.834 90.845 186.834C90.715 186.815 90.1207 187.02 89.5079 187.28C88.8951 187.54 88.1152 187.744 87.7623 187.744C87.0567 187.744 86.741 188.004 85.8496 189.267L85.3482 189.991L85.6639 191.309C85.8496 192.033 85.961 192.646 85.9239 192.683C85.7196 192.906 85.1811 192.163 85.1811 191.681C85.1811 191.216 85.1254 191.142 84.9211 191.291C84.7354 191.458 84.6797 191.439 84.6797 191.235C84.6797 191.031 84.5311 190.994 84.104 191.049C83.6769 191.105 83.4912 191.272 83.3426 191.662C83.1198 192.312 82.5441 192.368 81.8199 191.811C81.4299 191.495 81.2628 191.458 81.0585 191.643C80.6685 191.959 79.8515 191.718 79.8515 191.291C79.8515 191.105 79.9814 190.845 80.13 190.715C80.2786 190.585 80.4086 190.344 80.4086 190.158C80.4086 189.972 80.2786 189.786 80.13 189.712C79.6658 189.545 79.8143 189.267 80.4828 189.044C81.0028 188.877 81.2256 188.895 81.6899 189.118C82.4327 189.508 82.5813 189.489 82.1913 189.062C81.9127 188.765 81.9127 188.691 82.1541 188.487C82.4327 188.264 83.6769 188.171 83.8626 188.357C83.9183 188.412 83.8255 188.709 83.6769 189.025C83.2684 189.824 83.3055 190.158 83.8069 190.158C84.0483 190.158 84.3268 190.251 84.4568 190.381C84.6054 190.529 84.6797 190.548 84.6797 190.399C84.6797 190.288 84.4754 190.028 84.2154 189.824C83.7697 189.471 83.7697 189.434 84.0297 188.784C84.3826 187.948 84.3083 187.818 83.4355 187.651C82.247 187.428 80.4643 185.98 80.0186 184.865C79.7772 184.253 79.7215 181.207 79.9257 180C80 179.573 80.6128 178.273 81.2814 177.122C81.9499 175.97 82.6184 174.708 82.767 174.318L83.0641 173.593L83.584 175.246C83.8997 176.212 84.4568 177.4 84.9768 178.18C85.4411 178.886 85.9982 179.814 86.2024 180.223C86.741 181.263 86.8524 183.287 86.4624 184.661C86.2767 185.255 86.1839 185.775 86.221 185.812C86.4067 185.998 87.2981 183.51 87.4095 182.544C87.5023 181.597 87.4466 181.319 86.9638 180.279C86.6667 179.647 85.9053 178.329 85.2739 177.382C83.974 175.395 83.3798 173.76 83.3612 172.071V170.938L83.0084 172.312C82.8041 173.073 82.3213 174.28 81.9127 175.005C81.5228 175.729 80.8357 176.992 80.39 177.809C79.9443 178.626 79.4058 179.926 79.1829 180.687C78.8115 182.006 78.7558 182.098 77.9759 182.488C76.4346 183.306 73.9647 182.916 73.0177 181.727C71.922 180.334 72.052 177.772 73.3519 175.153C74.039 173.798 74.5033 173.222 77.2331 170.418C78.9415 168.654 80.5943 166.834 80.9285 166.351C82.5441 163.993 83.3055 161.411 83.1569 158.7C82.7855 152.275 77.5673 148.227 71.3835 149.582ZM77.6416 185.887C79.1087 186.37 80.1671 187.057 80.4643 187.688C80.65 188.097 80.6128 188.208 80.2971 188.468C79.7586 188.895 79.4429 189.527 79.4801 190.121C79.4986 190.399 79.5172 190.715 79.4986 190.826C79.4615 191.179 76.286 192.535 74.9861 192.758C72.8691 193.129 70.845 192.479 69.4708 190.994C68.7465 190.214 66.9267 186.871 67.1124 186.685C67.1495 186.63 67.818 186.481 68.5608 186.351C69.3036 186.202 70.6778 185.924 71.5878 185.72C73.6676 185.237 75.8775 185.311 77.6416 185.887Z" fill="#1E009F"/>
<path d="M67.9666 187.001C67.9666 187.094 68.1709 187.317 68.4308 187.484C68.6908 187.651 69.4336 188.505 70.0836 189.396C71.4021 191.198 72.1077 191.903 72.7948 192.163L73.2591 192.331L73.3148 190.845C73.3519 190.028 73.4448 188.821 73.519 188.171C73.649 187.019 73.649 186.982 73.2776 187.075C72.0334 187.372 70.9564 187.391 69.8979 187.112C68.5794 186.778 67.9666 186.741 67.9666 187.001Z" fill="#1E009F"/>
<path d="M90.7521 150.176C90.6778 150.288 91.0864 150.399 91.792 150.474C92.7391 150.548 93.3705 150.789 95.3203 151.811C97.9759 153.185 99.0529 153.575 100.26 153.575C101.337 153.575 102.507 152.925 102.507 152.331C102.507 151.699 101.913 151.551 99.0158 151.421C96.8431 151.309 96.2488 151.216 94.9861 150.752C93.4262 150.176 90.9564 149.842 90.7521 150.176Z" fill="#1E009F"/>
<path d="M92.4048 154.095C92.3491 154.188 92.5905 154.355 92.9433 154.466C93.2776 154.596 94.5032 155.413 95.6732 156.267C98.1059 158.106 100 159.146 100.836 159.146C101.597 159.146 103.807 158.366 103.807 158.106C103.807 157.79 102.098 156.249 101.281 155.84C100.891 155.636 99.6472 155.283 98.5144 155.079C97.4002 154.856 95.9331 154.503 95.2832 154.299C94.0761 153.928 92.5719 153.835 92.4048 154.095Z" fill="#1E009F"/>
<path d="M63.8626 163.881C63.7883 165.125 63.6583 165.775 63.3426 166.425C62.2656 168.654 59.3686 170.492 56.9174 170.511C54.9304 170.529 53.4262 168.969 54.039 167.502C54.3918 166.667 56.2303 166.091 57.0102 166.574C57.2331 166.722 57.2331 166.76 56.9545 166.871C56.5645 167.019 56.546 167.372 56.9359 167.707C57.1774 167.892 57.2516 167.892 57.4002 167.669C57.7159 167.224 57.4373 166.147 56.8988 165.664C56.4717 165.311 56.2489 165.255 55.5432 165.33C54.8561 165.404 54.5775 165.571 54.0204 166.165C53.1848 167.057 52.9619 167.967 53.2776 169.174C53.7419 170.919 55.0975 172.015 56.8245 172.015C60.65 172.015 64.8097 166.908 64.104 163.046C63.9555 162.266 63.9369 162.34 63.8626 163.881Z" fill="#1E009F"/>
<path d="M82.5256 175.84C81.8385 176.899 81.5042 178.124 81.3928 180.13C81.2628 182.303 81.5228 183.677 82.3027 184.884L82.897 185.794L83.1941 182.915C83.3984 180.966 83.4355 179.926 83.3055 179.666C83.1941 179.461 83.1384 178.347 83.1755 177.196C83.2127 176.063 83.1755 175.116 83.1198 175.116C83.0641 175.116 82.8041 175.45 82.5256 175.84Z" fill="#1E009F"/>
<path d="M81.7642 189.916C81.4114 190.046 81.4671 190.399 81.8756 190.659C82.1541 190.845 82.247 190.826 82.3398 190.622C82.4512 190.325 82.3027 189.786 82.0984 189.805C82.0427 189.805 81.8756 189.861 81.7642 189.916Z" fill="#1E009F"/>
<path d="M79.1272 198.069C78.8858 198.31 78.2359 198.737 77.6973 198.997C76.7688 199.443 76.6945 199.517 76.6945 200.111V200.743L77.6416 200.26L78.5887 199.796L79.0715 200.223C79.3315 200.464 79.4615 200.52 79.3872 200.39C79.1829 200.037 79.2758 198.347 79.4986 197.92C79.74 197.474 79.6472 197.512 79.1272 198.069Z" fill="#1E009F"/>
<path d="M35.6917 200.371C35.6917 200.631 35.7289 200.724 35.7846 200.594C35.8217 200.483 35.8217 200.26 35.7846 200.13C35.7289 200.019 35.6917 200.111 35.6917 200.371Z" fill="#1E009F"/>
<path d="M83.3983 201.318C83.2683 201.764 82.8412 202.767 82.4513 203.528C82.0799 204.29 81.2813 206.258 80.6871 207.892C79.2572 211.922 78.7558 212.813 76.9731 214.596C75.4318 216.137 73.9276 217.14 72.7948 217.363C72.442 217.419 70.6035 217.883 68.7094 218.384C66.8152 218.886 65.0696 219.331 64.8097 219.387C64.5497 219.443 64.9768 219.443 65.7382 219.406C66.4995 219.35 68.338 219.053 69.8236 218.756C80.2786 216.546 84.9211 216.62 89.8793 219.071C93.2219 220.724 95.9517 224.141 96.156 226.945C96.3974 230.344 92.702 232.628 87.9666 231.978C84.3268 231.495 82.2656 230.176 81.6713 227.985C81.467 227.168 81.467 227.02 81.8013 226.407C82.3398 225.404 83.1941 225.033 84.6797 225.125C86.6667 225.255 87.5952 225.961 86.9824 226.871C86.7409 227.261 86.5738 227.317 85.961 227.261C85.3853 227.205 85.2368 227.261 85.2368 227.502C85.2368 227.929 85.701 228.264 86.2024 228.189C87.2795 228.041 87.8737 225.812 87.0752 224.81C86.481 224.067 84.8839 223.658 83.6212 223.955C81.8384 224.345 80.9656 225.441 80.9656 227.261C80.9656 230.306 82.8227 232.423 86.2581 233.333C87.558 233.668 90.0093 233.705 91.402 233.408C94.2618 232.795 96.286 230.808 96.6574 228.227C97.0474 225.608 95.1903 221.708 92.5348 219.573C91.2163 218.533 88.5608 217.233 86.8524 216.825C83.9183 216.1 80.0929 216.007 76.7502 216.602C76.0074 216.732 75.3946 216.787 75.4132 216.732C75.4132 216.676 75.766 216.36 76.1931 216.063C77.9573 214.782 79.4243 212.368 80.7057 208.728C81.0771 207.651 81.7827 205.905 82.2656 204.828C83.2683 202.637 83.8254 201.058 83.714 200.724C83.6769 200.594 83.5283 200.873 83.3983 201.318Z" fill="#1E009F"/>
<path d="M35.8589 201.133C35.8403 201.671 36.6017 203.807 37.4373 205.478C40.39 211.495 47.0752 216.249 54.9675 217.939C56.156 218.199 57.3631 218.273 59.7957 218.292C62.6184 218.292 63.2684 218.236 64.7168 217.846C67.9109 217.029 70.9749 215.283 72.702 213.333C73.5562 212.349 75.2089 209.341 75.2089 208.746C75.2089 208.579 75.0418 208.802 74.8375 209.229C73.5933 212.015 70.5664 214.67 67.1866 215.97C64.6054 216.973 62.4884 217.326 59.2386 217.344C54.8561 217.344 51.3835 216.527 47.4838 214.54C42.0242 211.755 38.1801 207.558 36.3974 202.377C36.1003 201.523 35.8589 200.966 35.8589 201.133Z" fill="#1E009F"/>
<path d="M102.786 201.616C101.096 201.82 99.3872 202.396 97.0288 203.584C93.5748 205.311 92.572 205.664 89.0622 206.425C84.8654 207.317 83.2869 207.892 81.727 209.081C81.1513 209.526 80.0371 211.012 80.0371 211.346C80.0371 211.421 80.4828 211.049 81.0214 210.511C81.9684 209.564 84.4011 208.171 85.1254 208.171C85.4968 208.171 87.8366 209.211 87.8366 209.378C87.8366 209.452 87.688 209.452 87.5209 209.396C87.3538 209.322 87.5766 209.601 88.0409 209.991C88.5237 210.418 89.2293 211.383 89.7493 212.331C90.9007 214.41 91.532 215.097 92.8134 215.729C93.7605 216.193 94.0576 216.249 95.7289 216.249C97.2702 216.23 97.9759 216.119 99.7957 215.599C101.671 215.079 101.95 214.949 101.56 214.819C101.318 214.726 100.929 214.689 100.687 214.726C100.464 214.763 100.223 214.726 100.167 214.652C100.111 214.559 100.186 214.485 100.316 214.485C100.446 214.466 100.26 214.299 99.9072 214.113C99.4429 213.853 99.0529 213.779 98.5701 213.853C98.1801 213.909 97.8644 213.89 97.8644 213.798C97.8644 213.705 97.2145 213.519 96.4346 213.408C94.5033 213.11 93.1476 212.442 90.7892 210.641C88.728 209.062 87.688 208.449 86.4624 208.097L85.701 207.874L87.6137 207.465C89.9536 206.964 90.5107 206.964 93.2219 207.428C96.7874 208.041 98.9601 207.855 100.743 206.778C100.947 206.648 101.987 206.017 103.064 205.348C105.385 203.918 106.555 203.417 107.855 203.231C108.821 203.101 109.099 202.878 108.505 202.73C108.319 202.674 108.449 202.637 108.784 202.618C109.582 202.6 109.545 202.284 108.691 202.061C106.945 201.616 104.401 201.411 102.786 201.616ZM103.064 202.563C103.064 202.878 102.024 203.194 100.929 203.231C100.204 203.268 99.3129 203.473 98.3844 203.844C97.5859 204.16 96.9359 204.383 96.9359 204.345C96.9359 204.215 98.6815 203.398 99.6286 203.064C100.149 202.897 101.096 202.693 101.764 202.6C102.433 202.526 102.99 202.451 103.027 202.433C103.046 202.433 103.064 202.488 103.064 202.563ZM105.478 203.157C105.33 203.25 105.125 203.343 105.014 203.343C104.921 203.343 104.958 203.25 105.107 203.157C105.255 203.064 105.478 202.971 105.571 202.971C105.682 202.971 105.627 203.064 105.478 203.157ZM99.3501 204.921C99.3501 205.088 98.013 205.571 97.6045 205.552C97.4002 205.534 97.6787 205.385 98.2359 205.2C98.793 205.014 99.2758 204.865 99.3129 204.847C99.3315 204.828 99.3501 204.865 99.3501 204.921ZM94.5218 205.757C94.5218 205.85 94.3733 205.942 94.2061 205.942C93.9276 205.942 93.909 205.905 94.1504 205.757C94.5033 205.534 94.5218 205.534 94.5218 205.757ZM93.4448 206.685L94.0576 207.057L93.0362 206.945C91.6435 206.797 91.3278 206.667 91.922 206.5C92.6462 206.277 92.7948 206.295 93.4448 206.685ZM89.935 210.752C90.4178 211.105 90.7707 211.421 90.7335 211.458C90.5107 211.681 89.6565 211.198 89.1179 210.548C88.4865 209.731 88.5794 209.768 89.935 210.752ZM90.8078 212.813C90.9192 213.018 90.9564 213.185 90.9192 213.185C90.8635 213.185 90.7335 213.018 90.6221 212.813C90.5107 212.609 90.4735 212.442 90.5107 212.442C90.5664 212.442 90.6964 212.609 90.8078 212.813Z" fill="#1E009F"/>
<path d="M117.92 207.929C116.936 208.115 115.617 208.171 113.463 208.115C109.675 208.022 107.744 208.208 105.998 208.821C102.915 209.898 101.82 210.102 99.0715 210.102C96.546 210.102 96.0446 210.028 92.9434 209.174C92.6462 209.099 92.6277 209.118 92.8505 209.266C93.3519 209.638 97.0102 210.734 98.4587 210.956C99.6286 211.142 100.186 211.142 101.43 210.938C102.284 210.789 103.064 210.696 103.157 210.696C103.268 210.715 104.271 210.919 105.385 211.142C109.248 211.941 113.296 211.662 116.23 210.436C118.31 209.545 119.981 208.301 118.292 208.877C117.437 209.192 117.772 208.858 118.83 208.357C119.35 208.115 119.777 207.855 119.777 207.762C119.777 207.577 119.703 207.595 117.92 207.929ZM114.893 210.121C113.89 210.492 111.569 210.956 110.826 210.938C110.362 210.938 110.474 210.863 111.328 210.678C111.941 210.548 112.869 210.306 113.37 210.158C113.89 209.991 114.596 209.861 114.949 209.861H115.599L114.893 210.121ZM106.128 210.474C106.332 210.548 106.667 210.696 106.871 210.789C107.205 210.938 107.187 210.956 106.778 210.882C106.518 210.845 105.757 210.734 105.07 210.678C104.383 210.604 103.844 210.492 103.881 210.418C103.993 210.251 105.664 210.288 106.128 210.474Z" fill="#1E009F"/>
<path d="M135.915 207.855C134.782 208.282 134.113 208.876 133.593 209.935C133.185 210.789 133.11 211.142 133.185 212.015C133.259 212.925 133.37 213.129 133.946 213.686C134.745 214.41 135.45 214.466 136.583 213.946C137.437 213.556 138.05 212.943 138.329 212.2C138.57 211.588 138.422 211.569 137.809 212.145C137.53 212.405 136.936 212.72 136.435 212.85C135.283 213.148 134.113 212.795 133.742 212.033C133.278 211.031 134.299 209.675 135.822 209.266C137.994 208.672 141.374 210.195 142.266 212.145C143.213 214.243 141.968 217.382 139.053 220.167C134.448 224.568 124.513 228.208 118.199 227.799C116.787 227.707 116.769 227.707 117.734 227.892C119.127 228.134 122.488 227.948 124.81 227.484C129.359 226.574 135.172 224.104 138.217 221.801C140.204 220.316 141.541 218.756 142.414 216.917C142.971 215.729 143.083 215.283 143.138 213.909C143.231 211.848 143.027 211.216 141.764 209.861C140.167 208.134 137.567 207.242 135.915 207.855Z" fill="#1E009F"/>
<path d="M156.917 210.715C156.063 211.031 154.652 212.312 152.943 214.373C151.885 215.636 150.696 216.453 149.656 216.62C148.691 216.787 148.728 217.196 149.731 217.642C151.365 218.384 153.073 217.976 154.448 216.472C155.209 215.636 156.286 213.798 156.1 213.612C156.063 213.556 155.896 213.76 155.729 214.058C155.58 214.373 155.116 215.042 154.689 215.58C153.575 216.992 151.513 217.846 150.622 217.289C150.418 217.159 150.455 217.103 150.771 216.992C151.383 216.806 152.368 215.877 153.333 214.596C154.652 212.851 155.265 212.256 156.267 211.755C158.793 210.455 162.414 211.384 164.067 213.723C164.531 214.392 164.624 214.689 164.605 215.562C164.587 217.326 163.565 218.812 161.04 220.706C159.127 222.136 156.527 223.454 154.782 223.881C153.928 224.085 152.275 224.234 150.046 224.308L146.611 224.42L148.468 224.587C151.476 224.847 154.689 224.643 156.546 224.048C160.149 222.916 163.027 220.594 164.327 217.827C164.958 216.435 164.995 214.392 164.401 213.259C163.194 210.994 159.61 209.768 156.917 210.715Z" fill="#1E009F"/>
<path d="M124.048 210.938C122.006 211.606 120.669 213.296 120.631 215.246C120.594 217.809 122.971 219.034 125.515 217.734C126.741 217.122 128.505 215.506 128.505 214.986C128.505 214.67 128.394 214.726 127.762 215.283C126.555 216.397 125.608 216.787 124.197 216.769C122.823 216.769 121.913 216.36 121.467 215.58C121.226 215.153 121.244 215.023 121.56 214.373C122.006 213.463 122.86 212.888 124.197 212.609C127.075 212.015 129.916 213.222 130.938 215.487C132.089 218.05 130.251 221.096 126.444 222.934C123.194 224.494 119.313 225.2 114.763 225.014C111.681 224.902 109.675 224.55 107.372 223.751C104.643 222.785 103.714 222.191 101.151 219.721C99.1086 217.772 98.2358 217.122 98.2358 217.567C98.2358 217.734 100.446 220.446 101.467 221.504C103.324 223.473 106.611 225.274 109.842 226.11C112.331 226.778 117.642 226.945 120.409 226.481C126.908 225.367 130.826 222.507 131.662 218.236C131.792 217.604 131.848 216.657 131.792 216.156C131.458 213.389 128.728 210.993 125.738 210.845C125.07 210.808 124.308 210.845 124.048 210.938Z" fill="#1E009F"/>
<path d="M179.016 217.772C178.774 218.236 178.254 218.997 177.902 219.424C177.474 219.944 177.047 220.798 176.732 221.783C176.212 223.361 176.119 223.863 176.397 223.417C176.509 223.25 176.583 223.417 176.639 223.937C176.695 224.68 176.657 224.772 175.822 225.552C175.32 226.017 174.652 226.5 174.318 226.648C174.002 226.797 173.853 226.927 174.002 226.927C174.15 226.945 173.816 227.112 173.259 227.335C165.237 230.251 154.373 230.418 149.025 227.707C148.524 227.465 147.298 226.741 146.332 226.128C145.367 225.515 143.807 224.661 142.86 224.215C141.931 223.788 140.817 223.12 140.408 222.748C139.981 222.358 139.647 222.136 139.647 222.247C139.647 222.581 141.04 223.658 142.358 224.327C143.064 224.68 144.661 225.664 145.924 226.518C148.041 227.948 150.232 229.155 150.715 229.155C150.845 229.155 151.439 229.526 152.071 229.991C153.519 231.068 154.689 232.776 154.689 233.853C154.689 235.153 153.333 236.063 150.993 236.342C149.285 236.546 147.577 235.543 147.335 234.188C147.224 233.649 147.279 233.482 147.707 233.11C148.338 232.572 149.192 232.553 150.009 233.055L150.603 233.426V232.962C150.603 232.201 149.991 231.755 148.969 231.755C147.874 231.755 147.335 232.126 147.094 233.018C146.741 234.318 147.614 236.379 148.839 237.14C151.086 238.533 154.615 237.084 154.986 234.633C155.19 233.259 154.689 231.941 153.5 230.715C152.962 230.158 152.535 229.712 152.553 229.712C152.572 229.712 153.445 229.842 154.522 230.009C157.14 230.418 161.894 230.418 164.995 230.009C168.245 229.564 171.718 228.654 174.8 227.409L177.344 226.388L179.22 226.741C180.26 226.945 181.82 227.335 182.711 227.595C183.584 227.874 184.401 228.115 184.513 228.152C184.624 228.171 184.958 228.319 185.255 228.487L185.794 228.802L185.237 228.709C183.417 228.394 183.454 228.487 185.33 228.988C187.298 229.508 187.632 229.545 189.508 229.434C191.402 229.341 192.386 229.062 192.386 228.635C192.386 228.561 191.773 228.505 191.049 228.505C189.786 228.505 189.526 228.431 187.577 227.502C185.088 226.314 184.308 226.128 183.045 226.462C182.488 226.611 181.894 226.648 181.467 226.555C181.096 226.462 180.13 226.332 179.331 226.277L177.864 226.128L180.26 224.884C181.56 224.197 183.287 223.25 184.085 222.785L185.534 221.95L186.667 222.303C189.304 223.12 191.978 222.934 194.28 221.746C195.023 221.356 196.23 220.724 196.936 220.353C197.902 219.851 198.459 219.684 199.127 219.684C200.669 219.684 200.056 219.257 198.032 218.904C192.535 217.976 191.402 218.199 185.422 221.448C180.854 223.937 175.209 226.741 174.782 226.741C174.726 226.741 175.042 226.5 175.506 226.221C176.602 225.515 177.586 224.345 177.994 223.25C178.626 221.634 179.35 220.223 179.443 220.464C179.499 220.594 179.536 220.279 179.554 219.777C179.554 219.109 179.499 218.96 179.387 219.22C179.257 219.573 179.22 219.554 179.034 219.071C178.867 218.663 178.886 218.459 179.09 218.18C179.276 217.902 179.369 217.864 179.443 218.05C179.499 218.18 179.554 217.976 179.554 217.586C179.573 217.214 179.554 216.899 179.517 216.899C179.499 216.899 179.276 217.289 179.016 217.772ZM193.63 219.313C192.943 219.406 191.959 219.554 191.439 219.666C190.046 219.963 189.749 219.87 190.901 219.499C191.569 219.257 192.423 219.146 193.408 219.164L194.893 219.183L193.63 219.313ZM196.843 219.443C196.825 219.536 196.1 220.019 195.209 220.539C193.538 221.523 192.126 222.098 191.402 222.08C191.179 222.08 191.458 221.931 192.033 221.746C193.296 221.337 196.119 219.87 196.23 219.536C196.323 219.294 196.843 219.22 196.843 219.443ZM186.5 221.857C186.37 221.894 186.147 221.894 186.035 221.857C185.905 221.801 185.998 221.764 186.258 221.764C186.518 221.764 186.611 221.801 186.5 221.857ZM183.231 226.852C183.175 226.908 183.008 226.927 182.878 226.871C182.73 226.815 182.785 226.759 182.99 226.759C183.194 226.741 183.305 226.797 183.231 226.852ZM186.444 227.391C186.704 227.539 186.834 227.651 186.722 227.651C186.63 227.651 186.332 227.539 186.072 227.391C185.812 227.242 185.701 227.131 185.794 227.131C185.905 227.131 186.184 227.242 186.444 227.391Z" fill="#1E009F"/>
<path d="M179.201 221.374C179.201 221.523 178.904 222.266 178.552 223.008C177.864 224.457 177.79 224.958 178.422 223.918C178.886 223.157 179.48 221.374 179.313 221.226C179.257 221.151 179.201 221.226 179.201 221.374Z" fill="#1E009F"/>
</g>
<defs>
<clipPath id="clip0">
<rect width="200" height="237.697" fill="black"/>
</clipPath>
</defs>
</svg>
