<svg width="50" height="50" viewBox="0 0 50 50" fill="none" xmlns="http://www.w3.org/2000/svg">
<path d="M46.657 27.9256C46.657 27.9256 46.569 27.5751 46.3735 26.9855C46.178 26.3908 45.8586 25.5504 45.4875 24.5263C45.3079 24.0124 45.1221 23.4489 44.987 22.8342C44.8483 22.2221 44.7731 21.5506 44.8089 20.8633C44.8437 20.177 44.9814 19.4625 45.2925 18.8023C45.5991 18.1425 46.0858 17.5473 46.7425 17.1717C46.9114 17.0841 47.1166 17.0273 47.3208 17.0631C47.5219 17.1 47.6903 17.1931 47.8454 17.296C48.1504 17.4803 48.4422 17.7403 48.673 18.0131C49.1525 18.5658 49.4509 19.2352 49.6305 19.8985C49.8035 20.5664 49.8583 21.2374 49.8214 21.868C49.7846 22.4929 49.6725 23.086 49.5435 23.6137C49.2733 24.6731 48.9765 25.5289 48.7789 26.1282C48.585 26.7265 48.4739 27.0684 48.4739 27.0684C48.4427 27.1651 48.3388 27.2178 48.2426 27.1866C48.1545 27.1579 48.1028 27.0694 48.1182 26.9809L48.1233 26.9527C48.1233 26.9527 48.1858 26.5904 48.3357 25.9721C48.4944 25.359 48.7011 24.4735 48.9064 23.4535C48.9524 23.1981 48.997 22.9325 49.0246 22.6592C49.0415 22.52 49.0492 22.3879 49.0589 22.2539C49.065 22.1244 49.0758 21.934 49.0722 21.8209C49.0717 21.261 48.9806 20.676 48.8224 20.1079C48.6551 19.5418 48.3736 19.0075 48.0041 18.5822C47.915 18.4732 47.8075 18.3775 47.7093 18.2869L47.5716 18.1763C47.5168 18.1349 47.4267 18.0806 47.3561 18.0335C47.2625 17.9665 47.1468 17.9266 47.1698 17.9388C47.2041 17.947 47.2169 17.9317 47.1448 17.967C47.1151 17.9803 47.0623 18.0136 47.0255 18.0386C46.9636 18.0821 46.917 18.1267 46.8612 18.1702C46.7507 18.2531 46.6585 18.3585 46.5639 18.4599C46.3755 18.6656 46.2297 18.9154 46.1027 19.1748C45.8571 19.7005 45.7081 20.2998 45.6682 20.8986C45.6324 21.5041 45.6544 22.0814 45.7552 22.6577C45.8504 23.2314 46.0004 23.778 46.1513 24.2852C46.4681 25.296 46.7143 26.1855 46.8791 26.8058C46.962 27.1144 47.005 27.375 47.0362 27.5403C47.0654 27.7081 47.0808 27.7977 47.0808 27.7977L47.0869 27.8346C47.1074 27.9543 47.027 28.0679 46.9078 28.0884C46.7937 28.1079 46.6852 28.0352 46.657 27.9256Z" fill="#201E20"/>
<path d="M47.0895 27.875C47.0895 27.875 47.0409 28.5695 46.9554 29.7845C46.8771 30.9995 46.7553 32.7355 46.6673 34.8217C46.6284 35.8652 46.5859 36.9953 46.5409 38.1908C46.4948 39.3879 46.4928 40.6434 46.4313 41.9562C46.3648 43.2577 46.3147 44.6053 46.3689 45.9692C46.3986 46.6499 46.4493 47.3388 46.5936 48.0057C46.6693 48.3337 46.7666 48.6746 46.9636 48.9213C47.0624 49.038 47.1893 49.1286 47.3347 49.1024C47.477 49.082 47.6244 49.0073 47.7508 48.9008C48.2846 48.4781 48.4898 47.7907 48.5983 47.1223C48.6991 46.4462 48.7022 45.7568 48.6694 45.0766C48.6009 43.7142 48.3956 42.381 48.1986 41.0912C48.0046 39.8076 47.7779 38.5414 47.8035 37.3367C47.783 36.1385 47.7799 35.0059 47.7932 33.9598C47.8209 31.8686 47.889 30.1254 47.9703 28.9068C48.0486 27.6877 48.1147 26.9926 48.1147 26.9926C48.1244 26.8913 48.2145 26.8171 48.3158 26.8268C48.4125 26.836 48.4847 26.9179 48.4826 27.0136L48.4821 27.0285C48.4821 27.0285 48.4663 27.724 48.4391 28.9405C48.4002 30.1556 48.4253 31.8916 48.4499 33.97C48.4663 35.0085 48.5005 36.137 48.5543 37.3233C48.5778 37.9452 48.6106 38.4759 48.7145 39.087C48.8128 39.7017 48.9136 40.3292 49.0159 40.9674C49.2237 42.2602 49.4443 43.6113 49.5272 45.0377C49.5661 45.7517 49.5723 46.4861 49.4627 47.2589C49.4069 47.6448 49.3138 48.0451 49.1449 48.453C49.1075 48.5543 49.0538 48.6567 48.999 48.7585C48.9535 48.8537 48.8767 48.972 48.7918 49.0876C48.6986 49.2202 48.6459 49.2719 48.5886 49.3363L48.5451 49.385L48.5343 49.3972C48.4519 49.4812 48.5016 49.429 48.4785 49.452L48.4437 49.4822L48.302 49.6009C48.1141 49.7494 47.8424 49.9341 47.4171 49.9874C47.3014 49.9935 47.1837 49.9899 47.0706 49.9756C46.957 49.9474 46.8418 49.9075 46.7343 49.8589C46.5511 49.7611 46.375 49.6143 46.2896 49.4965C45.8996 48.9878 45.8361 48.5922 45.7348 48.2037C45.5715 47.434 45.5275 46.719 45.4978 46.0091C45.4482 44.5955 45.506 43.229 45.5792 41.9157C45.5987 41.5744 45.6155 41.3016 45.6207 40.9684C45.6263 40.647 45.6411 40.3286 45.6575 40.0139C45.6903 39.3844 45.722 38.7687 45.7532 38.1694C45.8269 36.9717 45.897 35.8396 45.9615 34.794C46.0966 32.7043 46.3039 30.9693 46.4201 29.7543C46.5516 28.5388 46.6483 27.8484 46.6483 27.8484L46.6509 27.8294C46.6678 27.7086 46.7794 27.6242 46.9002 27.6411C47.0153 27.6575 47.0977 27.7608 47.0895 27.875Z" fill="#201E20"/>
<path d="M19.5372 11.4254C19.5372 11.4254 19.2485 11.5165 18.77 11.7145C18.2868 11.9136 17.6067 12.2366 16.7714 12.6122C16.3522 12.7954 15.888 12.9833 15.3742 13.1184C14.8675 13.2576 14.2856 13.3236 13.7083 13.2689C13.1284 13.2136 12.5306 13.0334 12.0193 12.6869C11.5065 12.3415 11.0909 11.8543 10.8519 11.2641C10.7275 10.9566 10.7935 10.5911 10.9425 10.3163C11.072 10.0507 11.2444 9.77787 11.4384 9.54398C11.8371 9.0767 12.351 8.72612 12.8976 8.52037C13.4431 8.31156 14.0138 8.23376 14.5471 8.25884C15.0778 8.28289 15.5758 8.39856 16.0144 8.52805C16.8942 8.80237 17.5918 9.10639 18.0806 9.30753C18.5694 9.50509 18.8483 9.61819 18.8483 9.61819C18.942 9.65606 18.987 9.76252 18.9491 9.85669C18.9153 9.94063 18.8258 9.98566 18.7403 9.96673L18.7075 9.95957C18.7075 9.95957 18.4035 9.89303 17.8917 9.73744C17.3861 9.57417 16.6516 9.3587 15.822 9.15654C15.6142 9.11048 15.3982 9.06902 15.1776 9.04292C15.0635 9.0291 14.976 9.02245 14.8526 9.01426L14.6617 9.00454L14.5087 9.00864C14.0681 9.02143 13.6136 9.12788 13.1913 9.3019C12.765 9.47693 12.4037 9.7707 12.1058 10.1146C11.9518 10.3173 11.8796 10.4186 11.724 10.7324L11.7204 10.7385C11.7506 10.6797 11.7276 10.7252 11.7337 10.7129L11.7296 10.7227L11.7214 10.7411L11.7071 10.7749L11.6866 10.8312C11.6769 10.8629 11.6738 10.8834 11.6733 10.8921C11.6744 10.8997 11.6759 10.9156 11.6948 10.9734C11.7271 11.0819 11.8765 11.3291 12.0152 11.4914C12.1601 11.6644 12.3208 11.821 12.5091 11.9418C12.8776 12.1895 13.3172 12.3563 13.782 12.4116C14.0133 12.4392 14.2467 12.4449 14.4785 12.4377C14.6003 12.4367 14.6873 12.4269 14.8076 12.4172L15.0047 12.387L15.0533 12.3799C15.0308 12.3865 15.0722 12.3763 15.0784 12.3758L15.1649 12.3584C15.626 12.2688 16.0697 12.1209 16.4817 11.9689C17.3016 11.6511 18.0386 11.3957 18.5525 11.2242C18.8073 11.1388 19.029 11.0912 19.1666 11.0579C19.3069 11.0277 19.3816 11.0113 19.3816 11.0113L19.4246 11.0021C19.5428 10.976 19.6595 11.0512 19.6856 11.1695C19.7097 11.281 19.6436 11.3916 19.5372 11.4254Z" fill="#201E20"/>
<path d="M19.4762 10.9984C19.4762 10.9984 20.0367 11.0475 21.0173 11.1335C21.9984 11.2118 23.3997 11.3347 25.0846 11.4227C25.9275 11.4621 26.8405 11.5041 27.8063 11.5491C28.7746 11.5972 29.787 11.5926 30.8505 11.6627C31.9012 11.7277 32.9898 11.7743 34.0887 11.7108C34.6353 11.6745 35.1921 11.6187 35.7121 11.4555C35.9629 11.3684 36.2306 11.2579 36.3662 11.0552C36.5141 10.8592 36.4522 10.5885 36.3104 10.3633C36.0345 9.87859 35.5274 9.63753 34.9941 9.51521C34.4602 9.3934 33.9024 9.38777 33.3558 9.41233C32.258 9.47119 31.1857 9.67489 30.1509 9.87142C29.1201 10.0613 28.1032 10.3029 27.1215 10.2824C26.1522 10.3049 25.236 10.3075 24.39 10.2952C22.698 10.2691 21.2875 10.1995 20.3023 10.1181C19.3165 10.0393 18.7551 9.97225 18.7551 9.97225C18.6543 9.96048 18.5821 9.86887 18.5939 9.76753C18.6057 9.67234 18.6875 9.60272 18.7817 9.60528L18.8001 9.6058C18.8001 9.6058 19.3616 9.62218 20.3442 9.65033C21.3249 9.68923 22.7262 9.66517 24.4018 9.63856C25.2391 9.62167 26.1491 9.58737 27.1046 9.5321C27.3442 9.51572 27.6041 9.50651 27.8007 9.48041C28.0177 9.4543 28.2536 9.4108 28.4926 9.3632C28.9845 9.2634 29.4866 9.16207 29.9973 9.05868C31.0389 8.8514 32.1326 8.62928 33.3153 8.55455C33.909 8.52384 34.5258 8.51771 35.1916 8.66204C35.5233 8.73625 35.8703 8.84834 36.2101 9.04896C36.2951 9.10475 36.3754 9.15438 36.4619 9.21887C36.554 9.29462 36.6492 9.37856 36.7306 9.45789L36.8719 9.61502L36.9169 9.67182L36.9276 9.68718L36.9491 9.71788L36.9921 9.77982L37.0745 9.9052C37.181 10.0859 37.2839 10.3111 37.3299 10.6028C37.3386 10.762 37.3509 10.9268 37.3033 11.0951C37.2813 11.1791 37.2547 11.2635 37.223 11.3428C37.1856 11.4145 37.1441 11.4851 37.0996 11.5532C37.0095 11.6955 36.9118 11.7712 36.8094 11.8715C36.7163 11.9391 36.6124 12.0169 36.5208 12.0655C36.334 12.1684 36.1589 12.2359 35.9905 12.2917C35.3247 12.4959 34.7341 12.542 34.1465 12.5809C32.9806 12.6418 31.8685 12.586 30.8014 12.5144L30.4083 12.4867C30.287 12.4775 30.1806 12.4724 30.0454 12.4688C29.7849 12.4632 29.5275 12.4489 29.2726 12.4325C28.7634 12.3997 28.2654 12.368 27.7802 12.3368C26.8114 12.2626 25.8958 12.193 25.0503 12.128C23.3608 11.9928 21.9605 11.785 20.9794 11.6684C19.9988 11.5363 19.4425 11.4391 19.4425 11.4391L19.4189 11.435C19.2991 11.4145 19.2188 11.2999 19.2398 11.1801C19.2592 11.0665 19.3636 10.9887 19.4762 10.9984Z" fill="#201E20"/>
<path d="M45.0142 15.5667C45.0142 15.5667 44.9594 15.6348 44.8566 15.7622C44.7552 15.8902 44.5966 16.0755 44.4215 16.318C44.2378 16.5555 44.029 16.858 43.791 17.207C43.5602 17.5607 43.3084 17.9655 43.0632 18.4246C42.5744 19.3423 42.0754 20.456 41.6926 21.7017C41.3052 22.9454 41.0349 24.317 40.9279 25.7055C40.845 27.0951 40.8998 28.4954 40.9249 29.8045C40.9587 31.1127 41.0574 32.3293 41.2468 33.3518C41.4357 34.3754 41.7366 35.1902 41.9884 35.7338C42.1179 36.005 42.2239 36.2149 42.3073 36.352C42.3866 36.4917 42.4286 36.566 42.4286 36.566C42.4787 36.6545 42.4475 36.7671 42.359 36.8173C42.2766 36.8638 42.1732 36.8398 42.1189 36.7651L42.1092 36.7517C42.1092 36.7517 42.0565 36.6786 41.9577 36.5414C41.8569 36.4053 41.7131 36.2005 41.558 35.9226C41.255 35.3678 40.8496 34.5331 40.6004 33.4685C40.3542 32.4091 40.1551 31.1516 40.0906 29.8245C40.0594 29.1571 40.0149 28.4887 40.0082 27.7896C39.9975 27.0915 39.996 26.3755 40.0384 25.6446C40.1004 24.9204 40.1874 24.1916 40.3271 23.4879C40.4637 22.7831 40.6531 22.1009 40.8686 21.454C41.2929 20.156 41.8948 19.0275 42.4383 18.0955C42.5816 17.8662 42.7142 17.6436 42.8544 17.4409C43.0003 17.2429 43.139 17.055 43.269 16.8785C43.5407 16.534 43.7787 16.2372 43.9896 15.9997C44.1902 15.7535 44.3714 15.5969 44.485 15.4756C44.6017 15.3589 44.6641 15.2965 44.6641 15.2965L44.6872 15.2729C44.7732 15.187 44.9124 15.187 44.9983 15.2724C45.0787 15.3528 45.0833 15.4802 45.0142 15.5667Z" fill="#201E20"/>
<path d="M40.3169 34.8341C40.3169 34.8341 40.5446 34.872 40.8839 34.9037C41.0544 34.9139 41.2535 34.9334 41.4664 34.9354C41.6793 34.9349 41.9065 34.9349 42.1343 34.9344C42.361 34.9196 42.5877 34.9047 42.8001 34.8909C43.0125 34.8756 43.2096 34.8423 43.3785 34.8208C43.7158 34.7666 43.9384 34.7133 43.9384 34.7133C44.0192 34.6939 44.1001 34.744 44.1196 34.8244C44.1313 34.875 44.117 34.9252 44.0848 34.961L43.9737 35.0808C43.9737 35.0808 43.7654 35.3065 43.4312 35.48C43.2643 35.5726 43.0663 35.653 42.8513 35.7113C42.7438 35.7338 42.6333 35.7773 42.5186 35.7845C42.4045 35.7978 42.2888 35.8116 42.1727 35.8254C42.056 35.8239 41.9393 35.8224 41.8246 35.8208C41.71 35.8239 41.5959 35.7942 41.4869 35.7824C41.2678 35.7466 41.0636 35.6883 40.8896 35.6136C40.5385 35.4774 40.3143 35.2763 40.3143 35.2763L40.1674 35.1448C40.0937 35.0782 40.0876 34.9651 40.1536 34.8914C40.1961 34.8443 40.2585 34.8249 40.3169 34.8341Z" fill="#201E20"/>
<path d="M44.4931 14.8932C44.4931 14.8932 44.4276 15.4219 44.3129 16.3472C44.2059 17.2725 44.0463 18.5925 43.9122 20.1842C43.7771 21.7749 43.6491 23.6343 43.5534 25.6282C43.4577 27.6222 43.3978 29.7518 43.3871 31.8814C43.3948 34.0116 43.4526 36.1412 43.5457 38.1352C43.6333 40.1317 43.7796 41.9849 43.8799 43.5854C43.9721 45.1853 43.9557 46.5328 43.8242 47.4715C43.7668 47.9413 43.6809 48.3067 43.6225 48.5555C43.5524 48.8022 43.515 48.9337 43.515 48.9337C43.4874 49.0315 43.3861 49.0877 43.2883 49.0601C43.1957 49.034 43.1399 48.9409 43.1583 48.8477L43.1645 48.8185C43.1645 48.8185 43.19 48.6911 43.2382 48.4526C43.2781 48.212 43.3246 47.8589 43.3589 47.4049C43.3932 46.952 43.405 46.3982 43.3789 45.7615C43.3523 45.1248 43.2909 44.4068 43.2243 43.6196C43.1419 42.8258 43.0524 41.9655 42.9577 41.056C42.8625 40.1404 42.7653 39.1736 42.7197 38.171C42.6056 36.1663 42.5237 34.0249 42.4955 31.882C42.5196 29.739 42.5928 27.5977 42.7013 25.5924C42.7443 24.5893 42.84 23.6225 42.9316 22.7063C43.0196 21.7902 43.1179 20.9258 43.208 20.1284C43.2965 19.3305 43.406 18.6027 43.5084 17.9573C43.6133 17.313 43.7044 16.7515 43.7796 16.2889C43.9434 15.3686 44.0534 14.8451 44.0534 14.8451L44.0586 14.8205C44.0836 14.7018 44.2003 14.625 44.3196 14.6501C44.4322 14.6736 44.5064 14.7806 44.4931 14.8932Z" fill="#201E20"/>
<path d="M42.3128 33.7585C42.3128 33.7585 42.2852 34.0334 42.2366 34.515C42.192 34.9966 42.1112 35.6829 42.0441 36.5095C41.9049 38.1616 41.7191 40.3644 41.5333 42.5672C41.4678 43.6696 41.3624 44.7746 41.3481 45.8023C41.3394 46.83 41.3972 47.7998 41.6152 48.5778C41.7273 48.955 41.8722 49.3383 42.1158 49.4207C42.3681 49.5328 42.6296 49.4432 42.7888 49.3291C42.9526 49.2083 43.0427 49.065 43.0964 48.9662C43.1435 48.8623 43.1686 48.8065 43.1686 48.8065C43.2105 48.7139 43.32 48.673 43.4127 48.7149C43.4946 48.7523 43.5365 48.8424 43.5156 48.9273L43.511 48.9452C43.511 48.9452 43.4925 49.0195 43.4429 49.1612C43.3851 49.2968 43.2945 49.5174 43.0498 49.7196C42.8154 49.911 42.3881 50.1132 41.8752 49.9248C41.7483 49.8696 41.6378 49.8168 41.5103 49.692L41.4202 49.5968L41.3757 49.544L41.3532 49.5174L41.3476 49.5108L41.3225 49.4698L41.3112 49.4524L41.2672 49.3803C41.1418 49.1848 41.0579 48.9729 40.9755 48.7549C40.8153 48.3168 40.7047 47.8428 40.6382 47.3443C40.5676 46.8469 40.52 46.3248 40.5138 45.7869C40.5051 45.2536 40.5072 44.6809 40.5471 44.1481C40.5793 43.6051 40.6116 43.0534 40.6444 42.5016C40.6909 41.9509 40.737 41.4003 40.7825 40.8583C40.824 40.3157 40.8956 39.7845 40.9478 39.2686C41.0645 38.2383 41.1971 37.2782 41.3332 36.4573C41.4597 35.6353 41.6163 34.9541 41.7022 34.4756C41.7995 33.9981 41.8722 33.7263 41.8722 33.7263L41.8839 33.6802C41.9152 33.5635 42.0349 33.4939 42.1516 33.5252C42.257 33.5533 42.3236 33.6536 42.3128 33.7585Z" fill="#201E20"/>
<path d="M1.41731 17.8902C1.41731 17.8902 1.38916 18.0447 1.34003 18.315C1.29499 18.5857 1.21311 18.9706 1.14556 19.4358C1.07288 19.9046 0.985866 20.4384 0.943387 21.0208C0.894254 21.6023 0.870722 22.2256 0.91576 22.8449C0.977176 23.4606 1.1133 24.0743 1.32723 24.606C1.54014 25.1419 1.82368 25.6045 2.11848 25.9531C2.40918 26.3078 2.72392 26.5273 2.94297 26.6676C3.05454 26.7361 3.14412 26.7863 3.20707 26.816C3.2695 26.8477 3.30225 26.8646 3.30225 26.8646C3.39182 26.9101 3.42764 27.0197 3.38158 27.1092C3.34269 27.186 3.25671 27.2229 3.17635 27.2029L3.13182 27.1922C3.13182 27.1922 3.09037 27.1819 3.01258 27.1625C2.93377 27.1435 2.81656 27.1154 2.67582 27.057C2.39331 26.947 1.9936 26.7382 1.60463 26.3728C1.20748 26.0171 0.826699 25.5093 0.548283 24.9054C0.480726 24.7621 0.409084 24.5794 0.352786 24.4279C0.325149 24.3476 0.304672 24.3051 0.270894 24.1925L0.205895 23.9432C0.125032 23.6085 0.0651526 23.2666 0.0277916 22.9258C0.00220184 22.5839 -0.0039397 22.2456 0.00220184 21.9165C0.00476081 21.5874 0.050316 21.2691 0.0846063 20.9656C0.10559 20.8136 0.120422 20.6657 0.151642 20.5198C0.181838 20.3703 0.211009 20.2245 0.239669 20.0822C0.299549 19.8181 0.371719 19.5709 0.438764 19.3421C0.699779 18.4281 0.97871 17.8323 0.97871 17.8323L1.01197 17.7612C1.06213 17.6537 1.18957 17.6076 1.29704 17.6578C1.38712 17.6998 1.4342 17.797 1.41731 17.8902Z" fill="#201E20"/>
<path d="M3.36371 27.019C3.36371 27.019 3.32481 29.857 3.20096 34.1162C3.13698 36.2453 3.03308 38.7301 2.81147 41.3853C2.70245 42.7129 2.5566 44.082 2.37491 45.469C2.29558 46.1625 2.14306 46.8606 2.25412 47.5366C2.30991 47.8627 2.43837 48.2107 2.67175 48.4297C2.90769 48.6616 3.22961 48.8197 3.55717 48.8351C3.88882 48.8545 4.19641 48.68 4.33767 48.378C4.48302 48.0827 4.50913 47.7255 4.5383 47.378C4.56748 47.0254 4.59665 46.6743 4.62582 46.3237C4.64117 45.9741 4.65703 45.6251 4.67239 45.2775C4.71436 43.886 4.68723 42.5128 4.62479 41.1862C4.49019 38.532 4.26192 36.058 4.157 33.9283C4.04389 31.7998 4.02905 30.0177 4.09763 28.7714C4.11811 28.1475 4.16826 27.6593 4.19692 27.3256C4.22609 26.9924 4.24197 26.8148 4.24197 26.8148C4.25067 26.7135 4.33972 26.6382 4.44105 26.6475C4.53881 26.6556 4.612 26.7391 4.60893 26.8358L4.60841 26.8583C4.60841 26.8583 4.60278 27.0349 4.59254 27.366C4.58026 27.6967 4.56644 28.1808 4.56695 28.7975C4.55518 29.4127 4.57719 30.162 4.61608 31.0183C4.66317 31.876 4.73278 32.8408 4.81313 33.8966C4.89297 34.9509 5.00915 36.0953 5.1284 37.3088C5.2497 38.5228 5.38277 39.8084 5.45084 41.1483C5.52403 42.4908 5.56344 43.8809 5.53017 45.3124C5.51686 45.6727 5.50355 46.035 5.48974 46.3979C5.46363 46.749 5.43702 47.1006 5.4104 47.4527C5.37458 47.8156 5.3797 48.2291 5.12585 48.7778C5.09258 48.8443 5.05471 48.9113 5.01069 48.9774C4.96412 49.049 4.88326 49.1473 4.87097 49.1601C4.74046 49.3019 4.62018 49.4032 4.46562 49.4953C4.16468 49.6729 3.82382 49.7394 3.52493 49.7261C2.92254 49.6903 2.4399 49.4385 2.04889 49.0608C2.00078 49.0091 1.95625 48.9641 1.90712 48.9057C1.85491 48.8392 1.80476 48.7706 1.75767 48.701L1.6896 48.5864L1.65839 48.5301L1.64814 48.5086L1.62819 48.4661L1.58827 48.3811C1.48795 48.1518 1.42347 47.9159 1.38559 47.6881C1.24741 46.7638 1.43882 46.0268 1.50996 45.3589C1.69625 43.9883 1.84673 42.6331 1.96137 41.3172C2.07141 39.9993 2.17735 38.725 2.27869 37.5171C2.36876 36.3062 2.43683 35.1582 2.49518 34.0983C2.6175 31.9743 2.71986 30.2045 2.791 28.9654C2.8647 27.7253 2.92151 27.016 2.92151 27.016L2.92305 26.9986C2.93277 26.8768 3.03922 26.7862 3.16052 26.7959C3.27721 26.8056 3.36524 26.9044 3.36371 27.019Z" fill="#201E20"/>
<path d="M4.60429 26.4452C4.59559 26.4437 4.66469 26.4539 4.69847 26.4529C4.74606 26.4534 4.83256 26.4483 4.93492 26.4063C5.03779 26.3669 5.16216 26.2896 5.27629 26.1663C5.3853 26.0527 5.49431 25.8643 5.55931 25.6535C5.69289 25.2241 5.77682 24.6534 5.87508 24.0715C5.96721 23.4824 6.0409 22.8493 6.09055 22.2136C6.15555 20.9408 6.10488 19.6654 6.01634 18.716C5.9754 18.24 5.90272 17.8485 5.86075 17.5736C5.81264 17.2998 5.78552 17.1432 5.78552 17.1432C5.76812 17.0454 5.83363 16.9528 5.93139 16.9354C6.01276 16.9211 6.09107 16.9641 6.12433 17.0352L6.15094 17.0905C6.15094 17.0905 6.2226 17.2425 6.32956 17.5142C6.43244 17.7865 6.56652 18.1806 6.67809 18.6627C6.73541 18.9038 6.79427 19.1669 6.83419 19.4468C6.87871 19.7268 6.92733 20.0231 6.94576 20.3312C6.96776 20.6393 7.00205 20.9587 6.99693 21.2832C6.99796 21.6077 6.99285 21.9373 6.98057 22.2669C6.95498 22.596 6.92222 22.924 6.88639 23.247C6.85261 23.5699 6.78352 23.8831 6.72773 24.1866C6.67143 24.4937 6.59109 24.7906 6.51688 25.0516C6.44676 25.3223 6.3613 25.5941 6.24 25.8643C6.17961 25.9974 6.11358 26.1289 6.03067 26.2466C5.98922 26.3076 5.93548 26.3771 5.90631 26.4053C5.84899 26.4759 5.80752 26.5148 5.75634 26.5634C5.56084 26.7457 5.3464 26.8455 5.16164 26.8951C4.97586 26.9499 4.82233 26.9345 4.71638 26.9212C4.59509 26.9043 4.58996 26.8854 4.57973 26.8869C4.45741 26.8803 4.36427 26.7758 4.37144 26.654C4.37809 26.5317 4.48248 26.4386 4.60429 26.4452Z" fill="#201E20"/>
<path d="M0.942355 17.8945C0.938261 17.8679 0.93262 17.826 0.930573 17.7671C0.930573 17.7216 0.933652 17.6765 0.939794 17.6325C0.953101 17.544 0.980228 17.459 1.01861 17.3802C1.0959 17.2231 1.22077 17.0859 1.38404 17.0025L1.38916 16.9999C1.4905 16.9477 1.61537 16.9876 1.66706 17.0895C1.67474 17.1038 1.68089 17.1202 1.68447 17.1356C1.89482 18.0215 1.88458 18.9125 1.91733 19.7769C1.93268 20.2099 1.9588 20.6398 2.02994 21.06C2.06372 21.2699 2.1108 21.4772 2.16915 21.6798C2.19422 21.7827 2.23568 21.8794 2.26792 21.9797C2.2843 22.0309 2.3058 22.0831 2.31143 22.0862C2.31859 22.0908 2.29504 22.078 2.30426 22.0816C2.27406 22.0734 2.27713 22.0821 2.27764 22.079C2.3063 22.0729 2.35953 21.9864 2.4148 21.8871C2.45728 21.8027 2.4967 21.7136 2.52741 21.6159C2.58831 21.4234 2.61594 21.2187 2.62413 21.0094C2.64 20.5907 2.58166 20.1598 2.55197 19.7191C2.49772 18.8501 2.45933 17.9416 2.75362 17.0787L2.75618 17.0711C2.76847 17.0347 2.79969 17.0096 2.835 17.003C3.03102 16.9667 3.14822 17.0839 3.22858 17.1714C3.30842 17.2671 3.37291 17.3853 3.38417 17.5225L3.44456 18.1597L3.56483 19.434L3.68664 20.7069C3.70967 20.9172 3.73884 21.1245 3.78951 21.3246C3.81459 21.4249 3.8453 21.5232 3.88317 21.6179C3.91798 21.7029 3.97734 21.8339 4.00242 21.8354C4.00907 21.8574 4.06691 21.8021 4.0879 21.7095C4.10888 21.6333 4.0966 21.5176 4.1012 21.4122C4.10172 21.2003 4.09711 20.9889 4.08995 20.776L4.03057 19.4985C4.01214 19.0712 3.99987 18.6418 4.01164 18.2114C4.01829 17.9959 4.02955 17.7804 4.05105 17.5655C4.06487 17.4605 4.06332 17.3505 4.10478 17.2267C4.12423 17.1673 4.15238 17.1064 4.20203 17.0491C4.25014 16.9907 4.34585 16.9426 4.4349 16.9539L4.43796 16.9544C4.48454 16.9605 4.52036 16.9953 4.52958 17.0388C4.71638 17.8915 4.70615 18.758 4.74709 19.6045C4.76705 20.0277 4.79878 20.4495 4.87351 20.861C4.91189 21.0662 4.96154 21.2683 5.02142 21.4669C5.08591 21.664 5.16422 21.8549 5.2543 22.0401L5.02399 22.0494C5.17036 21.6849 5.15501 21.2648 5.13863 20.843L5.08079 19.5687L5.02194 18.2912C5.01068 17.8638 5.02858 17.3843 5.28397 16.9626C5.29472 16.9457 5.30957 16.9298 5.32441 16.918C5.44468 16.8254 5.58594 16.7814 5.73078 16.7829C5.80396 16.7844 5.8792 16.7962 5.96058 16.8351C6.03735 16.8689 6.14329 16.9677 6.1525 17.1059C6.15864 17.2072 6.08137 17.2952 5.97952 17.3014C5.87767 17.3075 5.79015 17.2302 5.78401 17.1284C5.77838 17.1601 5.80295 17.1801 5.7881 17.175C5.77582 17.1744 5.74869 17.1719 5.72106 17.1765C5.66425 17.1837 5.60897 17.2149 5.58287 17.2471L5.63764 17.1862C5.49024 17.5015 5.48358 17.8787 5.52043 18.284L5.64941 19.5487C5.68933 19.973 5.74511 20.3962 5.77224 20.821C5.79987 21.2392 5.85771 21.7474 5.65606 22.3068C5.55421 22.5903 5.24201 22.7377 4.95847 22.6359C4.82592 22.5883 4.72304 22.4946 4.66163 22.3789L4.64473 22.3472C4.52906 22.1297 4.42926 21.9066 4.34686 21.6783C4.26855 21.4495 4.20408 21.2192 4.15341 20.9894C4.05361 20.5293 4.00395 20.0758 3.9671 19.6383C3.9323 19.2007 3.89852 18.7769 3.87498 18.3705C3.8458 17.9647 3.79975 17.5762 3.7153 17.2154L4.35096 17.783C4.53162 17.8162 4.7691 17.6898 4.8213 17.609C4.88784 17.5342 4.89142 17.503 4.89807 17.4938L4.90115 17.4861C4.90524 17.4697 4.90217 17.4774 4.90012 17.504L4.88733 17.6489C4.87044 17.8423 4.86276 18.0394 4.85866 18.2385C4.85303 18.6367 4.86839 19.0451 4.89194 19.4632L4.96512 20.7494C4.97536 20.9648 4.98202 21.1972 4.98406 21.4224L4.98458 21.5821C4.98406 21.6082 4.98713 21.6215 4.98099 21.7197C4.97434 21.7929 4.9641 21.861 4.9467 21.928C4.90934 22.0627 4.87146 22.1957 4.71997 22.3876C4.64575 22.4767 4.51678 22.6046 4.29722 22.6799C4.24552 22.6983 4.18616 22.7116 4.12628 22.7193C4.07254 22.727 4.00396 22.7311 3.91644 22.7213C3.84427 22.7162 3.72502 22.6814 3.75061 22.6881L3.64979 22.6523C3.4507 22.5668 3.32786 22.4312 3.26235 22.3436C3.19735 22.2551 3.16409 22.1855 3.15027 22.1599C3.11649 22.0913 3.0868 22.0227 3.05865 21.9542C3.0044 21.817 2.96243 21.6809 2.92968 21.5488C2.86366 21.2837 2.83193 21.036 2.80788 20.8072L2.69323 19.5216L2.58114 18.2467L2.52485 17.609L2.52331 17.591L2.5269 17.6192L2.53662 17.6617C2.54378 17.6837 2.5489 17.6944 2.553 17.7026C2.5617 17.718 2.56477 17.7221 2.57449 17.7328C2.58575 17.7431 2.59905 17.761 2.65791 17.7942C2.71011 17.8234 2.857 17.8864 3.05558 17.8336L3.56636 17.3587C3.32888 17.9954 3.35652 18.8148 3.37597 19.6592C3.38672 20.0651 3.43841 20.5206 3.40617 21.036C3.38928 21.2929 3.34731 21.5677 3.25417 21.841C3.23114 21.9096 3.20145 21.9772 3.17483 22.0442C3.14106 22.1164 3.10063 22.1957 3.06326 22.2638L2.95271 22.4373C2.87798 22.533 2.8094 22.6359 2.59701 22.7454C2.54224 22.771 2.47469 22.795 2.39382 22.8068C2.31091 22.8171 2.23619 22.8237 2.098 22.7879C2.08009 22.7848 1.95828 22.7403 1.90045 22.6957C1.83187 22.6492 1.78017 22.5965 1.74281 22.5499C1.60002 22.3488 1.61076 22.2894 1.58722 22.2377C1.55242 22.1195 1.50789 22.0028 1.4823 21.8846C1.42139 21.6486 1.37585 21.4122 1.34565 21.1783C1.27809 20.711 1.27297 20.2534 1.28014 19.8097C1.28577 19.366 1.30164 18.9335 1.29703 18.5092C1.29498 18.0844 1.26222 17.6688 1.19978 17.2599L1.61691 17.4452C1.55549 17.4636 1.48998 17.5138 1.44442 17.5829C1.42191 17.6172 1.40348 17.6555 1.39222 17.6955C1.3871 17.7154 1.38301 17.7359 1.37994 17.7564C1.37687 17.763 1.37533 17.7871 1.37942 17.8265L1.38045 17.8342C1.39376 17.9555 1.30625 18.065 1.18495 18.0783C1.06775 18.0911 0.961804 18.0097 0.942355 17.8945Z" fill="#201E20"/>
<path d="M11.6289 4.9655C11.6289 4.9655 11.7542 4.99109 11.9733 5.03612C12.1934 5.07758 12.5045 5.15333 12.8828 5.21423C13.2646 5.28025 13.695 5.35703 14.1679 5.3949C14.6398 5.43789 15.1454 5.45837 15.647 5.41589C15.8968 5.38621 16.144 5.33912 16.382 5.27566C16.6184 5.21322 16.8508 5.13029 17.0601 5.0351C17.4839 4.8401 17.8437 4.58881 18.1098 4.33342C18.3831 4.08263 18.5392 3.81291 18.6446 3.63122C18.748 3.44595 18.789 3.33234 18.789 3.33234C18.8227 3.24021 18.9251 3.19261 19.0177 3.22588C19.0991 3.25556 19.1457 3.33797 19.1334 3.41986L19.1226 3.4915C19.1226 3.4915 19.1175 3.5263 19.1073 3.59233C19.0971 3.65886 19.0853 3.7602 19.0464 3.87997C18.9758 4.12103 18.8371 4.47212 18.5592 4.82168C18.292 5.17943 17.8897 5.53361 17.3948 5.79974C17.2725 5.86321 17.142 5.92667 16.9941 5.98808L16.8154 6.06127L16.5959 6.12781C16.3159 6.20611 16.0288 6.26445 15.7432 6.30233C15.4561 6.3274 15.1726 6.33406 14.8988 6.32945C14.6244 6.32843 14.3603 6.28493 14.1095 6.2532C13.848 6.22095 13.6428 6.16773 13.3782 6.10734C13.1643 6.05155 12.9647 5.98296 12.7804 5.9195C12.0429 5.67281 11.5659 5.4031 11.5659 5.4031L11.483 5.35651C11.3811 5.29919 11.3453 5.17022 11.4026 5.06837C11.4492 4.987 11.5418 4.94759 11.6289 4.9655Z" fill="#201E20"/>
<path d="M18.949 3.25618C18.949 3.25618 21.2368 3.29509 24.67 3.4082C26.3866 3.46603 28.3903 3.55917 30.5296 3.75724C31.5993 3.85499 32.7027 3.98397 33.819 4.14622C34.3768 4.21889 34.9383 4.34786 35.4711 4.23424C35.7321 4.17795 35.9865 4.05204 36.1487 3.85142C36.3201 3.64977 36.4261 3.38619 36.443 3.12415C36.4614 2.85903 36.3462 2.60466 36.1313 2.46648C35.9148 2.32778 35.6307 2.29554 35.3523 2.26995C34.7847 2.21314 34.2197 2.16759 33.6613 2.15018C32.5415 2.11026 31.4345 2.13227 30.3663 2.18857C28.2285 2.30526 26.2361 2.50845 24.519 2.60211C22.8029 2.70191 21.3642 2.71931 20.358 2.65994C19.8544 2.64254 19.4598 2.59904 19.1906 2.57396C18.9214 2.54837 18.7781 2.53506 18.7781 2.53506C18.6768 2.52534 18.6026 2.43576 18.6123 2.33494C18.6215 2.23821 18.7039 2.16606 18.7991 2.1681L18.8257 2.1686C18.8257 2.1686 18.968 2.1722 19.2346 2.17885C19.5008 2.18755 19.8902 2.1942 20.3862 2.19113C21.3775 2.207 22.7886 2.09747 24.4837 1.94598C25.3307 1.87125 26.2514 1.7648 27.228 1.65579C28.2055 1.54422 29.2424 1.42188 30.3259 1.36251C31.412 1.29547 32.5364 1.2617 33.7023 1.2924C33.995 1.30469 34.2893 1.31748 34.5846 1.32976L35.4347 1.39835C35.7346 1.43366 36.1252 1.43264 36.615 1.72641C36.6697 1.76224 36.7316 1.80626 36.8048 1.87074L36.8529 1.91475C36.9041 1.96286 36.9103 1.97566 36.9405 2.00841C37.0408 2.11948 37.1211 2.24794 37.183 2.37947C37.3064 2.6451 37.3463 2.91994 37.333 3.16356C37.2987 3.65335 37.1247 4.06382 36.8289 4.41901C36.4757 4.83152 36.0694 5.00042 35.665 5.09407C34.8513 5.25273 34.2243 5.07104 33.6977 5.00962C32.5993 4.84328 31.5118 4.70971 30.4549 4.60735C29.396 4.50652 28.3718 4.40929 27.401 4.31665C26.4275 4.23323 25.5042 4.16873 24.6505 4.11397C22.9432 4.0157 21.5162 3.8852 20.5167 3.82736C19.5171 3.7552 18.9455 3.6989 18.9455 3.6989L18.924 3.69634C18.8027 3.68457 18.7136 3.57658 18.7259 3.45528C18.7372 3.34064 18.8354 3.25465 18.949 3.25618Z" fill="#201E20"/>
<path d="M18.4439 2.1942C18.4439 2.1942 18.4465 2.16708 18.4511 2.11641C18.4531 2.08161 18.4511 2.01097 18.4265 1.92857C18.3779 1.76429 18.2213 1.51248 17.8861 1.38965C17.5575 1.26477 17.0902 1.19005 16.6234 1.10048C16.148 1.01808 15.6372 0.949498 15.1239 0.903436C14.0941 0.845602 13.0628 0.890643 12.2956 0.969972C11.9118 1.00631 11.596 1.07387 11.3749 1.11123C11.1543 1.15524 11.0284 1.17982 11.0284 1.17982C10.9327 1.19875 10.8396 1.13631 10.8206 1.04061C10.8053 0.964349 10.8416 0.889618 10.9056 0.852768L10.9711 0.815407C10.9711 0.815407 11.0919 0.74581 11.3104 0.643449C11.529 0.544672 11.8468 0.415696 12.2383 0.30873C12.4344 0.252943 12.6478 0.196648 12.8765 0.158263C13.1048 0.115784 13.3469 0.0686929 13.5987 0.0507801C13.8505 0.0292842 14.112 -0.00500536 14.3777 0.000624418C14.6433 -0.000910997 14.9135 0.0026722 15.1838 0.0139318C15.453 0.0374746 15.7211 0.0676694 15.9847 0.10196C16.2488 0.132156 16.5037 0.199196 16.7514 0.249353C17.0063 0.303092 17.2417 0.378844 17.4505 0.447426C17.6726 0.513448 17.905 0.597901 18.1338 0.721756C18.2489 0.784196 18.3523 0.847145 18.4588 0.93671C18.5325 1.00427 18.6461 1.11481 18.7034 1.20182C18.84 1.38556 18.901 1.57696 18.9286 1.73409C18.9578 1.89479 18.9358 2.01712 18.9199 2.1077C18.901 2.2029 18.8846 2.20905 18.8856 2.21672C18.903 2.33905 18.8175 2.45266 18.6952 2.46955C18.5724 2.48644 18.4593 2.40097 18.4424 2.27865C18.4398 2.26176 18.4393 2.24487 18.4408 2.2285L18.4439 2.1942Z" fill="#201E20"/>
<path d="M11.6339 5.43479C11.6144 5.43837 11.5745 5.444 11.5203 5.44604C11.4793 5.44604 11.4389 5.44246 11.399 5.43581C11.3201 5.42199 11.2454 5.39487 11.1779 5.3575C11.0428 5.28227 10.9332 5.16609 10.8677 5.02586L10.8652 5.01972C10.817 4.91685 10.8616 4.79453 10.9644 4.74642C10.9757 4.7413 10.9885 4.73721 11.0003 4.73413C11.7209 4.54784 12.4441 4.5591 13.1396 4.53146C13.4882 4.51867 13.8331 4.49665 14.1678 4.4337C14.3357 4.40351 14.4995 4.36257 14.6602 4.3119C14.7416 4.28938 14.8178 4.25407 14.8972 4.22592C14.9402 4.2121 14.9724 4.19316 14.9642 4.19777C14.9632 4.19316 14.9499 4.22693 14.954 4.21619C14.9499 4.23871 14.9545 4.23974 14.9545 4.23974C14.9535 4.22387 14.8992 4.18293 14.8173 4.13379C14.7513 4.09541 14.6858 4.06522 14.6095 4.03604C14.4606 3.98333 14.2994 3.95773 14.1336 3.95005C13.8009 3.93419 13.4544 3.98536 13.0982 4.01147C12.397 4.05906 11.6564 4.09284 10.9583 3.83182L10.9527 3.82927C10.9163 3.81597 10.8918 3.78423 10.8851 3.74892C10.8554 3.58872 10.9399 3.48228 11.01 3.40858C11.0888 3.33488 11.1728 3.27551 11.3012 3.25401L11.8176 3.20078L12.8479 3.09535L13.8761 2.98838C14.0455 2.96893 14.2119 2.94334 14.371 2.89932C14.4509 2.87732 14.5287 2.85071 14.6034 2.81847C14.6704 2.7893 14.7733 2.73555 14.7692 2.72173C14.7815 2.71712 14.7626 2.68591 14.6909 2.66134C14.6367 2.64087 14.5497 2.65059 14.4606 2.64752C14.2891 2.6465 14.1197 2.65059 13.9473 2.65724L12.9144 2.70996C12.569 2.72685 12.2209 2.7376 11.8714 2.72737C11.6968 2.72071 11.5218 2.7115 11.3473 2.69154C11.2644 2.68079 11.1707 2.68079 11.0658 2.63985C10.9757 2.61068 10.8319 2.50678 10.8478 2.343C10.8518 2.29541 10.8867 2.25804 10.9302 2.24729C11.619 2.08249 12.3197 2.09119 12.9994 2.05485C13.3397 2.03694 13.6775 2.00828 14.0051 1.94277C14.1689 1.90899 14.3291 1.86549 14.4862 1.81328C14.6413 1.75699 14.7912 1.68943 14.9366 1.61215L14.9458 1.83888C14.6653 1.71451 14.3316 1.72628 13.9923 1.74164L12.9671 1.79384L11.9389 1.84707C11.594 1.85833 11.1932 1.83888 10.8513 1.61164C10.8344 1.60038 10.8196 1.58502 10.8083 1.56915C10.73 1.45809 10.6963 1.33475 10.6963 1.20936C10.6973 1.14538 10.705 1.07987 10.7357 1.00669C10.7602 0.941688 10.8401 0.827043 10.9875 0.813224C11.0893 0.806571 11.1774 0.883347 11.184 0.985195C11.1907 1.08653 11.1139 1.17457 11.0121 1.18173C11.0684 1.18327 11.0873 1.1459 11.0852 1.16176C11.0868 1.17046 11.0863 1.19299 11.0914 1.21602C11.0996 1.26259 11.1272 1.30815 11.1507 1.3235L11.0909 1.26515C11.3278 1.37621 11.6093 1.38338 11.9313 1.34704L12.9456 1.22369C13.2865 1.18479 13.6264 1.13259 13.9677 1.107C14.3019 1.08141 14.7375 1.02409 15.2242 1.21448C15.5037 1.32401 15.6418 1.63928 15.5323 1.91923C15.4863 2.03695 15.4033 2.1301 15.302 2.18998L15.2657 2.21096C15.0886 2.31536 14.9048 2.40647 14.7165 2.48272C14.5271 2.55438 14.3367 2.61374 14.1464 2.66134C13.7656 2.75398 13.3925 2.80003 13.0367 2.83484C12.3264 2.90956 11.6707 2.91827 11.1252 3.07078L11.6897 2.4208C11.7168 2.27135 11.6288 2.0482 11.5418 1.96836C11.4548 1.87777 11.4087 1.86294 11.3785 1.84758L11.3468 1.8353L11.3196 1.82915C11.312 1.82813 11.355 1.83427 11.3289 1.82967L11.442 1.83939C11.5919 1.85218 11.7465 1.85628 11.9021 1.85833C12.2153 1.85731 12.5398 1.85116 12.875 1.8312L13.9181 1.77234C14.0926 1.76517 14.2897 1.75954 14.4719 1.75954H14.6013L14.652 1.76057C14.6914 1.7621 14.7303 1.76518 14.7646 1.76979C14.8352 1.77951 14.8992 1.79435 14.9647 1.81533C15.0937 1.86088 15.2344 1.91155 15.4156 2.09529C15.5057 2.19151 15.607 2.34505 15.6459 2.54619C15.6551 2.59686 15.6608 2.64548 15.6618 2.6987C15.6628 2.76626 15.6557 2.83535 15.6419 2.90189L15.6275 2.96126L15.625 2.96893L15.5942 3.0585L15.5809 3.09022C15.4059 3.43978 15.1797 3.514 15.1439 3.54522C15.085 3.57747 15.0256 3.60613 14.9663 3.63274C14.8475 3.68494 14.7293 3.72486 14.6152 3.7571C14.3869 3.82005 14.1755 3.85076 13.9862 3.87328L12.9451 3.98128L11.9154 4.08722L11.4123 4.13072C11.6124 4.0867 11.5842 4.06265 11.6329 4.02887C11.6503 4.0084 11.6748 3.98281 11.7061 3.91525C11.7347 3.8523 11.7777 3.71667 11.7347 3.54215L11.2664 3.01294C11.7163 3.20896 12.3571 3.20385 13.0316 3.18799C13.351 3.18133 13.7251 3.13578 14.1658 3.16802C14.3849 3.18542 14.6239 3.22689 14.8598 3.31799L15.0348 3.39527C15.0968 3.42854 15.173 3.47049 15.2196 3.50069C15.2493 3.54471 15.4602 3.59435 15.6331 3.94852C15.6726 4.05241 15.7099 4.16655 15.6756 4.36052C15.6598 4.43217 15.6582 4.42757 15.6577 4.43115L15.6331 4.49716L15.6091 4.54784C15.5738 4.61438 15.5287 4.67119 15.4852 4.71418C15.2959 4.88154 15.2104 4.87948 15.1776 4.89791C15.0799 4.92964 14.9826 4.96854 14.8844 4.99311C14.6884 5.04736 14.4918 5.08881 14.2989 5.11594C13.9119 5.17684 13.5363 5.17889 13.176 5.16917C12.8151 5.16149 12.4676 5.14409 12.1283 5.1446C11.7885 5.14204 11.4594 5.16763 11.1354 5.21676L11.3201 4.80886C11.3288 4.85543 11.358 4.90508 11.401 4.94142C11.4225 4.95984 11.4466 4.97416 11.4722 4.9844C11.4844 4.98952 11.4972 4.9931 11.5106 4.99617L11.5192 5.00078L11.5597 4.99873L11.5832 4.99719C11.705 4.99054 11.8089 5.08369 11.8156 5.20499C11.8222 5.3181 11.7424 5.41585 11.6339 5.43479Z" fill="#201E20"/>
<path d="M38.7472 32.7216C38.7472 32.7216 38.7196 32.3541 38.6668 31.6642C38.6494 31.4928 38.6494 31.2988 38.6136 31.09C38.5762 30.8812 38.5353 30.6534 38.4913 30.4072C38.4432 30.1621 38.4094 29.8954 38.3408 29.6175C38.263 29.3427 38.1796 29.0505 38.0916 28.7418C37.7113 27.5232 37.1314 26.058 36.1002 24.6085C35.0858 23.1586 33.685 21.6928 31.8732 20.5059C30.9494 19.945 29.9596 19.3979 28.8561 19.0268C28.5818 18.9321 28.3049 18.8364 28.026 18.7402C27.7394 18.6711 27.4502 18.6015 27.159 18.5314C26.5771 18.3599 25.9875 18.3349 25.3922 18.2345C25.0959 18.19 24.7556 18.2023 24.4357 18.1829L23.9469 18.1654L23.7012 18.1562L23.4976 18.1706C22.8685 18.2212 22.2283 18.2228 21.5967 18.3594C20.3213 18.537 19.0602 18.9418 17.837 19.468C16.6123 20.0038 15.4761 20.7634 14.412 21.6252C13.3669 22.5173 12.4524 23.5737 11.6652 24.7267C10.9001 25.8988 10.3192 27.1911 9.89385 28.5356C9.49567 29.919 9.32882 31.2113 9.29146 32.7626L9.34059 33.7831C9.34059 34.1383 9.39996 34.4873 9.45319 34.8374C9.52535 35.5437 9.7183 36.2244 9.88924 36.9097C10.314 38.2547 10.8939 39.548 11.6585 40.7211C12.4457 41.8757 13.3598 42.9331 14.4049 43.8262C14.6638 44.0509 14.9479 44.2443 15.2166 44.4542L15.625 44.7613L16.059 45.0274C16.3492 45.2014 16.6251 45.4 16.925 45.5535C17.2264 45.7035 17.5264 45.8529 17.8258 46.0019C19.0387 46.5341 20.3249 46.9676 21.5716 47.1334C22.173 47.2681 22.867 47.2742 23.5185 47.3228C23.7908 47.354 24.1363 47.3105 24.4393 47.3085C24.7509 47.2896 25.0642 47.3028 25.3692 47.2583C27.8294 46.9999 30.0681 46.1365 31.8983 44.9752C33.7264 43.7975 35.1226 42.3128 36.1247 40.8516C37.1463 39.3914 37.7149 37.921 38.086 36.7004C38.1714 36.3912 38.2523 36.0985 38.3285 35.8231C38.3946 35.5468 38.4258 35.2832 38.4718 35.0401C38.5138 34.7959 38.5527 34.5697 38.5885 34.363C38.6233 34.1552 38.6218 33.9551 38.6382 33.7821C38.6858 33.0835 38.7114 32.7109 38.7114 32.7109L38.7472 32.7216ZM39.1531 32.7329C39.1531 32.7329 39.1331 33.106 39.0957 33.8051C39.0819 33.9806 39.0865 34.1741 39.0543 34.3911C39.021 34.6086 38.9842 34.8456 38.9447 35.102C38.9012 35.3569 38.8716 35.6358 38.8071 35.9245C38.7329 36.2101 38.6541 36.5136 38.5706 36.8345C38.2067 38.1017 37.6397 39.633 36.6033 41.1653C35.5858 42.6982 34.1574 44.2658 32.2668 45.5259C30.3767 46.7737 28.0331 47.6964 25.4526 47.9974C25.1322 48.047 24.8037 48.0383 24.4761 48.0614C24.1455 48.067 23.8236 48.1156 23.4801 48.0854C22.822 48.0424 22.1576 48.0465 21.4805 47.9119C20.1186 47.744 18.7895 47.308 17.4905 46.7563C16.1921 46.1912 14.9858 45.3918 13.8567 44.4798C12.7471 43.538 11.7747 42.4218 10.9379 41.2001C10.1236 39.96 9.50232 38.591 9.04836 37.1641C8.62254 35.7228 8.43215 34.2284 8.40144 32.7175C8.4342 31.2307 8.6251 29.7168 9.05245 28.2807C9.50745 26.8548 10.1293 25.4868 10.9441 24.2477C11.7814 23.0271 12.7543 21.9124 13.8639 20.9722C14.9924 20.0617 16.1987 19.2638 17.4962 18.6998C18.7926 18.1501 20.1268 17.7151 21.4785 17.5492C22.1474 17.4157 22.823 17.4192 23.4858 17.3762C23.8328 17.3476 24.1465 17.3957 24.4756 17.4013C24.8006 17.4249 25.1225 17.4157 25.4444 17.4658C28.0337 17.7688 30.3634 18.6916 32.2529 19.9388C34.1394 21.1979 35.5638 22.764 36.5782 24.2948C37.6115 25.8246 38.176 27.3533 38.5384 28.6185C38.6213 28.9384 38.7001 29.2414 38.7738 29.5264C38.8373 29.8135 38.8664 30.0889 38.9094 30.3423C38.9488 30.5961 38.9852 30.831 39.0185 31.046C39.0502 31.2614 39.0461 31.4605 39.0599 31.6366C39.0968 32.3444 39.1167 32.7216 39.1167 32.7216L39.1531 32.7329Z" fill="#201E20"/>
<path d="M32.4843 32.7215C32.4843 32.7215 32.4622 32.5075 32.4203 32.1058C32.409 31.9046 32.3599 31.661 32.2969 31.377C32.2483 31.0903 32.1582 30.7694 32.0451 30.4153C31.8143 29.7121 31.4658 28.8691 30.8578 28.0415C30.259 27.2139 29.4395 26.3843 28.3939 25.7128C27.355 25.0552 26.0269 24.5807 24.6834 24.4543C24.5175 24.4308 24.3108 24.4395 24.1245 24.4303L23.8363 24.4226L23.6915 24.4185C23.6562 24.418 23.7196 24.419 23.7069 24.4195L23.6905 24.421L23.6567 24.4236L23.5891 24.4287C23.2309 24.462 22.8665 24.4661 22.5077 24.549C21.7835 24.6601 21.0675 24.8883 20.374 25.1908C19.6795 25.4979 19.0362 25.9329 18.4338 26.4237C17.8421 26.9325 17.3262 27.5343 16.882 28.1894C16.451 28.8558 16.1255 29.5892 15.887 30.3508C15.6644 31.1472 15.5774 31.8258 15.5544 32.7624C15.5569 32.6877 15.5554 32.7522 15.5564 32.7404L15.5574 32.7593L15.559 32.7967L15.562 32.8719L15.5687 33.0219L15.5805 33.3223C15.5789 33.524 15.6122 33.7215 15.6414 33.9196C15.6798 34.3193 15.7883 34.7052 15.8824 35.0937C16.1204 35.8562 16.4449 36.5907 16.8753 37.2581C17.3196 37.9147 17.8355 38.5176 18.4266 39.0279C19.0315 39.5177 19.6713 39.9578 20.3622 40.2787C21.046 40.5873 21.7876 40.8448 22.4821 40.9436C22.8112 41.0244 23.2293 41.0326 23.6106 41.0643C23.9274 41.0736 24.3179 41.0602 24.6603 41.0377C26.0698 40.9047 27.356 40.42 28.419 39.7685C29.48 39.1047 30.2973 38.2586 30.8879 37.4213C31.4898 36.5845 31.8302 35.737 32.0549 35.0312C32.1071 34.8521 32.1562 34.6827 32.2023 34.5235C32.2427 34.3633 32.2627 34.2123 32.2908 34.0721C32.3466 33.7927 32.3901 33.5511 32.3973 33.3407C32.4305 32.9298 32.4479 32.7107 32.4479 32.7107L32.4843 32.7215ZM32.8896 32.7327C32.8896 32.7327 32.8778 32.9523 32.8553 33.3638C32.8533 33.5669 32.8154 33.8269 32.7642 34.134C32.7376 34.286 32.7197 34.4529 32.6813 34.6243C32.6368 34.7943 32.5897 34.9744 32.5395 35.1648C32.322 35.9177 31.9832 36.8266 31.366 37.7351C30.7605 38.6445 29.9109 39.5735 28.7875 40.3186C27.6646 41.0567 26.2735 41.6017 24.7438 41.7773C24.3589 41.809 23.9766 41.832 23.5723 41.8269C23.1843 41.8008 22.7958 41.8029 22.3915 41.722C21.5813 41.6207 20.7968 41.3612 20.0275 41.0331C19.2593 40.6969 18.5453 40.2224 17.8785 39.6815C17.2228 39.1226 16.6486 38.4613 16.1547 37.7376C15.6746 37.0027 15.3087 36.1925 15.0421 35.348C14.7918 34.4943 14.6807 33.614 14.6643 32.7174C14.6828 31.8447 14.7943 30.9445 15.0456 30.0964C15.3133 29.253 15.6803 28.4433 16.1608 27.7099C16.6552 26.9877 17.2295 26.3275 17.8851 25.7702C18.552 25.2307 19.2654 24.7578 20.0331 24.4231C21.5573 23.7409 23.2253 23.5218 24.7351 23.6856C26.2741 23.8637 27.6518 24.4083 28.7737 25.1458C29.8925 25.8904 30.7385 26.8178 31.3409 27.7247C31.9551 28.6311 32.2913 29.537 32.5073 30.2873C32.5569 30.4772 32.6035 30.6568 32.6475 30.8257C32.6854 30.9962 32.7033 31.1594 32.7289 31.3099C32.7796 31.6103 32.8174 31.8673 32.819 32.0781C32.8415 32.4978 32.8538 32.7215 32.8538 32.7215L32.8896 32.7327Z" fill="#201E20"/>
<path d="M31.3193 32.722C31.3193 32.722 31.2983 32.5368 31.2589 32.1882C31.2476 32.0142 31.2036 31.8034 31.1473 31.5577C31.1028 31.3095 31.0224 31.0326 30.9232 30.726C30.7189 30.119 30.4134 29.3923 29.8832 28.6803C29.3611 27.9689 28.6497 27.2575 27.7464 26.6823C26.8508 26.1193 25.6997 25.715 24.5512 25.6121C24.4095 25.5926 24.2278 25.6003 24.0666 25.5932L23.8158 25.587L23.6899 25.5844C23.6551 25.5834 23.7196 25.585 23.7078 25.5855L23.6929 25.5865L23.6643 25.5891L23.6065 25.5937C23.2984 25.6239 22.9851 25.6285 22.677 25.7006C22.0557 25.7994 21.4405 25.9949 20.8458 26.2565C20.2496 26.5205 19.6984 26.8952 19.1814 27.3169C18.6747 27.7545 18.2331 28.2719 17.8523 28.8344C17.4838 29.4066 17.2054 30.0361 17.0022 30.6892C16.9208 31.0223 16.8287 31.3586 16.7985 31.6739C16.7345 31.9467 16.7432 32.4329 16.7207 32.722C16.7304 33.4094 16.8092 34.0962 16.9976 34.7565C17.2003 35.4105 17.4776 36.0411 17.8461 36.6143C18.2264 37.1783 18.6681 37.6967 19.1748 38.1354C19.6938 38.5561 20.2419 38.9358 20.834 39.2147C21.4195 39.4819 22.0593 39.7061 22.652 39.7926C22.9299 39.8632 23.2968 39.8719 23.6274 39.9006C23.8941 39.9098 24.2349 39.8995 24.5282 39.8811C25.7422 39.7716 26.8518 39.357 27.772 38.8002C28.6897 38.2321 29.399 37.5053 29.9134 36.7837C30.4375 36.0631 30.7353 35.3312 30.9329 34.7211C31.0301 34.4125 31.1054 34.1356 31.1412 33.8925C31.1903 33.6515 31.2292 33.4427 31.2364 33.2589C31.2666 32.9017 31.283 32.7113 31.283 32.7113L31.3193 32.722ZM31.7246 32.7333C31.7246 32.7333 31.7139 32.9242 31.6939 33.2825C31.6924 33.4585 31.6591 33.6858 31.6141 33.9544C31.5824 34.2252 31.5107 34.5246 31.4176 34.8547C31.2272 35.5119 30.9308 36.3052 30.3919 37.0979C29.8627 37.8907 29.1206 38.7009 28.1405 39.3504C27.1599 39.9937 25.9464 40.4687 24.6116 40.6201C24.2759 40.6483 23.9432 40.6677 23.5891 40.6631C23.2518 40.6401 22.9145 40.6416 22.5609 40.571C21.8535 40.482 21.1698 40.2557 20.4993 39.9691C19.8299 39.6754 19.2075 39.2613 18.6266 38.7889C18.0555 38.3017 17.5554 37.7249 17.1255 37.0938C16.7074 36.4531 16.389 35.7468 16.1572 35.0108C15.9392 34.2687 15.8435 33.4954 15.8297 32.722C15.8455 31.9554 15.9417 31.1754 16.1608 30.4348C16.3937 29.6998 16.713 28.9941 17.1317 28.3548C17.5621 27.7253 18.0621 27.1495 18.6333 26.6638C19.2147 26.193 19.836 25.7805 20.505 25.4882C21.8331 24.893 23.2881 24.7011 24.6029 24.8434C25.9469 24.9979 27.1471 25.4724 28.1262 26.1152C29.1027 26.7642 29.8407 27.5723 30.3668 28.363C30.9027 29.1538 31.1965 29.944 31.3853 30.5986C31.4779 30.9282 31.5486 31.2255 31.5788 31.4906C31.6233 31.7527 31.6561 31.9768 31.6581 32.1606C31.6776 32.527 31.6883 32.722 31.6883 32.722L31.7246 32.7333Z" fill="#201E20"/>
<path d="M11.162 29.2649C11.162 29.2649 11.1584 29.1073 11.1789 28.8069C11.1937 28.5024 11.2598 28.0883 11.3765 27.597C11.6073 26.6148 12.1923 25.387 13.049 24.3685C13.4544 23.8506 13.9145 23.3659 14.369 22.9467C14.825 22.5271 15.2754 22.1637 15.6695 21.8643C16.0641 21.5659 16.3931 21.3172 16.6235 21.1432C16.8568 20.9737 16.9904 20.8765 16.9904 20.8765C17.0703 20.8181 17.1823 20.8361 17.2407 20.9159C17.2898 20.9835 17.2847 21.0735 17.2345 21.135L17.1941 21.1846C17.1941 21.1846 17.0851 21.3172 16.8886 21.5347C16.691 21.7501 16.408 22.0531 16.0651 22.3971C15.7324 22.739 15.3445 23.1381 14.9289 23.566C14.7226 23.7743 14.5343 24.0087 14.3255 24.2268C14.1177 24.4586 13.9498 24.6618 13.7374 24.9351C13.5639 25.1475 13.373 25.4019 13.2128 25.6424C13.0572 25.8911 12.8858 26.1261 12.7507 26.3717C12.6196 26.6179 12.4784 26.8518 12.3699 27.0857C12.2593 27.3185 12.1605 27.5422 12.072 27.7531C11.9062 28.1743 11.7879 28.5551 11.7178 28.812C11.6805 28.9379 11.6523 29.0612 11.6334 29.136C11.6144 29.2132 11.6042 29.2542 11.6042 29.2542L11.5899 29.312C11.5612 29.4287 11.444 29.4999 11.3273 29.4712C11.2301 29.4471 11.1641 29.3606 11.162 29.2649Z" fill="#201E20"/>
<path d="M19.1947 19.9946C19.1947 19.9946 19.2899 20.0058 19.4286 20.0038C19.4962 19.9976 19.5775 19.9992 19.6599 19.9838C19.7429 19.969 19.8309 19.9531 19.9194 19.9372C20.0049 19.9111 20.0904 19.8855 20.1707 19.8615C20.2511 19.8379 20.3217 19.799 20.3847 19.7745C20.507 19.7136 20.5853 19.6603 20.5853 19.6603C20.6257 19.6327 20.6805 19.6435 20.7076 19.6839C20.7209 19.7028 20.725 19.7254 20.7219 19.7463L20.681 20.0171C20.681 20.0171 20.6472 20.2372 20.5556 20.4127C20.5111 20.5069 20.4527 20.5908 20.3831 20.6553C20.3468 20.6819 20.3145 20.7285 20.2726 20.7413L20.1497 20.7986L20.0167 20.816C19.9737 20.8262 19.9235 20.8058 19.879 20.8027C19.7879 20.7853 19.6963 20.7454 19.6118 20.6896C19.4465 20.5903 19.3088 20.4219 19.3088 20.4219L19.1005 20.167C19.0637 20.1215 19.0703 20.0549 19.1154 20.0181C19.1384 19.9992 19.1671 19.9915 19.1947 19.9946Z" fill="#201E20"/>
<path d="M25.2713 45.7259C25.2713 45.7259 25.4551 45.7096 25.7765 45.6809C25.9393 45.6707 26.1286 45.6446 26.3451 45.6103C26.5626 45.5821 26.8088 45.5437 27.0734 45.4741C27.3411 45.4184 27.6251 45.3365 27.925 45.2464C28.2275 45.163 28.5346 45.0401 28.857 44.926C29.1718 44.7929 29.5024 44.6655 29.8228 44.5012C30.1509 44.3528 30.4656 44.1665 30.787 43.992C31.4053 43.5999 31.9933 43.1639 32.5118 42.7165C32.7626 42.4837 33.0149 42.2682 33.2293 42.0394C33.4489 41.8153 33.6536 41.6013 33.8276 41.3899C34.0119 41.1878 34.1618 40.9872 34.2898 40.805C34.4218 40.6269 34.5339 40.4697 34.6168 40.3336C34.7883 40.0659 34.8866 39.9134 34.8866 39.9134C34.9408 39.829 35.0534 39.8044 35.1379 39.8586C35.21 39.9052 35.2382 39.9937 35.211 40.071L35.1962 40.1145C35.1962 40.1145 35.1333 40.2952 35.0022 40.6069C34.9383 40.764 34.8507 40.9493 34.7346 41.1525C34.625 41.3613 34.4945 41.5936 34.3261 41.8286C34.1695 42.0742 33.9812 42.326 33.7652 42.5799C33.5574 42.8414 33.3133 43.0953 33.0538 43.3512C32.782 43.5922 32.5169 43.866 32.2027 44.0856C31.9017 44.3246 31.5737 44.535 31.2507 44.7535C30.9088 44.9408 30.5726 45.1389 30.2235 45.2981C29.8837 45.4767 29.5203 45.5898 29.182 45.7229C28.836 45.838 28.4983 45.9389 28.1707 46.0064C27.8467 46.0837 27.5361 46.1369 27.2464 46.1656C26.9618 46.2091 26.6911 46.2209 26.4511 46.2244C26.2115 46.2372 26.0073 46.2306 25.8456 46.2152C25.5175 46.1902 25.3287 46.1646 25.3287 46.1646L25.2621 46.1554C25.1434 46.1395 25.0605 46.031 25.0763 45.9122C25.0902 45.8104 25.1731 45.7346 25.2713 45.7259Z" fill="#201E20"/>
<path d="M35.6794 38.0621C35.6794 38.0621 35.7818 37.9945 35.901 37.8819C35.9578 37.821 36.029 37.7499 36.0879 37.6624C36.1457 37.5743 36.2035 37.4776 36.2573 37.3783C36.3008 37.2744 36.3392 37.1685 36.3709 37.0676C36.4026 36.9668 36.4118 36.867 36.4241 36.7841C36.4374 36.6152 36.4226 36.5021 36.4226 36.5021C36.4149 36.4432 36.4563 36.3895 36.5152 36.3818C36.5454 36.3777 36.5746 36.387 36.5971 36.4049L36.787 36.561C36.787 36.561 36.9717 36.7125 37.0654 36.9438C37.1191 37.06 37.1483 37.1941 37.1488 37.3322C37.1427 37.3988 37.1545 37.4761 37.1299 37.5411L37.07 37.7448L36.962 37.9275C36.9298 37.9894 36.8673 38.0334 36.8233 38.0831C36.722 38.1762 36.6058 38.2458 36.4855 38.2852C36.3745 38.3262 36.246 38.3538 36.1672 38.3472C36.0827 38.3451 36.0259 38.3369 36.0259 38.3369L35.7311 38.2944C35.6615 38.2847 35.6129 38.2202 35.6231 38.1506C35.6282 38.1133 35.6503 38.0815 35.6794 38.0621Z" fill="#201E20"/>
<path d="M18.837 30.2733C18.8462 30.2708 18.7101 30.3823 18.5785 30.5481C18.4352 30.7288 18.2479 31.0257 18.1404 31.4341C18.0319 31.8404 17.9803 32.3415 17.9946 32.8825C18.0156 33.4209 18.0427 34.0115 18.2152 34.552C18.4071 35.0883 18.7889 35.5316 19.1692 35.9159C19.5561 36.3003 19.9215 36.6601 20.2624 36.9155C20.6017 37.176 20.9308 37.3044 21.158 37.3556C21.3873 37.4073 21.5188 37.4017 21.5188 37.4017C21.6186 37.3976 21.7026 37.4749 21.7067 37.5747C21.7103 37.6658 21.6453 37.7446 21.5577 37.7594L21.4968 37.7702C21.4968 37.7702 21.4554 37.7773 21.3776 37.7912C21.2993 37.8024 21.179 37.8224 21.0285 37.8101C20.7256 37.8024 20.289 37.6868 19.8565 37.4406C19.6385 37.3213 19.4169 37.178 19.2065 37.0137C18.9905 36.8479 18.7848 36.6964 18.5678 36.4948C18.3544 36.2957 18.1123 36.0838 17.9091 35.8044C17.6988 35.5259 17.5109 35.2153 17.3738 34.8473C17.256 34.4921 17.1998 34.1477 17.1644 33.8308C17.1261 33.514 17.1337 33.2223 17.1348 32.9183C17.147 32.3205 17.2545 31.7376 17.4485 31.2637C17.6368 30.7851 17.9132 30.435 18.1399 30.2349C18.2592 30.1228 18.3574 30.0619 18.4163 30.0302C18.4777 29.9939 18.511 29.9744 18.511 29.9744C18.5934 29.8843 18.7331 29.8782 18.8232 29.9606C18.9133 30.043 18.9194 30.1832 18.837 30.2733Z" fill="#201E20"/>
</svg>
