<svg width="22" height="12" viewBox="0 0 22 12" fill="none" xmlns="http://www.w3.org/2000/svg">
<path d="M17.2739 2.09367L17.3097 2.10947L17.3084 2.07561L17.2739 2.09367ZM2.5422 9.28994C2.55547 9.28038 2.57008 9.27082 2.58336 9.26125C2.55282 9.25541 2.52228 9.24585 2.49174 9.24532C2.47846 9.24519 2.46385 9.26285 2.45057 9.27241C2.48111 9.27825 2.51165 9.2841 2.5422 9.28994V9.28994ZM4.68409 8.55322C4.71729 8.55296 4.75049 8.55495 4.78368 8.55056C4.79165 8.5495 4.79564 8.52666 4.80095 8.51378C4.76908 8.51432 4.73588 8.51259 4.70401 8.51724C4.69604 8.51843 4.69073 8.54061 4.68409 8.55322V8.55322ZM11.7193 2.77515C11.7233 2.73929 11.7392 2.6972 11.7273 2.6644C11.718 2.63784 11.6768 2.62244 11.6489 2.60199C11.6423 2.63864 11.621 2.681 11.633 2.70995C11.6449 2.7389 11.6901 2.75443 11.7193 2.77515V2.77515ZM0.636665 8.58111C0.689781 8.96327 0.689782 8.96328 0.847801 9.0792C0.863736 8.88347 0.790701 8.7366 0.636665 8.58111ZM15.8358 2.72854C15.7853 2.87686 15.7534 2.92985 15.7521 2.9831C15.7508 3.08282 15.7667 3.1848 15.8849 3.22066C15.9008 3.22517 15.9367 3.21349 15.938 3.20512C15.95 3.12983 15.9699 3.05241 15.9632 2.97818C15.9566 2.92427 15.9128 2.87447 15.8358 2.72854V2.72854ZM12.6794 1.86209C12.6369 1.39161 12.6369 1.39135 12.3686 1.17092C12.4377 1.37488 12.4204 1.60978 12.6794 1.86209ZM12.4032 2.35487C12.3739 1.83513 12.3089 1.69198 12.0021 1.54645C12.111 1.82451 12.2053 2.07481 12.3075 2.32233C12.3155 2.34278 12.37 2.34464 12.4032 2.35487ZM18.6868 3.0884C18.6761 3.07207 18.6682 3.05148 18.6536 3.04033C18.5048 2.92533 18.2977 2.95627 18.2034 3.11615C18.1782 3.15931 18.1662 3.24695 18.1901 3.27444C18.2366 3.32437 18.3256 3.38399 18.376 3.36885C18.4809 3.33711 18.5752 3.26395 18.6668 3.19755C18.6881 3.18188 18.6814 3.12585 18.6868 3.0884ZM2.65241 7.62901C2.6139 7.64454 2.57407 7.66008 2.53423 7.67561C2.58469 7.90189 2.62984 8.12936 2.68959 8.35271C2.69623 8.37727 2.78786 8.39016 2.83965 8.38657C2.86488 8.38484 2.91135 8.32947 2.90737 8.30637C2.86089 8.06509 2.82637 7.81624 2.65241 7.62901V7.62901ZM1.02441 8.28937C1.03371 8.55256 0.919507 8.85306 1.23289 9.01374C1.24484 9.01998 1.2807 9.00816 1.28601 8.99634C1.41348 8.69092 1.1904 8.49811 1.02441 8.28937V8.28937ZM21.6387 8.77113C21.628 8.64365 21.466 8.51896 21.3452 8.54579C21.219 8.57354 21.1301 8.70181 21.1288 8.85664C21.1288 8.98359 21.2323 9.08956 21.3465 9.07893C21.5138 9.0634 21.6506 8.91919 21.6387 8.77113ZM14.7217 1.01303C14.5796 0.836419 14.472 0.704691 14.3299 0.527816C14.3724 1.13905 14.4375 1.18977 15.047 1.12563C14.9846 1.00068 14.9275 0.886879 14.8584 0.750637C14.8133 0.839075 14.7867 0.889668 14.7217 1.01303ZM19.2299 4.0405C19.3985 4.02257 19.522 3.91355 19.5087 3.79338C19.4941 3.64957 19.3255 3.49168 19.19 3.49394C19.0559 3.49606 18.9165 3.6744 18.9244 3.83441C18.9298 3.96242 19.0705 4.05736 19.2299 4.0405ZM3.0614 7.34006C2.96048 7.66844 3.05078 7.91437 3.14772 8.14994C3.29511 8.2008 3.45048 8.19376 3.4518 8.05473C3.45313 7.78371 3.35089 7.53685 3.0614 7.34006V7.34006ZM12.7351 0.961374C12.8095 1.26573 12.8467 1.49519 13.0419 1.65653C13.4548 1.45482 13.4615 1.41618 13.172 0.933887C13.1401 1.04012 13.1122 1.13865 13.0777 1.25617C12.9635 1.15817 12.8799 1.08593 12.7351 0.961374V0.961374ZM21.1527 8.12033C21.4143 8.06044 21.5431 7.8667 21.4953 7.66858C21.4647 7.54522 21.3439 7.45054 21.239 7.46926C21.0225 7.5079 20.8326 7.77295 20.9216 7.94969C20.9654 8.03507 21.0929 8.0781 21.1527 8.12033V8.12033ZM15.2581 2.8106C15.8158 2.16763 15.8158 2.1687 16.6378 2.07747C16.6816 2.07256 16.7215 2.02834 16.7865 1.98771C16.2872 1.91082 15.8663 1.98439 15.5649 2.19021C15.3604 2.3311 15.2329 2.50983 15.2581 2.8106ZM13.4044 0.60563C13.4256 0.731913 13.4323 0.809064 13.4509 0.882895C13.581 1.3875 13.6567 1.40941 14.1732 1.06548C14.1135 0.93362 14.0511 0.796184 13.9833 0.649451C13.8904 0.732976 13.8227 0.793927 13.751 0.858861C13.6846 0.792731 13.6461 0.74559 13.5996 0.710135C13.5571 0.677735 13.504 0.657816 13.4044 0.60563V0.60563ZM20.753 5.56599C20.7291 5.41793 20.6016 5.31966 20.4582 5.33905C20.2338 5.36946 20.0996 5.54315 20.1395 5.75189C20.17 5.91642 20.3161 6.02942 20.4794 6.01428C20.6693 5.99649 20.7888 5.79943 20.753 5.56599ZM21.227 6.64703C21.2124 6.47427 21.0199 6.32382 20.8459 6.34918C20.6799 6.37335 20.5445 6.55301 20.5485 6.74423C20.5524 6.90995 20.7317 7.04247 20.9375 7.03119C21.1115 7.02163 21.2443 6.84581 21.227 6.64703V6.64703ZM20.0359 5.00575C20.1793 4.98224 20.2869 4.84149 20.2683 4.70458C20.2311 4.44219 20.0359 4.26053 19.838 4.30435C19.6548 4.34499 19.5592 4.47273 19.5791 4.64908C19.6096 4.89845 19.7969 5.04519 20.0359 5.00575V5.00575ZM2.67631 10.1687C2.80246 10.6004 2.82504 10.6201 3.11054 10.5581C3.22606 10.533 3.34159 10.5047 3.45048 10.459C3.56866 10.409 3.63638 10.3124 3.60053 10.1755C3.566 10.0437 3.46508 9.96544 3.33893 9.98921C3.12913 10.0284 2.92463 10.0994 2.67631 10.1687V10.1687ZM2.16507 8.52613C2.00174 8.33239 1.75475 8.40994 1.70961 8.1838C1.68969 8.08939 1.66844 7.98528 1.53831 7.97346C1.44668 7.96523 1.38029 8.09589 1.41481 8.26321C1.45731 8.47116 1.44137 8.70713 1.66446 8.88161C1.95261 8.78693 2.28459 8.78308 2.51033 8.45509C2.43331 8.23453 2.43464 7.97094 2.22483 7.78928C2.18234 7.81797 2.15445 7.82859 2.15445 7.83895C2.15578 8.03481 2.15976 8.23068 2.16507 8.52613ZM4.48358 6.84555C4.40125 7.13649 4.53669 7.35851 4.63629 7.61095C5.45294 7.49277 6.18992 7.15813 6.9601 6.94979C7.08891 6.91513 7.20045 6.81846 7.33324 6.74264C7.25357 6.39088 7.16062 6.07245 6.9362 5.8232C6.75561 5.82771 6.69054 5.91682 6.69718 6.05704C6.70648 6.24773 6.7264 6.43788 6.74366 6.65486C6.50597 6.59405 6.50729 6.4003 6.41567 6.28132C6.37583 6.22794 6.30811 6.19488 6.25101 6.15159C6.03722 6.39247 6.28952 6.653 6.12353 6.90344C6.00933 6.70824 5.90177 6.52752 5.79023 6.33749C5.54191 6.40562 5.41443 6.52127 5.42638 6.76866C5.43302 6.89654 5.52731 7.04606 5.33609 7.17712C5.24048 7.03026 5.15018 6.88605 5.05192 6.74768C5.03997 6.73135 4.98287 6.74742 4.94702 6.74874C4.8129 6.88684 5.03598 7.10369 4.84211 7.24086C4.67214 7.16039 4.71065 6.89959 4.48358 6.84555V6.84555ZM16.1226 3.88806C15.8623 3.76709 15.6578 3.68622 15.4679 3.58065C14.9049 3.26912 14.7695 2.67224 15.1306 2.14333C15.205 2.03431 15.278 1.92476 15.3524 1.81534C14.7549 1.41883 14.2064 1.41326 13.6341 1.76302C13.2703 1.98558 13.0286 2.29007 12.9609 2.71659C12.8945 3.12518 12.933 3.53749 13.1255 3.89377C13.3141 4.24075 13.5531 4.58507 14.0325 4.58879C14.1015 4.58932 14.1679 4.65492 14.237 4.68639C14.3273 4.72715 14.4162 4.78983 14.5105 4.79833C15.0895 4.85078 15.5781 4.65173 15.9699 4.22508C16.0323 4.15722 16.0509 4.0498 16.1226 3.88806V3.88806ZM12.0207 3.50164C12.0526 3.63894 12.0937 3.77492 12.1123 3.91408C12.1296 4.03691 12.2305 4.16187 12.1084 4.34578C12.0154 4.14899 11.941 3.99283 11.8707 3.84517C11.5666 3.88394 11.5028 3.92829 11.5347 4.08764C11.5626 4.22521 11.6144 4.3576 11.6476 4.49424C11.6662 4.57046 11.6768 4.65651 11.5334 4.66129C11.4537 4.53541 11.3714 4.39943 11.2824 4.26731C11.2399 4.20343 11.1908 4.13478 11.0965 4.20237C11.0102 4.3734 11.2173 4.58467 11.0381 4.75677C10.9451 4.66156 10.8654 4.58082 10.7619 4.47552C10.7725 4.6759 10.7791 4.83113 10.7871 4.9926C10.5361 4.96671 10.6012 4.61123 10.3436 4.63566C10.2214 4.77828 10.4339 4.98424 10.2626 5.12074C10.1178 5.02208 10.1457 4.80085 9.93459 4.74681C9.95716 4.97706 9.97841 5.18714 10.009 5.48206C9.79782 5.3113 9.754 5.12619 9.64644 4.99114C9.58004 4.90815 9.5017 4.85291 9.39547 4.92899C9.27861 5.1311 9.47912 5.35113 9.35563 5.6199C9.27064 5.4976 9.22284 5.41633 9.16176 5.34741C9.09403 5.27093 9.11926 5.08662 8.90547 5.14412C8.92406 5.39482 8.94398 5.64619 8.97054 5.97498C8.70363 5.76557 8.71027 5.45471 8.4832 5.27172C8.35971 5.4818 8.46594 5.65363 8.46727 5.82174C8.46859 5.8957 8.49383 5.98919 8.33315 6.0026C8.26808 5.87738 8.20169 5.73596 8.12069 5.60317C8.0689 5.51685 7.99586 5.4421 7.88432 5.52934C7.79137 5.72879 7.97594 5.95811 7.84315 6.14867C7.54969 6.14163 7.67584 5.78124 7.44744 5.7414C7.39566 6.09754 7.40894 6.1654 7.62671 6.67372C8.43805 6.46125 9.20558 6.10976 9.99568 5.82745C10.7898 5.54421 11.5719 5.22764 12.3819 4.91651C12.5147 5.03562 12.6581 5.14518 12.7776 5.27704C13.1069 5.64022 13.5319 5.80341 13.9993 5.87857C14.2171 5.91363 14.4388 5.94032 14.6592 5.93966C15.3418 5.9374 15.9712 5.74459 16.5303 5.34927C17.1225 4.92966 17.3881 4.34897 17.3137 3.62646C17.2832 3.32702 17.2247 3.02878 17.1583 2.73478C17.0933 2.4461 16.9791 2.3627 16.6896 2.38448C16.5581 2.39444 16.4293 2.45061 16.2819 2.49085C16.3802 3.23367 16.756 3.89031 16.683 4.76035C16.5701 4.61269 16.5117 4.53753 16.4559 4.46489C16.3111 4.62849 16.5409 4.82954 16.351 4.97043C16.2899 4.87455 16.2315 4.78545 16.173 4.69462C15.9991 4.82369 16.2062 5.06165 16.0031 5.17067C15.9553 5.08237 15.9181 5.01332 15.8597 4.90403C15.8477 5.02899 15.8437 5.11809 15.8265 5.20387C15.8198 5.23136 15.7734 5.25021 15.7468 5.27252C15.5954 5.27186 15.6326 4.99632 15.4361 5.05913C15.3896 5.15646 15.3431 5.2526 15.3086 5.3255C15.1453 5.32192 15.1107 5.11955 14.958 5.20148C14.8531 5.29257 14.9647 5.50424 14.7522 5.54155C14.7203 5.4972 14.6831 5.45219 14.6553 5.40186C14.6168 5.33427 14.5849 5.26256 14.545 5.18116C14.3352 5.26004 14.1546 5.24118 14.0072 5.08887C13.9249 5.15992 13.8572 5.21967 13.8041 5.26535C13.6461 5.15553 13.5 5.05687 13.3566 4.95489C13.3088 4.92076 13.253 4.88624 13.2251 4.83777C12.9834 4.40009 12.6541 4.00903 12.5479 3.49819C12.4921 3.22597 12.4337 2.95415 12.2531 2.71552C12.0898 2.50027 11.9849 2.24133 11.8149 1.92994C11.7405 2.23483 11.9211 2.37731 11.9729 2.55525C12.0234 2.72907 12.0765 2.90223 12.1243 3.07698C12.1734 3.2593 12.2969 3.43073 12.2372 3.68608C12.1362 3.60468 12.0752 3.55622 12.0154 3.50761C11.9915 3.42369 11.9689 3.3399 11.945 3.25598C11.9278 3.26315 11.9092 3.27045 11.8919 3.27762C11.9344 3.35225 11.9769 3.42688 12.0207 3.50164V3.50164ZM16.0336 1.01117C16.0429 1.12338 16.0522 1.23545 16.0735 1.48231C15.8743 1.19203 15.7534 1.01462 15.6313 0.837083C15.6206 0.822875 15.6087 0.808667 15.5981 0.794458C15.6113 0.806409 15.6233 0.818493 15.6366 0.830576C15.6605 1.07889 15.8065 1.32894 15.626 1.5742C15.5317 1.3365 15.4387 1.09802 15.3378 0.862712C15.3272 0.836553 15.2727 0.828452 15.2395 0.812119C15.2382 1.21779 15.2754 1.29016 15.6326 1.56716C15.8995 1.78852 16.1664 1.68866 16.5077 1.59093C16.3218 1.36851 16.1744 1.19349 16.027 1.01821C16.0243 1.0036 16.023 0.987799 16.0164 0.974653C16.011 0.964295 15.9991 0.957258 15.9911 0.94876C16.0044 0.969608 16.019 0.990322 16.0336 1.01117V1.01117ZM4.137 7.83642C4.24456 7.77667 4.34282 7.71107 4.31494 7.56181C4.28307 7.39105 4.2087 7.24471 4.06928 7.05442C4.09849 7.36807 4.12239 7.6051 4.14497 7.842C3.94578 7.77627 3.92055 7.58319 3.84088 7.42942C3.79042 7.33209 3.73465 7.23768 3.67356 7.12852C3.44118 7.39583 3.4518 7.47231 3.78643 7.99816C3.8993 7.94584 4.01749 7.89113 4.137 7.83642ZM3.08796 9.71672C3.14905 9.70331 3.2088 9.6899 3.26988 9.67649C3.25926 9.65498 3.24864 9.63333 3.23934 9.61182C3.19154 9.649 3.14373 9.68605 3.0946 9.72323C2.97376 9.75151 2.8516 9.7798 2.66304 9.82322C2.88745 9.89294 2.99368 9.82017 3.08796 9.71672V9.71672ZM17.8528 2.43162C17.8409 2.41861 17.8303 2.40546 17.8196 2.39245C17.8329 2.40307 17.8449 2.41383 17.8581 2.42472C17.8661 2.44171 17.8714 2.46083 17.8834 2.47504C17.8913 2.48527 17.9073 2.48872 17.9206 2.49509C17.898 2.47398 17.8754 2.45273 17.8528 2.43162V2.43162ZM11.2864 3.5112C11.224 2.98137 11.2505 2.48859 11.4032 1.99395C11.6263 1.27051 12.0991 0.753293 12.7431 0.42756C13.7616 -0.0881945 14.8319 -0.15698 15.8915 0.328897C16.3005 0.516529 16.6418 0.82407 16.8304 1.23598C16.9605 1.51989 17.1464 1.68003 17.4186 1.79635C17.7347 1.93153 18.0374 2.09619 18.2273 2.40652C18.2565 2.45446 18.3149 2.51528 18.3614 2.51727C18.7518 2.53413 18.8833 2.85071 19.0519 3.12346C19.1382 3.14271 19.2139 3.16475 19.2923 3.17631C19.5791 3.2184 19.7849 3.36513 19.858 3.64877C19.9031 3.82007 19.9841 3.93679 20.1488 4.00412C20.2882 4.06148 20.3533 4.18086 20.4037 4.32148C20.5046 4.6018 20.5989 4.87867 20.8233 5.1068C20.9349 5.21861 20.9389 5.44103 20.976 5.61671C21.0106 5.77632 21.0464 5.92067 21.1805 6.03925C21.482 6.30682 21.5776 6.63893 21.401 7.03145C21.4713 7.11909 21.5258 7.20089 21.5935 7.27087C21.7648 7.44788 21.8086 7.66486 21.7529 7.88768C21.7011 8.09789 21.7449 8.25524 21.8445 8.44818C22.0291 8.80419 21.8379 9.22314 21.4899 9.34186C21.1341 9.46376 20.826 9.26471 20.814 8.89051C20.8087 8.73156 20.8433 8.57128 20.8618 8.39188C20.579 8.08819 20.5179 7.73404 20.7384 7.33687C20.3958 7.10648 20.17 6.83532 20.3161 6.40137C19.9947 6.12423 19.7584 5.80687 19.8194 5.34821C19.4556 5.14239 19.2153 4.85941 19.1927 4.42918C18.8939 4.2855 18.5686 4.17714 18.534 3.8052C18.2924 3.71663 18.0879 3.64133 17.8462 3.55303C17.8077 3.66152 17.7439 3.75035 17.7493 3.83494C17.8223 4.97494 16.5767 5.91257 15.7242 6.10113C14.8996 6.28345 14.0829 6.28464 13.2915 5.95174C13.1056 5.87419 12.9237 5.78496 12.7537 5.67926C12.601 5.58431 12.4682 5.45936 12.3115 5.336C12.0327 5.30187 11.7711 5.42045 11.5108 5.51885C10.2108 6.0107 8.9161 6.51769 7.61476 7.00768C6.93753 7.26304 6.25101 7.49369 5.56847 7.73723C5.49411 7.76365 5.42373 7.80137 5.36663 7.82713C5.20595 8.0935 5.42771 8.30902 5.41311 8.58363C5.33476 8.63489 5.24579 8.71908 5.14089 8.75878C4.87664 8.85811 4.60707 8.94256 4.33751 9.0229C4.13434 9.08318 4.04537 9.04428 3.9325 8.86767C3.90063 8.81707 3.88736 8.75493 3.85549 8.70394C3.7705 8.56769 3.66427 8.52998 3.55937 8.59293C3.4611 8.65175 3.43322 8.7791 3.49032 8.91255C3.50625 8.94946 3.51422 8.99408 3.53945 9.0217C3.93516 9.44358 3.85814 9.9904 3.96703 10.4995C3.58194 10.8336 3.11186 10.8599 2.6949 11.0359C2.32177 10.5826 2.2474 10.0419 1.98182 9.56534C1.63259 9.57809 1.30991 9.6745 0.988558 9.78086C0.615419 9.90409 0.541057 9.88165 0.31797 9.59004C0.256887 9.5105 0.203772 9.42366 0.15464 9.33628C-0.199908 8.70859 0.097541 8.15233 0.618076 7.93416C0.915525 7.80933 1.20899 7.67376 1.50909 7.55743C4.23394 6.50375 6.96143 5.45378 9.68627 4.40063C9.98771 4.28444 10.2838 4.15589 10.5799 4.03107C10.8442 3.92059 11.0779 3.76828 11.2864 3.5112" fill="#1E009F"/>
</svg>
