<svg width="12" height="22" viewBox="0 0 12 22" fill="none" xmlns="http://www.w3.org/2000/svg">
<path d="M2.09367 4.64226L2.10947 4.60641L2.07561 4.60774L2.09367 4.64226ZM9.28994 19.3739C9.28038 19.3607 9.27082 19.3461 9.26125 19.3328C9.25541 19.3633 9.24585 19.3939 9.24532 19.4244C9.24519 19.4377 9.26285 19.4523 9.27241 19.4656C9.27825 19.435 9.2841 19.4045 9.28994 19.3739V19.3739ZM8.55322 17.232C8.55296 17.1988 8.55495 17.1657 8.55056 17.1325C8.5495 17.1245 8.52666 17.1205 8.51378 17.1152C8.51432 17.1471 8.51259 17.1803 8.51724 17.2121C8.51843 17.2201 8.54061 17.2254 8.55322 17.232V17.232ZM2.77515 10.1969C2.73929 10.1929 2.6972 10.1769 2.6644 10.1889C2.63784 10.1982 2.62244 10.2393 2.60199 10.2672C2.63864 10.2739 2.681 10.2951 2.70995 10.2832C2.7389 10.2712 2.75443 10.2261 2.77515 10.1969V10.1969ZM8.58111 21.2795C8.96327 21.2264 8.96328 21.2264 9.0792 21.0683C8.88347 21.0524 8.7366 21.1254 8.58111 21.2795ZM2.72854 6.08038C2.87686 6.13084 2.92985 6.16271 2.9831 6.16403C3.08282 6.16536 3.1848 6.14943 3.22066 6.03124C3.22517 6.01531 3.21349 5.97946 3.20512 5.97813C3.12983 5.96618 3.05241 5.94626 2.97818 5.9529C2.92427 5.95954 2.87447 6.00336 2.72854 6.08038V6.08038ZM1.86209 9.23678C1.39161 9.27928 1.39135 9.27928 1.17092 9.54751C1.37488 9.47846 1.60978 9.49572 1.86209 9.23678ZM2.35487 9.51299C1.83513 9.5422 1.69198 9.60727 1.54645 9.91401C1.82451 9.80512 2.07481 9.71084 2.32233 9.60859C2.34278 9.60063 2.34464 9.54618 2.35487 9.51299ZM3.0884 3.22938C3.07207 3.24001 3.05148 3.24798 3.04033 3.26258C2.92533 3.41131 2.95627 3.61846 3.11615 3.71274C3.15931 3.73797 3.24695 3.74992 3.27444 3.72602C3.32437 3.67954 3.38399 3.59057 3.36885 3.54011C3.33711 3.43521 3.26395 3.34093 3.19755 3.2493C3.18188 3.22806 3.12585 3.2347 3.0884 3.22938ZM7.62901 19.2637C7.64454 19.3022 7.66008 19.3421 7.67561 19.3819C7.90189 19.3314 8.12936 19.2863 8.35271 19.2265C8.37727 19.2199 8.39016 19.1283 8.38657 19.0765C8.38484 19.0513 8.32947 19.0048 8.30637 19.0088C8.06509 19.0552 7.81624 19.0898 7.62901 19.2637V19.2637ZM8.28937 20.8917C8.55256 20.8824 8.85306 20.9966 9.01374 20.6832C9.01998 20.6713 9.00816 20.6354 8.99634 20.6301C8.69092 20.5027 8.49811 20.7257 8.28937 20.8917V20.8917ZM8.77113 0.277472C8.64365 0.288095 8.51896 0.4501 8.54579 0.570938C8.57354 0.697088 8.70181 0.786058 8.85664 0.787386C8.98359 0.787386 9.08956 0.683808 9.07893 0.569609C9.0634 0.402294 8.91919 0.265521 8.77113 0.277472ZM1.01303 7.19448C0.836419 7.33657 0.704691 7.44413 0.527816 7.58621C1.13905 7.54372 1.18977 7.47865 1.12563 6.86915C1.00068 6.93156 0.886879 6.98866 0.750637 7.05771C0.839075 7.10286 0.889668 7.12942 1.01303 7.19448ZM4.0405 2.68628C4.02257 2.51763 3.91355 2.39414 3.79338 2.40742C3.64957 2.42203 3.49168 2.59067 3.49394 2.72611C3.49606 2.86023 3.6744 2.99966 3.83441 2.99169C3.96242 2.98638 4.05736 2.84562 4.0405 2.68628ZM7.34006 18.8547C7.66844 18.9557 7.91437 18.8654 8.14994 18.7684C8.2008 18.621 8.19376 18.4657 8.05473 18.4643C7.78371 18.463 7.53685 18.5653 7.34006 18.8547V18.8547ZM0.961374 9.18101C1.26573 9.10665 1.49519 9.06947 1.65653 8.87427C1.45482 8.4613 1.41618 8.45466 0.933887 8.74414C1.04012 8.77601 1.13865 8.80389 1.25617 8.83842C1.15817 8.95261 1.08593 9.03627 0.961374 9.18101V9.18101ZM8.12033 0.763483C8.06044 0.501888 7.8667 0.373081 7.66858 0.420885C7.54522 0.451427 7.45054 0.572266 7.46926 0.67717C7.5079 0.893617 7.77295 1.0835 7.94969 0.994536C8.03507 0.950715 8.0781 0.823238 8.12033 0.763483V0.763483ZM2.8106 6.65801C2.16763 6.10029 2.1687 6.1003 2.07747 5.27833C2.07256 5.23451 2.02834 5.19467 1.98771 5.1296C1.91082 5.62889 1.98439 6.04984 2.19021 6.35127C2.3311 6.55576 2.50983 6.68324 2.8106 6.65801ZM0.60563 8.51175C0.731913 8.49051 0.809064 8.48387 0.882895 8.46528C1.3875 8.33514 1.40941 8.25945 1.06548 7.7429C0.93362 7.80266 0.796184 7.86507 0.649451 7.93279C0.732976 8.02574 0.793927 8.09347 0.858861 8.16517C0.792731 8.23157 0.74559 8.27008 0.710135 8.31655C0.677735 8.35905 0.657816 8.41216 0.60563 8.51175V8.51175ZM5.56599 1.16318C5.41793 1.18708 5.31966 1.31456 5.33905 1.45797C5.36946 1.68239 5.54315 1.81651 5.75189 1.77667C5.91642 1.74613 6.02942 1.60006 6.01428 1.43673C5.99649 1.24684 5.79943 1.12732 5.56599 1.16318ZM6.64703 0.68912C6.47427 0.703726 6.32382 0.896271 6.34918 1.07023C6.37335 1.23621 6.55301 1.37166 6.74423 1.36768C6.90995 1.36369 7.04247 1.18443 7.03119 0.978602C7.02163 0.804647 6.84581 0.671857 6.64703 0.68912V0.68912ZM5.00575 1.88024C4.98224 1.73683 4.84149 1.62927 4.70458 1.64786C4.44219 1.68504 4.26053 1.88024 4.30435 2.0781C4.34499 2.26135 4.47273 2.35696 4.64908 2.33704C4.89845 2.3065 5.04519 2.11926 5.00575 1.88024V1.88024ZM10.1687 19.2398C10.6004 19.1137 10.6201 19.0911 10.5581 18.8056C10.533 18.6901 10.5047 18.5745 10.459 18.4657C10.409 18.3475 10.3124 18.2798 10.1755 18.3156C10.0437 18.3501 9.96544 18.4511 9.98921 18.5772C10.0284 18.787 10.0994 18.9915 10.1687 19.2398V19.2398ZM8.52613 19.7511C8.33239 19.9144 8.40994 20.1614 8.1838 20.2065C8.08939 20.2265 7.98528 20.2477 7.97346 20.3778C7.96523 20.4695 8.09589 20.5358 8.26321 20.5013C8.47116 20.4588 8.70713 20.4748 8.88161 20.2517C8.78693 19.9635 8.78308 19.6316 8.45509 19.4058C8.23453 19.4828 7.97094 19.4815 7.78928 19.6913C7.81797 19.7338 7.82859 19.7617 7.83895 19.7617C8.03481 19.7604 8.23068 19.7564 8.52613 19.7511ZM6.84555 17.4326C7.13649 17.5149 7.35851 17.3794 7.61095 17.2799C7.49277 16.4632 7.15813 15.7262 6.94979 14.956C6.91513 14.8272 6.81846 14.7157 6.74264 14.5829C6.39088 14.6626 6.07245 14.7555 5.8232 14.9799C5.82771 15.1605 5.91682 15.2256 6.05704 15.219C6.24773 15.2097 6.43788 15.1897 6.65486 15.1725C6.59405 15.4102 6.4003 15.4088 6.28132 15.5005C6.22794 15.5403 6.19488 15.608 6.15159 15.6651C6.39247 15.8789 6.653 15.6266 6.90344 15.7926C6.70824 15.9068 6.52752 16.0144 6.33749 16.1259C6.40562 16.3742 6.52127 16.5017 6.76866 16.4898C6.89654 16.4831 7.04606 16.3888 7.17712 16.58C7.03026 16.6757 6.88605 16.766 6.74768 16.8642C6.73135 16.8762 6.74742 16.9333 6.74874 16.9691C6.88684 17.1032 7.10369 16.8802 7.24086 17.074C7.16039 17.244 6.89959 17.2055 6.84555 17.4326V17.4326ZM3.88806 5.79355C3.76709 6.05382 3.68622 6.25831 3.58065 6.4482C3.26912 7.01123 2.67224 7.14668 2.14333 6.78549C2.03431 6.71113 1.92476 6.63809 1.81534 6.56373C1.41883 7.16129 1.41326 7.70971 1.76302 8.28203C1.98558 8.64587 2.29007 8.88755 2.71659 8.95527C3.12518 9.02167 3.53749 8.98316 3.89377 8.79061C4.24075 8.60205 4.58507 8.36303 4.58879 7.88366C4.58932 7.81461 4.65492 7.74822 4.68639 7.67916C4.72715 7.58887 4.78983 7.4999 4.79833 7.40562C4.85078 6.82665 4.65173 6.33799 4.22508 5.94626C4.15722 5.88385 4.0498 5.86526 3.88806 5.79355V5.79355ZM3.50164 9.89542C3.63894 9.86355 3.77492 9.82239 3.91408 9.8038C4.03691 9.78654 4.16187 9.68561 4.34578 9.80778C4.14899 9.90073 3.99283 9.9751 3.84517 10.0455C3.88394 10.3496 3.92829 10.4133 4.08764 10.3814C4.22521 10.3535 4.3576 10.3018 4.49424 10.2686C4.57046 10.25 4.65651 10.2393 4.66129 10.3828C4.53541 10.4624 4.39943 10.5448 4.26731 10.6337C4.20343 10.6762 4.13478 10.7254 4.20237 10.8196C4.3734 10.906 4.58467 10.6988 4.75677 10.8781C4.66156 10.971 4.58082 11.0507 4.47552 11.1543C4.6759 11.1436 4.83113 11.137 4.9926 11.129C4.96671 11.38 4.61123 11.3149 4.63566 11.5726C4.77828 11.6947 4.98424 11.4823 5.12074 11.6536C5.02208 11.7983 4.80085 11.7704 4.74681 11.9815C4.97706 11.959 5.18714 11.9377 5.48206 11.9072C5.3113 12.1183 5.12619 12.1621 4.99114 12.2697C4.90815 12.3361 4.85291 12.4144 4.92899 12.5207C5.1311 12.6375 5.35113 12.437 5.6199 12.5605C5.4976 12.6455 5.41633 12.6933 5.34741 12.7544C5.27093 12.8221 5.08662 12.7969 5.14412 13.0107C5.39482 12.9921 5.64619 12.9722 5.97498 12.9456C5.76557 13.2125 5.45471 13.2059 5.27172 13.4329C5.4818 13.5564 5.65363 13.4502 5.82174 13.4489C5.8957 13.4475 5.98919 13.4223 6.0026 13.583C5.87738 13.6481 5.73596 13.7144 5.60317 13.7955C5.51685 13.8472 5.4421 13.9203 5.52934 14.0318C5.72879 14.1248 5.95811 13.9402 6.14867 14.073C6.14163 14.3664 5.78124 14.2403 5.7414 14.4687C6.09754 14.5205 6.1654 14.5072 6.67372 14.2894C6.46125 13.4781 6.10976 12.7106 5.82745 11.9205C5.54421 11.1264 5.22764 10.3443 4.91651 9.53423C5.03562 9.40144 5.14518 9.25803 5.27704 9.13852C5.64022 8.8092 5.80341 8.38428 5.87857 7.91686C5.91363 7.69908 5.94032 7.47732 5.93966 7.25689C5.9374 6.57435 5.74459 5.94493 5.34927 5.38589C4.92966 4.79364 4.34897 4.52807 3.62646 4.60243C3.32702 4.63297 3.02878 4.6914 2.73478 4.75779C2.4461 4.82286 2.3627 4.93706 2.38448 5.22654C2.39444 5.358 2.45061 5.48681 2.49085 5.63421C3.23367 5.53594 3.89031 5.16014 4.76035 5.23318C4.61269 5.34605 4.53753 5.40448 4.46489 5.46025C4.62849 5.60499 4.82954 5.37526 4.97043 5.56515C4.87455 5.62624 4.78545 5.68466 4.69462 5.74309C4.82369 5.91705 5.06165 5.7099 5.17067 5.91306C5.08237 5.96087 5.01332 5.99805 4.90403 6.05647C5.02899 6.06842 5.11809 6.07241 5.20387 6.08967C5.23136 6.09631 5.25021 6.14279 5.27252 6.16934C5.27186 6.32072 4.99632 6.28355 5.05913 6.48007C5.15646 6.52655 5.2526 6.57302 5.3255 6.60755C5.32192 6.77088 5.11955 6.80541 5.20148 6.95812C5.29257 7.06302 5.50424 6.95148 5.54155 7.16394C5.4972 7.19581 5.45219 7.23299 5.40186 7.26088C5.33427 7.29939 5.26256 7.33125 5.18116 7.37109C5.26004 7.5809 5.24118 7.76149 5.08887 7.90889C5.15992 7.99122 5.21967 8.05894 5.26535 8.11206C5.15553 8.27008 5.05687 8.41614 4.95489 8.55956C4.92076 8.60736 4.88624 8.66313 4.83777 8.69102C4.40009 8.9327 4.00903 9.26202 3.49819 9.36825C3.22597 9.42402 2.95415 9.48245 2.71552 9.66304C2.50027 9.82637 2.24133 9.93127 1.92994 10.1012C2.23483 10.1756 2.37731 9.99501 2.55525 9.94323C2.72907 9.89277 2.90223 9.83965 3.07698 9.79184C3.2593 9.74271 3.43073 9.61922 3.68608 9.67897C3.60468 9.77989 3.55622 9.84098 3.50761 9.90073C3.42369 9.92463 3.3399 9.94721 3.25598 9.97111C3.26315 9.98837 3.27045 10.007 3.27762 10.0242C3.35225 9.98173 3.42688 9.93924 3.50164 9.89542V9.89542ZM1.01117 5.88252C1.12338 5.87323 1.23545 5.86393 1.48231 5.84268C1.19203 6.04187 1.01462 6.16271 0.837083 6.28487C0.822875 6.2955 0.808667 6.30745 0.794458 6.31807C0.806409 6.30479 0.818493 6.29284 0.830576 6.27956C1.07889 6.25566 1.32894 6.10959 1.5742 6.29018C1.3365 6.38447 1.09802 6.47742 0.862712 6.57834C0.836553 6.58896 0.828452 6.64341 0.812119 6.6766C1.21779 6.67793 1.29016 6.64075 1.56716 6.28355C1.78852 6.01664 1.68866 5.74973 1.59093 5.40846C1.36851 5.59437 1.19349 5.74176 1.01821 5.88916C1.0036 5.89182 0.987799 5.89314 0.974653 5.89978C0.964295 5.9051 0.957258 5.91705 0.94876 5.92501C0.969608 5.91173 0.990322 5.89713 1.01117 5.88252V5.88252ZM7.83642 17.7791C7.77667 17.6716 7.71107 17.5733 7.56181 17.6012C7.39105 17.6331 7.24471 17.7074 7.05442 17.8469C7.36807 17.8176 7.6051 17.7937 7.842 17.7712C7.77627 17.9704 7.58319 17.9956 7.42942 18.0753C7.33209 18.1257 7.23768 18.1815 7.12852 18.2426C7.39583 18.475 7.47231 18.4643 7.99816 18.1297C7.94584 18.0168 7.89113 17.8986 7.83642 17.7791ZM9.71672 18.8282C9.70331 18.7671 9.6899 18.7073 9.67649 18.6463C9.65498 18.6569 9.63333 18.6675 9.61182 18.6768C9.649 18.7246 9.68605 18.7724 9.72323 18.8215C9.75151 18.9424 9.7798 19.0645 9.82322 19.2531C9.89294 19.0287 9.82017 18.9225 9.71672 18.8282V18.8282ZM2.43162 4.0633C2.41861 4.07526 2.40546 4.08588 2.39245 4.0965C2.40307 4.08322 2.41383 4.07127 2.42472 4.05799C2.44171 4.05002 2.46083 4.04471 2.47504 4.03276C2.48527 4.02479 2.48872 4.00886 2.49509 3.99558C2.47398 4.01815 2.45273 4.04073 2.43162 4.0633V4.0633ZM3.5112 10.6297C2.98137 10.6922 2.48859 10.6656 1.99395 10.5129C1.27051 10.2898 0.753293 9.81708 0.42756 9.17305C-0.0881945 8.15455 -0.15698 7.08427 0.328897 6.02461C0.516529 5.61561 0.82407 5.27434 1.23598 5.08578C1.51989 4.95565 1.68003 4.76974 1.79635 4.49753C1.93153 4.18149 2.09619 3.87873 2.40652 3.68884C2.45446 3.65962 2.51528 3.6012 2.51727 3.55472C2.53413 3.16432 2.85071 3.03286 3.12346 2.86421C3.14271 2.7779 3.16475 2.70221 3.17631 2.62386C3.2184 2.33704 3.36513 2.13122 3.64877 2.05818C3.82007 2.01303 3.93679 1.93203 4.00412 1.76737C4.06148 1.62794 4.18086 1.56287 4.32148 1.51241C4.6018 1.41149 4.87867 1.31722 5.1068 1.0928C5.21861 0.981259 5.44103 0.977275 5.61671 0.940094C5.77632 0.905569 5.92067 0.869713 6.03925 0.735596C6.30682 0.434164 6.63893 0.338557 7.03145 0.515167C7.11909 0.444789 7.20089 0.390345 7.27087 0.322622C7.44788 0.151324 7.66486 0.107503 7.88768 0.163275C8.09789 0.215063 8.25524 0.17124 8.44818 0.0716481C8.80419 -0.112929 9.22314 0.0782869 9.34186 0.426196C9.46376 0.782072 9.26471 1.09015 8.89051 1.1021C8.73156 1.10741 8.57128 1.07288 8.39188 1.05429C8.08819 1.33713 7.73404 1.39822 7.33687 1.17779C7.10648 1.52038 6.83532 1.74613 6.40137 1.60006C6.12423 1.92141 5.80687 2.15777 5.34821 2.09669C5.14239 2.46053 4.85941 2.70088 4.42918 2.72346C4.2855 3.02223 4.17714 3.34757 3.8052 3.38209C3.71663 3.62377 3.64133 3.82827 3.55303 4.06994C3.66152 4.10845 3.75035 4.17219 3.83494 4.16688C4.97494 4.09385 5.91257 5.33941 6.10113 6.19192C6.28345 7.01654 6.28464 7.8332 5.95174 8.62463C5.87419 8.81053 5.78496 8.99245 5.67926 9.16242C5.58431 9.31513 5.45936 9.44792 5.336 9.60461C5.30187 9.88347 5.42045 10.1451 5.51885 10.4053C6.0107 11.7053 6.51769 13 7.00768 14.3014C7.26304 14.9786 7.49369 15.6651 7.73723 16.3477C7.76365 16.422 7.80137 16.4924 7.82713 16.5495C8.0935 16.7102 8.30902 16.4884 8.58363 16.503C8.63489 16.5814 8.71908 16.6703 8.75878 16.7753C8.85811 17.0395 8.94256 17.3091 9.0229 17.5786C9.08318 17.7818 9.04428 17.8708 8.86767 17.9836C8.81707 18.0155 8.75493 18.0288 8.70394 18.0607C8.56769 18.1456 8.52998 18.2519 8.59293 18.3568C8.65175 18.455 8.7791 18.4829 8.91255 18.4258C8.94946 18.4099 8.99408 18.4019 9.0217 18.3767C9.44358 17.981 9.9904 18.058 10.4995 17.9491C10.8336 18.3342 10.8599 18.8043 11.0359 19.2212C10.5826 19.5944 10.0419 19.6687 9.56534 19.9343C9.57809 20.2835 9.6745 20.6062 9.78086 20.9276C9.90409 21.3007 9.88165 21.3751 9.59004 21.5982C9.5105 21.6593 9.42366 21.7124 9.33628 21.7615C8.70859 22.116 8.15233 21.8186 7.93416 21.2981C7.80933 21.0006 7.67376 20.7071 7.55743 20.407C6.50375 17.6822 5.45378 14.9547 4.40063 12.2299C4.28444 11.9284 4.15589 11.6323 4.03107 11.3362C3.92059 11.0719 3.76828 10.8382 3.5112 10.6297" fill="#414042"/>
</svg>
