<svg width="83" height="83" viewBox="0 0 83 83" fill="none" xmlns="http://www.w3.org/2000/svg">
<circle cx="41.5" cy="41.5" r="41.5" fill="#1E009F"/>
<path d="M38.8623 32.1104C38.8766 32.0244 38.8874 31.9421 38.8945 31.8633C38.9089 31.7773 38.916 31.695 38.916 31.6162C38.916 31.3154 38.8551 31.029 38.7334 30.7568C38.6188 30.4775 38.4469 30.234 38.2178 30.0264C37.9958 29.8115 37.7236 29.6432 37.4014 29.5215C37.0791 29.3926 36.7174 29.3281 36.3164 29.3281C35.8939 29.3281 35.4463 29.4212 34.9736 29.6074C34.501 29.7865 34.0283 30.1051 33.5557 30.5635C33.0973 31.0075 32.6247 31.5804 32.1377 32.2822C31.6579 32.9769 31.1781 33.7467 30.6982 34.5918C30.2256 35.4297 29.7601 36.3141 29.3018 37.2451C28.8506 38.1761 28.4209 39.0928 28.0127 39.9951C27.6045 40.8975 27.2285 41.7604 26.8848 42.584C26.541 43.4076 26.2438 44.1344 25.9932 44.7646C25.7425 45.3877 25.5456 45.889 25.4023 46.2686C25.2663 46.6481 25.1947 46.8451 25.1875 46.8594L24.6396 46.7197C24.5537 46.1683 24.4749 45.6706 24.4033 45.2266C24.3389 44.7826 24.2816 44.3564 24.2314 43.9482C24.1885 43.54 24.1562 43.1354 24.1348 42.7344C24.1133 42.3333 24.1025 41.9036 24.1025 41.4453C24.1025 41.0729 24.1169 40.6468 24.1455 40.167C24.1813 39.6872 24.2279 39.1787 24.2852 38.6416C24.3496 38.1045 24.4212 37.5531 24.5 36.9873C24.5859 36.4215 24.6755 35.8665 24.7686 35.3223C24.8688 34.778 24.9727 34.2624 25.0801 33.7754C25.1875 33.2812 25.2985 32.8372 25.4131 32.4434C24.8044 33.3529 24.2458 34.2695 23.7373 35.1934C23.236 36.1172 22.7598 37.0231 22.3086 37.9111C21.8574 38.7992 21.4206 39.6621 20.998 40.5C20.5755 41.3307 20.1423 42.1113 19.6982 42.8418C19.2542 43.5723 18.7852 44.2419 18.291 44.8506C17.7969 45.4593 17.2526 45.9785 16.6582 46.4082C16.071 46.8451 15.4193 47.1816 14.7031 47.418C13.987 47.6615 13.1849 47.7832 12.2969 47.7832C11.6237 47.7832 10.9863 47.6901 10.3848 47.5039C9.79036 47.3177 9.26758 47.0563 8.81641 46.7197C8.36523 46.3831 8.01074 45.9749 7.75293 45.4951C7.48796 45.0153 7.35547 44.4854 7.35547 43.9053C7.35547 43.2464 7.4987 42.6592 7.78516 42.1436C8.06445 41.6208 8.43685 41.1839 8.90234 40.833C9.36784 40.4749 9.90495 40.2028 10.5137 40.0166C11.1224 39.8304 11.7526 39.7373 12.4043 39.7373C12.7767 39.7373 13.1527 39.7624 13.5322 39.8125C13.9189 39.8626 14.2949 39.945 14.6602 40.0596C15.0326 40.1742 15.3906 40.3281 15.7344 40.5215C16.0781 40.7077 16.3968 40.9404 16.6904 41.2197L16.2715 41.5957C16.2715 41.5957 16.1927 41.5312 16.0352 41.4023C15.8848 41.2663 15.6556 41.1195 15.3477 40.9619C15.0469 40.8044 14.6637 40.6611 14.1982 40.5322C13.7327 40.3962 13.1885 40.3281 12.5654 40.3281C12.0641 40.3281 11.5771 40.3997 11.1045 40.543C10.6318 40.6862 10.2093 40.8975 9.83691 41.1768C9.47168 41.4561 9.17806 41.7998 8.95605 42.208C8.73405 42.6162 8.62305 43.0889 8.62305 43.626C8.62305 44.1774 8.74121 44.6715 8.97754 45.1084C9.21387 45.5381 9.52897 45.8997 9.92285 46.1934C10.3167 46.4941 10.7643 46.7197 11.2656 46.8701C11.7669 47.0277 12.2826 47.1064 12.8125 47.1064C13.6003 47.1064 14.3128 46.974 14.9502 46.709C15.5947 46.4512 16.1891 46.0859 16.7334 45.6133C17.2848 45.1406 17.7969 44.5749 18.2695 43.916C18.7493 43.2572 19.2148 42.5303 19.666 41.7354C20.1172 40.9404 20.5719 40.0918 21.0303 39.1895C21.4886 38.2799 21.972 37.3418 22.4805 36.375C22.9889 35.4082 23.5368 34.4235 24.124 33.4209C24.7113 32.4183 25.3594 31.4229 26.0684 30.4346L26.5625 30.6924C26.3262 31.387 26.1364 32.1211 25.9932 32.8945C25.8499 33.6608 25.7389 34.4521 25.6602 35.2686C25.5885 36.0778 25.5384 36.8978 25.5098 37.7285C25.4883 38.5592 25.474 39.3792 25.4668 40.1885C25.4596 40.9977 25.4525 41.7891 25.4453 42.5625C25.4453 43.3288 25.4274 44.0557 25.3916 44.7432C25.6351 44.1201 25.9287 43.3932 26.2725 42.5625C26.6162 41.7318 26.9958 40.8545 27.4111 39.9307C27.8265 39.0068 28.2669 38.0687 28.7324 37.1162C29.2051 36.1566 29.6849 35.2399 30.1719 34.3662C30.666 33.4925 31.1637 32.694 31.665 31.9707C32.1735 31.2402 32.6712 30.6387 33.1582 30.166C33.6953 29.6504 34.2324 29.2887 34.7695 29.0811C35.3138 28.8662 35.833 28.7588 36.3271 28.7588C36.8141 28.7588 37.251 28.8411 37.6377 29.0059C38.0316 29.1634 38.3646 29.3747 38.6367 29.6396C38.9089 29.8975 39.1165 30.1982 39.2598 30.542C39.403 30.8857 39.4746 31.2402 39.4746 31.6055C39.4746 31.806 39.4531 32.0137 39.4102 32.2285L38.8623 32.1104ZM43.2344 42.7773C43.5781 42.7129 43.9255 42.6807 44.2764 42.6807C44.7204 42.6807 45.1536 42.7451 45.5762 42.874C45.9987 43.0029 46.3747 43.1891 46.7041 43.4326C47.0407 43.6689 47.3092 43.9626 47.5098 44.3135C47.7103 44.6644 47.8105 45.0618 47.8105 45.5059C47.8105 45.8997 47.721 46.2578 47.542 46.5801C47.3701 46.9023 47.1302 47.1781 46.8223 47.4072C46.5143 47.6436 46.1491 47.8226 45.7266 47.9443C45.304 48.0732 44.8457 48.1377 44.3516 48.1377C43.7786 48.1377 43.2272 48.0732 42.6973 47.9443C42.1745 47.8226 41.6732 47.6507 41.1934 47.4287C40.7207 47.2067 40.266 46.9382 39.8291 46.623C39.3994 46.3151 38.9984 45.9714 38.626 45.5918C38.1032 45.8353 37.5518 46.0251 36.9717 46.1611C36.3988 46.3044 35.8008 46.376 35.1777 46.376C34.4115 46.376 33.7562 46.2936 33.2119 46.1289C32.6676 45.9714 32.2236 45.7565 31.8799 45.4844C31.5361 45.2051 31.2819 44.8828 31.1172 44.5176C30.9596 44.1523 30.8809 43.762 30.8809 43.3467C30.8809 42.8096 31.0026 42.3333 31.2461 41.918C31.4967 41.4954 31.8298 41.123 32.2451 40.8008C32.6605 40.4714 33.1403 40.1777 33.6846 39.9199C34.2288 39.6621 34.7982 39.4222 35.3926 39.2002C35.3496 38.8708 35.3281 38.5449 35.3281 38.2227C35.3281 37.485 35.4642 36.8154 35.7363 36.2139C36.0085 35.6123 36.363 35.1003 36.7998 34.6777C37.2438 34.2552 37.738 33.9294 38.2822 33.7002C38.8337 33.4639 39.3851 33.3457 39.9365 33.3457C40.2874 33.3457 40.6061 33.3958 40.8926 33.4961C41.179 33.5964 41.4225 33.736 41.623 33.915C41.8236 34.0869 41.9775 34.291 42.085 34.5273C42.1995 34.7637 42.2568 35.0143 42.2568 35.2793C42.2568 35.6517 42.1781 35.9883 42.0205 36.2891C41.8701 36.5827 41.6589 36.8512 41.3867 37.0947C41.1217 37.3382 40.8066 37.5602 40.4414 37.7607C40.0833 37.9613 39.693 38.1475 39.2705 38.3193C38.8551 38.4912 38.4219 38.6595 37.9707 38.8242C37.5195 38.9818 37.0684 39.1429 36.6172 39.3076C36.7031 39.7087 36.8213 40.1348 36.9717 40.5859C37.1292 41.0371 37.3154 41.4954 37.5303 41.9609C37.7451 42.4193 37.9886 42.8776 38.2607 43.3359C38.54 43.7943 38.8408 44.2311 39.1631 44.6465C39.5713 44.403 39.9437 44.1273 40.2803 43.8193C40.624 43.5114 40.9176 43.1855 41.1611 42.8418C41.4118 42.4909 41.6051 42.1292 41.7412 41.7568C41.8844 41.3844 41.9561 41.0085 41.9561 40.6289C41.9561 40.3424 41.931 40.1133 41.8809 39.9414C41.8307 39.7695 41.8021 39.6585 41.7949 39.6084L42.3428 39.458C42.3714 39.5368 42.4072 39.68 42.4502 39.8877C42.5003 40.0954 42.5254 40.346 42.5254 40.6396C42.5254 41.0335 42.4538 41.4346 42.3105 41.8428C42.1673 42.251 41.9632 42.6484 41.6982 43.0352C41.4404 43.4219 41.1253 43.7907 40.7529 44.1416C40.3877 44.4925 39.9795 44.8112 39.5283 45.0977C39.8434 45.4701 40.1764 45.8138 40.5273 46.1289C40.8854 46.444 41.2578 46.7161 41.6445 46.9453C42.0312 47.1745 42.4287 47.3535 42.8369 47.4824C43.2523 47.6113 43.6784 47.6758 44.1152 47.6758C44.4733 47.6758 44.8171 47.6292 45.1465 47.5361C45.4759 47.443 45.766 47.2998 46.0166 47.1064C46.2673 46.9202 46.4678 46.6768 46.6182 46.376C46.7686 46.0824 46.8438 45.7314 46.8438 45.3232C46.8438 44.958 46.7686 44.6393 46.6182 44.3672C46.4678 44.0879 46.2673 43.8551 46.0166 43.6689C45.766 43.4756 45.4795 43.3324 45.1572 43.2393C44.8421 43.139 44.5127 43.0889 44.1689 43.0889C44.0186 43.0889 43.8717 43.096 43.7285 43.1104C43.5924 43.1247 43.4635 43.1426 43.3418 43.1641L43.2344 42.7773ZM35.4785 39.748C35.0273 39.9414 34.6012 40.1491 34.2002 40.3711C33.8063 40.5931 33.4626 40.8438 33.1689 41.123C32.8753 41.3952 32.6426 41.7031 32.4707 42.0469C32.2988 42.3906 32.2129 42.7773 32.2129 43.207C32.2129 43.5723 32.2702 43.9124 32.3848 44.2275C32.5065 44.5355 32.6927 44.8076 32.9434 45.0439C33.2012 45.2731 33.527 45.4521 33.9209 45.5811C34.3148 45.71 34.7874 45.7744 35.3389 45.7744C35.8258 45.7744 36.3128 45.7207 36.7998 45.6133C37.2868 45.5059 37.7559 45.3519 38.207 45.1514C37.849 44.7575 37.5231 44.3385 37.2295 43.8945C36.9359 43.4505 36.6745 42.9993 36.4453 42.541C36.2161 42.0755 36.0192 41.61 35.8545 41.1445C35.6898 40.6719 35.5645 40.2064 35.4785 39.748ZM41.6553 35.29C41.6553 35.1253 41.6195 34.9606 41.5479 34.7959C41.4834 34.6312 41.3796 34.4844 41.2363 34.3555C41.1003 34.2266 40.9212 34.1227 40.6992 34.0439C40.4844 33.9652 40.2301 33.9258 39.9365 33.9258C39.5355 33.9258 39.1273 34.0046 38.7119 34.1621C38.3037 34.3125 37.9313 34.556 37.5947 34.8926C37.2653 35.222 36.9932 35.6517 36.7783 36.1816C36.5706 36.7044 36.4668 37.3346 36.4668 38.0723C36.4668 38.1868 36.4704 38.305 36.4775 38.4268C36.4847 38.5485 36.499 38.6738 36.5205 38.8027C37.1722 38.5736 37.806 38.348 38.4219 38.126C39.0378 37.8968 39.5856 37.6497 40.0654 37.3848C40.5452 37.1126 40.9284 36.8083 41.2148 36.4717C41.5085 36.1351 41.6553 35.7412 41.6553 35.29ZM77.2979 49.7061C77.2764 49.7204 77.1797 49.7705 77.0078 49.8564C76.8359 49.9424 76.6104 50.0355 76.3311 50.1357C76.0518 50.236 75.7331 50.3255 75.375 50.4043C75.0169 50.4902 74.6445 50.5332 74.2578 50.5332C73.6276 50.5332 73.0618 50.4222 72.5605 50.2002C72.0592 49.9782 71.6331 49.6631 71.2822 49.2549C70.9385 48.8538 70.6735 48.3669 70.4873 47.7939C70.3011 47.2282 70.208 46.598 70.208 45.9033C70.208 45.2373 70.2904 44.5068 70.4551 43.7119C70.6198 42.9098 70.8346 42.0863 71.0996 41.2412C71.3646 40.3962 71.6618 39.5511 71.9912 38.7061C72.3278 37.861 72.6644 37.0589 73.001 36.2998C73.3447 35.5335 73.6706 34.8353 73.9785 34.2051C74.2865 33.5677 74.5514 33.0378 74.7734 32.6152C74.3724 33.0736 73.9141 33.6035 73.3984 34.2051C72.8828 34.7995 72.3314 35.4548 71.7441 36.1709C71.1641 36.8799 70.5589 37.639 69.9287 38.4482C69.2985 39.2503 68.6611 40.0882 68.0166 40.9619C67.3792 41.8285 66.7454 42.7201 66.1152 43.6367C65.485 44.5462 64.8835 45.4629 64.3105 46.3867L63.7949 46.2148C63.9023 45.0475 64.0778 43.891 64.3213 42.7451C64.5719 41.5921 64.8512 40.4857 65.1592 39.4258C65.4743 38.3587 65.8037 37.3597 66.1475 36.4287C66.4984 35.4906 66.8314 34.6527 67.1465 33.915C66.6667 34.5739 66.1868 35.29 65.707 36.0635C65.2344 36.8298 64.7546 37.6211 64.2676 38.4375C63.7806 39.2467 63.2793 40.0632 62.7637 40.8867C62.248 41.7031 61.7109 42.4909 61.1523 43.25C60.5938 44.002 60.0029 44.7074 59.3799 45.3662C58.764 46.0179 58.1051 46.5837 57.4033 47.0635C56.7087 47.5505 55.9639 47.9336 55.1689 48.2129C54.3812 48.4922 53.5361 48.6318 52.6338 48.6318C51.9391 48.6318 51.3089 48.528 50.7432 48.3203C50.1774 48.1126 49.6904 47.8262 49.2822 47.4609C48.8812 47.1029 48.5732 46.6803 48.3584 46.1934C48.1364 45.7064 48.0254 45.18 48.0254 44.6143C48.0254 44.0628 48.1149 43.5651 48.2939 43.1211C48.4658 42.6699 48.6986 42.2725 48.9922 41.9287C49.2858 41.5778 49.626 41.277 50.0127 41.0264C50.4066 40.7686 50.8184 40.5573 51.248 40.3926C51.6777 40.2279 52.111 40.1061 52.5479 40.0273C52.9919 39.9486 53.4144 39.9092 53.8154 39.9092C54.6462 39.9092 55.4411 40.0094 56.2002 40.21C56.9593 40.4033 57.6898 40.7507 58.3916 41.252L58.0156 41.6709C58.0085 41.6637 57.9154 41.5993 57.7363 41.4775C57.5573 41.3486 57.2995 41.209 56.9629 41.0586C56.6263 40.9082 56.2074 40.7721 55.7061 40.6504C55.2119 40.5286 54.6462 40.4678 54.0088 40.4678C53.3929 40.4678 52.7949 40.5501 52.2148 40.7148C51.6419 40.8796 51.1335 41.1302 50.6895 41.4668C50.2526 41.7962 49.9017 42.2152 49.6367 42.7236C49.3717 43.2249 49.2393 43.8158 49.2393 44.4961C49.2393 44.9831 49.3324 45.4342 49.5186 45.8496C49.7119 46.265 49.9769 46.623 50.3135 46.9238C50.6501 47.2318 51.0547 47.4717 51.5273 47.6436C52 47.8154 52.5228 47.9014 53.0957 47.9014C53.9551 47.9014 54.7786 47.7188 55.5664 47.3535C56.3542 46.9883 57.1133 46.4941 57.8438 45.8711C58.5742 45.248 59.276 44.5212 59.9492 43.6904C60.6296 42.8597 61.2812 41.9824 61.9043 41.0586C62.5345 40.1348 63.1432 39.1859 63.7305 38.2119C64.3177 37.238 64.887 36.2998 65.4385 35.3975C65.9899 34.488 66.527 33.6393 67.0498 32.8516C67.5726 32.0566 68.0846 31.3727 68.5859 30.7998L69.0693 31.0898C68.7542 32.0495 68.4821 32.8945 68.2529 33.625C68.0238 34.3483 67.8232 34.9857 67.6514 35.5371C67.4867 36.0885 67.3434 36.5648 67.2217 36.9658C67.1071 37.3669 67.0068 37.7249 66.9209 38.04C66.835 38.3551 66.7562 38.6416 66.6846 38.8994C66.6201 39.1501 66.5521 39.4007 66.4805 39.6514C66.416 39.902 66.3408 40.167 66.2549 40.4463C66.1689 40.7256 66.0651 41.0514 65.9434 41.4238C65.8216 41.7891 65.6784 42.2152 65.5137 42.7021C65.349 43.182 65.1484 43.7513 64.9121 44.4102C65.5137 43.5007 66.1296 42.6055 66.7598 41.7246C67.3971 40.8438 68.0309 39.9915 68.6611 39.168C69.2913 38.3444 69.9072 37.5566 70.5088 36.8047C71.1175 36.0527 71.6904 35.3545 72.2275 34.71C72.7718 34.0654 73.2695 33.4818 73.7207 32.959C74.179 32.429 74.5765 31.9779 74.9131 31.6055C75.2497 31.2331 75.5111 30.943 75.6973 30.7354C75.8906 30.5277 75.9909 30.4202 75.998 30.4131L76.4492 30.7461C76.0267 31.7917 75.6077 32.8408 75.1924 33.8936C74.777 34.9391 74.376 35.9596 73.9893 36.9551C73.6097 37.9505 73.2552 38.9102 72.9258 39.834C72.5964 40.7578 72.3099 41.6243 72.0664 42.4336C71.8229 43.2357 71.6296 43.9697 71.4863 44.6357C71.3503 45.2946 71.2822 45.8604 71.2822 46.333C71.2822 46.8916 71.3467 47.3965 71.4756 47.8477C71.6117 48.2988 71.805 48.682 72.0557 48.9971C72.3063 49.3122 72.6143 49.5521 72.9795 49.7168C73.3519 49.8887 73.7708 49.9746 74.2363 49.9746C74.5872 49.9746 74.9274 49.9352 75.2568 49.8564C75.5934 49.7777 75.8906 49.6917 76.1484 49.5986C76.4062 49.5055 76.6139 49.4196 76.7715 49.3408C76.929 49.262 77.0114 49.2227 77.0186 49.2227L77.2979 49.7061Z" fill="white"/>
</svg>
