<svg width="51" height="50" viewBox="0 0 51 50" fill="none" xmlns="http://www.w3.org/2000/svg">
<path d="M39.3679 34.5066C38.8324 34.7324 37.6148 31.5439 37.4523 31.1583C37.2894 30.7728 36.0273 27.8572 36.4851 27.6642C37.1112 27.4003 38.2185 30.3814 38.3809 30.767C38.5434 31.1525 39.9339 34.2683 39.3679 34.5066Z" fill="#1E009F"/>
<path d="M38.859 33.0187C38.9721 32.9424 39.2481 33.1395 39.4362 33.5982C39.6287 34.0484 39.6866 34.7445 39.4653 35.4079C39.2481 36.0744 38.775 36.6718 38.1875 36.9684C37.8935 37.1206 37.5506 37.1803 37.2759 37.1368C36.994 37.0959 36.8136 36.9869 36.7256 36.9321C36.5488 36.8284 36.1008 36.4563 36.0093 35.7858C35.9604 35.4478 36.043 35.0564 36.2256 34.7499C36.4079 34.4344 36.6785 34.1848 36.9738 34.0143C37.5865 33.661 38.2369 33.6776 38.6511 33.7593C39.0748 33.8468 39.3136 33.9932 39.2939 34.1125C39.266 34.2827 38.9914 34.3468 38.6251 34.4124C38.2616 34.4774 37.8001 34.5721 37.4797 34.8127C37.1354 35.047 36.9698 35.4254 37.0147 35.644C37.0528 35.9119 37.2229 36.0596 37.266 36.082C37.3262 36.1076 37.4249 36.1996 37.7279 36.06C38.029 35.9164 38.3859 35.5277 38.5699 35.0843C38.7665 34.6354 38.8118 34.1363 38.7948 33.7584C38.7844 33.3787 38.7234 33.1031 38.859 33.0187Z" fill="#1E009F"/>
<path d="M37.9774 35.942C37.7476 36.1189 37.5389 36.0367 37.3967 35.8801C37.2539 35.7252 37.1911 35.5111 37.1731 35.4685C37.1543 35.4259 37.0686 35.2369 37.0695 35.0385C37.0668 34.8392 37.153 34.6466 37.3971 34.6058C38.0551 34.5026 38.0551 35.0048 38.1004 35.0735C38.1148 35.1516 38.446 35.5699 37.9774 35.942Z" fill="#1E009F"/>
<path d="M38.6053 34.8411C38.8316 35.0224 38.735 35.3249 38.521 35.5623C38.3118 35.8029 38.0057 35.9515 37.9433 35.9847C37.8827 36.0215 37.6072 36.1795 37.3123 36.2208C37.0183 36.2697 36.732 36.1988 36.692 35.9546C36.6368 35.6185 36.8168 35.4506 36.9999 35.3294C37.1862 35.2136 37.3989 35.1364 37.446 35.1086C37.4936 35.0821 37.6906 34.9456 37.9034 34.8379C38.1184 34.7356 38.3661 34.6476 38.6053 34.8411Z" fill="#1E009F"/>
<path d="M38.4815 35.13C37.9348 35.3266 37.8881 34.8554 37.8688 34.8028C37.85 34.7499 37.6754 34.3585 38.143 34.1897C38.7817 33.9595 38.7983 34.4083 38.8172 34.4613C38.8365 34.5142 39.0591 34.9218 38.4815 35.13Z" fill="#1E009F"/>
<path d="M40.2611 30.7059C40.1166 30.67 40.0546 30.5255 39.9492 30.3859C39.8518 30.245 39.709 30.07 39.508 29.916C39.1507 29.6211 38.4707 29.4569 38.3239 29.407C38.2494 29.3855 38.0511 29.3384 37.7777 29.2481C37.5102 29.162 37.1408 29.0035 36.8513 28.7598C36.556 28.5228 36.3262 28.1858 36.2737 27.8913C36.2135 27.5969 36.3114 27.4084 36.429 27.403C36.6018 27.3909 36.723 27.5107 36.8684 27.6198C37.0071 27.7343 37.1812 27.8671 37.3971 27.9892C37.6152 28.1135 37.8486 28.2046 38.0847 28.28C38.3275 28.3545 38.5178 28.4129 38.5887 28.4349C38.6642 28.4569 38.8791 28.5049 39.1745 28.6095C39.3226 28.6633 39.4882 28.7324 39.6606 28.8307C39.8401 28.9326 40.0084 29.0632 40.152 29.2158C40.4429 29.5143 40.622 29.9308 40.5982 30.2571C40.5811 30.5883 40.4016 30.7454 40.2611 30.7059Z" fill="#1E009F"/>
<path d="M28.8132 23.526C28.2338 23.4838 28.6054 19.9609 28.6368 19.5273C28.6682 19.0937 28.8751 15.802 29.3711 15.8379C30.0483 15.8872 29.6731 19.1664 29.6417 19.6C29.6103 20.0336 29.4258 23.5704 28.8132 23.526Z" fill="#1E009F"/>
<path d="M28.8087 21.678C28.9416 21.6457 29.1328 21.9311 29.1597 22.4369C29.1875 22.936 29.0134 23.6272 28.5843 24.1973C28.3729 24.4827 28.1049 24.7367 27.8074 24.9297C27.6579 25.0258 27.503 25.1057 27.3478 25.1721C27.1763 25.2426 27.0044 25.2852 26.8428 25.3099C26.1974 25.419 25.6431 25.1564 25.4685 25.0016C25.3841 24.9324 25.2059 24.7897 25.0897 24.5173C24.9653 24.2538 24.9528 23.8692 25.0681 23.5541C25.2723 22.9199 25.8985 22.3804 26.5731 22.2206C27.2445 22.0415 27.9268 22.1946 28.3285 22.4634C28.7396 22.7359 28.8496 23.0559 28.7589 23.1241C28.6242 23.239 28.3846 23.1187 28.0497 23.0545C27.7176 22.9863 27.2607 22.971 26.8473 23.1254C26.433 23.2664 26.1215 23.5922 26.0322 23.8719C25.9591 24.1299 26.0475 24.1564 26.0847 24.2044C26.1121 24.2287 26.3159 24.3552 26.6938 24.3027C26.7831 24.2888 26.8738 24.2682 26.9618 24.2336C27.0637 24.1914 27.1669 24.1425 27.2692 24.0819C27.473 23.9607 27.6691 23.7969 27.8374 23.6066C28.1795 23.2264 28.3877 22.7511 28.5008 22.3759C28.6166 22.0002 28.6521 21.7116 28.8087 21.678Z" fill="#1E009F"/>
<path d="M26.8788 24.2812C26.2984 24.3135 26.3729 23.5756 26.368 23.4854C26.363 23.3956 26.2935 22.7157 26.7899 22.6883C27.4681 22.6506 27.3693 23.3395 27.3738 23.4293C27.3792 23.5195 27.4914 24.2471 26.8788 24.2812Z" fill="#1E009F"/>
<path d="M27.2441 24.0736C27.1651 24.6494 26.5313 24.4456 26.4519 24.4349C26.372 24.4236 25.7629 24.372 25.8303 23.8792C25.9227 23.2064 26.5094 23.4254 26.5888 23.4362C26.6682 23.447 27.3276 23.4654 27.2441 24.0736Z" fill="#1E009F"/>
<path d="M27.5125 23.9269C26.9371 23.8474 27.1139 23.4084 27.1216 23.3523C27.1296 23.2967 27.1561 22.8689 27.6489 22.9371C28.3217 23.0296 28.1274 23.434 28.1202 23.4897C28.1121 23.5458 28.1207 24.0099 27.5125 23.9269Z" fill="#1E009F"/>
<path d="M26.4137 39.9243C25.8455 40.0491 25.1696 36.4338 25.0726 35.9935C24.9761 35.5527 24.21 32.2156 24.6956 32.1083C25.3585 31.9625 25.96 35.3364 26.0569 35.7767C26.1539 36.2179 27.0129 39.7924 26.4137 39.9243Z" fill="#1E009F"/>
<path d="M26.2535 38.3557C26.3742 38.2933 26.626 38.5195 26.749 38.998C26.8778 39.4674 26.8289 40.1636 26.499 40.7767C26.1781 41.3866 25.5865 41.9086 24.9357 42.0473C24.6251 42.1196 24.3212 42.1102 24.0712 42.0437C23.8194 41.9764 23.6372 41.8512 23.5524 41.7771C23.4676 41.7049 23.3073 41.5563 23.2028 41.3023C23.0973 41.0505 23.0748 40.7291 23.1408 40.427C23.2602 39.8198 23.7607 39.2098 24.3702 38.949C24.9721 38.664 25.6435 38.6945 26.0703 38.8732C26.5066 39.0608 26.6682 39.3395 26.5932 39.4257C26.4842 39.5639 26.2328 39.5047 25.9097 39.5069C25.5865 39.5114 25.1588 39.5725 24.7975 39.7919C24.4308 39.9993 24.1974 40.3395 24.1363 40.6286C24.0847 40.9261 24.1736 40.9733 24.1987 41.0042C24.2135 41.0173 24.2463 41.0406 24.3253 41.0626C24.4047 41.0823 24.543 41.0931 24.7055 41.055C25.0183 41.0006 25.4164 40.699 25.6718 40.305C25.9348 39.9086 26.0555 39.4342 26.0914 39.068C26.1359 38.7004 26.1085 38.4243 26.2535 38.3557Z" fill="#1E009F"/>
<path d="M24.5345 41.2395C23.995 41.0645 24.2751 40.3719 24.2733 40.2705C24.3011 40.1767 24.3065 39.4814 24.7917 39.4671C25.4856 39.4514 25.3038 40.3091 25.271 40.4101C25.2638 40.4639 25.2436 40.7202 25.1323 40.9397C25.0224 41.1601 24.8267 41.3315 24.5345 41.2395Z" fill="#1E009F"/>
<path d="M25.3495 40.7225C25.4478 41.2952 24.7822 41.2925 24.7032 41.306C24.6238 41.3199 24.0273 41.4545 23.9429 40.9648C23.8275 40.2952 24.4528 40.3266 24.5318 40.3131C24.6112 40.2992 25.2449 40.1175 25.3495 40.7225Z" fill="#1E009F"/>
<path d="M25.929 40.3048C25.3796 40.4951 25.3586 40.0804 25.3424 40.0342C25.3267 39.9879 25.175 39.6473 25.6449 39.4848C26.2867 39.2626 26.2787 39.6585 26.2948 39.7043C26.3105 39.751 26.5089 40.1042 25.929 40.3048Z" fill="#1E009F"/>
<path d="M25.6911 40.1017C25.9295 40.6318 25.6355 40.6367 25.6054 40.6507C25.5753 40.6641 25.3581 40.7961 25.1548 40.3423C24.8765 39.7229 25.1624 39.7449 25.1925 39.7314C25.2225 39.7175 25.4402 39.5416 25.6911 40.1017Z" fill="#1E009F"/>
<path d="M31.4053 39.0591C31.1171 39.1017 30.8662 38.2179 30.6454 37.2758C30.4281 36.3324 30.2378 35.3284 30.1884 35.1102C30.1404 34.8912 29.9205 33.9572 29.7441 33.0685C29.5717 32.1789 29.4438 31.3306 29.683 31.2601C30.0085 31.165 30.381 31.9536 30.6588 32.8315C30.9407 33.7085 31.1234 34.669 31.1719 34.8903C31.2221 35.112 31.4623 36.1246 31.5812 37.1021C31.7042 38.0793 31.7082 39.0133 31.4053 39.0591Z" fill="#1E009F"/>
<path d="M31.127 36.6652C31.263 36.6298 31.4492 36.8959 31.5866 37.3685C31.7194 37.8349 31.802 38.5328 31.5852 39.255C31.3864 39.9843 30.8177 40.6176 30.2912 40.9269C30.0278 41.0997 29.7333 41.2159 29.464 41.2545C29.192 41.2967 28.9537 41.2464 28.8392 41.2078C28.7261 41.1719 28.4995 41.0804 28.2944 40.8488C28.0919 40.6181 27.969 40.2734 27.9672 39.93C27.9618 39.5844 28.0475 39.2222 28.2625 38.8824C28.4779 38.5593 28.7661 38.3093 29.0928 38.1432C29.7437 37.8044 30.4726 37.8245 30.934 38.0126C31.4088 38.1962 31.5929 38.4933 31.5192 38.5799C31.4124 38.7213 31.144 38.6446 30.78 38.6477C30.4218 38.6396 29.9407 38.7177 29.5587 38.9655C29.3684 39.0808 29.2086 39.2518 29.1117 39.4089C29.0228 39.557 28.977 39.7536 28.9824 39.9031C29.0067 40.2249 29.1054 40.2195 29.1467 40.2478C29.1691 40.2536 29.2109 40.268 29.3114 40.2532C29.4111 40.237 29.5673 40.1849 29.7468 40.0669C30.1301 39.8353 30.4941 39.452 30.6817 38.956C30.8801 38.4641 30.9106 37.8919 30.9304 37.4552C30.9506 37.0176 30.9744 36.7043 31.127 36.6652Z" fill="#1E009F"/>
<path d="M29.7602 40.5009C29.1875 40.5996 29.1565 39.7401 29.139 39.6374C29.1211 39.5341 28.9554 38.7576 29.4451 38.6728C30.1148 38.5575 30.1143 39.3627 30.1323 39.4659C30.1498 39.5691 30.3648 40.3968 29.7602 40.5009Z" fill="#1E009F"/>
<path d="M30.2365 39.585C30.3994 39.8256 30.2747 40.0491 30.0749 40.1972C29.877 40.3472 29.6207 40.4082 29.5686 40.4257C29.5165 40.4446 29.2859 40.5276 29.0529 40.5186C28.8195 40.5128 28.6018 40.414 28.5812 40.1672C28.534 39.5069 29.1552 39.5222 29.2419 39.4724C29.2827 39.458 29.4573 39.3777 29.649 39.3454C29.8406 39.3171 30.065 39.3306 30.2365 39.585Z" fill="#1E009F"/>
<path d="M30.6238 39.628C30.0506 39.7272 30.0425 38.9969 30.0273 38.9098C30.012 38.8223 29.867 38.1657 30.3567 38.0813C31.0259 37.966 31.0053 38.6509 31.0201 38.7384C31.0354 38.8255 31.2284 39.5243 30.6238 39.628Z" fill="#1E009F"/>
<path d="M30.5959 39.2386C30.6951 39.8113 30.3522 39.753 30.3123 39.7597C30.2728 39.7669 29.9774 39.8495 29.893 39.3602C29.7777 38.6901 30.1018 38.7736 30.1413 38.7669C30.1808 38.7601 30.4923 38.6336 30.5959 39.2386Z" fill="#1E009F"/>
<path d="M30.8568 35.9662C30.5727 36.0268 30.1467 34.5838 29.7724 33.0357C29.6826 32.6461 29.592 32.2534 29.5049 31.8764C29.4874 31.8005 29.4708 31.7256 29.4542 31.6515L29.4528 31.652L29.4533 31.6515L29.3711 31.6574C28.7185 31.7449 28.2149 31.8122 28.0345 31.8364C27.8595 31.8607 27.4075 31.924 26.8209 32.0061C26.5278 32.0443 26.2006 32.086 25.8581 32.1304C25.6866 32.1511 25.5107 32.1726 25.3339 32.1937C25.271 32.2013 25.2894 32.1973 25.2813 32.1973L25.2701 32.196C25.2616 32.1955 25.2513 32.1964 25.2436 32.2018C25.2356 32.2081 25.232 32.2175 25.2302 32.2278L25.2284 32.2453C25.2248 32.239 25.2432 32.3248 25.2495 32.3593C25.2836 32.5452 25.3173 32.7283 25.3509 32.9074C25.4129 33.2624 25.4649 33.5936 25.4986 33.8795C25.5659 34.4509 25.5628 34.8396 25.4375 34.8697C25.2656 34.9105 25.0596 34.5725 24.846 34.0357C24.7387 33.7678 24.6296 33.4505 24.5219 33.1057C24.4698 32.9312 24.4164 32.753 24.3617 32.5721L24.3154 32.406C24.2912 32.3167 24.2697 32.226 24.2611 32.1363C24.2427 31.9572 24.2742 31.7839 24.3657 31.6327C24.4523 31.494 24.5794 31.3898 24.7324 31.3257C24.8087 31.2929 24.8918 31.27 24.9784 31.2534L25.1956 31.2188C25.372 31.191 25.5466 31.1645 25.7172 31.1376C26.0596 31.0891 26.3855 31.042 26.679 31.0003C27.2652 30.9222 27.7185 30.862 27.8936 30.8387C28.078 30.8131 28.5911 30.7399 29.258 30.6452C29.3096 30.6398 29.3657 30.6354 29.4272 30.634C29.513 30.6318 29.5983 30.6376 29.6831 30.652C29.8523 30.6807 30.0157 30.7539 30.1458 30.8728C30.2778 30.9899 30.3662 31.1542 30.4156 31.3333C30.4434 31.4379 30.4488 31.4792 30.4587 31.5254L30.4865 31.6677C30.557 32.0474 30.6306 32.4433 30.7033 32.8373C30.9775 34.4065 31.1571 35.902 30.8568 35.9662Z" fill="#1E009F"/>
<path d="M30.2355 32.9645C30.3136 33.5403 27.894 33.7504 27.5987 33.7903C27.3038 33.8303 25.0686 34.1642 25.0017 33.6718C24.911 32.9986 27.1687 32.8321 27.464 32.7921C27.7589 32.7522 30.1539 32.3559 30.2355 32.9645Z" fill="#1E009F"/>
<path d="M14.9232 35.4101C14.6597 35.2857 14.9923 34.3023 15.3958 33.2839C15.8007 32.2669 16.2756 31.2112 16.3725 30.9774C16.587 30.5173 17.9533 26.9307 18.4035 27.095C18.7213 27.2126 18.513 28.1686 18.1818 29.1484C17.8532 30.1291 17.4012 31.13 17.3025 31.3652C17.2046 31.6008 16.7688 32.6856 16.2657 33.6704C15.7648 34.6565 15.2006 35.5402 14.9232 35.4101Z" fill="#1E009F"/>
<path d="M15.6606 34.3476C15.7961 34.37 15.8379 34.7601 15.4963 35.1909C15.3302 35.401 15.0776 35.5998 14.758 35.73C14.4366 35.8606 14.0704 35.9073 13.7136 35.8817C13.3545 35.8561 13.0161 35.7668 12.7006 35.6357C12.3698 35.4953 12.0834 35.3 11.8563 35.0545C11.6297 34.8144 11.4717 34.5015 11.4362 34.2161C11.3963 33.9302 11.4578 33.7183 11.4892 33.612C11.5251 33.5065 11.6072 33.3085 11.7805 33.1196C11.9524 32.9311 12.201 32.7659 12.4887 32.6627C13.0758 32.4517 13.798 32.4858 14.4236 32.8045C14.7315 32.9638 15.0049 33.2067 15.1763 33.4854C15.3473 33.7605 15.4281 34.0505 15.4353 34.2996C15.4514 34.8103 15.2059 35.0756 15.104 35.0222C14.9425 34.9562 14.9303 34.6981 14.7907 34.4113C14.6574 34.1151 14.4088 33.8058 14.0188 33.6577C13.6391 33.502 13.1346 33.4984 12.8419 33.6146C12.5197 33.7354 12.4618 33.8884 12.4465 33.9266C12.4429 33.9813 12.3743 34.0985 12.6036 34.3624C12.7149 34.4872 12.8954 34.6196 13.0987 34.7138C13.3177 34.8157 13.5695 34.8965 13.8087 34.9342C14.2944 35.0217 14.7329 34.9037 15.0394 34.7129C15.3473 34.5352 15.5084 34.3085 15.6606 34.3476Z" fill="#1E009F"/>
<path d="M12.7333 34.8824C12.3213 34.4964 12.8725 33.9708 12.9115 33.8725C12.9775 33.7967 13.263 33.1467 13.7145 33.3178C14.0296 33.4425 14.0758 33.6939 14.0152 33.9259C13.9578 34.1584 13.798 34.355 13.7679 34.403C13.7387 34.4515 13.6104 34.6862 13.4124 34.8478C13.2154 35.0107 12.9587 35.0902 12.7333 34.8824Z" fill="#1E009F"/>
<path d="M13.7787 34.5177C13.6884 34.7937 13.4533 34.8372 13.2347 34.765C13.0161 34.6963 12.8451 34.5217 12.8078 34.4889C12.7688 34.458 12.5933 34.3139 12.5053 34.1182C12.4124 33.9239 12.42 33.7003 12.6359 33.5792C12.9326 33.4117 13.1121 33.4517 13.2338 33.5163C13.3527 33.5837 13.4299 33.6959 13.4564 33.7174C13.4815 33.7394 13.6023 33.8144 13.697 33.9328C13.7881 34.0522 13.8747 34.2259 13.7787 34.5177Z" fill="#1E009F"/>
<path d="M13.9815 34.8991C13.5084 34.5611 13.947 34.1455 13.9896 34.0863C14.0318 34.027 14.3271 33.5589 14.7315 33.8475C15.285 34.242 14.8518 34.6123 14.8096 34.6715C14.7675 34.7308 14.4806 35.2555 13.9815 34.8991Z" fill="#1E009F"/>
<path d="M14.5363 34.602C14.263 35.1146 13.7966 34.7358 13.7329 34.7021C13.6687 34.6676 13.1687 34.4378 13.4025 33.9988C13.7212 33.3992 14.1422 33.778 14.2064 33.8121C14.2697 33.8462 14.824 34.0603 14.5363 34.602Z" fill="#1E009F"/>
<path d="M13.9326 35.0448C13.42 34.7718 13.5834 34.7103 13.5906 34.696C13.5987 34.6821 13.6278 34.5591 14.0668 34.7929C14.6664 35.1121 14.4878 35.1552 14.4806 35.1695C14.473 35.1839 14.4743 35.3334 13.9326 35.0448Z" fill="#1E009F"/>
<path d="M12.8357 34.5106C12.8541 34.8001 12.7149 34.9249 12.552 34.9442C12.3904 34.9657 12.2387 34.8827 12.2068 34.8701C12.1745 34.8589 12.0237 34.8064 11.9317 34.683C11.837 34.5605 11.8213 34.3859 11.9914 34.2054C12.4586 33.7234 12.5134 33.915 12.561 33.9262C12.5982 33.9491 12.7827 33.9083 12.8357 34.5106Z" fill="#1E009F"/>
<path d="M18.7167 32.3838C18.6552 32.2478 18.74 32.106 18.7952 31.926C18.8567 31.7509 18.9151 31.513 18.9124 31.2437C18.9285 30.7455 18.5973 30.1028 18.5322 29.9596C18.495 29.8865 18.3967 29.6926 18.2697 29.4426C18.1436 29.1845 17.9883 28.8227 17.9223 28.4439C17.8514 28.0669 17.8756 27.6607 18.0008 27.3883C18.1189 27.1118 18.2988 26.9982 18.403 27.0548C18.5569 27.1351 18.5924 27.3097 18.6431 27.5068C18.6875 27.7047 18.7445 27.948 18.8383 28.2119C19.017 28.7209 19.3639 29.3402 19.4321 29.5059C19.4694 29.5826 19.5861 29.7927 19.705 30.1078C19.7629 30.2662 19.819 30.4498 19.854 30.6576C19.8899 30.873 19.8926 31.0983 19.8612 31.3174C19.8047 31.7527 19.5762 32.1674 19.2952 32.3586C19.0156 32.5584 18.7724 32.5175 18.7167 32.3838Z" fill="#1E009F"/>
<path d="M17.6875 34.6082C17.4371 34.4439 17.7652 33.8214 17.9433 33.2397C18.03 32.948 18.0614 32.676 18.0304 32.4686C18.0062 32.2631 17.9303 32.0889 17.9021 32.0265C17.8738 31.9637 17.7894 31.8003 17.6471 31.566C17.5111 31.3358 17.3033 31.0198 17.1704 30.6432C17.0353 30.2783 16.9986 29.8533 17.0991 29.5521C17.1974 29.246 17.3859 29.1221 17.4891 29.1809C17.6413 29.2613 17.6808 29.4336 17.7499 29.6127C17.815 29.794 17.9002 30.0202 18.038 30.2689C18.1673 30.5104 18.3518 30.7725 18.5084 31.0283C18.6642 31.2779 18.7759 31.5108 18.8154 31.5997C18.8522 31.6876 18.9878 31.9385 19.0398 32.3322C19.0982 32.7227 19.0111 33.1998 18.8347 33.5741C18.4694 34.3268 17.9294 34.7707 17.6875 34.6082Z" fill="#1E009F"/>
<path d="M21.7064 26.5144C21.6184 26.5409 21.4272 26.1222 21.1463 25.4893C20.8496 24.8623 20.4551 24.0185 19.9501 23.2043C18.9775 21.5499 17.5731 20.0719 17.2522 19.7721C16.9474 19.4548 15.5448 18.1527 13.991 17.2492C13.2315 16.7716 12.4425 16.4045 11.8599 16.119C11.2684 15.8583 10.8815 15.672 10.9043 15.5988C10.9335 15.5037 11.3631 15.5706 12.0035 15.7546C12.6342 15.9615 13.4735 16.2932 14.276 16.7591C15.9192 17.6406 17.3617 19.0131 17.6754 19.3403C18.0062 19.6487 19.4878 21.1675 20.4425 22.9153C20.9385 23.7734 21.298 24.6697 21.5166 25.3461C21.7199 26.0288 21.7903 26.4902 21.7064 26.5144Z" fill="#1E009F"/>
<path d="M22.6664 22.7704C22.4918 22.8135 22.0291 21.1448 21.4506 19.4145C20.8918 17.6757 20.1063 15.9226 19.9043 15.555C19.7239 15.1793 18.8859 13.577 17.8226 12.2597C17.2984 11.5972 16.7351 11.0016 16.3011 10.5739C15.8662 10.1461 15.5699 9.87188 15.6162 9.80859C15.6732 9.72915 16.0488 9.90465 16.5578 10.2776C17.0659 10.6502 17.6916 11.2318 18.2607 11.8993C19.4155 13.2291 20.2602 14.8992 20.4452 15.2843C20.653 15.6618 21.4865 17.4571 21.995 19.2408C22.5233 21.0182 22.8397 22.7278 22.6664 22.7704Z" fill="#1E009F"/>
<path d="M43.657 13.8753C43.6983 13.957 43.2903 14.2326 42.6705 14.6397C42.0578 15.0611 41.2324 15.6213 40.4474 16.2828C38.8473 17.5741 37.4609 19.259 37.1812 19.6388C36.8832 20.0046 35.6736 21.6576 34.8621 23.4036C34.4308 24.2626 34.1063 25.1365 33.8527 25.7833C33.622 26.4363 33.4555 26.8636 33.3805 26.8456C33.2836 26.8228 33.3285 26.3614 33.4779 25.667C33.6503 24.9803 33.9335 24.0624 34.3482 23.1648C35.126 21.3389 36.3967 19.645 36.7028 19.2698C36.9887 18.8802 38.4007 17.1208 40.0892 15.8385C40.9164 15.1819 41.7961 14.6495 42.4676 14.2986C43.1485 13.9606 43.6179 13.7968 43.657 13.8753Z" fill="#1E009F"/>
<path d="M37.4492 10.6726C37.5093 10.7399 37.2521 11.0532 36.85 11.5119C36.4559 11.9791 35.9182 12.5958 35.424 13.2785C34.4088 14.6254 33.6031 16.2215 33.4465 16.576C33.2742 16.9234 32.6009 18.4611 32.2266 19.9957C31.8087 21.519 31.6812 23.0051 31.5246 22.997C31.3289 22.993 31.306 21.4553 31.6745 19.8642C31.9999 18.2637 32.7212 16.6779 32.8985 16.3207C33.0592 15.9562 33.8702 14.2875 34.9694 12.9329C35.5044 12.2471 36.0996 11.6456 36.5677 11.2332C37.0444 10.8274 37.3904 10.6061 37.4492 10.6726Z" fill="#1E009F"/>
<path d="M8.37023 26.4073C8.41825 26.3242 8.78539 26.5347 9.37201 26.4476C9.66106 26.4073 9.99142 26.2986 10.2998 26.0935C10.613 25.8893 10.9075 25.598 11.1705 25.2618C11.4393 24.9292 11.6566 24.5477 11.9339 24.1703C12.2028 23.8004 12.5753 23.4387 13.0147 23.2928C13.438 23.138 13.9052 23.1748 14.2154 23.3691C14.5502 23.567 14.6471 23.874 14.6799 23.9966C14.7104 24.1317 14.7715 24.3915 14.6269 24.734C14.5556 24.9001 14.3931 25.0913 14.1566 25.1757C13.9236 25.2645 13.64 25.2282 13.4241 25.1011C13.2073 24.9746 13.0264 24.7708 12.9461 24.4952C12.8711 24.2192 12.9209 23.9355 13.0417 23.6994C13.1615 23.4634 13.3536 23.2668 13.5848 23.1362C13.811 23.0073 14.0601 22.9454 14.2984 22.923C15.2558 22.8489 16.0879 23.3018 16.5412 23.7506C17.0057 24.208 17.1283 24.6263 17.0686 24.6523C16.973 24.7062 16.7472 24.3803 16.2854 24.0482C15.8383 23.7174 15.096 23.3983 14.359 23.4867C13.9999 23.5298 13.7023 23.7017 13.5776 23.9678C13.4452 24.234 13.5354 24.462 13.7252 24.5711C13.9124 24.6649 14.0161 24.5953 14.074 24.4822C14.1323 24.3547 14.1121 24.2102 14.0955 24.151C14.0753 24.085 14.0399 23.9683 13.9057 23.892C13.7634 23.8022 13.5067 23.7668 13.2185 23.8687C12.9331 23.962 12.6656 24.2026 12.4151 24.532C12.1678 24.8565 11.9218 25.2645 11.6135 25.6222C11.3114 25.9827 10.9546 26.3076 10.5628 26.5262C10.17 26.7497 9.75039 26.8449 9.39851 26.844C9.04393 26.8458 8.75801 26.7488 8.58656 26.6451C8.41286 26.541 8.34689 26.4432 8.37023 26.4073Z" fill="#1E009F"/>
<path d="M8.24722 23.217C8.1772 23.1713 8.30379 22.8302 8.59463 22.3418C8.88278 21.8674 9.394 21.1946 10.2055 20.8688C10.6 20.7054 11.065 20.6403 11.4999 20.7355C11.9268 20.8221 12.3738 21.0918 12.521 21.5618C12.6606 21.9989 12.4501 22.4917 12.0776 22.6412C11.7131 22.7835 11.4649 22.6529 11.3554 22.6066C11.2459 22.5496 11.0268 22.4293 10.8949 22.1134C10.7751 21.8158 10.8222 21.4092 11.0457 21.0896C11.2697 20.7521 11.6696 20.5478 12.056 20.4724C12.4465 20.3957 12.8406 20.4015 13.2239 20.4648C13.9932 20.5882 14.6534 20.9711 15.0547 21.3293C15.4613 21.6901 15.631 22.0048 15.5776 22.0478C15.4968 22.1174 15.2387 21.8993 14.8186 21.6421C14.4012 21.3849 13.7984 21.1008 13.1426 21.0263C12.499 20.9392 11.762 21.0689 11.5506 21.4316C11.4281 21.6102 11.4209 21.7938 11.4618 21.8957C11.4954 21.9841 11.5807 22.046 11.6233 22.0644C11.7077 22.117 12.0013 22.1708 11.9357 21.7381C11.8949 21.5752 11.6687 21.3849 11.3702 21.3239C11.0731 21.253 10.7306 21.2844 10.4111 21.402C9.75981 21.6277 9.26742 22.1641 8.91734 22.5725C8.56814 22.9872 8.32756 23.2687 8.24722 23.217Z" fill="#1E009F"/>
<path d="M46.8279 20.2548C46.9029 20.2633 46.8522 20.8275 46.3024 21.4276C45.775 22.0299 44.7602 22.5254 43.7054 22.6776C42.6637 22.8548 41.5712 22.8513 40.8055 23.0294C40.4366 23.117 40.1839 23.3113 40.1166 23.4774C40.0304 23.6672 40.0569 23.8297 40.0775 23.8867C40.0937 23.95 40.1538 24.0519 40.2723 24.0667C40.3827 24.1017 40.6664 23.9415 40.6983 23.722C40.7517 23.4998 40.5371 23.1488 40.2018 23.0236C39.8652 22.8885 39.4132 22.946 38.9936 23.0972C38.1354 23.3885 37.4402 23.9895 37.0304 24.5065C36.6116 25.0245 36.4384 25.4406 36.3603 25.4114C36.2728 25.3849 36.3298 24.9033 36.7113 24.2785C37.0834 23.6592 37.8235 22.9325 38.7983 22.5654C39.2719 22.3813 39.854 22.2579 40.4173 22.4639C40.9626 22.6699 41.3922 23.2162 41.2992 23.8234C41.1664 24.424 40.6529 24.7171 40.1978 24.6695C39.7171 24.5986 39.5425 24.2166 39.5021 24.0725C39.4492 23.9114 39.398 23.5905 39.5658 23.2198C39.7458 22.818 40.1875 22.5519 40.6511 22.4379C41.5708 22.231 42.6188 22.2566 43.6161 22.1134C44.6103 21.9962 45.4949 21.6116 46.025 21.1439C46.5627 20.6879 46.7306 20.2216 46.8279 20.2548Z" fill="#1E009F"/>
<path d="M43.6592 17.6025C43.679 17.6918 43.358 17.8076 42.92 18.0527C42.7018 18.1761 42.4545 18.3327 42.2108 18.5302C41.9667 18.7277 41.7247 18.9602 41.5793 19.2241C41.4281 19.4835 41.4052 19.7744 41.4994 20.0073C41.5982 20.2385 41.771 20.3206 41.9626 20.2937C42.345 20.2223 42.2081 19.9162 42.1462 19.8291C42.1166 19.7861 42.0475 19.7003 41.9325 19.6433C41.8118 19.5836 41.6143 19.5464 41.3675 19.5756C40.8652 19.6415 40.1969 19.8668 39.6283 20.168C38.4492 20.7609 37.6646 21.7677 37.5479 21.681C37.4685 21.6254 37.5896 21.3103 37.9038 20.9072C38.2171 20.5064 38.7324 20.032 39.3527 19.6725C39.9779 19.3103 40.6588 19.0594 41.2984 18.9705C41.6233 18.9306 41.9514 18.9737 42.1983 19.0971C42.4523 19.2259 42.5789 19.3947 42.6449 19.4871C42.7027 19.58 42.8405 19.7726 42.8271 20.1097C42.8186 20.2735 42.7521 20.4701 42.6045 20.6222C42.4608 20.7757 42.2593 20.8691 42.0497 20.8987C41.8392 20.9292 41.6067 20.8974 41.3908 20.7748C41.1763 20.6456 41.0286 20.4517 40.9415 20.2335C40.7674 19.8045 40.8549 19.2937 41.0856 18.9373C41.3109 18.572 41.6206 18.3211 41.9088 18.1236C42.2014 17.9252 42.4963 17.7838 42.7553 17.6913C43.2777 17.5087 43.6426 17.5168 43.6592 17.6025Z" fill="#1E009F"/>
<path d="M18.0125 37.7563C18.1687 37.7891 17.9851 38.7577 17.3217 39.6244C17.0017 40.0579 16.5821 40.4533 16.1745 40.7366C16.0749 40.8093 15.9717 40.8708 15.8765 40.9314C15.8276 40.9596 15.7796 40.987 15.7338 41.013C15.6723 41.0503 15.5713 41.1042 15.4914 41.1297C15.1489 41.25 14.9097 41.1243 14.8002 40.9717C14.7373 40.8838 14.7181 40.8025 14.7091 40.7491C14.6871 40.6522 14.6997 40.4457 14.8765 40.1917C14.9721 40.0449 15.0363 39.9991 15.1314 39.9148C15.2234 39.8385 15.3285 39.7752 15.4375 39.7159C15.8882 39.483 16.3778 39.3856 16.7598 39.1145C17.1588 38.8587 17.4699 38.5036 17.6723 38.2186C17.8765 37.9327 17.9856 37.7177 18.0605 37.7402C18.1543 37.7662 18.1647 38.0342 18.0152 38.4085C17.8689 38.7797 17.5471 39.2411 17.087 39.5777C16.863 39.7473 16.5937 39.8901 16.3496 39.9861C16.1085 40.0844 15.8904 40.1643 15.7252 40.2536C15.6436 40.2976 15.5708 40.3416 15.5161 40.3874C15.4667 40.4237 15.3994 40.4996 15.4142 40.4821C15.4115 40.483 15.4084 40.4875 15.4084 40.4875L15.4097 40.4906C15.4119 40.4924 15.4155 40.4911 15.4182 40.4897C15.4622 40.4646 15.5098 40.4376 15.5601 40.4085C15.6444 40.3546 15.736 40.3012 15.8249 40.2375C16.1884 39.9893 16.5709 39.6481 16.8846 39.2788C17.5318 38.5476 17.8451 37.7079 18.0125 37.7563Z" fill="#1E009F"/>
<path d="M19.6983 40.5132C19.8648 40.5087 19.8711 41.6367 19.271 42.6887C18.9851 43.2103 18.5811 43.6968 18.1785 44.0366C17.977 44.2035 17.8038 44.3575 17.5614 44.4657C17.4469 44.5128 17.3186 44.5505 17.161 44.537C17.0156 44.524 16.9061 44.4639 16.8325 44.4046C16.7903 44.3647 16.7553 44.3315 16.7329 44.3009C16.6952 44.2484 16.6431 44.1676 16.6265 44.0518C16.6032 43.9464 16.6305 43.7704 16.683 43.6618C16.784 43.4405 16.9443 43.2588 17.1687 43.0882C17.5349 42.8252 17.9515 42.48 18.3208 42.0972C19.0731 41.3458 19.5807 40.4666 19.7145 40.533C19.9003 40.616 19.5013 41.6232 18.7378 42.4814C18.368 42.9127 17.9151 43.3009 17.5313 43.5783C17.3868 43.6838 17.2742 43.8247 17.2401 43.9042C17.2212 43.9455 17.232 43.9208 17.2302 43.9298L17.2311 43.9316C17.2504 43.9248 17.1862 43.9513 17.3217 43.9051C17.4259 43.8642 17.6022 43.7246 17.7791 43.5752C18.135 43.2776 18.5004 42.8557 18.7831 42.4051C19.3733 41.5047 19.5201 40.4984 19.6983 40.5132Z" fill="#1E009F"/>
<path d="M17.7284 43.868C17.3913 43.8447 17.429 43.6113 17.4052 43.5745C17.4029 43.5363 17.2773 43.3536 17.4954 43.1629C17.6516 43.0336 17.7813 43.0628 17.863 43.1476C17.9465 43.2307 17.9694 43.3532 17.9775 43.3788C17.9864 43.403 18.0363 43.5247 18.0165 43.6476C17.999 43.7724 17.9119 43.8779 17.7284 43.868Z" fill="#1E009F"/>
<path d="M17.999 43.6712C18.0493 44.0163 17.6534 44.0038 17.6063 44.0105C17.5587 44.0172 17.2024 44.0891 17.1597 43.7933C17.1009 43.3902 17.4717 43.419 17.5188 43.4122C17.5664 43.4055 17.9456 43.3063 17.999 43.6712Z" fill="#1E009F"/>
<path d="M18.4456 43.0492C18.1683 43.2602 18.0569 42.9989 18.0363 42.9716C18.0156 42.9451 17.8455 42.7521 18.083 42.5717C18.4079 42.3253 18.4973 42.5793 18.5179 42.6062C18.5381 42.6332 18.7392 42.8266 18.4456 43.0492Z" fill="#1E009F"/>
<path d="M35.7432 38.3587C35.8249 38.3103 35.9725 38.4727 36.2445 38.6029C36.5183 38.7362 36.9371 38.8282 37.416 38.8987C37.8967 38.9808 38.402 39.0526 38.8554 39.2954C39.0852 39.4377 39.245 39.6168 39.3302 39.8358C39.3715 39.9431 39.3845 40.0706 39.3684 40.1725C39.3513 40.2735 39.3154 40.3475 39.2854 40.3937C39.2391 40.4867 39.0708 40.659 38.8325 40.6895C38.6031 40.7223 38.3886 40.6612 38.1821 40.5706C37.8145 40.4009 37.3904 40.1604 37.0134 39.8727C36.2472 39.3071 35.7328 38.5746 35.8504 38.4831C36.008 38.3533 36.6014 38.9409 37.3392 39.4086C37.7019 39.6482 38.1009 39.8628 38.4285 40.0136C38.569 40.0782 38.6978 40.098 38.74 40.0894C38.7773 40.0823 38.7634 40.0832 38.7683 40.0809C38.7665 40.0715 38.7755 40.0975 38.7616 40.0508C38.7454 40.0006 38.6606 39.8897 38.5425 39.8201C38.2741 39.6707 37.7786 39.563 37.3091 39.4597C36.8347 39.3596 36.3294 39.1963 36.0255 38.9332C35.7194 38.668 35.6696 38.3951 35.7432 38.3587Z" fill="#1E009F"/>
<path d="M38.2468 40.0481C38.1318 40.1787 37.9918 40.1459 37.8971 40.0467C37.801 39.9493 37.7701 39.8066 37.7624 39.7787C37.7521 39.7514 37.7117 39.6216 37.7405 39.4978C37.7656 39.3721 37.8576 39.2756 38.0026 39.3066C38.389 39.3972 38.3177 39.5579 38.3392 39.5983C38.341 39.6405 38.473 39.7725 38.2468 40.0481Z" fill="#1E009F"/>
<path d="M38.5012 39.794C38.3599 40.0978 38.0497 39.9434 37.9936 39.9533C37.9451 39.9358 37.622 39.9802 37.5502 39.7029C37.5048 39.505 37.6072 39.3972 37.7396 39.3586C37.8706 39.3169 38.0138 39.3474 38.0457 39.3506C38.0775 39.3528 38.2319 39.3586 38.3599 39.4296C38.4891 39.4991 38.5762 39.6261 38.5012 39.794Z" fill="#1E009F"/>
<path d="M33.7908 38.9611C33.9528 38.896 34.4097 39.8601 35.1225 40.7178C35.2975 40.9337 35.4838 41.1456 35.6709 41.3404C35.8626 41.5459 36.034 41.686 36.2374 41.9019C36.4137 42.1038 36.6018 42.3705 36.5515 42.7098C36.495 43.032 36.2414 43.1779 36.1445 43.2093C36.0376 43.2533 35.8392 43.2986 35.5987 43.2246C35.3446 43.146 35.1449 42.9405 35.0031 42.7273C34.7369 42.3197 34.4779 41.8179 34.2773 41.2955C33.8662 40.2555 33.7944 39.2053 33.942 39.19C34.144 39.1617 34.3603 40.1321 34.8007 41.0778C35.0125 41.5486 35.2746 42.0316 35.5053 42.3826C35.7284 42.7219 35.8837 42.6555 35.9196 42.6478C35.9411 42.6393 35.9443 42.6348 35.9519 42.611C35.9663 42.6038 35.9241 42.4598 35.7827 42.3099C35.6566 42.1721 35.4196 41.9634 35.2333 41.7538C35.0372 41.541 34.8446 41.3072 34.67 41.0666C33.9555 40.1047 33.6175 39.023 33.7908 38.9611Z" fill="#1E009F"/>
<path d="M35.4761 42.7836C35.3051 42.7477 35.2602 42.6157 35.2333 42.4918C35.209 42.3666 35.2028 42.2356 35.1965 42.2059C35.1911 42.1768 35.1606 42.0578 35.1435 41.9366C35.1305 41.8146 35.1265 41.6799 35.2517 41.5982C35.4209 41.4865 35.5757 41.5736 35.6673 41.7199C35.7625 41.8644 35.7827 42.0475 35.7889 42.087C35.7984 42.1265 35.8428 42.3159 35.8046 42.4954C35.7692 42.6759 35.6556 42.8222 35.4761 42.7836Z" fill="#1E009F"/>
<path d="M35.9846 42.4278C35.911 42.7689 35.534 42.6163 35.4864 42.6064C35.438 42.5957 35.0699 42.536 35.1328 42.2442C35.2189 41.8461 35.5659 42.005 35.6139 42.0153C35.6619 42.0257 36.0623 42.0683 35.9846 42.4278Z" fill="#1E009F"/>
<path d="M12.4622 28.8596C12.4276 28.8371 12.4079 28.7913 12.4416 28.7307C12.4743 28.6724 12.5587 28.6154 12.6768 28.6221C12.7356 28.6257 12.8078 28.6473 12.8738 28.7088C12.9402 28.7689 12.9824 28.8703 12.9828 28.9637C12.9806 29.1383 12.8819 29.3357 12.6144 29.3752L12.6085 28.8986C12.6175 28.9722 12.6094 28.8932 12.5273 28.8636C12.4887 28.8488 12.4752 28.8483 12.4829 28.8479C12.4743 28.8465 12.4878 28.8483 12.5215 28.8407C12.5843 28.8286 12.6269 28.7837 12.6202 28.7868C12.6224 28.7833 12.6148 28.7994 12.6148 28.8106C12.6144 28.8268 12.6166 28.7999 12.6166 28.7999C12.6162 28.7837 12.609 28.7783 12.6207 28.7958C12.6305 28.816 12.6871 28.8569 12.7284 28.8676C12.723 28.8739 12.7589 28.8663 12.675 28.8842C12.5982 28.9022 12.5883 28.965 12.6058 28.8982L12.4196 29.3034C12.1813 29.0889 12.2369 28.8129 12.3298 28.6908C12.4335 28.5517 12.5672 28.5615 12.5937 28.6262C12.6377 28.7182 12.6494 28.7981 12.6916 28.8385C12.7091 28.8596 12.7293 28.8766 12.7445 28.8815C12.749 28.882 12.7517 28.8833 12.7557 28.8815C12.7504 28.8838 12.7414 28.8869 12.7338 28.8914C12.7198 28.8986 12.7109 28.9089 12.7109 28.9089L12.5461 29.3717C12.3612 29.3676 12.1826 29.1867 12.1512 29.0503C12.1081 28.9116 12.118 28.7936 12.1516 28.6841C12.1857 28.5768 12.2576 28.474 12.3523 28.4098C12.4479 28.3452 12.5466 28.3317 12.5879 28.3313C12.6355 28.33 12.7239 28.3246 12.8392 28.3856C12.9564 28.4448 13.0502 28.5795 13.0762 28.7038C13.1045 28.8308 13.0973 28.9569 13.0336 29.0929C13.003 29.1589 12.9483 29.233 12.8657 29.2882C12.7831 29.3474 12.6718 29.3667 12.5811 29.3577L12.5915 28.9744C12.5937 28.9744 12.5811 28.9475 12.5699 28.9403C12.5587 28.9318 12.5686 28.9417 12.5879 28.9421C12.6359 28.9323 12.5915 28.9444 12.5892 28.9736C12.5892 28.9969 12.5883 28.9412 12.5632 28.9228C12.5408 28.8964 12.499 28.8847 12.4622 28.8596Z" fill="#1E009F"/>
<path d="M23.7768 28.4909C23.7925 28.5255 23.8056 28.5807 23.7216 28.608C23.6265 28.6296 23.5233 28.547 23.4914 28.4729C23.4721 28.4316 23.4582 28.3854 23.464 28.3212C23.4681 28.2611 23.5111 28.1534 23.6233 28.0964C23.8136 27.9994 24.0076 28.113 24.0753 28.2193C24.148 28.3262 24.1776 28.45 24.1301 28.5977C24.0794 28.7301 24.0004 28.7907 23.9339 28.8329C23.8006 28.9083 23.7221 28.9056 23.6925 28.9133C23.6925 28.9133 23.6884 28.9142 23.6853 28.9146L23.1817 28.9958L23.3496 28.5308C23.3675 28.481 23.3904 28.38 23.521 28.2701C23.5874 28.2171 23.7068 28.1596 23.8469 28.1848C24.0533 28.2279 24.1269 28.3832 24.1413 28.4927C24.1489 28.5533 24.1476 28.6215 24.1085 28.7032C24.074 28.7871 23.9609 28.8657 23.8814 28.8675C23.8356 28.872 23.7822 28.8742 23.7073 28.8361C23.6341 28.7966 23.5951 28.723 23.5879 28.6794C23.5722 28.5896 23.5955 28.5542 23.613 28.5205C23.6337 28.4869 23.6539 28.4644 23.6916 28.4379C23.7243 28.4132 23.8011 28.3805 23.8666 28.415C23.9532 28.4878 23.8908 28.5133 23.872 28.5331C23.8505 28.5461 23.8289 28.5555 23.8123 28.5694C23.8154 28.5658 23.8312 28.5524 23.8303 28.5474C23.8105 28.5394 23.8882 28.6071 23.8949 28.5991C23.8976 28.5991 23.8594 28.5914 23.8361 28.5995C23.8056 28.6125 23.8312 28.6148 23.8199 28.5694C23.8478 28.6058 23.7885 28.5546 23.7638 28.5712C23.749 28.5843 23.8069 28.5385 23.7952 28.5407H23.7957C23.7966 28.5313 23.7863 28.6247 23.7908 28.5852V28.5847V28.5834L23.7935 28.5928C23.797 28.6031 23.8056 28.6188 23.8173 28.6327C23.8796 28.6987 23.8931 28.6852 23.863 28.6794L23.596 28.3163H23.5978C23.6009 28.3154 23.6063 28.3136 23.6135 28.3118L23.6184 28.3096C23.6225 28.3199 23.6395 28.3576 23.6512 28.3755C23.6646 28.3971 23.679 28.4137 23.6884 28.4227L23.6992 28.4312L23.701 28.4325L23.7508 28.4572L23.749 28.4568L23.7459 28.4559C23.723 28.4447 23.6911 28.4608 23.7239 28.4456C23.7365 28.4384 23.7508 28.4213 23.754 28.4128C23.7558 28.4088 23.7558 28.4088 23.7558 28.4088C23.754 28.4016 23.7594 28.4357 23.7526 28.393C23.7526 28.3904 23.7522 28.3868 23.7499 28.3832C23.7365 28.3877 23.8253 28.4083 23.8002 28.4011C23.7768 28.4025 23.7378 28.4406 23.7468 28.4384C23.749 28.4393 23.7432 28.4204 23.7477 28.433C23.7544 28.4514 23.7665 28.4702 23.7768 28.4909Z" fill="#1E009F"/>
<path d="M21.5933 34.3854C21.6175 34.2979 21.7216 34.2539 21.8518 34.3145C21.9766 34.3719 22.1076 34.5389 22.1054 34.7579L22.1031 34.9549L21.8922 35.0267C21.6085 35.1232 21.35 34.9639 21.2557 34.8158L21.1566 34.6609L21.2221 34.5164C21.2593 34.4352 21.3042 34.3908 21.3253 34.3692C21.3532 34.34 21.4178 34.2826 21.5192 34.2471C21.6171 34.2135 21.7643 34.1973 21.9146 34.2799L21.9393 34.2934L21.9496 34.3019C22.135 34.454 22.1368 34.6704 22.0578 34.8189C22.0165 34.8975 21.9357 34.9738 21.8392 35.0016C21.7432 35.0299 21.6521 35.0115 21.5942 34.9796C21.4739 34.9145 21.433 34.8059 21.4402 34.7287C21.4492 34.6475 21.5026 34.6192 21.5488 34.6277C21.6049 34.6412 21.6898 34.6484 21.6898 34.6398C21.7095 34.6363 21.7275 34.6048 21.7122 34.6331C21.6996 34.6744 21.7257 34.6731 21.6839 34.647C21.6368 34.6425 21.7185 34.639 21.714 34.6264L21.6969 34.6892C21.6875 34.7013 21.6898 34.7435 21.692 34.7395C21.692 34.7395 21.6808 34.7206 21.6763 34.717C21.6727 34.7135 21.6628 34.7049 21.657 34.7031L21.7059 34.4904C21.7158 34.4846 21.732 34.463 21.7333 34.4572C21.7347 34.4491 21.7275 34.4792 21.7351 34.5003L21.5228 34.7229C21.5735 34.7099 21.5592 34.5707 21.5933 34.3854Z" fill="#1E009F"/>
<path d="M30.1045 27.5577C30.0937 27.4805 30.2081 27.4029 30.3545 27.4886C30.4213 27.529 30.4806 27.5986 30.5115 27.6987C30.5421 27.7947 30.5344 27.9513 30.4254 28.0748L30.4092 28.0932L30.3657 28.121C30.1098 28.2889 29.788 28.1955 29.6399 27.981L29.5295 27.8212L29.6161 27.6654C29.7373 27.4451 29.9195 27.4173 29.9613 27.4042C29.9922 27.3957 30.051 27.3854 30.1296 27.389C30.2508 27.3944 30.4954 27.4608 30.5914 27.7296L30.6251 27.823L30.5995 27.8997C30.5739 27.9895 30.5039 28.0972 30.398 28.147C30.2997 28.1942 30.2077 28.1933 30.1431 28.1793C30.0102 28.1502 29.9267 28.082 29.8648 27.9917C29.8015 27.9056 29.7934 27.7606 29.8473 27.7009C29.8957 27.6403 29.9478 27.6479 29.9819 27.6717C30.0241 27.7049 30.0869 27.7579 30.0901 27.7521C30.0672 27.7512 30.113 27.757 30.165 27.7054C30.1924 27.6767 30.2009 27.6614 30.2041 27.6569C30.2135 27.6381 30.1996 27.665 30.196 27.7009C30.192 27.74 30.1965 27.7839 30.209 27.8028C30.222 27.8225 30.2068 27.7947 30.1691 27.7907L30.1417 27.8912C30.1439 27.8719 30.0775 27.9855 30.095 27.9765C30.095 27.9765 30.0937 27.959 30.0919 27.9509C30.0982 27.9428 30.0524 27.8737 30.0582 27.8863L30.0676 27.678C30.0798 27.6731 30.1009 27.6381 30.0991 27.6345C30.0968 27.6291 30.0986 27.674 30.1094 27.6874L30.1206 27.7763C30.1314 27.7795 30.0842 27.761 30.0614 27.7687C30.0335 27.7768 30.0659 27.7669 30.0798 27.7489C30.1206 27.7148 30.1103 27.643 30.1045 27.5577Z" fill="#1E009F"/>
<path d="M34.4277 32.2624C34.4066 32.2112 34.4322 32.1376 34.5363 32.1286C34.635 32.1255 34.7526 32.1834 34.8038 32.3351C34.8303 32.4082 34.8222 32.5433 34.7378 32.6407C34.6588 32.7408 34.5062 32.7817 34.4106 32.7637C34.3087 32.7498 34.2279 32.7085 34.1566 32.6322C34.0857 32.5626 34.0305 32.4114 34.0664 32.283L34.0717 32.2619L34.0731 32.2579C34.1867 31.9706 34.4209 31.9468 34.4744 31.9356C34.5121 31.9316 34.6117 31.9136 34.7437 31.9729L34.8173 32.0056L34.863 32.0698C34.9191 32.1497 34.964 32.2597 34.9631 32.3809C34.969 32.4953 34.8931 32.6371 34.8294 32.6582C34.8033 32.6645 34.8078 32.6291 34.8065 32.5752C34.8056 32.5492 34.8047 32.5155 34.7966 32.4805C34.8361 32.4477 34.6211 32.4145 34.6709 32.3984C34.6413 32.3225 34.6382 32.3804 34.5749 32.3818C34.5094 32.3961 34.4595 32.3966 34.4308 32.4208C34.4075 32.4406 34.403 32.4464 34.3954 32.4405C34.3891 32.4329 34.3761 32.4253 34.3711 32.4262C34.3774 32.4186 34.3402 32.4455 34.4021 32.4042L34.5529 32.3916C34.5471 32.4015 34.5471 32.4262 34.5488 32.4298C34.5488 32.4338 34.5529 32.4437 34.5502 32.4383C34.5502 32.4329 34.5255 32.4091 34.5152 32.4078L34.4425 32.3764C34.4299 32.3755 34.4519 32.3768 34.4694 32.3598C34.4874 32.3436 34.4811 32.3391 34.4766 32.3629C34.4717 32.3867 34.4842 32.4055 34.4771 32.3952C34.4874 32.4019 34.4676 32.3903 34.4474 32.3957C34.4025 32.4132 34.4506 32.3925 34.4537 32.3674C34.456 32.3526 34.4573 32.3714 34.4542 32.3441C34.4497 32.3189 34.4367 32.292 34.4277 32.2624Z" fill="#1E009F"/>
<path d="M35.0246 30.9136C35.0479 31.0869 34.8976 31.1703 34.7423 31.1259C34.5897 31.0873 34.4968 30.9536 34.4793 30.9289C34.4586 30.906 34.3661 30.7861 34.3693 30.6398C34.367 30.4917 34.4725 30.3777 34.6139 30.4226C34.81 30.4827 34.8877 30.5128 34.9227 30.5142C34.9528 30.52 34.9474 30.5469 34.9523 30.5528C34.9842 30.5756 34.9667 30.5514 35.0246 30.9136Z" fill="#1E009F"/>
<path d="M10.3101 39.0803C10.2791 39.1261 10.2006 39.1387 10.1225 39.061C10.0524 38.9892 9.98151 38.82 10.1085 38.6252L10.1391 38.5776L10.2674 38.5395C10.3814 38.5063 10.5646 38.5565 10.6557 38.6638C10.7504 38.7657 10.7872 38.8757 10.8011 38.9852C10.8119 39.0947 10.8025 39.2114 10.7293 39.3384C10.662 39.4704 10.473 39.5731 10.3352 39.5655L10.28 39.5633L10.2593 39.5579C10.0183 39.4951 9.92675 39.2976 9.90296 39.1889C9.87468 39.0682 9.89175 38.9771 9.90342 38.9295C9.9124 38.8918 9.93034 38.8151 10.0048 38.723C10.0771 38.631 10.2275 38.544 10.3954 38.5606C10.5601 38.5767 10.6853 38.6656 10.7697 38.7836C10.8527 38.8959 10.9062 39.1055 10.802 39.285L10.7558 39.364L10.7024 39.3914C10.4012 39.5431 10.1413 39.3855 10.0502 39.2442C9.94606 39.083 10.0062 38.9609 10.0762 38.9515C10.1772 38.9327 10.2611 38.9708 10.3235 38.9533C10.3545 38.9488 10.3846 38.9412 10.403 38.9304C10.4115 38.9241 10.4169 38.9178 10.4164 38.9125C10.4178 38.9259 10.4254 38.9425 10.4254 38.9425L10.4128 39.079C10.4416 39.0781 10.3455 39.0803 10.3289 39.1055C10.3123 39.1261 10.3612 39.0664 10.3585 39.0327C10.359 39.0125 10.3576 39.0202 10.3603 39.0224C10.3581 39.017 10.3567 39.0179 10.3657 39.0251C10.3805 39.039 10.4088 39.0471 10.4187 39.0498C10.4304 39.0538 10.4631 39.0516 10.4411 39.0543C10.4191 39.0476 10.3491 39.1185 10.368 39.0992L10.3276 39.061C10.3285 39.1248 10.3527 39.1073 10.2966 39.0722C10.2728 39.0543 10.2279 39.0417 10.2154 39.0399C10.2176 39.0386 10.2208 39.0345 10.2234 39.0287C10.2275 39.0121 10.2212 39.0229 10.2921 38.9748C10.3397 38.9331 10.3141 38.9228 10.3222 38.9834L10.4218 38.8945C10.4748 38.9147 10.4169 38.8999 10.39 38.9421C10.3576 38.9748 10.3455 39.031 10.3101 39.0803Z" fill="#1E009F"/>
<path d="M41.8697 36.0214C41.8805 35.9388 41.9456 35.8746 42.0636 35.9024C42.1807 35.9312 42.2813 36.0582 42.3091 36.1838C42.3414 36.3113 42.3181 36.4487 42.2521 36.5613C42.1861 36.6776 42.0721 36.7413 42.034 36.7561C41.9922 36.7655 41.9142 36.8382 41.6911 36.7705C41.5874 36.7283 41.5098 36.6354 41.4797 36.5573C41.4496 36.4801 41.4438 36.4074 41.4523 36.3423C41.4671 36.2184 41.5474 36.0739 41.6965 36.0344C41.8446 36.0084 41.885 36.1026 41.867 36.1668C41.8576 36.2166 41.8423 36.2597 41.8419 36.2961C41.8414 36.2907 41.8374 36.2745 41.8414 36.2848C41.8338 36.3028 41.9644 36.3575 41.9657 36.345C41.9563 36.3306 41.8176 36.3953 41.8374 36.4051C41.8396 36.3984 41.8379 36.402 41.8405 36.384C41.841 36.3773 41.8401 36.3715 41.8392 36.3665L41.8307 36.3149L41.8311 36.3163L41.8316 36.3189C41.8334 36.3275 41.8378 36.3342 41.8356 36.3306C41.836 36.3347 41.8361 36.3203 41.7921 36.2934C41.7723 36.2821 41.7436 36.2718 41.7279 36.2696C41.7279 36.2696 41.7364 36.2682 41.7436 36.2646C41.8257 36.2368 41.8639 36.2283 41.8697 36.0214Z" fill="#1E009F"/>
<path d="M23.5596 15.1623C23.4595 15.1057 23.4968 14.8979 23.5955 14.6367C23.6252 14.5658 23.653 14.4989 23.6799 14.4334C23.7073 14.3701 23.7616 14.2628 23.7432 14.2866C23.7378 14.2777 23.7311 14.2812 23.7288 14.2817C23.7261 14.2835 23.7284 14.2808 23.7284 14.2808L23.7275 14.2786C23.688 14.2799 23.6575 14.2808 23.6386 14.2812C23.6081 14.2821 23.5524 14.2848 23.4788 14.2884C23.3464 14.2929 23.1696 14.3064 22.9941 14.3046C22.9084 14.3023 22.8181 14.3001 22.7234 14.2978C22.7055 14.2929 22.6647 14.3059 22.6651 14.2862L22.6857 14.2117C22.6992 14.1632 22.7136 14.1134 22.7275 14.0622C22.7809 13.8656 22.8455 13.6578 22.9353 13.4594C23.1543 13.003 23.5058 12.696 23.618 12.7938C23.7733 12.9244 23.5821 13.2848 23.4618 13.6708C23.4726 13.6852 23.4793 13.6735 23.477 13.6767L23.4775 13.6807C23.539 13.6789 23.5856 13.678 23.6112 13.6771C23.7495 13.6713 24.2185 13.6506 24.7939 13.6264C24.6462 13.8737 24.4856 14.1452 24.3128 14.4352C24.2176 14.5927 24.1916 14.6246 24.1427 14.6933C24.1 14.7489 24.0556 14.8073 24.008 14.8692C23.8312 15.0855 23.666 15.2224 23.5596 15.1623Z" fill="#1E009F"/>
<path d="M18.3325 16.7664C18.2845 16.7503 18.2535 16.7023 18.2131 16.6937C18.1763 16.6861 18.1301 16.6686 18.043 16.6515C18.0017 16.6439 17.9528 16.6385 17.9101 16.6421C17.8657 16.6453 17.7733 16.6498 17.6871 16.648C17.5978 16.6453 17.4941 16.6381 17.3729 16.599C17.2531 16.5627 17.1036 16.4639 17.0232 16.3212C16.898 16.104 16.9429 15.8692 16.9856 15.7427C17.0309 15.6058 17.0816 15.5088 17.113 15.4348C17.1215 15.4159 17.1283 15.3935 17.1337 15.3728C17.1364 15.3589 17.1355 15.3692 17.1364 15.3656L17.1377 15.363C17.1377 15.363 17.1359 15.3589 17.131 15.358H17.1283C17.1283 15.358 17.131 15.3558 17.1238 15.3603L17.0829 15.3858C17.0273 15.4209 16.9398 15.4729 16.8276 15.5003C16.6117 15.5528 16.3949 15.5012 16.2266 15.3867C16.0578 15.2754 15.9353 15.0699 15.9281 14.8782C15.9169 14.6879 15.9873 14.5349 16.0699 14.4334C16.2463 14.2229 16.4496 14.2409 16.4613 14.3091C16.4909 14.4078 16.4196 14.5057 16.4079 14.6332C16.3989 14.6946 16.4025 14.7647 16.4254 14.8109C16.4474 14.8553 16.477 14.8805 16.5291 14.9069C16.5807 14.9316 16.6431 14.9334 16.674 14.9213C16.6844 14.9177 16.7073 14.9074 16.7535 14.8764L16.8603 14.8078C16.9097 14.7772 16.96 14.7521 17.0098 14.7332C17.2086 14.656 17.3949 14.7095 17.5093 14.7902C17.6269 14.8733 17.6714 14.9765 17.696 15.0295C17.714 15.0762 17.7441 15.1623 17.7477 15.2885C17.7508 15.3472 17.7427 15.4298 17.7306 15.4931C17.7189 15.5497 17.7028 15.6098 17.6745 15.6753C17.5807 15.8562 17.5264 16.0537 17.5403 16.029C17.517 16.0304 17.5865 16.0865 17.7342 16.108C17.81 16.1215 17.8877 16.1345 17.968 16.1489C18.0681 16.1704 18.1521 16.2077 18.2248 16.2543C18.3684 16.3427 18.473 16.4945 18.4663 16.6246C18.455 16.7539 18.3769 16.784 18.3325 16.7664Z" fill="#1E009F"/>
<path d="M26.7288 9.31399C26.6669 9.27449 26.6727 9.16318 26.7217 9.00968C26.7463 8.93293 26.7813 8.84541 26.8249 8.75116C26.8428 8.6964 26.8258 8.70268 26.824 8.68922C26.7724 8.67126 26.8734 8.74307 26.5758 8.56399C26.4344 8.47782 26.2827 8.39074 26.1543 8.30546C26.0888 8.26238 26.0246 8.22064 25.9613 8.17935L25.868 8.11786C25.8608 8.10753 25.8181 8.09721 25.841 8.08778L25.8882 8.05726C26.1364 7.90017 26.3518 7.75924 26.5394 7.65331C26.7576 7.52943 26.7701 7.52899 26.8222 7.50026C26.8531 7.48456 26.8258 7.49488 26.868 7.4868C26.8792 7.48366 26.8823 7.47872 26.8778 7.46525C26.8752 7.45852 26.8693 7.44999 26.8585 7.43788C26.8657 7.43653 26.8222 7.41812 26.7836 7.40107L26.6763 7.3517C26.4007 7.22064 26.2131 7.09452 26.2423 7.00161C26.2827 6.87549 26.5138 6.86382 26.8168 6.9096C26.8568 6.91588 26.8958 6.92262 26.9335 6.9289C26.9716 6.93519 27.0067 6.94192 27.0969 6.96615C27.2665 7.01238 27.4286 7.05682 27.5875 7.10035C27.9479 7.20852 28.2912 7.3113 28.6117 7.40735C28.2351 7.55592 27.8904 7.69191 27.6112 7.80233C27.3532 7.9087 27.1593 8.00654 27.1023 8.03617C27.0857 8.04424 26.9555 8.11561 26.9874 8.099C26.9874 8.099 26.9847 8.1008 26.9788 8.10259C26.9752 8.10439 26.9743 8.10708 26.9784 8.11786C26.9811 8.121 26.9734 8.1174 26.986 8.12638L27.0381 8.16229L27.1902 8.26462C27.3128 8.3481 27.4371 8.43203 27.5645 8.51911C27.4375 8.69909 27.3042 8.88491 27.2136 8.99756C27.1449 9.07566 27.0789 9.14388 27.0179 9.19729C26.8963 9.30546 26.7939 9.35573 26.7288 9.31399Z" fill="#1E009F"/>
<path d="M31.8935 13.4038C31.7652 13.4011 31.7046 13.3437 31.5066 13.2404C31.4097 13.1839 31.2858 13.1206 31.1435 13.0052C31.0699 12.946 30.9528 12.8069 30.9146 12.6843C30.8711 12.5528 30.8864 12.415 30.9313 12.2965C31.0286 12.0793 31.2364 11.9635 31.4088 11.9388C31.5466 11.9168 31.6031 11.9222 31.6413 11.9191C31.6884 11.9168 31.6633 11.9168 31.6763 11.9186C31.6853 11.9209 31.7059 11.9249 31.7068 11.9052C31.7082 11.9002 31.7086 11.8935 31.7082 11.8854C31.7163 11.8868 31.6651 11.8168 31.6489 11.7876C31.6 11.7095 31.5592 11.6354 31.5277 11.5681C31.4667 11.4335 31.4483 11.3271 31.5053 11.2791C31.5825 11.2131 31.6969 11.2378 31.8271 11.3141C31.8922 11.3522 31.9609 11.4034 32.0309 11.4626C32.0744 11.5021 32.0825 11.5017 32.1556 11.5793C32.2243 11.6525 32.2894 11.7216 32.3518 11.7889C32.3832 11.8244 32.4231 11.8634 32.4474 11.8975L32.4891 11.9909C32.5156 12.0551 32.5416 12.1166 32.5668 12.1772C32.5995 12.2108 32.53 12.2292 32.5111 12.2548L32.4281 12.3199C32.3747 12.3607 32.3284 12.4007 32.2669 12.4276C32.0313 12.5421 31.7073 12.5138 31.6669 12.5232C31.6435 12.5237 31.5695 12.5277 31.5331 12.5358C31.5331 12.5358 31.5277 12.5371 31.5246 12.5376C31.5277 12.5465 31.4959 12.5295 31.5322 12.5798C31.6067 12.6623 31.7234 12.7606 31.8168 12.8702C31.9119 12.9774 31.9869 13.1112 31.9941 13.2229C32.0048 13.3338 31.9519 13.3989 31.8935 13.4038Z" fill="#1E009F"/>
<path d="M36.565 16.8126C36.5475 16.7251 36.6184 16.6497 36.6633 16.5411C36.7117 16.4369 36.7467 16.27 36.7046 16.1537C36.6969 16.125 36.6821 16.103 36.6695 16.0823C36.626 16.0339 36.5834 15.9858 36.5421 15.9392C36.3917 15.7632 36.3715 15.5393 36.4568 15.3736C36.538 15.2094 36.6965 15.1191 36.8275 15.072C36.9779 15.0204 37.0129 15.0249 37.0443 15.0155C37.0991 15.0051 37.2436 14.976 37.4312 14.9392C37.4779 14.9306 37.5277 14.9217 37.5789 14.9122C37.6139 14.9064 37.5928 14.9127 37.604 14.9122C37.6121 14.9149 37.6255 14.9181 37.652 14.9212C37.6588 14.9172 37.6646 14.9068 37.6664 14.8866C37.6673 14.8768 37.6673 14.8638 37.6664 14.8485C37.6498 14.8108 37.6327 14.7717 37.6148 14.7309C37.5515 14.577 37.5331 14.4594 37.5937 14.4154C37.6758 14.3557 37.7952 14.3983 37.9307 14.4997C37.9662 14.5271 37.9958 14.5491 38.0385 14.5909C38.1031 14.6631 38.1628 14.7305 38.2198 14.7946C38.3482 14.9445 38.4891 15.1191 38.6314 15.3009C38.407 15.3516 38.1978 15.3992 37.9967 15.4441C37.8378 15.4773 37.6884 15.5083 37.5519 15.5361C37.3657 15.5711 37.2194 15.598 37.1646 15.6084C37.0677 15.6281 37.0883 15.6281 37.0834 15.6286C37.0834 15.6286 37.0789 15.6326 37.0789 15.638C37.0856 15.647 37.0632 15.6236 37.0946 15.6609C37.1188 15.6896 37.1485 15.7358 37.1727 15.7744C37.218 15.8575 37.2508 15.9468 37.2638 16.0352C37.3194 16.3938 37.139 16.6937 36.946 16.8198C36.7427 16.9513 36.5775 16.8983 36.565 16.8126Z" fill="#1E009F"/>
<path d="M8.62736 14.8374C8.64307 14.9213 8.55958 15.007 8.38544 15.0717C8.22431 15.1282 7.89262 15.1879 7.59639 14.9361C7.46712 14.819 7.36031 14.6596 7.34999 14.4339C7.34191 14.2162 7.46353 14.0174 7.61973 13.9173C7.94199 13.736 8.13186 13.8172 8.19964 13.8114C8.26068 13.8154 8.4568 13.8567 8.6296 13.9433C8.80554 14.0254 9.01111 14.1489 9.18481 14.2992C9.54028 14.5968 9.73464 14.9882 9.61166 15.0717C9.44514 15.1892 9.16776 14.9469 8.84775 14.7548C8.68931 14.6551 8.52144 14.564 8.37961 14.4994C8.23643 14.4312 8.16192 14.4168 8.12153 14.411C8.0946 14.4016 7.97027 14.4101 7.96174 14.4236C7.96847 14.424 7.91956 14.4069 7.98868 14.5209C8.02952 14.5999 8.19244 14.6502 8.34055 14.6771C8.48867 14.7072 8.61076 14.7458 8.62736 14.8374Z" fill="#1E009F"/>
<path d="M9.60948 14.9851C9.69386 15.1377 9.38641 15.3868 9.03721 15.6099C8.85992 15.7221 8.68264 15.8235 8.51971 15.911C8.34511 16.0048 8.17141 16.0502 8.10363 16.0609C8.06728 16.0672 7.9977 16.0829 7.88594 16.0771C7.77867 16.0735 7.60857 16.0282 7.47751 15.8998C7.29079 15.723 7.26026 15.424 7.33656 15.2284C7.40254 15.0147 7.58477 14.8545 7.72526 14.7925C8.02194 14.6619 8.21988 14.6978 8.25534 14.7916C8.30965 14.9335 8.12607 15.0681 7.99636 15.205C7.92768 15.28 7.90346 15.3311 7.89583 15.3904C7.88685 15.4591 7.90614 15.468 7.90076 15.4613C7.88505 15.4635 7.95192 15.4788 7.98873 15.4676C8.01476 15.4626 8.10228 15.4398 8.23469 15.3706C8.37742 15.2948 8.57357 15.1929 8.76118 15.1099C9.14 14.9407 9.52061 14.824 9.60948 14.9851Z" fill="#1E009F"/>
<path d="M13.9788 8.40018C13.8482 8.53034 13.4739 8.08734 13.1929 8.11338C13.0318 8.11876 13.0031 8.19641 13.0013 8.22603C12.9932 8.27181 13.0641 8.38268 13.091 8.40422C13.1162 8.43115 13.1983 8.51239 13.3298 8.57343C13.4043 8.6062 13.4452 8.62235 13.5578 8.63627C13.6651 8.64794 13.7782 8.65961 13.8962 8.67173C14.1359 8.69372 14.4057 8.7386 14.5879 8.84902C14.7737 8.95314 14.8375 9.09273 14.7903 9.14524C14.7234 9.22603 14.6068 9.21347 14.46 9.21975C14.315 9.21841 14.118 9.22963 13.8783 9.23861C13.7589 9.2422 13.6305 9.24354 13.4986 9.23277C13.3769 9.22828 13.1952 9.18609 13.0856 9.13178C12.8451 9.02451 12.7019 8.87415 12.648 8.81535C12.6081 8.75431 12.4052 8.60575 12.3908 8.21212C12.394 8.01329 12.4968 7.81041 12.6709 7.68205C12.8464 7.55368 13.0542 7.52271 13.2324 7.54381C13.6139 7.58959 13.8397 7.85844 13.9339 8.02675C14.0336 8.20763 14.0488 8.34273 13.9788 8.40018Z" fill="#1E009F"/>
<path d="M14.6297 8.96987C14.4551 8.96493 14.3923 8.54797 14.2455 8.13998C14.1176 7.73963 13.8703 7.2899 13.8595 7.31593C13.8595 7.31593 13.8546 7.31189 13.8505 7.30875C13.842 7.31952 13.8676 7.27957 13.7971 7.34735C13.7697 7.37787 13.75 7.4241 13.7401 7.4609C13.7311 7.48649 13.7356 7.54214 13.7563 7.60453C13.8415 7.85049 14.1149 8.10812 14.0211 8.2118C13.9659 8.28226 13.8613 8.28854 13.7244 8.23693C13.5906 8.18352 13.4089 8.07355 13.2706 7.84555C13.2055 7.73603 13.1499 7.59061 13.1575 7.41512C13.1683 7.25265 13.2235 7.10812 13.3101 6.98918C13.3972 6.87294 13.5143 6.77015 13.6737 6.72213C13.8249 6.67545 13.9677 6.70013 14.07 6.74098C14.1755 6.78586 14.241 6.84556 14.2675 6.87024C14.4448 7.02464 14.6854 7.47347 14.7962 7.98738C14.9053 8.49501 14.8128 8.97795 14.6297 8.96987Z" fill="#1E009F"/>
<path d="M38.7104 8.57389C38.6373 8.52362 38.6485 8.40693 38.6664 8.25522C38.6898 8.11563 38.701 7.88583 38.6566 7.85037C38.6422 7.84633 38.6207 7.82254 38.5336 7.88134C38.4663 7.92847 38.4339 8.01868 38.4214 8.05818C38.4097 8.09409 38.3877 8.19597 38.3725 8.37461C38.3563 8.55819 38.3325 8.78575 38.3006 9.00433C38.2365 9.44194 38.1368 9.84949 37.9882 9.83916C37.7849 9.82435 37.7333 9.40559 37.7351 8.96348C37.736 8.74176 37.7499 8.51644 37.7652 8.32883C37.7777 8.13583 37.819 7.9545 37.8419 7.88673C37.8639 7.83017 37.9093 7.59768 38.1593 7.39884C38.2786 7.30863 38.4474 7.22424 38.6655 7.2413C38.8823 7.25836 39.0848 7.39929 39.1732 7.60665C39.2531 7.80728 39.2212 7.97335 39.1866 8.10216C39.148 8.23233 39.0901 8.33377 39.0309 8.41186C38.9115 8.56896 38.784 8.62551 38.7104 8.57389Z" fill="#1E009F"/>
<path d="M38.7575 8.37206C38.683 8.33571 38.6853 8.16829 38.8374 7.97619C38.9801 7.79172 39.3235 7.58032 39.7315 7.68849C39.9209 7.74055 40.0901 7.85321 40.2113 8.00985C40.3343 8.16156 40.3958 8.38104 40.3787 8.55519C40.3468 8.92548 40.1238 9.10142 40.0766 9.15304C40.0174 9.21318 39.8504 9.34469 39.6287 9.43985C39.4065 9.54218 39.1318 9.60232 38.8953 9.65125C38.4061 9.75268 37.9361 9.81059 37.8962 9.66651C37.8419 9.47037 38.2719 9.26705 38.7445 9.10457C38.9891 9.02153 39.2162 8.96139 39.376 8.88553C39.5407 8.81282 39.635 8.74056 39.6619 8.71273C39.7414 8.65618 39.8976 8.40438 39.5636 8.23427C39.4375 8.17099 39.2409 8.20824 39.0973 8.27646C38.9501 8.33975 38.8405 8.41605 38.7575 8.37206Z" fill="#1E009F"/>
<path d="M45.9214 12.643C45.8962 12.5587 45.9819 12.4725 46.0937 12.3621C46.205 12.2669 46.3504 12.073 46.3172 12.0461C46.3082 12.0389 46.3033 12.0214 46.2894 12.0214C46.2714 12.012 46.2149 12.0012 46.1673 12.0115C46.0811 12.0205 46.0035 12.095 45.9721 12.1251C45.9433 12.1538 45.8711 12.2395 45.7674 12.3989C45.661 12.5622 45.5125 12.7692 45.3536 12.9478C45.0358 13.3113 44.6655 13.5748 44.5618 13.4675C44.4205 13.3212 44.6619 12.9711 44.9043 12.6017C45.0349 12.4034 45.1547 12.222 45.2548 12.0694C45.3608 11.9011 45.4855 11.7553 45.5381 11.7041C45.587 11.6641 45.7346 11.4716 46.0627 11.4097C46.2158 11.3845 46.4016 11.3908 46.5906 11.4999C46.7867 11.6143 46.9106 11.8464 46.8877 12.0793C46.859 12.3154 46.723 12.4577 46.6135 12.5434C46.4986 12.6323 46.3854 12.6812 46.2863 12.7095C46.0865 12.7642 45.946 12.7297 45.9214 12.643Z" fill="#1E009F"/>
<path d="M46.1027 12.6053C46.0399 12.5541 46.1018 12.3723 46.346 12.2758C46.5708 12.182 46.9873 12.2035 47.2454 12.546C47.4905 12.8871 47.429 13.3229 47.2333 13.5868C47.0174 13.8696 46.7504 13.9091 46.6826 13.928C46.6036 13.9486 46.3935 13.9746 46.17 13.9455C45.9492 13.919 45.7023 13.871 45.459 13.8023C44.9747 13.6672 44.56 13.4396 44.613 13.3C44.6844 13.1093 45.1215 13.1833 45.5789 13.2484C45.8204 13.2821 46.0421 13.3126 46.2293 13.3391C46.4088 13.3593 46.5156 13.3463 46.552 13.3377C46.5906 13.3301 46.6866 13.3 46.7382 13.2287C46.8033 13.1528 46.832 12.9719 46.7741 12.8692C46.7297 12.761 46.5623 12.6798 46.4263 12.6645C46.2885 12.6403 46.1709 12.6717 46.1027 12.6053Z" fill="#1E009F"/>
<path d="M6.8307 32.3788C6.78985 32.5058 6.45952 32.4686 6.04794 32.4802C5.63502 32.4843 5.13951 32.561 4.79032 32.6827L4.96402 32.2455C5.01025 32.342 5.13906 32.3802 5.19471 32.39C5.24408 32.4013 5.39669 32.4197 5.6229 32.3918C5.86482 32.3546 6.15925 32.3092 6.46356 32.2621C7.06319 32.1795 7.63276 32.1414 7.66148 32.2877C7.69963 32.4874 7.15789 32.6746 6.57082 32.8187C6.26786 32.8896 5.99139 32.9551 5.70054 32.9964C5.42047 33.0346 5.17451 33.0054 5.07891 32.9829C5.03178 32.9744 4.93888 32.9565 4.81321 32.8986C4.68933 32.8429 4.52416 32.7213 4.42497 32.5332L4.2598 32.2204L4.59507 32.1037C5.01203 31.9583 5.61213 31.8882 6.0825 31.9753C6.55602 32.0543 6.87423 32.2513 6.8307 32.3788Z" fill="#1E009F"/>
<path d="M7.72971 32.5623C7.62513 32.7024 7.12065 32.4129 6.61392 32.0673C6.36033 31.8949 6.10629 31.7082 5.90162 31.5538C5.6992 31.3918 5.6 31.3621 5.58519 31.363C5.57038 31.3617 5.57711 31.3621 5.57307 31.3626C5.57038 31.3689 5.57487 31.3523 5.56545 31.3774C5.55827 31.4084 5.55512 31.4465 5.57712 31.4887C5.61572 31.5929 5.8141 31.7374 6.00396 31.8559C6.37693 32.096 6.74452 32.2311 6.72029 32.359C6.69246 32.5318 6.24318 32.543 5.75665 32.3321C5.52954 32.2248 5.24408 32.1059 5.04705 31.7769C4.9501 31.6086 4.92991 31.4012 4.97344 31.2315C5.01294 31.0534 5.15208 30.8868 5.28628 30.824C5.45459 30.7387 5.61168 30.7562 5.66958 30.7643C5.79974 30.7692 6.07172 30.8985 6.26651 31.0641C6.47118 31.219 6.72029 31.412 6.95502 31.6095C7.4254 32.0044 7.83967 32.4147 7.72971 32.5623Z" fill="#1E009F"/>
<path d="M6.70144 32.1536C6.63726 32.3152 6.45144 32.3152 6.28088 32.2385C6.10943 32.1649 5.97254 32.0212 5.94202 31.9925C5.91105 31.9651 5.77326 31.8408 5.69696 31.6842C5.61662 31.5289 5.60451 31.3565 5.73511 31.287C6.08295 31.111 6.28313 31.5105 6.3509 31.5464C6.37379 31.5684 6.486 31.6537 6.58339 31.7542C6.67809 31.857 6.76921 31.9817 6.70144 32.1536Z" fill="#1E009F"/>
<path d="M44.6058 28.7408C44.4977 28.6044 44.9977 28.1183 45.5587 27.6398C45.6952 27.5249 45.8294 27.4118 45.9582 27.3032C45.9779 27.2839 45.9914 27.2669 45.9936 27.2615C45.9829 27.2516 46.0161 27.2731 46.0439 27.2812C46.0637 27.2889 46.083 27.2906 46.083 27.2906C46.0874 27.2911 46.0812 27.2911 46.0812 27.2911H46.0807C45.9986 27.3005 46.0583 27.2938 46.0403 27.296H46.0416H46.0439L46.0529 27.2956L46.0713 27.2924C46.1031 27.2817 46.1018 27.2844 46.1162 27.2754C46.1193 27.2727 46.0964 27.2884 46.0776 27.336C46.0461 27.4172 46.0627 27.3836 46.0452 27.3898C46.0349 27.388 46.0179 27.388 45.9995 27.3903C45.964 27.3934 45.9254 27.4029 45.8935 27.4141C45.8316 27.4352 45.7979 27.4608 45.7549 27.4895C45.6198 27.5734 45.0654 27.9859 44.653 28.4935C44.2252 28.9868 43.9407 29.546 43.8002 29.4939C43.6081 29.4289 43.7728 28.7507 44.2019 28.1497C44.6139 27.5371 45.2656 27.0806 45.4173 26.9881C45.4438 26.9706 45.5403 26.8966 45.6835 26.8436C45.8289 26.8041 45.9914 26.7233 46.2997 26.8302C46.3787 26.8652 46.4667 26.9302 46.5255 27.0258C46.5794 27.1237 46.6009 27.2139 46.5964 27.318C46.5789 27.5344 46.4573 27.6587 46.3742 27.7386C46.1961 27.8898 46.0717 27.9706 45.9137 28.0873C45.3146 28.5173 44.7203 28.8853 44.6058 28.7408Z" fill="#1E009F"/>
<path d="M44.7476 28.6565C44.6583 28.5052 45.2463 28.121 45.9806 28.0891C46.1624 28.0842 46.3325 28.0707 46.5623 28.1322C46.8764 28.2103 47.0825 28.4872 47.0506 28.7462C47.0407 29.0034 46.8114 29.191 46.6758 29.2624C46.5623 29.3252 46.4752 29.3531 46.4429 29.3652C46.297 29.4244 45.6448 29.6542 45.0026 29.6987C44.3607 29.7575 43.7656 29.6453 43.7786 29.4971C43.7934 29.2938 44.3531 29.2503 44.9267 29.1372C45.5039 29.0366 46.0955 28.853 46.2301 28.7992C46.2683 28.7853 46.3181 28.7669 46.3733 28.735C46.4043 28.7166 46.3845 28.7278 46.3922 28.7215C46.393 28.7188 46.3962 28.7153 46.3877 28.7085C46.3078 28.678 46.139 28.6672 45.9932 28.6605C45.3949 28.6255 44.832 28.8176 44.7476 28.6565Z" fill="#1E009F"/>
<path d="M44.1107 29.3488C43.784 29.2613 43.8621 29.0576 43.8459 29.0185C43.85 28.9826 43.7625 28.7977 44.0071 28.6433C44.1821 28.5396 44.3046 28.5872 44.3706 28.6819C44.4384 28.7752 44.4397 28.8982 44.4433 28.9243C44.4474 28.9494 44.4756 29.0755 44.4339 29.1909C44.394 29.3075 44.2894 29.3928 44.1107 29.3488Z" fill="#1E009F"/>
<path d="M45.3217 29.3819C45.2265 29.5268 45.0802 29.5138 44.9649 29.4312C44.8486 29.3518 44.7822 29.2171 44.7665 29.1907C44.7499 29.1651 44.6753 29.0466 44.665 28.9151C44.6516 28.7836 44.7041 28.6579 44.8513 28.6372C45.244 28.5892 45.2459 28.8374 45.2818 28.8738C45.2943 28.9214 45.5075 29.0793 45.3217 29.3819Z" fill="#1E009F"/>
<path d="M45.9294 29.3707C45.7311 29.6754 45.4303 29.3226 45.4142 29.2742C45.3688 29.2436 45.1381 28.8936 45.4245 28.7724C45.7921 28.6148 45.8455 28.8599 45.8792 28.8877C45.8976 28.9254 46.1215 29.0668 45.9294 29.3707Z" fill="#1E009F"/>
<path d="M45.5726 29.2266C45.3545 28.9546 45.6732 28.7881 45.7073 28.7612C45.7409 28.7342 45.9856 28.5134 46.1718 28.7463C46.4272 29.0646 46.1189 29.2055 46.0852 29.2329C46.0515 29.2603 45.8029 29.5143 45.5726 29.2266Z" fill="#1E009F"/>
<path d="M45.3361 29.1262C45.2176 29.4538 44.9622 29.2882 44.9281 29.2761C44.894 29.2635 44.6278 29.1872 44.7284 28.9067C44.8671 28.5239 45.0991 28.6949 45.1332 28.707C45.1673 28.7191 45.4609 28.7797 45.3361 29.1262Z" fill="#1E009F"/>
<path d="M45.3397 29.3257C45.3442 29.4994 45.1862 29.573 45.0129 29.5807C44.8401 29.5914 44.6655 29.5353 44.6278 29.5255C44.547 29.5273 43.9685 29.3275 44.1144 29.0483C44.2975 28.6987 44.6934 28.9348 44.7652 28.937C44.8285 28.9684 45.324 28.9725 45.3397 29.3257Z" fill="#1E009F"/>
<path d="M2.83388 37.124C2.55021 36.9467 2.89358 36.4086 2.9084 36.3229C2.95014 36.251 3.08209 35.6689 3.36441 35.7133C3.78094 35.7834 3.5224 36.4562 3.47483 36.5329C3.46271 36.6245 3.16064 37.3278 2.83388 37.124Z" fill="#1E009F"/>
<path d="M7.17096 37.9891C6.83879 37.9514 6.92498 37.2346 6.90164 37.1413C6.90971 37.0484 6.78358 36.3863 7.06099 36.3158C7.47126 36.2166 7.51479 37.0008 7.50492 37.0986C7.53095 37.196 7.5534 38.0318 7.17096 37.9891Z" fill="#1E009F"/>
<path d="M1.20099 32.1171C1.23824 32.4637 0.680349 32.4542 0.612576 32.4614C0.545253 32.469 0.0344958 32.5431 0.00262915 32.2464C-0.0413558 31.8416 0.480175 31.8676 0.547948 31.8604C0.615272 31.8532 1.16105 31.7509 1.20099 32.1171Z" fill="#1E009F"/>
<path d="M3.46627 28.0559C3.27282 28.3458 2.98108 28.0675 2.94024 28.0406C2.89984 28.0137 2.58117 27.8238 2.74634 27.5761C2.97255 27.2368 3.23512 27.5105 3.27551 27.5375C3.31636 27.5644 3.67048 27.7489 3.46627 28.0559Z" fill="#1E009F"/>
<path d="M7.5237 29.583C7.19516 29.4654 7.47883 28.8819 7.50575 28.8074C7.53224 28.7329 7.7176 28.1611 7.99811 28.2621C8.38186 28.4003 8.10135 28.9376 8.07442 29.0121C8.04794 29.0866 7.87019 29.7082 7.5237 29.583Z" fill="#1E009F"/>
<path d="M43.1745 25.0428C42.9061 25.2658 42.6844 24.8902 42.6507 24.8498C42.6166 24.8094 42.3464 24.5127 42.5758 24.3224C42.8891 24.0621 43.0821 24.4225 43.1157 24.4633C43.1494 24.5042 43.4573 24.8076 43.1745 25.0428Z" fill="#1E009F"/>
<path d="M47.2315 24.5393C46.9411 24.3464 47.2185 24.0542 47.2458 24.0133C47.2723 23.9725 47.4613 23.6538 47.7099 23.819C48.0497 24.0443 47.7759 24.3069 47.7494 24.3477C47.722 24.3885 47.538 24.7431 47.2315 24.5393Z" fill="#1E009F"/>
<path d="M45.6731 32.7237C45.3464 32.8462 45.2463 32.3812 45.2261 32.3273C45.2055 32.2726 45.0336 31.8691 45.3127 31.7645C45.6947 31.6209 45.7719 32.0607 45.7921 32.1146C45.8123 32.1689 46.0178 32.5944 45.6731 32.7237Z" fill="#1E009F"/>
<path d="M49.5273 31.2834C49.2584 31.506 49.0371 31.1308 49.0039 31.09C48.9702 31.0491 48.6996 30.7529 48.929 30.5626C49.2427 30.3023 49.4353 30.6636 49.4689 30.704C49.5026 30.7444 49.8105 31.0487 49.5273 31.2834Z" fill="#1E009F"/>
<path d="M50.7373 26.7401C50.7373 27.0893 50.2966 27.0197 50.2427 27.0197C50.1884 27.0197 49.7777 27.0386 49.7777 26.7401C49.7777 26.3331 50.1884 26.4152 50.2427 26.4152C50.2966 26.4152 50.7373 26.3721 50.7373 26.7401Z" fill="#1E009F"/>
<path d="M34.8854 48.4105C34.946 48.4459 34.5053 49.1416 33.4016 49.6331C32.8585 49.8723 32.1556 50.0411 31.3859 49.9913C30.6179 49.9446 29.806 49.669 29.1197 49.1838C28.7764 48.9428 28.4591 48.6555 28.1942 48.3265C27.9362 47.9975 27.6911 47.6474 27.5605 47.2148C27.4972 47.0029 27.4622 46.7754 27.4846 46.5343C27.5071 46.2965 27.6112 46.0325 27.8033 45.8539C27.9864 45.673 28.2638 45.5649 28.5098 45.5819C28.7566 45.5922 28.9658 45.6798 29.1399 45.7888C29.486 46.0114 29.7203 46.3337 29.8159 46.6955C29.9016 47.0487 29.8639 47.3678 29.7831 47.6313C29.6152 48.16 29.3096 48.4495 29.1552 48.5895C28.9981 48.7237 28.6754 48.985 28.1359 49.0554C27.6 49.1268 26.9505 48.9078 26.4267 48.489C25.8845 48.081 25.4604 47.4899 24.9976 46.9827C24.7647 46.7282 24.5143 46.4944 24.2324 46.322C23.9523 46.1497 23.6323 46.0397 23.3015 45.9877C22.6354 45.8867 21.9415 46.0222 21.3643 46.2772C20.7835 46.537 20.2993 46.9055 19.9155 47.2493C19.1525 47.9482 18.727 48.5034 18.6597 48.4495C18.5874 48.3965 18.9052 47.7695 19.6431 46.9675C20.0156 46.5725 20.5107 46.1434 21.152 45.8225C21.7925 45.5083 22.5771 45.3238 23.3809 45.4262C23.78 45.4796 24.1803 45.6084 24.5349 45.8189C24.8886 46.0289 25.1821 46.3014 25.4366 46.5743C25.9447 47.1259 26.3392 47.6654 26.797 48.0052C27.2445 48.3593 27.718 48.4966 28.0654 48.4517C28.4133 48.41 28.6458 48.2314 28.7571 48.1344C28.8661 48.037 29.087 47.8211 29.2014 47.4549C29.3213 47.0913 29.2688 46.5886 28.8132 46.305C28.5964 46.1681 28.3675 46.1456 28.2261 46.2924C28.0717 46.423 28.0421 46.7278 28.1386 47.0438C28.2248 47.3521 28.4303 47.6645 28.6534 47.9558C28.8796 48.2448 29.1534 48.5007 29.4505 48.7184C30.0461 49.1578 30.753 49.4185 31.4267 49.4863C32.1036 49.5577 32.7432 49.4423 33.2562 49.2641C34.2943 48.9006 34.8114 48.3319 34.8854 48.4105Z" fill="#1E009F"/>
<path d="M37.4344 46.6421C37.4909 46.7013 37.3473 46.9369 36.9994 47.1627C36.657 47.3867 36.1045 47.5716 35.5183 47.5375C35.2239 47.5213 34.9375 47.467 34.6548 47.3427C34.3787 47.2184 34.0825 46.9877 34.0102 46.6142C33.9514 46.2794 34.0888 45.9531 34.3554 45.7978C34.6233 45.6488 34.8706 45.7372 34.955 45.7821C35.0524 45.8274 35.2073 45.9378 35.3105 46.1344C35.3617 46.2327 35.4034 46.353 35.4101 46.4984C35.4151 46.6546 35.38 46.7812 35.323 46.9145C35.2055 47.1744 35.0026 47.3683 34.8015 47.5281C34.6031 47.6851 34.3859 47.8315 34.1615 47.958C33.2607 48.4823 32.28 48.5756 32.2638 48.4262C32.2297 48.2264 33.096 47.9944 33.8666 47.4737C34.2427 47.2228 34.67 46.9033 34.7661 46.6676C34.8729 46.4553 34.7037 46.3274 34.6911 46.3265C34.6759 46.3189 34.6709 46.3189 34.6588 46.3247C34.6516 46.3185 34.5915 46.4033 34.6108 46.5043C34.6162 46.5761 34.723 46.7134 34.9074 46.7956C35.0901 46.8831 35.3316 46.9437 35.5591 46.9679C36.025 47.024 36.4891 46.9253 36.8204 46.8081C37.1539 46.6928 37.3702 46.5707 37.4344 46.6421Z" fill="#1E009F"/>
<path d="M27.6072 15.6828C27.4308 15.672 27.4438 14.2999 27.3733 12.8498C27.3163 11.3987 27.1642 9.87041 27.1211 9.53738C27.0843 9.20389 26.8935 7.77481 26.6355 6.44043C26.3936 5.10291 26.0928 3.85964 26.2387 3.8161C26.4308 3.75776 26.8814 4.97544 27.1902 6.32284C27.5147 7.66664 27.6844 9.12669 27.7212 9.46511C27.7652 9.80263 27.9483 11.3574 27.9442 12.8345C27.9532 14.3121 27.7885 15.6945 27.6072 15.6828Z" fill="#1E009F"/>
<path d="M25.626 1.8862C25.5381 1.89338 25.473 1.76815 25.4079 1.60208C25.3473 1.4405 25.2517 1.2318 25.1435 1.17076C25.0879 1.13171 25.0089 1.10882 24.9568 1.11061C24.9003 1.11286 24.8931 1.12453 24.8805 1.13575C24.8487 1.15684 24.8478 1.27264 24.859 1.31124C24.8496 1.37318 25.039 1.79957 25.3478 2.12139C25.639 2.45263 26.0215 2.66089 25.9743 2.80138C25.9178 2.99797 25.3864 2.9046 24.9591 2.53431C24.5228 2.18243 24.2778 1.61061 24.2652 1.42524C24.258 1.3844 24.2423 1.30765 24.2459 1.19006C24.2495 1.07695 24.2809 0.898767 24.4106 0.745715C24.5363 0.585481 24.7751 0.490776 24.9739 0.50828C25.1759 0.519501 25.3572 0.5985 25.5017 0.72552C25.8011 1.00873 25.8123 1.34311 25.8011 1.54598C25.7804 1.75513 25.7163 1.87947 25.626 1.8862Z" fill="#1E009F"/>
<path d="M25.8693 2.57957C25.7301 2.47454 25.9622 2.04636 26.091 1.56207C26.1601 1.32195 26.2095 1.06746 26.2319 0.865486C26.2526 0.668449 26.2189 0.638831 26.2149 0.633893C26.2041 0.630303 26.2198 0.604272 26.1058 0.61235C26.0546 0.619532 25.9846 0.643314 25.9316 0.685055C25.8738 0.729938 25.8477 0.757773 25.8132 0.849334C25.6938 1.18237 25.8428 1.703 25.6852 1.73711C25.5887 1.76718 25.4824 1.67921 25.385 1.50327C25.2934 1.33002 25.1947 1.04637 25.2651 0.703464C25.2925 0.545476 25.4047 0.334968 25.547 0.225004C25.6866 0.104269 25.8482 0.0373921 26.0084 0.0109112C26.1686 -0.0160186 26.3351 0.00732493 26.4621 0.0715077C26.5887 0.137037 26.6646 0.222309 26.6969 0.26809C26.7871 0.349329 26.8885 0.669802 26.84 0.928329C26.8118 1.17788 26.7445 1.47366 26.6314 1.7461C26.4132 2.29861 26.0129 2.69402 25.8693 2.57957Z" fill="#1E009F"/>
</svg>
