<svg width="52" height="50" viewBox="0 0 52 50" fill="none" xmlns="http://www.w3.org/2000/svg">
<path d="M28.8685 34.7593C28.8988 34.7514 28.9578 34.8654 28.9425 35.0668C28.9299 35.2668 28.8546 35.5469 28.7011 35.8679C28.3977 36.5122 27.7837 37.3216 26.89 38.1292C25.9968 38.9354 24.8231 39.7434 23.4448 40.3933C22.0696 41.0511 20.5 41.561 18.8714 41.8731C17.2427 42.1895 15.5601 42.3113 13.9528 42.2858C12.3409 42.269 10.7894 42.0741 9.43383 41.7359C6.69844 41.0879 4.84229 39.8435 4.22171 39.3918C3.90677 39.161 3.32667 38.7312 2.66701 38.0394C2.00782 37.3537 1.26583 36.3856 0.748056 35.1156C0.494522 34.4811 0.309362 33.767 0.261447 33.0064C0.218183 32.2477 0.298665 31.4457 0.554991 30.6832C1.05555 29.1448 2.15435 27.8292 3.41225 26.8825C4.67481 25.9256 6.08065 25.259 7.42974 24.8142C8.77975 24.3737 10.0535 24.1183 11.1499 23.9694C13.3466 23.6791 14.7906 23.8257 14.7874 23.9397C14.7901 24.1295 13.3676 24.2044 11.2611 24.6375C9.17797 25.0836 6.3007 25.8405 4.01377 27.6557C2.87681 28.5428 1.94966 29.7109 1.54168 30.9977C1.12672 32.2881 1.2742 33.6316 1.72544 34.7249C2.17436 35.8232 2.83262 36.6964 3.42714 37.3156C4.0212 37.9422 4.54409 38.3334 4.83158 38.5442C5.40424 38.9582 7.11107 40.0975 9.68456 40.7106C10.9601 41.0297 12.4269 41.2191 13.97 41.2451C15.5173 41.2805 17.1306 41.1795 18.6904 40.9027C21.8221 40.3812 24.6743 39.0391 26.4458 37.6068C27.3399 36.902 27.9833 36.2028 28.3536 35.6683C28.541 35.4017 28.6601 35.1784 28.7318 35.0203C28.8062 34.8626 28.8225 34.7639 28.8685 34.7593Z" fill="#1E009F"/>
<path d="M40.3743 22.1361C40.4125 22.0723 40.8395 22.2482 41.5615 22.6171C42.2831 22.9874 43.3051 23.5437 44.4988 24.3034C45.6846 25.0705 47.0616 26.0288 48.3679 27.3077C49.6705 28.5814 50.9042 30.1859 51.6164 32.1267C51.7862 32.6226 51.9155 33.1632 51.8904 33.7479C51.8727 34.3285 51.6443 34.9477 51.2521 35.3971C50.4534 36.3 49.369 36.6173 48.4088 36.8071C46.4424 37.2011 44.5095 36.9727 42.8929 36.5373C41.2685 36.0967 39.9161 35.4794 38.8829 34.9314C37.8488 34.3815 37.1212 33.9033 36.7369 33.6502C36.3583 33.3897 35.66 32.9203 34.8073 32.1928C33.956 31.468 32.9432 30.4813 32.0217 29.1857C31.5606 28.5395 31.1229 27.8175 30.7582 27.0234C30.3823 26.2131 30.1213 25.3124 30.0357 24.3616C29.9562 23.4177 30.0455 22.3826 30.5549 21.4555C31.0447 20.5209 32.0249 19.8482 33.0363 19.6756C34.0513 19.4895 35.0278 19.6598 35.9093 19.9059C36.7993 20.1636 37.5952 20.5046 38.3712 20.8284C39.9161 21.4903 41.2931 22.2123 42.4203 22.9032C44.6872 24.2774 45.9051 25.5353 45.8256 25.6167C45.7014 25.7618 44.3713 24.6979 42.0821 23.4902C40.9419 22.8813 39.5691 22.2305 38.0409 21.629C37.2761 21.3359 36.4722 21.0177 35.6637 20.8042C34.8538 20.593 34.0006 20.479 33.2275 20.6362C32.4594 20.786 31.797 21.2615 31.4443 21.9407C31.0764 22.6161 30.9912 23.46 31.0666 24.2685C31.1448 25.0822 31.376 25.8725 31.7076 26.5801C32.0449 27.3091 32.4501 27.9752 32.8786 28.5744C33.7345 29.7765 34.684 30.7069 35.4883 31.394C36.2931 32.0839 36.957 32.5337 37.318 32.7822C37.6836 33.0231 38.3823 33.479 39.3723 34.0019C40.3599 34.5234 41.6467 35.1054 43.1642 35.5171C44.6751 35.9255 46.4438 36.1307 48.2083 35.7864C49.0815 35.6315 49.9631 35.3217 50.4762 34.7355C50.9963 34.1713 50.9767 33.2962 50.6823 32.4444C50.0729 30.7083 48.9527 29.1643 47.7487 27.9259C46.5401 26.6745 45.2376 25.6892 44.1155 24.8719C42.9855 24.0606 42.017 23.427 41.3564 22.9609C40.6939 22.4957 40.3334 22.2054 40.3743 22.1361Z" fill="#1E009F"/>
<path d="M25.7698 27.2304C25.6898 27.363 25.1971 27.1904 24.4807 26.8922C23.7564 26.6075 22.8009 26.1995 21.7835 25.8715C19.7608 25.1723 17.5195 24.8262 17.0296 24.7788C16.5421 24.709 14.4217 24.5136 12.4237 24.6797C11.423 24.7332 10.4624 24.8793 9.73944 24.9607C9.0221 25.0654 8.5369 25.1007 8.50015 24.9751C8.45083 24.8086 8.88207 24.5615 9.58964 24.3001C10.3009 24.0619 11.2895 23.8163 12.3306 23.7042C14.4143 23.4199 16.6444 23.6684 17.1515 23.7414C17.6609 23.7902 20.0302 24.1066 22.1143 24.9416C23.1605 25.3366 24.1216 25.8487 24.7966 26.2837C25.4651 26.7331 25.8503 27.0983 25.7698 27.2304Z" fill="#1E009F"/>
<path d="M47.1658 36.2084C47.0332 36.2902 46.6318 35.8437 46.0596 35.1505C45.4725 34.4685 44.7054 33.54 43.8261 32.6663C42.104 30.88 39.9505 29.3681 39.4663 29.0675C38.9969 28.7438 36.8932 27.4486 34.7226 26.6178C33.6517 26.1698 32.5729 25.8456 31.7751 25.5781C30.9708 25.3385 30.4442 25.1473 30.4651 25.018C30.4925 24.8468 31.0624 24.8235 31.9263 24.9175C32.7823 25.0394 33.9308 25.2868 35.0655 25.7004C37.3678 26.4633 39.55 27.8562 40.0366 28.192C40.1645 28.2693 40.4018 28.4218 40.7097 28.6451C41.0191 28.8656 41.4164 29.1322 41.8332 29.4764C42.6943 30.1287 43.667 31.0391 44.5407 31.9862C45.4167 32.9329 46.1424 33.9582 46.6183 34.7523C47.0793 35.5585 47.297 36.1284 47.1658 36.2084Z" fill="#1E009F"/>
<path d="M35.8037 40.545C35.7247 40.671 35.052 40.3845 34.0737 39.8458C33.0977 39.3052 31.8109 38.5032 30.5912 37.503C29.3691 36.5103 28.2451 35.2887 27.5343 34.1382C26.8044 33.0031 26.4788 31.9992 26.3523 31.6508C26.2485 31.2954 25.9084 30.345 25.8726 29.0466C25.8512 28.4018 25.9057 27.6752 26.0903 26.943C26.2699 26.2084 26.5937 25.4878 26.9896 24.8398C27.7879 23.5377 28.869 22.5636 29.6924 21.9174C30.5256 21.2745 31.1234 20.9437 31.201 21.041C31.3132 21.1819 30.8489 21.6857 30.1427 22.424C29.444 23.1637 28.4954 24.1536 27.8335 25.3371C27.5041 25.9265 27.2399 26.5564 27.0966 27.1872C26.9482 27.8175 26.9054 28.4446 26.9249 29.0085C26.9556 30.1417 27.2501 31.0018 27.3431 31.3205C27.458 31.6345 27.7604 32.5365 28.4257 33.5735C29.0686 34.6169 30.0962 35.7627 31.228 36.7494C32.3557 37.7421 33.561 38.6028 34.4444 39.2685C35.3292 39.9332 35.8889 40.4082 35.8037 40.545Z" fill="#1E009F"/>
<path d="M51.1307 32.4673C51.1842 32.4255 51.3349 32.4938 51.5024 32.713C51.6722 32.9274 51.8397 33.3103 51.8769 33.7852C51.9723 34.7463 51.5317 35.9294 50.986 36.9626C50.4604 38.0116 49.8277 39.0723 49.1964 39.8687C48.5702 40.6711 47.966 41.1945 47.744 41.3778C47.524 41.5583 46.9355 42.0523 46.0363 42.4645C45.151 42.8827 43.908 43.1781 42.7143 42.9641C42.1226 42.8622 41.5997 42.6659 41.1359 42.4943C40.6716 42.3194 40.2618 42.1682 39.9096 42.0709C39.2099 41.8658 38.7326 41.9291 38.6959 41.7923C38.6387 41.6388 39.1685 41.3299 40.0268 41.4034C40.8726 41.4499 41.8988 41.8728 42.8571 41.9951C43.8187 42.1189 44.8338 41.8695 45.593 41.5094C46.3596 41.1564 46.8825 40.7344 47.0737 40.5772C47.2635 40.4195 47.7929 39.9492 48.3651 39.2183C48.9433 38.4917 49.5537 37.5022 50.1147 36.5002C50.6939 35.5153 51.1274 34.5426 51.1916 33.7908C51.28 33.0437 50.9911 32.5729 51.1307 32.4673Z" fill="#1E009F"/>
<path d="M26.7053 37.6005C26.542 37.5531 26.8556 36.6599 26.4411 35.395C26.2415 34.7717 25.8693 34.0808 25.2999 33.477C24.7301 32.8657 23.9755 32.3368 23.1377 31.9097C21.4499 31.0547 19.5087 30.5472 17.9349 30.302C16.3499 30.0522 15.1069 30.102 14.6659 30.0941C14.2254 30.1248 13.0456 30.1438 11.5612 30.4388C10.0772 30.7202 8.3043 31.2887 6.69657 32.0865C6.30068 32.2917 5.90293 32.5052 5.53263 32.7197C5.16931 32.9402 4.82414 33.1765 4.51664 33.4309C3.8956 33.9343 3.40946 34.4902 3.10755 35.0191C2.48325 36.0905 2.73492 36.9553 2.58373 36.9827C2.54187 36.9944 2.49163 36.9525 2.43441 36.8576C2.37347 36.7632 2.30972 36.6148 2.27251 36.4115C2.18784 36.0119 2.21157 35.3806 2.50093 34.7168C2.78423 34.052 3.29409 33.3737 3.95049 32.775C4.27659 32.4726 4.64364 32.1935 5.03487 31.9325C5.4289 31.6818 5.83037 31.4478 6.24579 31.2171C7.91819 30.3234 9.79108 29.7056 11.3579 29.406C12.9251 29.0916 14.1714 29.0813 14.6366 29.0501C15.1023 29.0576 16.4141 28.9934 18.0907 29.2586C19.764 29.5219 21.7923 30.0624 23.5978 31.037C24.4984 31.5264 25.3348 32.1544 25.954 32.896C26.5811 33.638 26.9551 34.479 27.104 35.2215C27.2594 35.9668 27.1896 36.6073 27.0626 37.0186C26.9333 37.4331 26.7737 37.6261 26.7053 37.6005Z" fill="#1E009F"/>
<path d="M30.3744 36.5113C30.4404 36.4978 30.5777 36.8444 30.6823 37.4919C30.7838 38.1381 30.7958 39.095 30.5665 40.2175C30.3344 41.3359 29.8473 42.6138 29.0495 43.8303C28.2498 45.0403 27.1831 46.2177 25.8819 47.1383C24.5891 48.0818 23.1051 48.7326 21.6402 49.1885C20.1679 49.6225 18.7136 49.8537 17.4092 49.9416C14.7948 50.117 12.7986 49.8486 12.0887 49.7723C11.3835 49.6737 9.47011 49.4974 7.11991 48.6702C6.53515 48.4604 5.92481 48.2078 5.31819 47.8845C4.70878 47.5682 4.09797 47.1881 3.5281 46.7248C2.95869 46.2633 2.40975 45.7404 1.95572 45.1314C1.5068 44.5178 1.10579 43.8517 0.847138 43.1455C0.280058 41.7462 0.104211 40.2845 0.0316395 38.9573C-0.0306974 37.624 0.0451281 36.4029 0.145611 35.3725C0.360534 33.3126 0.628034 31.9974 0.748521 32.0091C0.931345 32.0272 0.8797 33.3763 0.82155 35.4157C0.79922 36.435 0.78806 37.6292 0.895986 38.9019C1.01229 40.1678 1.21976 41.5345 1.75428 42.7761C2.25577 44.0275 3.12476 45.1026 4.17053 45.913C4.68458 46.3247 5.2405 46.6671 5.80153 46.955C6.35884 47.2495 6.92638 47.483 7.47392 47.6789C9.67572 48.4534 11.5296 48.6414 12.2129 48.7354C12.9 48.8098 14.8385 49.0559 17.3339 48.8889C18.5792 48.8061 19.9562 48.5888 21.342 48.1915C22.7162 47.7752 24.1156 47.1769 25.3111 46.3335C26.5258 45.5073 27.5413 44.4388 28.3238 43.3418C29.1044 42.2384 29.61 41.0796 29.8999 40.0566C30.4846 37.9897 30.1771 36.5359 30.3744 36.5113Z" fill="#1E009F"/>
<path d="M37.5045 40.217C37.3803 40.1263 37.4412 39.8797 37.4999 39.5429C37.5622 39.2163 37.598 38.747 37.4459 38.5051C37.2989 38.2641 37.0463 38.2017 36.7574 38.2873C36.4783 38.3715 36.3173 38.5516 36.2782 38.606C36.2364 38.6604 36.1024 38.8586 36.0433 39.1787C35.9791 39.5006 35.9968 39.9467 36.0847 40.3966C36.1712 40.8515 36.2964 41.3298 36.3285 41.7089C36.3652 42.0876 36.3108 42.3499 36.1847 42.3699C36.0098 42.3979 35.854 42.2001 35.6767 41.8931C35.5037 41.5833 35.2939 41.1511 35.1348 40.6338C34.9724 40.1142 34.9115 39.508 35.0064 38.9968C35.0957 38.4781 35.3381 38.112 35.4451 37.9766C35.546 37.8417 35.8605 37.4574 36.4476 37.2788C36.7351 37.1904 37.1044 37.1541 37.4813 37.2848C37.8641 37.4104 38.1786 37.7207 38.3349 38.0775C38.4856 38.439 38.4852 38.8005 38.4242 39.088C38.3637 39.3796 38.253 39.6178 38.1344 39.8016C37.8925 40.1691 37.6278 40.3096 37.5045 40.217Z" fill="#1E009F"/>
<path d="M38.1539 39.8233C38.0883 39.8465 37.9925 39.8019 37.9306 39.6558C37.8664 39.513 37.8594 39.2659 37.9734 39.0203C38.0869 38.7789 38.3032 38.5379 38.6307 38.3965C38.9527 38.2453 39.4411 38.2718 39.7682 38.4788C40.4613 38.8924 40.6879 39.6976 40.5627 40.3057C40.4413 40.8969 40.1306 41.2193 40.0422 41.3314C39.9463 41.4454 39.6737 41.7399 39.2411 41.9711C38.8178 42.2046 38.2758 42.3535 37.7855 42.4358C36.8174 42.5958 35.9093 42.6721 35.8516 42.4214C35.773 42.0776 36.6383 41.7436 37.5631 41.4821C38.0162 41.3524 38.4391 41.2142 38.7312 41.0504C39.0201 40.8941 39.1936 40.7169 39.2509 40.6499C39.3071 40.5834 39.4718 40.3815 39.5263 40.1089C39.5914 39.8749 39.4746 39.4809 39.2537 39.3208C39.1378 39.2362 39.0559 39.2083 38.9201 39.2222C38.7861 39.2408 38.6498 39.312 38.5507 39.3897C38.3465 39.5376 38.3032 39.7605 38.1539 39.8233Z" fill="#1E009F"/>
<path d="M1.03787 34.4145C0.989021 34.4275 0.842476 34.0498 0.856432 33.4417C0.860153 32.8356 1.06856 32.0294 1.45049 31.2911C2.20551 29.7904 3.53739 28.6209 3.81697 28.3757C4.09051 28.1175 5.36702 27.0675 6.78402 26.4539C8.18381 25.8022 9.62406 25.5933 9.63615 25.6915C9.66406 25.8338 8.28428 26.1395 6.95055 26.8084C5.59775 27.4411 4.35893 28.439 4.09283 28.6892C3.82302 28.9242 2.54744 30.0765 1.80079 31.4739C1.42119 32.1634 1.19464 32.8988 1.13044 33.4613C1.05554 34.0232 1.10951 34.4019 1.03787 34.4145Z" fill="#1E009F"/>
<path d="M26.6067 29.4002C26.5178 29.4858 25.9135 28.9257 25.2013 28.4275C24.4979 27.9171 23.6866 27.4831 23.5052 27.397C23.3275 27.3045 22.5455 26.9374 21.7695 26.6918C20.9992 26.428 20.2446 26.2806 20.2586 26.175C20.2758 26.0391 21.0689 26.0856 21.8821 26.3164C22.6999 26.529 23.5075 26.9272 23.6908 27.023C23.8778 27.1114 24.7324 27.5464 25.4367 28.1107C26.1508 28.6633 26.6979 29.3155 26.6067 29.4002Z" fill="#1E009F"/>
<path d="M2.03202 33.9169C2.14879 33.9481 2.1339 34.1947 2.11203 34.4496C2.08226 34.7487 2.05993 34.9753 2.05435 35.0315C2.05202 35.086 2.04318 35.2837 2.03016 35.5842C2.01573 35.8242 1.99806 36.055 1.89525 36.0685C1.75615 36.0876 1.66869 35.8563 1.63891 35.6C1.60542 35.3437 1.6324 35.0702 1.63705 35.0078C1.64031 34.9446 1.65287 34.6529 1.72219 34.3858C1.78964 34.1188 1.90967 33.8844 2.03202 33.9169Z" fill="#1E009F"/>
<path d="M27.5743 37.0697C27.4538 37.0427 27.5325 36.4668 27.4883 35.8588C27.459 35.2498 27.3008 34.6227 27.2575 34.4892C27.2212 34.3538 27.0296 33.7779 26.7472 33.2802C26.482 32.7731 26.1364 32.3535 26.2127 32.2791C26.3085 32.1814 26.757 32.5549 27.0835 33.0797C27.4269 33.5933 27.619 34.225 27.6576 34.3692C27.7041 34.5111 27.8953 35.1875 27.8828 35.8462C27.8856 36.5059 27.6948 37.0999 27.5743 37.0697Z" fill="#1E009F"/>
<path d="M7.65765 42.733C7.61951 42.8446 6.78075 42.6004 5.95316 42.184C5.12045 41.7798 4.32543 41.2025 4.1561 41.0745C3.98211 40.9522 3.2443 40.3995 2.64837 39.772C2.04036 39.156 1.5812 38.4857 1.66029 38.4252C1.7738 38.3364 2.30274 38.9262 2.92238 39.4919C3.5304 40.0702 4.23285 40.6182 4.40264 40.7377C4.56779 40.8619 5.347 41.4044 6.13552 41.8342C6.91752 42.2752 7.70045 42.6102 7.65765 42.733Z" fill="#1E009F"/>
<path d="M5.83409 42.736C5.79967 42.85 5.24236 42.7262 4.69342 42.4713C4.14169 42.2243 3.6216 41.8479 3.51088 41.7651C3.3969 41.6865 2.91216 41.3283 2.53256 40.9101C2.14458 40.4993 1.86825 40.0462 1.94966 39.9866C2.06456 39.901 2.41067 40.2732 2.80889 40.6319C3.19919 40.9994 3.64625 41.3506 3.75511 41.4264C3.86118 41.5055 4.36266 41.8456 4.86833 42.1173C5.36982 42.3969 5.87224 42.6127 5.83409 42.736Z" fill="#1E009F"/>
<path d="M4.83858 43.2321C4.79951 43.3451 4.40594 43.2563 4.01796 43.0809C3.62765 42.9106 3.25503 42.6548 3.17455 42.5994C3.09267 42.5464 2.74098 42.3096 2.45674 42.0309C2.16785 41.7574 1.95059 41.4522 2.02549 41.3829C2.1297 41.2866 2.41161 41.5076 2.71167 41.7337C3.008 41.9649 3.32806 42.2017 3.40668 42.2519C3.48344 42.3045 3.84304 42.5292 4.19334 42.7274C4.54131 42.9302 4.88138 43.1112 4.83858 43.2321Z" fill="#1E009F"/>
<path d="M40.0096 23.7733C39.932 23.8742 39.0067 23.2002 37.9009 22.7205C37.3533 22.4726 36.7709 22.2628 36.2894 22.1186C35.8065 21.9795 35.4274 21.899 35.2916 21.8702C35.1548 21.8455 34.7938 21.7767 34.3235 21.7199C33.8527 21.6687 33.2735 21.6362 32.7111 21.6464C32.1445 21.6497 31.6114 21.6985 31.2527 21.839C30.8917 21.9706 30.7186 22.1702 30.674 22.1349C30.6177 22.1028 30.7424 21.8115 31.1406 21.592C31.5304 21.3687 32.1217 21.2798 32.6962 21.2547C33.2782 21.2217 33.8806 21.2496 34.3691 21.3012C34.8571 21.3589 35.2311 21.4343 35.373 21.4603C35.5135 21.4901 35.908 21.5687 36.409 21.7134C36.9081 21.8637 37.5106 22.0869 38.0684 22.3633C39.1979 22.901 40.0873 23.6817 40.0096 23.7733Z" fill="#1E009F"/>
<path d="M46.4238 27.8237C46.4945 27.7283 47.4626 28.4238 48.3028 29.3654C49.1601 30.2925 49.844 31.442 49.9798 31.7035C50.0487 31.8328 50.2464 32.1715 50.4111 32.6585C50.572 33.1414 50.6855 33.802 50.4701 34.4202C50.2659 35.0255 49.7854 35.4781 49.3527 35.6284C48.9126 35.7861 48.6103 35.6661 48.6252 35.6265C48.634 35.5488 48.9108 35.5642 49.2448 35.3804C49.5765 35.2055 49.9487 34.8031 50.098 34.2979C50.2538 33.8043 50.1594 33.2247 50.0115 32.7925C49.8631 32.3534 49.6802 32.0282 49.6146 31.9058C49.4876 31.6607 48.8066 30.5526 48.0064 29.6264C47.2235 28.6843 46.3438 27.9247 46.4238 27.8237Z" fill="#1E009F"/>
<path d="M49.3034 32.7399C49.4001 32.6724 49.7183 33.1051 49.7909 33.6591C49.8839 34.2076 49.7225 34.7798 49.6825 34.8952C49.6527 35.0138 49.4741 35.5422 49.1196 35.92C48.7833 36.3168 48.3223 36.4987 48.2818 36.4084C48.2153 36.2796 48.5637 36.0363 48.8159 35.672C49.0889 35.3245 49.2555 34.8789 49.2829 34.7742C49.3173 34.6719 49.4392 34.1792 49.3992 33.7052C49.3787 33.2293 49.1927 32.8083 49.3034 32.7399Z" fill="#1E009F"/>
<path d="M41.8202 41.1792C41.843 41.0573 42.5901 41.1494 43.3735 41.0438C44.1597 40.9601 44.9501 40.6735 45.1152 40.6C45.2845 40.5363 46.0042 40.2125 46.5899 39.7584C47.1933 39.3276 47.6445 38.7866 47.731 38.8513C47.8431 38.9276 47.451 39.5672 46.8327 40.0659C46.2345 40.586 45.4539 40.9191 45.2743 40.9861C45.0999 41.0643 44.2574 41.3904 43.4121 41.4364C42.5678 41.5053 41.7923 41.2997 41.8202 41.1792Z" fill="#1E009F"/>
<path d="M42.9753 40.534C42.9785 40.4121 43.3423 40.373 43.714 40.2869C44.0885 40.2083 44.4704 40.0785 44.5518 40.0441C44.6346 40.0134 44.9826 39.8636 45.2929 39.6836C45.6083 39.5119 45.8869 39.3123 45.959 39.3882C46.0558 39.4877 45.8283 39.7841 45.5059 40.0125C45.1896 40.2488 44.7961 40.3995 44.7063 40.4325C44.6179 40.4697 44.2001 40.633 43.7815 40.6758C43.3632 40.7265 42.9702 40.6596 42.9753 40.534Z" fill="#1E009F"/>
<path d="M43.3 40.0324C43.2181 39.8059 43.8466 39.6305 43.922 39.6035C43.9969 39.5765 44.5625 39.3588 44.6323 39.5523C44.7277 39.8175 44.1383 39.9691 44.0634 39.9966C43.988 40.0236 43.3861 40.272 43.3 40.0324Z" fill="#1E009F"/>
<path d="M28.8704 38.5614C28.634 38.6089 28.5433 37.9111 28.5261 37.8269C28.5094 37.7422 28.3679 37.1039 28.5698 37.0635C28.8462 37.0081 28.9188 37.6599 28.936 37.7445C28.9527 37.8292 29.1197 38.5112 28.8704 38.5614Z" fill="#1E009F"/>
<path d="M28.2047 38.409C28.1191 38.4932 28.0097 38.4495 27.9404 38.3555C27.8693 38.2639 27.852 38.1415 27.8479 38.1169C27.8418 38.0927 27.8181 37.9796 27.8488 37.8763C27.8758 37.7717 27.953 37.6945 28.0502 37.7275C28.3033 37.8205 28.2377 37.9922 28.2563 38.0308C28.2517 38.0717 28.3698 38.2336 28.2047 38.409Z" fill="#1E009F"/>
<path d="M20.5312 18.5476C20.4023 18.6374 20.0706 18.2941 19.5482 17.8642C19.0351 17.44 18.2596 16.9464 17.4427 16.9729C17.0338 16.9766 16.6254 17.0934 16.329 17.2995C16.0262 17.5009 15.8513 17.7907 15.7722 18.0861C15.6191 18.6951 15.849 19.2445 15.9215 19.4054C16.0062 19.585 16.2179 20.033 16.7821 20.4545C17.325 20.8843 18.1647 21.2355 19.037 21.5198C19.9097 21.8036 20.8099 22.105 21.4197 22.4734C22.0371 22.833 22.3376 23.2117 22.2594 23.3057C22.1468 23.449 21.7486 23.2745 21.1346 23.0884C20.5224 22.8903 19.6762 22.6986 18.7546 22.4576C17.8367 22.2157 16.8519 21.8422 16.1458 21.2928C15.7964 21.0271 15.5084 20.7266 15.3196 20.4526C15.1288 20.1842 15.0288 19.9576 14.9697 19.8362C14.9158 19.7125 14.8097 19.4775 14.7362 19.1347C14.6613 18.7951 14.6204 18.3355 14.7506 17.821C14.8785 17.3111 15.2284 16.7636 15.748 16.4361C16.2588 16.1011 16.8733 15.962 17.4562 15.9862C18.0442 16.0043 18.6071 16.2132 19.0332 16.4835C19.4696 16.7533 19.7957 17.0836 20.0353 17.3813C20.5089 17.987 20.6563 18.4634 20.5312 18.5476Z" fill="#1E009F"/>
<path d="M22.3846 23.4903C22.3245 23.5168 22.172 23.3726 22.064 23.0298C21.9529 22.6893 21.9552 22.1515 22.1306 21.5793C22.3032 21.0071 22.6255 20.4079 22.9791 19.8059C23.341 19.2054 23.6676 18.596 23.9388 17.9158C24.4784 16.5807 24.7506 15.0586 24.7096 13.8965C24.6854 13.3136 24.5724 12.8182 24.4324 12.4618C24.2923 12.1041 24.1314 11.8845 24.0397 11.7808C23.8816 11.5677 23.3043 10.9941 22.3032 11.1486C21.8217 11.2202 21.282 11.4602 20.8824 11.8724C20.4665 12.2892 20.1684 12.8698 20.0051 13.4918C19.6725 14.7483 19.8836 16.0876 20.1865 16.9999C20.4879 17.9265 20.8461 18.4843 20.734 18.5676C20.6084 18.6718 20.0474 18.2229 19.5585 17.2539C19.0747 16.2993 18.7127 14.8027 19.0528 13.2629C19.2207 12.5023 19.5771 11.7366 20.1367 11.1541C20.7029 10.5559 21.443 10.2168 22.1422 10.1079C22.8456 9.99487 23.5173 10.1451 23.9821 10.3996C24.4459 10.6489 24.7106 10.9527 24.8422 11.1123C24.9808 11.2705 25.2195 11.597 25.4079 12.0729C25.5982 12.5474 25.7359 13.1624 25.7638 13.8491C25.8075 15.226 25.4912 16.8361 24.8492 18.2959C24.5352 19.0165 24.1179 19.7073 23.7201 20.2711C23.328 20.8419 22.9879 21.3555 22.7735 21.8175C22.5599 22.278 22.4734 22.68 22.4609 22.9749C22.4455 23.2698 22.466 23.4578 22.3846 23.4903Z" fill="#1E009F"/>
<path d="M31.8491 14.6864C31.6923 14.658 31.7556 13.9803 31.7156 12.9926C31.6821 12.0152 31.4378 10.688 30.5739 9.74739C30.1604 9.28312 29.6105 8.93841 29.0625 8.8328C28.5089 8.71883 27.9307 8.82629 27.5129 9.05052C26.6393 9.50316 26.5644 10.3326 26.5481 10.5894C26.5239 10.8555 26.5565 11.6259 27.051 12.56C27.2868 13.0331 27.6185 13.5495 27.9549 14.13C28.2954 14.7092 28.6066 15.3768 28.8113 16.0481C29.2425 17.3953 29.2863 18.783 29.1351 19.7697C28.9862 20.7638 28.695 21.3551 28.5801 21.3211C28.4024 21.2727 28.4726 20.647 28.4591 19.7185C28.4498 18.7923 28.3177 17.5488 27.8827 16.3593C27.6715 15.7601 27.3924 15.1977 27.0631 14.6567C26.737 14.1133 26.3843 13.5755 26.1136 13.0396C25.8382 12.5088 25.654 11.9659 25.5735 11.5235C25.4911 11.0779 25.4916 10.7248 25.5056 10.5308C25.5209 10.3396 25.54 9.95998 25.7428 9.48083C25.9373 9.00446 26.3746 8.44296 27.0193 8.11779C27.6539 7.78284 28.4624 7.63956 29.2718 7.81354C30.0915 7.98753 30.8075 8.48577 31.3187 9.1003C31.8337 9.71483 32.1533 10.4438 32.305 11.1369C32.4571 11.8292 32.4562 12.4767 32.4013 13.0103C32.2803 14.0807 31.9947 14.7162 31.8491 14.6864Z" fill="#1E009F"/>
<path d="M31.7998 15.3517C31.7309 15.3554 31.6472 15.2 31.6411 14.9004C31.6351 14.6036 31.7435 14.1714 32.0077 13.737C32.2692 13.3006 32.6739 12.8745 33.1544 12.4935C33.6359 12.1236 34.1681 11.7445 34.859 11.4961C35.5381 11.2486 36.395 11.2221 37.1022 11.6105C37.4548 11.8013 37.7646 12.1074 37.9386 12.4586C38.1209 12.8066 38.1856 13.1731 38.1861 13.503C38.1856 14.1677 37.9586 14.706 37.7041 15.086C37.4538 15.454 37.2166 15.6671 37.0942 15.7792C36.8584 16.015 36.1415 16.5216 35.213 16.9259C34.2933 17.3544 33.1619 17.787 32.144 18.2996C31.1229 18.8044 30.2423 19.4459 29.6831 20.0223C29.1156 20.5903 28.8416 21.0592 28.715 21.0039C28.561 20.9443 28.648 20.3386 29.1635 19.5878C29.6654 18.8337 30.6098 18.027 31.6812 17.4367C32.7483 16.8375 33.8876 16.3863 34.7668 15.9727C35.6614 15.5754 36.2164 15.1791 36.395 15.0032C36.5709 14.8376 37.1282 14.3408 37.1305 13.509C37.1333 13.1071 36.9724 12.7316 36.5993 12.5214C36.2173 12.3027 35.6805 12.2692 35.1688 12.433C34.6543 12.5874 34.1314 12.901 33.6722 13.1982C33.2182 13.4992 32.8372 13.8202 32.5674 14.1328C32.0087 14.752 31.9682 15.3447 31.7998 15.3517Z" fill="#1E009F"/>
<path d="M32.8157 29.3618C32.7683 29.3023 32.8251 29.1814 32.9386 29.0167C33.047 28.8548 33.2214 28.6338 33.2763 28.4054C33.3042 28.2938 33.3061 28.1612 33.2712 28.0704C33.2372 27.9788 33.1884 27.9462 33.1126 27.9193C33.0367 27.8937 32.8851 27.8904 32.7092 27.9318C32.5334 27.9672 32.344 28.0486 32.1268 28.1444C30.4228 28.8464 28.9751 30.2769 28.669 30.5798C28.5113 30.7305 28.1103 31.1515 27.6116 31.7181C27.1143 32.2829 26.5183 33.009 25.9443 33.7017C25.6907 34.006 25.4888 34.3707 25.4651 34.613C25.4432 34.8298 25.5326 34.9592 25.8089 35.0685C26.0717 35.168 26.383 35.2508 26.5676 35.3853C26.7598 35.5206 26.8095 35.6607 26.7663 35.7021C26.7035 35.7681 26.5835 35.7509 26.4164 35.75C26.2434 35.7425 26.0131 35.7681 25.6349 35.723C25.4512 35.6974 25.2009 35.6323 24.972 35.4346C24.752 35.2485 24.5975 34.9061 24.5994 34.6023C24.6022 33.9878 24.8757 33.5287 25.1646 33.1086C25.7131 32.3605 26.2983 31.6218 26.8156 31.0291C27.331 30.4388 27.7627 30.002 27.9307 29.841C28.0944 29.6773 28.5494 29.2135 29.217 28.6845C29.8827 28.1579 30.7828 27.5773 31.7593 27.2294C32.2203 27.061 32.8213 26.8326 33.4782 27.1247C33.8006 27.2782 34.0174 27.6197 34.0476 27.9169C34.0871 28.2151 34.0136 28.4659 33.9099 28.6682C33.6824 29.072 33.388 29.2279 33.1963 29.3232C32.9967 29.4116 32.8646 29.4237 32.8157 29.3618Z" fill="#1E009F"/>
<path d="M33.1284 29.3336C33.0423 29.2048 33.5149 28.8666 33.574 28.1622C33.6033 27.8264 33.4847 27.4565 33.1851 27.1718C32.8865 26.8825 32.4724 26.7741 32.0356 26.8843C31.1359 27.1244 30.2892 28.1278 29.5445 28.788C28.8104 29.4732 28.2442 30.0012 28.0409 30.191C27.8386 30.3808 27.3031 30.8837 26.6128 31.5317C25.9447 32.1979 24.9455 32.9045 24.6887 33.7433C24.551 34.175 24.5961 34.5825 24.8254 34.8742C25.0455 35.1705 25.439 35.3431 25.7898 35.4506C26.5081 35.658 27.0538 35.705 27.0491 35.8455C27.0482 36.0065 26.5295 36.1898 25.6512 36.1139C25.2241 36.0623 24.6464 35.9376 24.1705 35.4408C23.943 35.1984 23.7662 34.87 23.7006 34.5169C23.6327 34.1657 23.6592 33.8089 23.7462 33.4767C23.922 32.7966 24.3579 32.2625 24.7575 31.8494C25.1683 31.434 25.5442 31.0954 25.8912 30.7655C26.5839 30.1203 27.1221 29.6197 27.325 29.4304C27.5273 29.2397 28.0902 28.7089 28.8211 28.0194C29.1951 27.6752 29.5803 27.2984 30.052 26.8918C30.5218 26.4996 31.0866 26.0847 31.8174 25.9223C32.184 25.8483 32.572 25.8614 32.9339 25.9777C33.2958 26.0954 33.594 26.3154 33.8201 26.5703C34.2807 27.0802 34.3974 27.7901 34.2486 28.2851C34.1137 28.7884 33.8113 29.1052 33.575 29.2522C33.3335 29.402 33.1633 29.3992 33.1284 29.3336Z" fill="#1E009F"/>
<path d="M31.0778 26.6722C31.2615 26.9118 30.5809 27.5868 29.8334 28.2646C29.0835 28.9391 28.2652 29.6225 28.0912 29.7784C27.9163 29.9328 27.1775 30.6069 26.4583 31.2205C25.7363 31.8304 25.0306 32.3798 24.8459 32.1993C24.5947 31.9536 25.1232 31.2126 25.7814 30.5124C26.4365 29.8095 27.2194 29.155 27.3966 28.9982C27.5729 28.8401 28.3745 28.1069 29.2053 27.5031C30.0343 26.8964 30.8847 26.4205 31.0778 26.6722Z" fill="#1E009F"/>
<path d="M34.8226 35.9441C34.4472 36.4158 34.1402 36.0186 34.0936 35.9813C34.0467 35.9441 33.6712 35.6869 33.9918 35.2835C34.43 34.7327 34.697 35.1268 34.7435 35.164C34.7905 35.2012 35.2185 35.4463 34.8226 35.9441Z" fill="#1E009F"/>
<path d="M39.282 36.0421C38.7768 35.7141 39.1764 35.3192 39.2132 35.2624C39.2499 35.2061 39.5007 34.7595 39.9329 35.0401C40.5237 35.4229 40.1259 35.7746 40.0887 35.8314C40.0524 35.8877 39.8156 36.3887 39.282 36.0421Z" fill="#1E009F"/>
<path d="M42.9902 38.9276C43.2139 39.4872 42.7883 39.5282 42.7417 39.5468C42.6948 39.5654 42.3524 39.7375 42.1612 39.2593C41.8997 38.6057 42.3068 38.5959 42.3538 38.5773C42.4007 38.5583 42.7538 38.3368 42.9902 38.9276Z" fill="#1E009F"/>
<path d="M22.9977 15.0138C22.8795 14.9747 22.98 14.5835 23.0354 14.1946C23.1056 13.8015 23.0265 13.4242 22.9851 13.3581C22.9721 13.2935 22.7814 12.9813 22.4669 12.8655C22.3176 12.7999 22.1687 12.7952 22.057 12.8106C21.9454 12.8273 21.8617 12.8646 21.8226 12.8259C21.7747 12.7818 21.8049 12.6622 21.9542 12.5599C22.1012 12.4589 22.3618 12.4212 22.5883 12.4929C23.0684 12.6115 23.3461 13.0869 23.3722 13.2018C23.3973 13.2581 23.4508 13.4047 23.4736 13.6056C23.495 13.8052 23.4783 14.0476 23.4238 14.2653C23.314 14.7035 23.1135 15.0533 22.9977 15.0138Z" fill="#1E009F"/>
<path d="M28.4177 11.8665C28.3182 11.9297 28.1349 11.753 27.9884 11.5027C27.8335 11.2557 27.7888 10.9161 27.7967 10.8402C27.7879 10.7663 27.8014 10.4239 28.0102 10.182C28.107 10.0606 28.2475 9.97637 28.3605 9.95637C28.475 9.93636 28.548 9.96986 28.5541 10.0182C28.5606 10.1587 28.4108 10.2411 28.3294 10.409C28.2331 10.57 28.2089 10.7821 28.214 10.8254C28.2098 10.8719 28.2484 11.0994 28.3424 11.3282C28.4298 11.5576 28.5271 11.7976 28.4177 11.8665Z" fill="#1E009F"/>
<path d="M21.7221 40.4624C21.7575 40.5173 21.349 40.8076 20.9029 41.431C20.6749 41.7389 20.4316 42.1223 20.1381 42.5316C19.8506 42.9415 19.4771 43.3676 19.0309 43.71C18.141 44.4096 17.0343 44.7944 16.1392 44.9977C15.2363 45.2005 14.532 45.2526 14.2821 45.2824C14.0314 45.3103 13.3662 45.3642 12.5181 45.428C11.6733 45.4973 10.6345 45.5815 9.67899 45.8285C8.71881 46.0616 7.8954 46.5812 7.48975 47.1534C7.06502 47.7126 7.02361 48.1992 6.9636 48.1875C6.90313 48.195 6.85242 47.6577 7.26738 46.9985C7.47021 46.6752 7.78283 46.3398 8.18848 46.0699C8.59041 45.7978 9.07423 45.5936 9.57432 45.4508C10.5787 45.1693 11.6324 45.08 12.4846 45.0079C13.3378 44.9432 13.9933 44.8944 14.2403 44.8665C14.4864 44.8376 15.1781 44.7804 16.0443 44.5864C16.9068 44.3915 17.9544 44.0291 18.7904 43.3969C19.6403 42.787 20.1572 41.8524 20.6884 41.2602C21.2057 40.6466 21.6961 40.4089 21.7221 40.4624Z" fill="#1E009F"/>
<path d="M22.625 40.0751C22.6743 40.1068 22.4334 40.5757 22.0082 41.2637C21.5788 41.948 20.9606 42.8594 20.1534 43.6679C19.3584 44.4843 18.3261 45.1347 17.4055 45.4273C16.49 45.7301 15.7582 45.8041 15.501 45.845C15.2423 45.8841 14.5543 45.9558 13.6774 46.0195C12.8 46.0865 11.737 46.1618 10.7485 46.4289C9.7562 46.6796 8.86115 47.1313 8.31082 47.6086C7.74467 48.0724 7.51021 48.5092 7.45439 48.4744C7.40322 48.453 7.56743 47.9529 8.1294 47.4077C8.67368 46.8499 9.61571 46.333 10.6443 46.0511C11.6724 45.7511 12.7707 45.6673 13.6443 45.5994C14.5222 45.5352 15.1939 45.4692 15.4456 45.431C15.6959 45.3915 16.4072 45.3128 17.2692 45.0277C18.1335 44.7523 19.0956 44.1559 19.8766 43.3864C20.6656 42.6263 21.3043 41.7541 21.7807 41.1107C22.2543 40.4627 22.5701 40.0398 22.625 40.0751Z" fill="#1E009F"/>
<path d="M30.1608 40.5461C30.038 40.5395 30.018 39.9525 29.8929 39.3477C29.7812 38.7402 29.5584 38.1252 29.5016 37.9949C29.4509 37.8618 29.2034 37.2999 28.8876 36.8147C28.5861 36.3202 28.2251 35.9057 28.2991 35.8294C28.3935 35.7294 28.8508 36.0908 29.2109 36.5933C29.5844 37.0854 29.8352 37.6962 29.8882 37.8367C29.9482 37.9744 30.206 38.628 30.2822 39.283C30.372 39.9371 30.2855 40.5544 30.1608 40.5461Z" fill="#1E009F"/>
<path d="M30.2995 38.74C30.1794 38.7623 30.0617 38.3999 29.898 38.0371C29.7412 37.6709 29.5338 37.3048 29.4835 37.2281C29.4361 37.149 29.216 36.8206 28.9755 36.5345C28.742 36.2428 28.4899 35.9907 28.5536 35.9069C28.6369 35.7957 28.9746 35.9809 29.263 36.2688C29.5584 36.5493 29.7854 36.9201 29.8366 37.0048C29.891 37.0876 30.1362 37.4798 30.266 37.8947C30.4032 38.3074 30.4232 38.7181 30.2995 38.74Z" fill="#1E009F"/>
<path d="M30.5349 38.2309C30.3185 38.3379 29.8338 37.2479 29.7691 37.1168C29.7045 36.986 29.2011 35.9966 29.3858 35.9049C29.6384 35.7802 30.079 36.8009 30.1436 36.9316C30.2083 37.0632 30.7628 38.1183 30.5349 38.2309Z" fill="#1E009F"/>
<path d="M29.5319 36.7464C29.3319 36.8804 29.0662 36.397 29.029 36.3412C28.9913 36.2849 28.696 35.8672 28.8676 35.7527C29.1016 35.596 29.3388 36.0528 29.376 36.1086C29.4137 36.1649 29.7435 36.605 29.5319 36.7464Z" fill="#1E009F"/>
<path d="M28.7359 35.575C28.9769 35.575 28.929 35.8034 28.929 35.8313C28.929 35.8592 28.942 36.0723 28.7359 36.0723C28.4545 36.0723 28.5112 35.8592 28.5112 35.8313C28.5112 35.8034 28.4815 35.575 28.7359 35.575Z" fill="#1E009F"/>
<path d="M48.2376 27.9938C48.1525 28.0822 47.1779 27.2132 46.0907 26.3581C45.0105 25.4943 43.8131 24.6541 43.5466 24.4773C43.2837 24.2959 42.137 23.5395 41.0149 22.8943C39.9003 22.2369 38.8159 21.6843 38.8606 21.5885C38.9178 21.4628 40.0571 21.9253 41.2061 22.5528C42.3626 23.1669 43.5149 23.9479 43.7805 24.1312C44.0494 24.3099 45.2743 25.1449 46.3396 26.052C47.4133 26.9508 48.3246 27.904 48.2376 27.9938Z" fill="#1E009F"/>
<path d="M0.102812 37.058C-0.137225 37.0389 0.114909 34.4584 0.140029 34.1407C0.165149 33.8239 0.342852 31.4151 0.547999 31.4314C0.828973 31.4537 0.581955 33.8569 0.55637 34.1737C0.531249 34.491 0.356339 37.078 0.102812 37.058Z" fill="#1E009F"/>
<path d="M11.0048 18.2566C10.9736 18.3734 10.0758 18.1836 9.13144 17.9501C8.65414 17.8263 8.17498 17.7021 7.78282 17.6002C7.6842 17.5723 7.5972 17.5551 7.48602 17.5132C7.38321 17.4742 7.25203 17.3965 7.18922 17.2602C7.132 17.1485 7.132 16.9838 7.20225 16.882C7.26738 16.781 7.33343 16.7522 7.37251 16.7275C7.45438 16.6838 7.59022 16.6461 7.7577 16.647C7.8419 16.6484 7.93494 16.6573 8.03728 16.6852C8.08613 16.6977 8.14753 16.7215 8.19358 16.7433C8.23406 16.7629 8.27593 16.7833 8.3192 16.8038C8.65973 16.9713 9.07608 17.176 9.49243 17.3807C10.3047 17.791 11.055 18.2003 11.0108 18.2934C10.9504 18.4204 10.1553 18.1054 9.32449 17.7347C8.90907 17.5491 8.4848 17.3495 8.13869 17.1843C7.83864 17.0024 7.60138 17.0806 7.56556 17.0983C7.54928 17.0997 7.57022 17.1229 7.52323 17.0801C7.5144 17.0741 7.50463 17.0718 7.51207 17.0736C7.51207 17.0736 7.51021 17.0732 7.53207 17.0755C7.57161 17.0685 7.56975 17.0755 7.56789 17.0787C7.54277 17.0806 7.67814 17.1453 7.89167 17.1923C8.27918 17.3011 8.75462 17.4346 9.23331 17.5686C10.167 17.8435 11.0374 18.1338 11.0048 18.2566Z" fill="#1E009F"/>
<path d="M8.98072 17.5352C8.87605 17.752 8.28384 17.4119 8.20894 17.3752C8.13358 17.3389 7.55718 17.0742 7.64697 16.8886C7.76978 16.6355 8.31593 16.963 8.39083 16.9993C8.4662 17.036 9.09191 17.3063 8.98072 17.5352Z" fill="#1E009F"/>
<path d="M13.9151 10.9558C13.8137 11.0232 13.1931 10.157 12.3376 9.43688C11.9157 9.07216 11.4486 8.73813 11.0499 8.49762C10.9495 8.43901 10.8546 8.38366 10.7671 8.33295L10.662 8.2748C10.6136 8.25386 10.5899 8.22083 10.5582 8.19292C10.4987 8.1371 10.4968 8.03847 10.4959 7.9659C10.501 7.81098 10.6061 7.67328 10.6848 7.61373C10.7569 7.55558 10.822 7.52581 10.8685 7.50953C10.9485 7.46766 11.1848 7.44441 11.3695 7.55187C11.5649 7.65049 11.717 7.83425 11.8552 8.00637C12.1339 8.35481 12.4744 8.78047 12.8126 9.20334C13.4713 10.0426 14.0682 10.8469 13.9881 10.912C13.8793 11.0014 13.2019 10.2631 12.5093 9.45129C12.1632 9.03493 11.8152 8.61719 11.5291 8.27294C11.3886 8.09523 11.2728 7.97149 11.1779 7.92543C11.0765 7.87565 11.0495 7.89147 11.0113 7.90217C10.996 7.90682 10.9732 7.91845 10.9508 7.93659C10.9355 7.94962 10.9453 7.94218 10.942 7.94636L10.9425 7.94822L10.9718 7.96403C11.0657 8.01381 11.1634 8.07475 11.2686 8.13662C11.6863 8.38923 12.1739 8.74465 12.6 9.14193C13.4676 9.93092 14.023 10.8911 13.9151 10.9558Z" fill="#1E009F"/>
<path d="M12.0008 8.59574C11.8826 8.80555 11.3881 8.472 11.3244 8.43618C11.2606 8.39989 10.7717 8.13938 10.8731 7.96028C11.0113 7.71465 11.4658 8.0361 11.5295 8.07192C11.5933 8.10774 12.1259 8.37384 12.0008 8.59574Z" fill="#1E009F"/>
<path d="M21.4653 5.93601C21.3523 5.94205 21.2113 4.99816 20.8285 4.04915C20.648 3.57278 20.4354 3.08897 20.2609 2.69401C20.2009 2.5512 20.0702 2.43676 19.9878 2.39769C19.9711 2.39071 19.9571 2.38512 19.945 2.38047L19.9427 2.38093C19.9478 2.38419 19.9274 2.36 19.9595 2.47351C19.9948 2.57492 20.0986 2.75589 20.1832 2.93127C20.3619 3.29227 20.5796 3.73374 20.7973 4.17429C21.2155 5.04421 21.5853 5.87552 21.4956 5.92669C21.3732 5.99601 20.9094 5.21029 20.4479 4.352C20.219 3.91145 19.9906 3.4723 19.8022 3.10991C19.7101 2.91732 19.6264 2.78519 19.5636 2.6126C19.5333 2.52608 19.5138 2.42746 19.5273 2.32977C19.5399 2.22603 19.5896 2.15299 19.6241 2.1074C19.6608 2.06274 19.7245 1.999 19.8301 1.97388C19.9339 1.94318 20.08 1.97203 20.1669 2.01762C20.3549 2.11252 20.5293 2.26836 20.6466 2.52236C20.8219 2.92057 21.0336 3.41601 21.1997 3.9161C21.557 4.91442 21.6007 5.93228 21.4653 5.93601Z" fill="#1E009F"/>
<path d="M20.5656 3.819C20.3498 3.92646 20.0134 3.14306 19.9669 3.04909C19.9199 2.95559 19.5552 2.25173 19.7394 2.16009C19.9916 2.03448 20.2944 2.7695 20.3409 2.86301C20.3875 2.95652 20.7931 3.70549 20.5656 3.819Z" fill="#1E009F"/>
<path d="M30.0525 4.08109C29.938 4.089 29.8301 3.22187 29.7445 2.25984C29.7073 1.76998 29.6687 1.27036 29.6356 0.841911C29.6277 0.613963 29.6003 0.447417 29.5635 0.430204C29.5645 0.426482 29.5333 0.416249 29.5286 0.41904C29.53 0.424157 29.5137 0.370655 29.5063 0.367863C29.4979 0.356233 29.4989 0.361359 29.5091 0.365081L29.5742 0.273892C29.5798 0.312503 29.584 0.343217 29.5872 0.366012C29.6203 0.599542 29.7743 1.59926 29.9371 2.53896C30.0957 3.47959 30.2585 4.36115 30.1581 4.3858C30.0218 4.41883 29.7561 3.55495 29.5524 2.61385C29.3453 1.67415 29.2067 0.661404 29.1741 0.426013C29.1704 0.403219 29.1658 0.37205 29.1602 0.333439L29.1527 0.281808L29.1751 0.220864C29.2146 0.115264 29.3467 0.0129228 29.4733 0.0031538C29.5993 -0.0103369 29.7305 0.0138474 29.8538 0.12503C30.0697 0.352978 30.0348 0.61954 30.0566 0.813529C30.079 1.24012 30.1055 1.73928 30.1315 2.23332C30.1706 3.19908 30.1729 4.07318 30.0525 4.08109Z" fill="#1E009F"/>
<path d="M37.0477 6.78365C36.9816 6.69945 37.471 6.25192 38.0274 5.71228C38.306 5.44247 38.6033 5.15171 38.8661 4.88189C38.9969 4.74605 39.1206 4.61812 39.2318 4.50275L39.2718 4.45996L39.2727 4.45949H39.2732L39.2764 4.4581C39.2797 4.4567 39.2797 4.45344 39.2797 4.45344H39.2746L39.2713 4.45437L39.269 4.45577C39.2546 4.46693 39.2178 4.49903 39.1941 4.52276C38.9652 4.78746 38.6856 5.11124 38.4047 5.43642C37.8413 6.0784 37.2919 6.66363 37.2128 6.59757C37.1044 6.50778 37.5738 5.85603 38.1037 5.18567C38.3763 4.84607 38.6307 4.52229 38.8968 4.2241C38.9373 4.18456 38.9661 4.1585 39.0183 4.11663C39.0852 4.06825 39.1522 4.01848 39.2174 3.98917C39.3472 3.92218 39.462 3.89426 39.5495 3.89473C39.7235 3.89473 39.8258 3.96917 39.8789 4.01615C39.9017 4.04174 39.9347 4.07848 39.9761 4.125C39.9989 4.15292 40.0263 4.18595 40.058 4.2241C39.9147 4.38087 39.7384 4.57393 39.5388 4.79211C39.4253 4.90888 39.2988 5.03867 39.1648 5.17637C38.8931 5.44758 38.5819 5.73554 38.2809 5.99048C37.6794 6.50173 37.116 6.87064 37.0477 6.78365Z" fill="#1E009F"/>
<path d="M38.4726 4.8828C38.3023 4.71253 38.7168 4.36596 38.7638 4.31898C38.8103 4.27245 39.1559 3.90866 39.3016 4.05426C39.5007 4.25337 39.1057 4.56785 39.0592 4.61437C39.0122 4.66136 38.6526 5.06283 38.4726 4.8828Z" fill="#1E009F"/>
<path d="M41.9183 11.9069C41.8909 11.7897 42.8371 11.5212 43.8484 11.2682C44.3606 11.1463 44.8761 11.0235 45.2975 10.9225C45.3929 10.9007 45.425 10.8718 45.4218 10.8704C45.4227 10.8737 45.4273 10.8528 45.4129 10.8207C45.378 10.7541 45.3296 10.7318 45.3059 10.7276C45.2734 10.7183 45.2092 10.7085 45.0938 10.7351C44.9821 10.7602 44.8128 10.8327 44.6235 10.9076C44.2471 11.0593 43.7922 11.2584 43.3577 11.4687C42.4863 11.8822 41.7048 12.3479 41.6471 12.2618C41.568 12.146 42.3068 11.5826 43.1799 11.1198C43.6144 10.8853 44.0783 10.6746 44.4634 10.5178C44.6565 10.4425 44.8226 10.3675 44.997 10.3271C45.1673 10.2847 45.3287 10.2982 45.4111 10.3234C45.5004 10.3434 45.6855 10.4243 45.7911 10.6378C45.8409 10.7402 45.8828 10.9104 45.7865 11.0816C45.6888 11.2496 45.5134 11.3045 45.4004 11.3319C44.977 11.4249 44.4583 11.5389 43.9378 11.6529C42.9166 11.8641 41.9472 12.0311 41.9183 11.9069Z" fill="#1E009F"/>
<path d="M43.6763 11.2751C43.587 11.1955 43.7019 10.9992 43.8861 10.8499C44.0671 10.6968 44.3034 10.607 44.3527 10.588C44.4016 10.5666 44.6216 10.4791 44.8417 10.4665C45.0617 10.4479 45.265 10.5028 45.2608 10.6052C45.2562 10.7466 45.0831 10.7978 44.91 10.8522C44.7351 10.9015 44.5523 10.9569 44.5104 10.975C44.4681 10.9913 44.2848 11.0787 44.1132 11.1722C43.9392 11.262 43.7712 11.3611 43.6763 11.2751Z" fill="#1E009F"/>
<path d="M44.7658 10.7511C44.7295 10.5124 44.9621 10.5254 44.99 10.5213C45.018 10.5171 45.2264 10.4719 45.2575 10.6757C45.2999 10.9539 45.0812 10.9302 45.0533 10.9344C45.0259 10.9385 44.8044 11.0023 44.7658 10.7511Z" fill="#1E009F"/>
<path d="M44.2741 10.826C44.2378 10.5882 44.7718 10.5547 44.8365 10.545C44.9012 10.5347 45.3901 10.4468 45.4213 10.6506C45.4641 10.9288 44.9644 10.9478 44.8998 10.9576C44.8351 10.9674 44.3127 11.0776 44.2741 10.826Z" fill="#1E009F"/>
<path d="M41.141 18.1237C41.1228 18.0042 41.9932 17.8223 42.9227 17.6613C43.3949 17.5855 43.8685 17.5087 44.2564 17.4469C44.4058 17.4273 44.5374 17.3533 44.6114 17.2915C44.6932 17.2156 44.6765 17.2115 44.6784 17.2157C44.6751 17.2138 44.6877 17.2161 44.6588 17.2045C44.6174 17.1873 44.483 17.2133 44.2983 17.2715C43.9443 17.3724 43.5135 17.5045 43.0976 17.6404C42.2649 17.9079 41.4941 18.1991 41.4522 18.1051C41.3941 17.9772 42.1333 17.5855 42.9669 17.271C43.3828 17.1124 43.8196 16.9714 44.1801 16.8672C44.3481 16.8216 44.5444 16.7435 44.7658 16.7988C45.0035 16.8588 45.1031 17.091 45.0989 17.1887C45.117 17.3003 45.0217 17.5097 44.8854 17.6097C44.7486 17.7246 44.563 17.8279 44.3206 17.8641C43.934 17.9181 43.46 17.9842 42.9822 18.0516C42.0467 18.1702 41.1601 18.2493 41.141 18.1237Z" fill="#1E009F"/>
<path d="M42.798 17.6562C42.7287 17.5585 42.8785 17.3952 43.0795 17.2794C43.2781 17.1608 43.5168 17.0998 43.567 17.0859C43.6173 17.0701 43.8392 17.0063 44.0555 17.0049C44.2718 16.9989 44.47 17.0533 44.4672 17.1552C44.463 17.2966 44.2848 17.3482 44.1039 17.3938C43.8582 17.4483 43.7247 17.478 43.6838 17.4873C43.6447 17.5004 43.5112 17.546 43.2512 17.6348C43.0604 17.6981 42.8715 17.7609 42.798 17.6562Z" fill="#1E009F"/>
<path d="M44.4649 17.1909C44.4495 17.3114 44.2802 17.3393 44.1095 17.3676C43.9378 17.3923 43.7582 17.4197 43.7192 17.4295C43.6857 17.4388 43.5787 17.4681 43.3577 17.5286C43.1991 17.57 43.0427 17.6133 42.9865 17.5258C42.9102 17.4086 43.032 17.263 43.2032 17.169C43.3716 17.0709 43.5768 17.0327 43.6224 17.0229C43.668 17.0113 43.8824 16.9569 44.0899 16.9732C44.2974 16.9857 44.4816 17.0657 44.4649 17.1909Z" fill="#1E009F"/>
<path d="M44.1206 17.6654C43.9052 17.5575 44.1001 17.2746 44.1192 17.2374C44.1378 17.1997 44.2676 16.9104 44.4523 17.0025C44.704 17.1286 44.5114 17.3868 44.4928 17.424C44.4742 17.4612 44.3481 17.7794 44.1206 17.6654Z" fill="#1E009F"/>
<path d="M43.467 17.6542C43.4377 17.537 43.5474 17.4588 43.6591 17.3877C43.8229 17.2923 43.8963 17.249 43.9196 17.2355C43.9847 17.2146 44.2969 16.8904 44.4523 16.9987C44.5649 17.0825 44.5234 17.2314 44.4248 17.3532C44.3295 17.4765 44.1857 17.5607 44.1545 17.5807C44.1243 17.6026 43.9801 17.7049 43.8196 17.7482C43.6596 17.7938 43.4977 17.7775 43.467 17.6542Z" fill="#1E009F"/>
</svg>
